<svg width="270" height="249" fill="none" xmlns="http://www.w3.org/2000/svg"><path d="M102 236c-14 5-29 8-44 5-17-4-32-18-41-33-3-6-5-12-5-18 1-15 14-16 26-14 7 1 13 4 19 7 10 5 21 8 30 15 3 2 5 5 9 6l17 7c5 2 10 5 10 10 0 6-6 9-10 11l-11 4z" fill="url(#paint0_linear)"/><path d="M49 48c24-34 73-48 112-35 19 6 35 19 50 33 13 12 25 25 34 40 6 11 11 23 14 35 4 18 0 40-23 39l-15-4c-4-2-8-1-12-1-11-2-21-6-30-11-20-9-38-21-58-30-17-6-34-10-52-10-8 0-16 1-22-3-17-8-9-30-3-43l5-10z" fill="url(#paint1_linear)"/><path d="M234 54c4 3 19 13 19 1 0-2-1-5-3-7l-5-6-7-10c-5-6-10-11-17-14-5-1-13-1-16 5-3 9 11 11 16 14 4 3 6 9 10 13l3 4z" fill="url(#paint2_linear)"/><path d="M162 43c9 4 15 12 22 18 13 9 30 11 44 18 15 7 26 18 31 33 6 20 7 44 1 64-6 23-20 37-41 47a169 169 0 01-73 16c-49 0-115-17-132-70v-2l-3-18c-1-22 2-46 10-66 5-14 16-26 28-34 16-12 37-15 57-16 14-1 31-2 45 4 4 2 8 3 11 6z" fill="url(#paint3_linear)"/><path d="M194 233c-64 19-114 2-132-9l-17-13 6-10 37-3 61-4 50 10 9-5 2 18c2 13 1 10-16 16z" fill="#FB4C47"/><path d="M76 225h109s9-81-5-89-81-6-96 1c-15 6-8 88-8 88z" fill="#FB4C47"/><path d="M81 119h-1s-9-9-3-25l7-13c3-7 5-11 6-21l1-1 1 1c-1 10-4 15-7 21l-6 13c-6 15 2 24 3 24v1h-1zM141 24a12 12 0 11-25-1 12 12 0 0125 1z" fill="#000C3E"/><path d="M80 114s3 8 18 12 27-1 38 4 28 1 31-4c4-4 7-58-1-68-9-9-55-20-66-10-11 9-26 60-20 66z" fill="#000C3E"/><path d="M172 75c-1 23-20 41-42 40-23-1-44-21-43-44 1-22 20-39 43-38 22 1 43 20 42 42z" fill="#000C3E"/><path d="M148 110s3 31 0 35-19 1-24 0c-4-1-6-35-3-35 2 0 27-8 27 0z" fill="#FFCEB0"/><path d="M98 72s2 50 35 52c34 2 34-68 22-75-13-6-63-5-57 23z" fill="#FFCEB0"/><path d="M138 83s6 15 5 16h-8c-2-1 0-18 3-16z" fill="#EE9B68"/><path d="M124 46s-12 6-14 16c-2 11-1 39-14 38 0 0-25-55 28-54zM131 46c-1 1 12 1 20 10s9 33 11 33c1 1 6-29-3-38-8-8-22-10-28-5z" fill="#000C3E"/><path d="M121 120s13 7 27 0v10c-1 2-23 4-27-6v-4z" fill="#EE9B68"/><path d="M158 91s3-12 7-8c5 5 1 18-4 19-4 1-5-4-3-11zM106 89s-3-12-9-8c-5 4-1 17 4 19 6 1 7-4 5-11z" fill="#FFCEB0"/><path d="M145 76s5-4 10 0c3 4-5 1-7 2-3 1-6 1-3-2zM130 77s-5-4-10 0c-3 3 4 1 7 2s6 1 3-2z" fill="#41294A"/><path d="M124 81c-5 0-9 4-9 9-1 6 4 10 9 10a10 10 0 007-16c-1-2-4-3-6-3h-1zm0 20zM114 91l-9-4-1-1h1l9 4a1 1 0 010 1z" fill="#FFFCF6"/><path d="M135 50s-1 20 6 22c8 3 22 2 23-1s-14-26-25-30c-19-7-36 21-34 29 2 7 25 4 28 3 4-1 1-17 2-23z" fill="#000C3E"/><path d="M135 91a1 1 0 010-1l6-1 1 1h-1l-6 1z" fill="#FFFCF6"/><path d="M121 36v-1c-4-1-6-4-7-7-1-7 5-15 6-15a1 1 0 011 1s-6 7-5 13c1 3 2 5 6 7a1 1 0 01-1 2zM135 38a1 1 0 010-2s7-6 7-12c0-3-1-6-4-8a1 1 0 011-1c3 2 5 5 5 8 0 8-8 14-8 15h-1zM164 124a1 1 0 010-1c0-1 9-6 7-17l-3-15c-2-8-4-17-3-26l1-1v1c0 8 2 17 4 26l3 14c2 12-8 19-8 19h-1z" fill="#000C3E"/><path d="M172 79l-1-1c2-14-2-25-11-33-8-6-16-7-16-7a1 1 0 111-2s33 8 28 43h-1z" fill="#000C3E"/><path d="M139 115l-3-1a1 1 0 011-1h6v1l-4 1zM102 96a1 1 0 01-1-1c2-6-2-10-2-10a1 1 0 011-1s5 5 3 12h-1zM161 97l-1-1c1-6 4-9 5-9h1v1s-3 3-4 8l-1 1z" fill="#EE9B68"/><path d="M101 140s31 27 49 20c17-7 22-24 13-27-8-2-76-4-62 7z" fill="#FFCEB0"/><path d="M141 112c-3-1-4-3-4-4 0-3 3-5 4-5a1 1 0 111 2c-2 0-4 2-4 3l4 2a1 1 0 01-1 2z" fill="#EE9B68"/><path d="M127 93h-1c-4-4-7-3-7-3l-1-1v-1c1 0 5-2 10 3a1 1 0 01-1 2zM148 93a1 1 0 01-1-2c6-4 10-3 10-3a1 1 0 01-1 2s-3-1-7 3h-1z" fill="#41294A"/><path d="M224 112l-23-6-7 8-16-1 19 9 7-11 20 1zM204 96h-15l-2 6-10 2 13 2 2-8 12-2z" fill="#000C3E"/><path d="M152 79c-6 0-10 4-10 10 0 5 4 9 9 10h1c5 0 9-4 9-10 0-5-4-9-9-10zm0 21h-1a11 11 0 111 0z" fill="#FFFCF6"/><path d="M116 182s19-22 35-51c6-12 18-14 18-13 1 2-7 9-7 9s10-8 12-5c1 2-7 9-7 9s7-4 10-2-8 4-8 10c3 91-40 84-40 84l-13-41z" fill="#FFBD96"/><path d="M135 161a1 1 0 01-1-1c10-26 17-30 17-30a1 1 0 011 2s-6 4-16 29h-1z" fill="#EE9B68"/><path d="M107 198l-62 5s-2-30 7-45 34-22 38-23 17 63 17 63z" fill="#FB4C47"/><path d="M178 135s23 5 27 29c3 15 7 63 7 63l-10 4-10 3-19 4 5-103zM114 178s27 44 17 45c-9 1-56 5-68 0-13-5-20-11-18-24-1-21 5-46 9-40 17 29 60 19 60 19z" fill="#D9423D"/><path d="M111 179c-17 0-33-17-34-18a1 1 0 012-1s16 17 32 17a1 1 0 010 2zM182 222l-1-1v-45c-1-12-4-15-4-15l-1-2h2s4 3 5 17v45l-1 1z" fill="#B43936"/><path d="M133 13h-2l-1 2c-2 3 1 11 4 16 1-5 3-14 0-17l-1-1zm1 22l-1-1c-1-1-8-14-5-20 0-2 1-3 3-3 3 0 4 1 5 2 4 4 0 20-1 21a1 1 0 01-1 1z" fill="#FFD310"/><path d="M147 19c-4 0-8 8-11 13 5-2 13-6 14-10v-2l-3-1zm-13 16a1 1 0 01-1-1c1-2 7-17 14-18l4 3c1 1 2 2 1 4-1 6-16 11-17 12h-1z" fill="#FFD310"/><path d="M114 31c5 4 17 6 27 0" stroke="#FFD310" stroke-width="1.6"/><defs><linearGradient id="paint0_linear" x1="10.7" y1="191.9" x2="25.6" y2="243.7" gradientUnits="userSpaceOnUse"><stop stop-color="#FFD8D8"/><stop offset="1" stop-color="#FFF8F8"/></linearGradient><linearGradient id="paint1_linear" x1="259.3" y1="79.4" x2="102.8" y2="-19.4" gradientUnits="userSpaceOnUse"><stop stop-color="#FFF8F8"/><stop offset="1" stop-color="#FFCFCF"/></linearGradient><linearGradient id="paint2_linear" x1="253.8" y1="55.3" x2="196.5" y2="30.8" gradientUnits="userSpaceOnUse"><stop stop-color="#FFD7D7"/><stop offset="1" stop-color="#FFF9F9"/></linearGradient><linearGradient id="paint3_linear" x1="240.9" y1="216.6" x2="10.7" y2="83.3" gradientUnits="userSpaceOnUse"><stop stop-color="#FFCFCF"/><stop offset="1" stop-color="#FFF8F8"/></linearGradient></defs></svg>