<svg width="275" height="254" fill="none" xmlns="http://www.w3.org/2000/svg"><path d="M104 241c-14 5-29 7-45 4-18-3-33-18-41-33-4-6-6-12-6-18 1-15 15-17 27-14 7 1 13 4 19 7 10 5 22 8 31 15 3 2 5 5 9 6l17 7c5 2 10 5 10 11 0 5-5 8-10 11l-11 4z" fill="url(#paint0_linear)"/><path d="M50 49c24-35 74-49 114-36 20 6 36 20 51 34 13 12 26 25 35 41 6 11 11 23 14 35 4 18 0 42-23 40-6 0-10-2-15-4s-9-1-13-1c-11-2-21-6-31-11-20-9-38-22-59-30-17-7-35-11-53-11-7 0-16 1-22-3-17-8-10-31-3-44l5-10z" fill="url(#paint1_linear)"/><path d="M239 55c4 3 19 13 19 2 0-3-1-6-3-8l-5-7-7-9c-5-6-11-12-18-14-5-2-13-2-16 5-3 9 12 11 16 14s7 9 10 13l4 4z" fill="url(#paint2_linear)"/><path d="M166 43c8 5 14 13 22 19 13 10 30 12 45 19 14 7 26 17 31 33 6 20 7 45 1 65-6 23-20 39-41 49a172 172 0 01-75 16c-50 0-117-18-135-72v-1c-2-6-3-13-3-19-1-22 3-47 10-68 6-14 17-26 29-34 17-12 37-15 58-17 15-1 32-1 46 5l12 5z" fill="url(#paint3_linear)"/><path d="M188 99l-2 23-2 36-1 10a6735 6735 0 01-3 41c-1 3-10 10-32 10s-35 0-39-5l-2-9a831 831 0 01-10-78l-2-26h27l33-1 33-1z" fill="#FB4C47"/><path d="M186 122l-2 36c-9 3-34 7-83 1l-4-32c13 1 55 5 89-5zM181 201l-1 8c-1 3-10 10-32 10s-35 0-39-5l-2-9c11 2 44 6 74-4z" fill="#D9423D"/><path d="M191 100c-2 2-14 8-48 9l-9 1c-26 0-40-5-41-6v-8c1-1 11 4 39 3l11-1c33-2 43-7 46-7h1c1 1 2 7 1 9z" fill="#FF807C"/><path d="M189 92c-1 4-36 12-52 12h-5c-17-1-41-5-39-8 1-1 7-11 34-14h9a98 98 0 016 0c33 0 46 5 47 9v1z" fill="#C63F3B"/><path d="M151 103l-7 2h-9l-3-2v-2l-3-9v-1l-2-8-1-4v-3a374 374 0 00-5-15l-8 1c-7 0-16 1-17-1l-1-5c0-4 0-9 2-10l15-2h12l9 2a118 118 0 019 23l3 9v1l1 2a754 754 0 015 22z" fill="#F5C827"/><path d="M150 96l-8 2-11 3-2-9 10-3 8-2 3 9zM145 79l-8 2-10 2-1-4v-3l9-4 7-4a410 410 0 013 11zM140 60l-8 4-9 4-2-6 8-7 7-6 4 11zM123 44l-1 9-2 8h-7V44h10z" fill="#FFAE00"/><path opacity=".3" d="M150 89c8 0 17 1 25 3 2 0 3-4 1-4-9-2-17-3-26-3-2 0-2 4 0 4z" fill="#fff"/><g opacity=".3"><path opacity=".3" d="M176 120l-3 44c0 3 4 3 4 0l3-44c0-3-4-3-4 0zM175 176c2 0 2-5 0-5-3 0-3 5 0 5z" fill="#FFC7D3"/></g><defs><linearGradient id="paint0_linear" x1="10.9" y1="195.7" x2="26.1" y2="248.5" gradientUnits="userSpaceOnUse"><stop stop-color="#FFD0D0"/><stop offset="1" stop-color="#FFF7F7"/></linearGradient><linearGradient id="paint1_linear" x1="294.9" y1="54.5" x2="124.7" y2="15.2" gradientUnits="userSpaceOnUse"><stop stop-color="#FFF7F7"/><stop offset="1" stop-color="#FFD0D0"/></linearGradient><linearGradient id="paint2_linear" x1="258.8" y1="56.4" x2="200.4" y2="31.4" gradientUnits="userSpaceOnUse"><stop stop-color="#FFD0D0"/><stop offset="1" stop-color="#FFFBFC"/></linearGradient><linearGradient id="paint3_linear" x1="245.6" y1="220.8" x2="10.9" y2="84.9" gradientUnits="userSpaceOnUse"><stop stop-color="#FFCFCF"/><stop offset="1" stop-color="#FFF8F8"/></linearGradient></defs></svg>