<?xml version="1.0" encoding="utf-8"?>
<!-- Generator: Adobe Illustrator 15.0.0, SVG Export Plug-In . SVG Version: 6.00 Build 0)  -->
<!DOCTYPE svg PUBLIC "-//W3C//DTD SVG 1.1//EN" "http://www.w3.org/Graphics/SVG/1.1/DTD/svg11.dtd">
<svg version="1.1" id="Layer_1" xmlns="http://www.w3.org/2000/svg" xmlns:xlink="http://www.w3.org/1999/xlink" x="0px" y="0px"
	 width="691px" height="635px" viewBox="146.5 150 691 635" enable-background="new 146.5 150 691 635" xml:space="preserve">
<g opacity="0.62">
	
		<linearGradient id="SVGID_1_" gradientUnits="userSpaceOnUse" x1="279.7188" y1="310.0791" x2="328.7357" y2="173.9391" gradientTransform="matrix(1 0 0 -1 8.3398 933.04)">
		<stop  offset="0" style="stop-color:#FFD8D8"/>
		<stop  offset="1" style="stop-color:#FFF8F8"/>
	</linearGradient>
	<path fill="url(#SVGID_1_)" d="M414.319,770.925c-37.623,16.161-76.101,25.004-118.094,19.831
		c-46.807-5.77-89.491-42.718-114.725-80.696c-9.376-14.105-17.147-30.045-17.373-46.978c-0.507-39.117,36.038-45.878,67.712-41.613
		c17.855,2.396,34.563,9.411,51.083,16.361c27.427,11.548,59.009,16.046,84.022,32.901c8.395,5.674,14.881,12.725,24.46,16.627
		c14.9,6.072,31.603,8.31,46.854,13.728c13.023,4.653,27.77,12.742,28.688,26.535c0.925,14.146-13.245,24.125-25.847,30.603
		C432.183,762.836,423.283,767.091,414.319,770.925z"/>
	
		<linearGradient id="SVGID_2_" gradientUnits="userSpaceOnUse" x1="718.6211" y1="461.2437" x2="282.004" y2="698.5928" gradientTransform="matrix(1 0 0 -1 8.3398 933.04)">
		<stop  offset="0" style="stop-color:#FFF8F8"/>
		<stop  offset="1" style="stop-color:#FFCFCF"/>
	</linearGradient>
	<path fill="url(#SVGID_2_)" d="M239.723,277.325c57.023-97.099,185.05-142.948,293.082-114.893
		c52.095,13.537,97.123,45.867,138.919,79.752c36.843,29.864,72.813,62.321,99.236,102.08c18.042,27.138,31.844,60.18,42.092,91.2
		c15.326,46.446,8.183,108.048-53.182,107.574c-14.398-0.109-27.131-4.453-40.827-8.086c-11.079-2.947-21.559-0.063-32.93-1.112
		c-28.623-2.637-56.596-11.285-83.199-21.816c-54.22-21.487-104.486-52.206-159.999-70.513
		c-45.492-14.979-93.43-21.116-141.229-18.082c-20.165,1.284-41.272,4.079-59.896-3.76c-45.906-19.339-29.831-80.618-15.431-115.439
		C230.17,294.956,234.636,285.965,239.723,277.325z"/>
	
		<linearGradient id="SVGID_3_" gradientUnits="userSpaceOnUse" x1="786.1865" y1="689.6797" x2="628.467" y2="745.2015" gradientTransform="matrix(1 0 0 -1 8.3398 933.04)">
		<stop  offset="0" style="stop-color:#FFD7D7"/>
		<stop  offset="1" style="stop-color:#FFF9F9"/>
	</linearGradient>
	<path fill="url(#SVGID_3_)" d="M735.327,259.067c11.001,8.73,53.488,31.748,52.306,1.558c-0.305-7.52-4.186-14.588-9.18-19.784
		c-5.714-5.965-11.942-8.883-16.563-15.966c-5.646-8.547-11.958-16.515-18.854-23.8c-14.115-15.178-30.342-28.993-49.287-34.384
		c-13.288-3.776-35.199-1.178-40.281,15.868c-7.405,24.815,31.312,26.746,43.606,34.81c11.667,7.631,18.902,21.581,28.459,32.418
		C728.551,253.204,731.83,256.311,735.327,259.067z"/>
	
		<linearGradient id="SVGID_4_" gradientUnits="userSpaceOnUse" x1="785.2275" y1="261.4482" x2="145.0595" y2="578.3982" gradientTransform="matrix(1 0 0 -1 8.3398 933.04)">
		<stop  offset="0" style="stop-color:#FFCFCF"/>
		<stop  offset="1" style="stop-color:#FFF8F8"/>
	</linearGradient>
	<path fill="url(#SVGID_4_)" d="M541.326,242.136c22.846,11.518,40.616,29.83,61.695,44.135
		c35.093,23.814,81.216,26.144,120.693,41.721c40.255,15.895,71.614,42.634,87.644,83.076c20.704,52.2,26.48,115.508,15.427,171.285
		c-12.177,61.396-47.405,103.951-100.994,134.296c-53.557,30.325-114.006,46.792-174.938,53.353
		c-5.881,0.638-11.759,1.159-17.666,1.582c-132.686,9.436-312.417-25.753-366.917-165.396c-0.499-1.275-0.981-2.553-1.466-3.848
		c-5.693-15.582-9.501-31.79-11.341-48.278c-6.67-58.44-0.633-123.82,16.334-180.123c11.409-37.903,39.135-71.132,69.049-95.472
		c42.028-34.194,95.281-45.697,148.557-52.948c39.451-5.368,83.959-9.294,122.427,3.419
		C520.644,232.544,531.172,236.956,541.326,242.136z"/>
</g>
<path fill="#FB4C47" d="M467.175,455.624c1.602,3.81,5.987,5.601,9.797,4l15.69-6.592c7.987-3.356,16.646-4.84,25.29-4.239
	c2.577,0.18,5.245-0.308,7.754-1.565c6.647-3.329,9.854-11.223,7.417-18.246c-2.861-8.247-12.025-12.247-19.946-8.918
	c-2.145,0.901-3.971,2.244-5.414,3.879c-5.792,6.561-12.832,11.903-20.9,15.294l-15.688,6.591
	C467.365,447.427,465.574,451.814,467.175,455.624z"/>
<path fill="#C63F3B" d="M392.515,539.692c-3.163-1.292-6.773,0.226-8.065,3.389l-5.319,13.027
	c-2.707,6.631-6.902,12.561-12.306,17.262c-1.612,1.402-2.887,3.247-3.618,5.448c-1.939,5.833,0.799,12.322,6.331,15.004
	c6.494,3.147,14.188,0.129,16.874-6.447c0.728-1.781,1.009-3.633,0.897-5.432c-0.449-7.223,0.543-14.461,3.278-21.16l5.318-13.024
	C397.196,544.595,395.678,540.983,392.515,539.692z"/>
<path fill="#C63F3B" d="M440.488,422.205c3.31,1.351,7.089-0.236,8.44-3.547l5.565-13.631c2.834-6.939,7.223-13.145,12.878-18.064
	c1.686-1.467,3.02-3.397,3.786-5.701c2.029-6.104-0.837-12.895-6.625-15.701c-6.795-3.294-14.85-0.134-17.658,6.747
	c-0.761,1.864-1.056,3.802-0.939,5.685c0.471,7.557-0.567,15.132-3.43,22.142l-5.564,13.629
	C435.59,417.074,437.178,420.853,440.488,422.205z"/>
<path fill="#FB4C47" d="M438.948,524.774c-3.811,1.6-5.603,5.986-4.001,9.797l6.592,15.689c3.355,7.987,4.841,16.647,4.239,25.29
	c-0.18,2.576,0.309,5.245,1.564,7.753c3.331,6.648,11.224,9.856,18.247,7.418c8.247-2.861,12.246-12.024,8.918-19.945
	c-0.9-2.146-2.244-3.972-3.879-5.414c-6.561-5.792-11.903-12.832-15.293-20.901l-6.591-15.687
	C447.144,524.964,442.758,523.173,438.948,524.774z"/>
<path fill="#C63F3B" d="M470.627,565.363c-6.561-5.793-11.904-12.832-15.294-20.901l-6.591-15.688c-1.602-3.811-5.987-5.602-9.798-4
	c-3.811,1.601-5.602,5.986-4,9.797l6.591,15.688c3.391,8.069,8.732,15.108,15.294,20.901c1.635,1.442,2.978,3.268,3.879,5.414
	c2.144,5.103,1.243,10.719-1.871,14.836c2.222,0.288,4.53,0.084,6.751-0.688c8.246-2.861,12.246-12.025,8.918-19.945
	C473.605,568.631,472.262,566.806,470.627,565.363z"/>
<path fill="#FF8F8C" d="M355.029,469.224c12.446-5.229,18.297-19.559,13.067-32.005s-19.559-18.297-32.005-13.067
	c-12.447,5.229-18.297,19.559-13.067,32.005S342.583,474.453,355.029,469.224z"/>
<path fill="#FB4C47" d="M336.097,424.15c-2.406,1.012-4.563,2.365-6.444,3.979c10.295-0.896,20.434,4.847,24.651,14.886
	c4.219,10.04,1.225,21.302-6.622,28.027c2.469-0.215,4.945-0.808,7.353-1.819c12.447-5.229,18.297-19.558,13.067-32.005
	S348.543,418.921,336.097,424.15z"/>
<path fill="#FB4C47" d="M449.405,549.669c40.641-17.076,59.744-63.864,42.669-104.504c-17.075-40.641-63.863-59.744-104.504-42.669
	c-40.642,17.075-59.744,63.863-42.669,104.504S408.765,566.744,449.405,549.669z"/>
<path fill="#C63F3B" d="M387.57,402.495c-2.326,0.978-4.579,2.057-6.763,3.223c38.867-12.237,81.372,6.929,97.47,45.243
	c16.098,38.313,0.038,82.086-35.906,101.281c2.36-0.743,4.708-1.597,7.035-2.574c40.641-17.076,59.744-63.863,42.669-104.504
	C475,404.523,428.211,385.42,387.57,402.495z"/>
<path fill="#C63F3B" d="M441.796,454.281c8.255-3.468,12.136-12.973,8.667-21.228c-3.468-8.256-12.972-12.136-21.227-8.667
	c-8.256,3.469-12.137,12.973-8.667,21.228C424.037,453.869,433.541,457.75,441.796,454.281z"/>
<path fill="#FFFFFF" d="M429.234,424.387c-2.489,1.046-4.577,2.644-6.189,4.587c5.829,0.484,11.197,4.111,13.619,9.877
	c2.423,5.767,1.257,12.139-2.479,16.642c2.518,0.209,5.119-0.165,7.609-1.211c8.255-3.468,12.135-12.973,8.667-21.228
	C446.993,424.799,437.49,420.918,429.234,424.387z"/>
<path fill="#FFFFFF" d="M408.514,525.999c5.589-2.348,8.215-8.782,5.867-14.37s-8.781-8.215-14.369-5.867
	c-5.589,2.349-8.215,8.781-5.867,14.37C396.493,525.72,402.926,528.347,408.514,525.999z"/>
<path fill="#FB4C47" d="M497.278,523.422c7.62-3.202,11.202-11.975,8-19.595s-11.975-11.202-19.596-8.001
	c-7.62,3.202-11.201,11.975-8,19.595C480.885,523.041,489.657,526.623,497.278,523.422z"/>
<path fill="#C63F3B" d="M485.683,495.827c-2.514,1.056-4.586,2.722-6.122,4.749c5.125,0.654,9.773,3.941,11.92,9.049
	c2.145,5.106,1.24,10.728-1.88,14.846c2.523,0.322,5.162,0.009,7.677-1.048c7.621-3.202,11.201-11.975,8.001-19.595
	C502.076,496.208,493.303,492.625,485.683,495.827z"/>
<path fill="#C63F3B" d="M369.791,496.54c1.601,3.81-0.189,8.197-4,9.798l-15.689,6.592c-7.987,3.356-15.108,8.502-20.729,15.097
	c-1.675,1.966-3.891,3.529-6.545,4.441c-7.031,2.417-14.913-0.815-18.225-7.473c-3.887-7.816-0.328-17.16,7.592-20.488
	c2.146-0.901,4.383-1.265,6.56-1.151c8.74,0.454,17.483-0.833,25.552-4.225l15.688-6.591
	C363.804,490.939,368.191,492.73,369.791,496.54z"/>
<path fill="#FB4C47" d="M398.035,427.389c3.81-1.601,5.602-5.986,4.001-9.797l-6.593-15.69c-3.355-7.987-4.841-16.647-4.238-25.29
	c0.179-2.577-0.309-5.245-1.566-7.754c-3.33-6.647-11.222-9.855-18.247-7.417c-8.245,2.861-12.245,12.025-8.918,19.946
	c0.902,2.146,2.245,3.971,3.88,5.414c6.562,5.792,11.903,12.832,15.294,20.901l6.592,15.687
	C389.839,427.199,394.225,428.99,398.035,427.389z"/>
<path fill="#C63F3B" d="M389.64,368.858c-3.33-6.647-11.222-9.855-18.247-7.417c-2.934,1.017-5.325,2.836-7.046,5.11
	c4.808,0.623,9.219,3.559,11.496,8.104c1.256,2.509,1.745,5.177,1.565,7.754c-0.603,8.643,0.883,17.303,4.239,25.29l6.592,15.689
	c1.6,3.811,5.986,5.602,9.797,4c3.811-1.601,5.601-5.986,4-9.797l-6.592-15.69c-3.356-7.987-4.841-16.647-4.238-25.29
	C391.385,374.035,390.898,371.367,389.64,368.858z"/>
<path fill="#C63F3B" d="M514.738,420.452c-2.16,0.861-4.01,2.17-5.481,3.777c-0.26,0.283-0.526,0.563-0.792,0.842
	c5.438,0.77,10.291,4.514,12.147,10.197c1.588,4.862,0.495,10.086-2.525,13.915c0.298,0.021,0.597,0.039,0.896,0.065
	c2.571,0.227,5.246-0.212,7.776-1.422c6.704-3.206,10.054-11.034,7.747-18.097C531.798,421.436,522.714,417.272,514.738,420.452z"/>
<g opacity="0.63">
	<path fill="#FFC700" d="M573.882,595.025c1.216,1.716,3.593,2.122,5.311,0.905l7.068-5.006c3.6-2.549,7.739-4.242,12.101-4.896
		c1.3-0.195,2.571-0.732,3.68-1.633c2.936-2.39,3.659-6.666,1.673-9.887c-2.332-3.782-7.327-4.759-10.896-2.23
		c-0.967,0.685-1.726,1.553-2.263,2.524c-2.153,3.899-5.063,7.331-8.698,9.906l-7.068,5.006
		C573.072,590.93,572.666,593.308,573.882,595.025z"/>
	<path fill="#D09700" d="M540.189,635.854c-1.715-0.294-3.342,0.859-3.635,2.573l-1.206,7.061c-0.613,3.594-2.044,7.004-4.211,9.936
		c-0.646,0.874-1.075,1.931-1.195,3.106c-0.32,3.112,1.756,6.035,4.801,6.757c3.574,0.848,7.064-1.501,7.674-5.065
		c0.165-0.965,0.1-1.917-0.154-2.798c-1.02-3.54-1.325-7.246-0.705-10.877l1.206-7.058
		C543.056,637.774,541.903,636.147,540.189,635.854z"/>
	<path fill="#D09700" d="M551.068,572.179c1.794,0.307,3.497-0.898,3.803-2.692l1.262-7.389c0.643-3.761,2.139-7.329,4.406-10.396
		c0.676-0.915,1.126-2.021,1.252-3.251c0.335-3.257-1.838-6.315-5.024-7.071c-3.739-0.887-7.393,1.572-8.029,5.301
		c-0.173,1.011-0.105,2.006,0.159,2.929c1.068,3.703,1.388,7.582,0.739,11.382l-1.262,7.386
		C548.068,570.17,549.274,571.873,551.068,572.179z"/>
	<path fill="#FFC700" d="M561.613,623.32c-1.717,1.216-2.123,3.593-0.907,5.31l5.007,7.07c2.549,3.598,4.242,7.738,4.897,12.099
		c0.194,1.301,0.731,2.573,1.633,3.681c2.389,2.937,6.664,3.659,9.886,1.673c3.782-2.331,4.759-7.326,2.231-10.896
		c-0.686-0.967-1.554-1.726-2.525-2.263c-3.899-2.154-7.331-5.063-9.906-8.699l-5.006-7.068
		C565.707,622.511,563.33,622.104,561.613,623.32z"/>
	<path fill="#D09700" d="M581.835,639.993c-3.9-2.155-7.331-5.064-9.906-8.699l-5.006-7.069c-1.216-1.716-3.594-2.122-5.31-0.906
		c-1.717,1.216-2.123,3.594-0.907,5.31l5.006,7.069c2.575,3.635,6.006,6.544,9.906,8.698c0.971,0.536,1.84,1.296,2.524,2.263
		c1.629,2.299,1.801,5.189,0.707,7.579c1.137-0.103,2.261-0.458,3.279-1.086c3.782-2.332,4.758-7.327,2.231-10.896
		C583.675,641.288,582.806,640.529,581.835,639.993z"/>
	<path fill="#D09700" d="M513.789,604.973c5.607-3.971,6.934-11.736,2.962-17.345c-3.972-5.607-11.737-6.934-17.345-2.963
		c-5.608,3.972-6.936,11.738-2.963,17.346C500.415,607.619,508.181,608.945,513.789,604.973z"/>
	<path fill="#FFC700" d="M499.406,584.665c-1.084,0.768-2.006,1.679-2.765,2.688c5.018-1.58,10.689,0.154,13.894,4.679
		c3.204,4.522,2.958,10.448-0.199,14.657c1.203-0.38,2.369-0.947,3.453-1.716c5.607-3.972,6.935-11.736,2.963-17.345
		C512.78,582.021,505.014,580.694,499.406,584.665z"/>
	<path fill="#FFC700" d="M569.556,634.537c18.312-12.968,22.643-38.326,9.673-56.638c-12.969-18.312-38.326-22.643-56.638-9.674
		c-18.311,12.97-22.642,38.327-9.673,56.639S551.244,647.506,569.556,634.537z"/>
	<path fill="#D09700" d="M522.597,568.225c-1.048,0.743-2.048,1.528-3.004,2.349c17.963-10.369,41.2-5.534,53.426,11.729
		c12.227,17.264,9.075,40.786-6.668,54.29c1.091-0.63,2.163-1.313,3.212-2.055c18.312-12.969,22.643-38.327,9.674-56.638
		C566.267,559.587,540.909,555.256,522.597,568.225z"/>
	<path fill="#FFFFFF" d="M550.679,590.759c1.354-0.959,1.675-2.834,0.715-4.188c-0.959-1.355-2.834-1.676-4.188-0.717
		c-1.355,0.96-1.675,2.836-0.716,4.189C547.449,591.398,549.325,591.718,550.679,590.759z"/>
	<path fill="#FFFFFF" d="M546.622,627.287c2.518-1.784,3.114-5.271,1.331-7.789c-1.784-2.519-5.271-3.114-7.789-1.33
		c-2.518,1.783-3.114,5.271-1.33,7.789C540.617,628.475,544.104,629.07,546.622,627.287z"/>
	<path fill="#FFFFFF" d="M528.987,603.846c3.854-2.729,4.767-8.068,2.036-11.924c-2.73-3.854-8.069-4.767-11.925-2.037
		c-3.855,2.731-4.767,8.07-2.036,11.925C519.793,605.665,525.131,606.577,528.987,603.846z"/>
	<path fill="#FFC700" d="M590.446,616.213c3.434-2.432,4.246-7.187,1.813-10.62c-2.432-3.434-7.187-4.246-10.62-1.813
		c-3.434,2.432-4.246,7.187-1.813,10.62C582.258,617.833,587.013,618.646,590.446,616.213z"/>
	<path fill="#D09700" d="M581.641,603.779c-1.132,0.803-1.978,1.858-2.518,3.036c2.619-0.241,5.292,0.881,6.922,3.181
		c1.629,2.301,1.8,5.194,0.704,7.585c1.289-0.118,2.566-0.565,3.699-1.367c3.434-2.432,4.245-7.187,1.813-10.621
		C589.83,602.16,585.075,601.347,581.641,603.779z"/>
	<path fill="#D09700" d="M524.137,616.919c1.217,1.717,0.811,4.094-0.906,5.311l-7.069,5.007c-3.599,2.549-6.57,5.892-8.635,9.789
		c-0.615,1.161-1.544,2.183-2.763,2.929c-3.228,1.977-7.501,1.24-9.881-1.703c-2.793-3.455-2.057-8.491,1.512-11.018
		c0.968-0.686,2.038-1.112,3.134-1.297c4.393-0.737,8.596-2.343,12.23-4.918l7.069-5.006
		C520.544,614.797,522.921,615.203,524.137,616.919z"/>
	<path fill="#FFC700" d="M530.539,579.443c1.716-1.217,2.123-3.594,0.907-5.311l-5.007-7.068c-2.55-3.6-4.242-7.739-4.897-12.101
		c-0.195-1.3-0.732-2.572-1.633-3.68c-2.388-2.937-6.664-3.659-9.886-1.673c-3.782,2.332-4.759,7.327-2.231,10.896
		c0.685,0.967,1.554,1.726,2.525,2.262c3.899,2.155,7.331,5.063,9.905,8.699l5.006,7.068
		C526.445,580.253,528.822,580.659,530.539,579.443z"/>
	<path fill="#D09700" d="M519.907,551.284c-2.39-2.937-6.664-3.659-9.886-1.673c-1.347,0.83-2.334,1.997-2.938,3.316
		c2.458-0.22,4.974,0.752,6.607,2.759c0.9,1.108,1.438,2.381,1.633,3.682c0.655,4.361,2.348,8.501,4.896,12.099l5.007,7.07
		c1.216,1.716,3.594,2.123,5.311,0.907c1.716-1.217,2.122-3.595,0.907-5.311l-5.007-7.069c-2.55-3.6-4.242-7.738-4.897-12.1
		C521.345,553.664,520.808,552.392,519.907,551.284z"/>
</g>
<path fill="#1DB776" d="M625.172,511.392c-2.356-0.551-4.714,0.913-5.265,3.271l-2.268,9.706c-1.153,4.941-3.427,9.559-6.683,13.45
	c-0.971,1.16-1.657,2.594-1.924,4.215c-0.705,4.298,1.935,8.532,6.104,9.791c4.895,1.477,9.941-1.494,11.086-6.395
	c0.311-1.326,0.301-2.653,0.021-3.9c-1.12-5.002-1.234-10.178-0.068-15.169l2.268-9.704
	C628.994,514.3,627.529,511.942,625.172,511.392z"/>
<path fill="#128E5A" d="M610.973,447.088c1.699-1.056,2.222-3.29,1.165-4.99l-4.349-7.001c-2.214-3.563-3.584-7.591-3.956-11.77
	c-0.111-1.246-0.547-2.484-1.34-3.588c-2.101-2.925-6.118-3.857-9.292-2.156c-3.726,1.998-4.939,6.685-2.743,10.219
	c0.595,0.957,1.376,1.728,2.268,2.293c3.579,2.27,6.671,5.229,8.907,8.828l4.35,6.999
	C607.039,447.622,609.273,448.144,610.973,447.088z"/>
<path fill="#128E5A" d="M650.196,510.223c-1.779,1.106-2.325,3.443-1.221,5.223l4.552,7.325c2.316,3.729,3.75,7.944,4.139,12.316
	c0.116,1.304,0.573,2.6,1.403,3.755c2.196,3.062,6.401,4.036,9.723,2.256c3.898-2.09,5.168-6.995,2.871-10.692
	c-0.623-1.002-1.441-1.809-2.374-2.4c-3.745-2.375-6.98-5.471-9.321-9.238l-4.55-7.323
	C654.313,509.664,651.974,509.118,650.196,510.223z"/>
<path fill="#1DB776" d="M602.083,474.233c0.55-2.357-0.914-4.716-3.271-5.266l-9.707-2.267c-4.941-1.155-9.559-3.428-13.45-6.685
	c-1.16-0.971-2.593-1.656-4.215-1.923c-4.298-0.706-8.531,1.935-9.79,6.104c-1.479,4.895,1.492,9.94,6.393,11.086
	c1.328,0.31,2.655,0.301,3.901,0.021c5.002-1.12,10.177-1.232,15.169-0.066l9.705,2.267
	C599.175,478.054,601.532,476.59,602.083,474.233z"/>
<path fill="#128E5A" d="M571.946,475.305c5.002-1.121,10.177-1.233,15.169-0.067l9.705,2.267c2.356,0.55,4.714-0.914,5.265-3.271
	c0.55-2.357-0.914-4.715-3.271-5.266l-9.705-2.267c-4.992-1.166-10.167-1.053-15.169,0.067c-1.247,0.279-2.574,0.288-3.901-0.021
	c-3.157-0.737-5.511-3.095-6.393-5.987c-0.9,0.955-1.597,2.119-1.994,3.438c-1.479,4.894,1.492,9.94,6.393,11.085
	C569.372,475.593,570.699,475.584,571.946,475.305z"/>
<path fill="#128E5A" d="M657.274,453.534c-1.8,7.7,2.984,15.4,10.685,17.199s15.4-2.985,17.199-10.686s-2.985-15.4-10.686-17.199
	C666.771,441.05,659.072,445.834,657.274,453.534z"/>
<path fill="#1DB776" d="M685.16,460.049c0.348-1.489,0.447-2.977,0.329-4.424c-3.114,5.191-9.323,8.024-15.534,6.574
	c-6.211-1.451-10.522-6.742-11.014-12.775c-0.747,1.244-1.317,2.623-1.665,4.112c-1.8,7.7,2.984,15.399,10.685,17.199
	C675.661,472.534,683.362,467.749,685.16,460.049z"/>
<path fill="#1DB776" d="M586.681,470.637c-5.873,25.143,9.748,50.285,34.892,56.158c25.142,5.873,50.285-9.748,56.158-34.891
	s-9.748-50.285-34.892-56.158C617.697,429.873,592.554,445.494,586.681,470.637z"/>
<path fill="#128E5A" d="M677.739,491.903c0.336-1.439,0.598-2.878,0.796-4.314c-7.559,22.638-31.258,36.206-54.961,30.669
	c-23.703-5.536-38.94-28.2-35.688-51.843c-0.459,1.375-0.86,2.781-1.196,4.221c-5.873,25.144,9.747,50.285,34.89,56.158
	S671.866,517.046,677.739,491.903z"/>
<path fill="#128E5A" d="M634.529,499.818c-1.193,5.106,1.979,10.214,7.087,11.406c5.106,1.193,10.214-1.979,11.407-7.087
	c1.192-5.106-1.98-10.214-7.088-11.406C640.829,491.538,635.722,494.711,634.529,499.818z"/>
<path fill="#FFFFFF" d="M653.033,504.137c0.359-1.54,0.32-3.08-0.048-4.512c-2.233,2.598-5.798,3.896-9.365,3.063
	c-3.567-0.833-6.189-3.577-7.04-6.896c-0.964,1.121-1.682,2.484-2.042,4.024c-1.192,5.106,1.98,10.214,7.088,11.406
	C646.733,512.417,651.84,509.244,653.033,504.137z"/>
<path fill="#FFFFFF" d="M611.964,459.38c-0.807,3.457,1.341,6.915,4.798,7.722c3.457,0.809,6.915-1.34,7.723-4.797
	c0.808-3.458-1.341-6.915-4.799-7.723C616.229,453.775,612.771,455.923,611.964,459.38z"/>
<path fill="#1DB776" d="M582.671,502.36c-1.101,4.715,1.828,9.43,6.543,10.53c4.715,1.103,9.43-1.827,10.531-6.543
	c1.101-4.715-1.828-9.43-6.543-10.53C588.487,494.716,583.771,497.645,582.671,502.36z"/>
<path fill="#128E5A" d="M599.749,506.347c0.363-1.555,0.285-3.109-0.148-4.536c-2.071,2.206-5.229,3.28-8.389,2.542
	c-3.16-0.737-5.515-3.1-6.395-5.995c-1.021,1.087-1.779,2.445-2.144,4.002c-1.101,4.715,1.829,9.43,6.543,10.53
	C593.932,513.991,598.648,511.062,599.749,506.347z"/>
<path fill="#128E5A" d="M639.244,451.147c-2.357-0.552-3.822-2.908-3.271-5.266l2.268-9.707c1.153-4.94,1.162-10.087-0.033-15.019
	c-0.357-1.47-0.337-3.059,0.143-4.631c1.271-4.165,5.514-6.791,9.809-6.073c5.043,0.844,8.252,5.743,7.106,10.643
	c-0.31,1.327-0.906,2.514-1.709,3.506c-3.22,3.989-5.614,8.578-6.78,13.57l-2.268,9.705
	C643.958,450.233,641.601,451.697,639.244,451.147z"/>
<path fill="#1DB776" d="M662.332,488.307c-0.551,2.357,0.914,4.716,3.271,5.266l9.706,2.268c4.941,1.154,9.559,3.427,13.45,6.684
	c1.16,0.971,2.594,1.656,4.215,1.923c4.297,0.706,8.531-1.935,9.79-6.104c1.478-4.894-1.493-9.94-6.393-11.086
	c-1.328-0.31-2.655-0.3-3.901-0.021c-5.003,1.12-10.177,1.233-15.169,0.067l-9.705-2.267
	C665.24,484.486,662.883,485.95,662.332,488.307z"/>
<path fill="#128E5A" d="M692.973,504.444c4.299,0.706,8.532-1.935,9.791-6.104c0.525-1.741,0.486-3.501-0.001-5.098
	c-1.948,2.064-4.856,3.147-7.796,2.665c-1.621-0.267-3.055-0.952-4.215-1.923c-3.891-3.256-8.509-5.529-13.45-6.684l-9.706-2.268
	c-2.356-0.55-4.715,0.914-5.265,3.271c-0.551,2.358,0.913,4.715,3.271,5.266l9.706,2.268c4.942,1.154,9.56,3.427,13.45,6.683
	C689.919,503.492,691.352,504.178,692.973,504.444z"/>
<path fill="#128E5A" d="M626.221,545.437c0.31-1.325,0.301-2.652,0.021-3.898c-0.049-0.22-0.094-0.442-0.141-0.663
	c-2.19,2.356-5.615,3.433-8.97,2.42c-2.868-0.866-5.011-3.14-5.84-5.875c-0.11,0.136-0.218,0.274-0.331,0.408
	c-0.97,1.16-1.656,2.592-1.922,4.214c-0.705,4.295,1.933,8.527,6.101,9.786C620.032,553.305,625.076,550.335,626.221,545.437z"/>
</svg>
