<?xml version="1.0" encoding="utf-8"?><!--Generator: Adobe Illustrator 15.0.0, SVG Export Plug-In . SVG Version: 6.00 Build 0)--><!DOCTYPE svg PUBLIC "-//W3C//DTD SVG 1.1//EN" "http://www.w3.org/Graphics/SVG/1.1/DTD/svg11.dtd"><svg xmlns="http://www.w3.org/2000/svg" width="691" height="635" viewBox="146.5 150 691 635"><g opacity=".6"><linearGradient id="a" gradientUnits="userSpaceOnUse" x1="279.7" y1="310.1" x2="328.7" y2="173.9" gradientTransform="matrix(1 0 0 -1 8 933)"><stop offset="0" style="stop-color:#FFD8D8"/><stop offset="1" style="stop-color:#FFF8F8"/></linearGradient><path fill="url(#a)" d="M414 771c-37 16-76 25-118 20-47-6-89-43-114-81-10-14-18-30-18-47 0-39 36-46 68-42 18 3 34 10 51 17 27 11 59 16 84 33 8 5 15 12 24 16 15 6 32 9 47 14 13 5 28 13 29 27s-13 24-26 30l-27 13z"/><linearGradient id="b" gradientUnits="userSpaceOnUse" x1="718.6" y1="461.2" x2="282" y2="698.6" gradientTransform="matrix(1 0 0 -1 8 933)"><stop offset="0" style="stop-color:#FFF8F8"/><stop offset="1" style="stop-color:#FFCFCF"/></linearGradient><path fill="url(#b)" d="M240 277c57-97 185-143 293-115 52 14 97 46 139 80 37 30 73 63 99 102 18 27 32 60 42 91 15 47 8 109-53 108-15 0-27-4-41-8-11-3-22 0-33-1-29-3-56-11-83-22-54-21-105-52-160-70-46-15-94-22-141-19-20 2-42 5-60-3-46-20-30-81-16-116l14-27z"/><linearGradient id="c" gradientUnits="userSpaceOnUse" x1="786.2" y1="689.7" x2="628.5" y2="745.2" gradientTransform="matrix(1 0 0 -1 8 933)"><stop offset="0" style="stop-color:#FFD7D7"/><stop offset="1" style="stop-color:#FFF9F9"/></linearGradient><path fill="url(#c)" d="M735 259c11 9 54 32 53 2-1-8-5-15-10-20-5-6-11-9-16-16-6-9-12-17-19-24-14-15-30-29-49-34-14-4-35-1-41 16-7 24 32 26 44 34s19 22 29 33l9 9z"/><linearGradient id="d" gradientUnits="userSpaceOnUse" x1="785.2" y1="261.4" x2="145.1" y2="578.4" gradientTransform="matrix(1 0 0 -1 8 933)"><stop offset="0" style="stop-color:#FFCFCF"/><stop offset="1" style="stop-color:#FFF8F8"/></linearGradient><path fill="url(#d)" d="M541 242c23 12 41 30 62 44 35 24 81 26 121 42s71 43 87 83c21 52 27 116 16 171-12 62-48 104-101 135a453 453 0 01-193 55c-132 9-312-26-367-166l-1-4c-6-15-10-31-12-48-6-58 0-124 17-180 11-38 39-71 69-96 42-34 95-45 148-52 40-6 84-10 123 3l31 13z"/></g><path fill="#FB4C47" d="M467 456c2 3 6 5 10 4l16-7c8-3 16-5 25-4a15 15 0 0015-20 15 15 0 00-25-5c-6 7-13 12-21 15l-16 7c-4 1-5 6-4 10z"/><path fill="#C63F3B" d="M393 540c-4-2-7 0-9 3l-5 13c-3 7-7 13-12 17a12 12 0 003 21 12 12 0 0017-12c0-7 1-15 4-21l5-13c1-3 0-7-3-8zM440 422c4 2 8 0 9-3l5-14c3-7 8-13 13-18a13 13 0 10-21-9c0 8-1 15-3 22l-6 14c-1 3 0 7 3 8z"/><path fill="#FB4C47" d="M439 525c-4 1-6 6-4 10l7 15c3 8 4 17 4 26a15 15 0 1025-11c-7-5-12-12-16-21l-6-15c-2-4-6-6-10-4z"/><path fill="#C63F3B" d="M471 565c-7-5-12-12-16-21l-6-15a7 7 0 10-14 6l7 15c3 8 8 15 15 21a15 15 0 012 20h7a15 15 0 005-26z"/><path fill="#FF8F8C" d="M355 469a24 24 0 10-19-45 24 24 0 0019 45z"/><path fill="#FB4C47" d="M336 424l-6 4a24 24 0 0118 43 24 24 0 10-12-47z"/><path fill="#FB4C47" d="M449 550a80 80 0 10-61-148 80 80 0 0061 148z"/><path fill="#C63F3B" d="M388 402l-7 4a80 80 0 0161 146l7-2a80 80 0 10-61-148z"/><path fill="#C63F3B" d="M442 454a16 16 0 10-13-30 16 16 0 0013 30z"/><path fill="#FFF" d="M429 424l-6 5a16 16 0 0111 26c3 1 5 0 8-1a16 16 0 00-13-30zM409 526a11 11 0 10-9-20 11 11 0 009 20z"/><path fill="#FB4C47" d="M497 523a15 15 0 10-11-27 15 15 0 0011 27z"/><path fill="#C63F3B" d="M486 496c-3 1-5 3-6 5a15 15 0 0110 23c2 1 5 0 7-1a15 15 0 00-11-27zM370 497c1 3 0 8-4 9l-16 7c-8 3-15 8-21 15a15 15 0 01-24-3 15 15 0 0114-22c8 1 17 0 25-4l16-6c4-2 8 0 10 4z"/><path fill="#FB4C47" d="M398 427c4-1 6-6 4-9l-7-16c-3-8-4-17-4-25a15 15 0 10-25 10c7 6 12 13 16 21l6 15c2 4 6 6 10 4z"/><path fill="#C63F3B" d="M390 369a15 15 0 00-26-2 15 15 0 0113 15c0 9 1 18 5 26l6 15a7 7 0 1014-5l-7-16c-3-8-4-17-4-25l-1-8zM515 420a15 15 0 00-7 5 15 15 0 0110 24h1a15 15 0 0016-19c-3-9-12-13-20-10z"/><g opacity=".6"><path fill="#FFC700" d="M574 595c1 2 3 2 5 1l7-5c4-3 8-4 12-5a8 8 0 10-7-11l-9 10-7 5c-2 1-2 3-1 5z"/><path fill="#D09700" d="M540 636c-2 0-3 1-3 2l-2 7c0 4-2 7-4 10l-1 4c0 3 2 6 5 6a6 6 0 007-8v-10l1-8c0-1-1-3-3-3zM551 572c2 0 4-1 4-3l1-7c1-4 2-7 5-10a7 7 0 00-4-11 7 7 0 00-8 9l1 11-2 7c0 2 1 4 3 4z"/><path fill="#FFC700" d="M562 623c-2 2-3 4-1 6l5 7 5 12 1 3c3 3 7 4 10 2a8 8 0 000-13c-4-2-7-5-10-9l-5-7c-1-1-4-2-5-1z"/><path fill="#D09700" d="M582 640c-4-2-7-5-10-9l-5-7a4 4 0 00-6 5l5 7c2 3 6 6 10 8l2 3c2 2 2 5 1 7l3-1a8 8 0 000-13zM514 605a12 12 0 10-15-20 12 12 0 0015 20z"/><path fill="#FFC700" d="M499 585l-2 2a12 12 0 0113 20 12 12 0 10-11-22z"/><path fill="#FFC700" d="M570 635a41 41 0 10-47-67 41 41 0 0047 67z"/><path fill="#D09700" d="M523 568l-3 3a41 41 0 0146 66l4-2a41 41 0 10-47-67z"/><path fill="#FFF" d="M551 591a3 3 0 10-4-5 3 3 0 004 5zM547 627a6 6 0 10-7-9 6 6 0 007 9zM529 604a9 9 0 10-10-14 9 9 0 0010 14z"/><path fill="#FFC700" d="M590 616a8 8 0 10-8-12 8 8 0 008 12z"/><path fill="#D09700" d="M582 604l-3 3a8 8 0 018 11l3-2a8 8 0 00-8-12zM524 617c1 2 1 4-1 5l-7 5-8 10a8 8 0 01-13 1 8 8 0 015-12c4-1 8-2 12-5l7-5c2-1 4-1 5 1z"/><path fill="#FFC700" d="M531 579c1-1 2-3 0-5l-5-7c-2-4-4-8-4-12a8 8 0 10-12 8c4 2 8 5 10 8l5 8c1 1 4 2 6 0z"/><path fill="#D09700" d="M520 551a8 8 0 00-13 2 8 8 0 018 6l5 12 5 8a4 4 0 006-5l-5-7c-2-4-4-8-4-12l-2-4z"/></g><path fill="#1DB776" d="M625 511c-2 0-5 1-5 4l-2 9-7 14a9 9 0 1015 4v-16l2-9c1-3 0-5-3-6z"/><path fill="#128E5A" d="M611 447c2-1 2-3 1-5l-4-7c-2-3-4-7-4-12a7 7 0 00-11-5 7 7 0 000 12l9 9 4 7c1 2 3 2 5 1zM650 510c-2 1-2 4-1 5l5 8 4 12a8 8 0 0011 6 8 8 0 000-13c-3-2-7-5-9-9l-5-8c-1-1-3-2-5-1z"/><path fill="#1DB776" d="M602 474c1-2-1-4-3-5l-10-2c-5-1-9-4-13-7a9 9 0 10-4 15h15l10 3c2 0 5-1 5-4z"/><path fill="#128E5A" d="M572 475h15l10 3a4 4 0 002-9l-10-2h-15a9 9 0 01-10-6l-2 3a9 9 0 0010 11zM657 454a14 14 0 1028 6 14 14 0 00-28-6z"/><path fill="#1DB776" d="M685 460v-4a14 14 0 01-26-7 14 14 0 1026 11z"/><path fill="#1DB776" d="M587 471a47 47 0 1091 21 47 47 0 00-91-21z"/><path fill="#128E5A" d="M678 492l1-4a47 47 0 01-91-22l-1 5a47 47 0 1091 21z"/><path fill="#128E5A" d="M635 500a9 9 0 1018 4 9 9 0 00-18-4z"/><path fill="#FFF" d="M653 504v-4a9 9 0 01-16-4l-2 4a9 9 0 0018 4zM612 459a6 6 0 1012 3 6 6 0 00-12-3z"/><path fill="#1DB776" d="M583 502a9 9 0 1017 4 9 9 0 00-17-4z"/><path fill="#128E5A" d="M600 506v-4a9 9 0 01-15-4 9 9 0 004 15c5 1 10-2 11-7zM639 451c-2 0-4-3-3-5l2-10v-15a9 9 0 0110-11 9 9 0 016 15c-4 4-6 8-7 13l-2 10c-1 2-3 4-6 3z"/><path fill="#1DB776" d="M662 488c0 3 1 5 4 6l9 2c5 1 10 3 14 7a9 9 0 103-16h-15l-9-2c-3-1-5 1-6 3z"/><path fill="#128E5A" d="M693 504a9 9 0 0010-11 9 9 0 01-12 1c-4-3-9-6-14-7l-9-2a4 4 0 00-2 9l9 2c5 1 10 3 14 7l4 1zM626 545v-3-1a9 9 0 01-15-4v1a9 9 0 1015 7z"/></svg>