<?xml version="1.0" encoding="utf-8"?>
<!-- Generator: Adobe Illustrator 15.0.0, SVG Export Plug-In . SVG Version: 6.00 Build 0)  -->
<!DOCTYPE svg PUBLIC "-//W3C//DTD SVG 1.1//EN" "http://www.w3.org/Graphics/SVG/1.1/DTD/svg11.dtd">
<svg version="1.1" id="Layer_1" xmlns="http://www.w3.org/2000/svg" xmlns:xlink="http://www.w3.org/1999/xlink" x="0px" y="0px"
	 width="270px" height="249px" viewBox="7 -5.5 270 249" enable-background="new 7 -5.5 270 249" xml:space="preserve">
<linearGradient id="SVGID_1_" gradientUnits="userSpaceOnUse" x1="54.8335" y1="91.5293" x2="70.5489" y2="36.9617" gradientTransform="matrix(1 0 0 -1 8.3398 270.04)">
	<stop  offset="0" style="stop-color:#FFD0D0"/>
	<stop  offset="1" style="stop-color:#FFF8F8"/>
</linearGradient>
<path fill="url(#SVGID_1_)" d="M108.836,239.684c-15.147,5.367-30.44,7.846-46.754,4.746c-18.183-3.455-33.954-19.016-42.865-34.533
	c-3.311-5.764-5.947-12.203-5.603-18.842c0.802-15.332,15.286-17.045,27.581-14.564c6.931,1.395,13.294,4.568,19.586,7.713
	c10.445,5.223,22.698,7.793,32.063,15.033c3.143,2.436,5.502,5.363,9.153,7.135c5.68,2.76,12.164,4.063,17.998,6.574
	c4.981,2.154,10.549,5.699,10.556,11.125c0.001,5.563-5.804,9.109-10.904,11.324C116.038,236.973,112.444,238.412,108.836,239.684z"
	/>
<linearGradient id="SVGID_2_" gradientUnits="userSpaceOnUse" x1="284.9512" y1="168.5938" x2="109.0601" y2="209.2092" gradientTransform="matrix(1 0 0 -1 8.3398 270.04)">
	<stop  offset="0" style="stop-color:#FFF8F8"/>
	<stop  offset="1" style="stop-color:#FFD0D0"/>
</linearGradient>
<path fill="url(#SVGID_2_)" d="M53.084,41.921C77.897,5.354,129.206-9.329,170.796,4.42c20.055,6.633,36.861,20.445,52.363,34.783
	c13.664,12.637,26.92,26.267,36.252,42.513c6.371,11.089,10.932,24.381,14.152,36.791c4.814,18.58,0.441,42.521-23.577,40.767
	c-5.636-0.41-10.511-2.438-15.781-4.209c-4.263-1.438-8.44-0.576-12.866-1.277c-11.143-1.764-21.875-5.867-32.025-10.672
	c-20.684-9.799-39.582-23.114-60.854-31.703c-17.432-7.028-36.048-10.657-54.844-10.69c-7.929-0.013-16.267,0.542-23.36-3.004
	c-17.483-8.747-9.621-32.334-3.092-45.602C48.893,48.582,50.872,45.174,53.084,41.921z"/>
<linearGradient id="SVGID_3_" gradientUnits="userSpaceOnUse" x1="262.877" y1="227.2373" x2="202.5309" y2="253.0121" gradientTransform="matrix(1 0 0 -1 8.3398 270.04)">
	<stop  offset="0" style="stop-color:#FFD0D0"/>
	<stop  offset="1" style="stop-color:#FFF7F7"/>
</linearGradient>
<path fill="url(#SVGID_3_)" d="M247.632,47.44c4.084,3.7,20.135,13.8,20.443,1.947c0.073-2.953-1.266-5.82-3.089-7.982
	c-2.085-2.482-4.45-3.784-6.078-6.676c-1.993-3.492-4.261-6.773-6.774-9.802c-5.141-6.305-11.142-12.13-18.424-14.725
	c-5.107-1.818-13.754-1.361-16.18,5.184c-3.534,9.528,11.578,11.274,16.188,14.747c4.373,3.287,6.851,8.935,10.315,13.423
	C245.128,44.971,246.332,46.271,247.632,47.44z"/>
<linearGradient id="SVGID_4_" gradientUnits="userSpaceOnUse" x1="251.5547" y1="59.562" x2="8.9604" y2="200.0481" gradientTransform="matrix(1 0 0 -1 8.3398 270.04)">
	<stop  offset="0" style="stop-color:#FFCFCF"/>
	<stop  offset="1" style="stop-color:#FFF8F8"/>
</linearGradient>
<path fill="url(#SVGID_4_)" d="M172.093,35.851c8.653,5.094,15.144,12.719,23.032,18.861c13.134,10.223,31.138,12.314,46.199,19.424
	c15.358,7.253,26.955,18.526,32.198,34.772c6.773,20.973,7.418,45.913,1.662,67.473c-6.338,23.732-21.221,39.496-42.982,50.008
	c-21.749,10.508-45.842,15.41-69.872,16.422c-2.319,0.1-4.634,0.154-6.958,0.168c-52.203,0.305-121.688-18.07-139.46-74.148
	c-0.163-0.514-0.319-1.025-0.476-1.545c-1.832-6.248-2.908-12.693-3.208-19.197c-1.118-23.057,2.917-48.505,11.001-70.12
	c5.437-14.552,17.145-26.856,29.481-35.623c17.333-12.316,38.481-15.46,59.53-16.938c15.587-1.094,33.117-1.493,47.856,4.469
	C164.239,31.565,168.249,33.562,172.093,35.851z"/>
<path fill="#E27B5A" d="M74.424,71.185c0,0,53.076,70.867,66.353,76.727c13.28,5.863,29.929,4.543,31.385,11.342
	c1.456,6.801-27.873-4.703-23.194,5.789c4.678,10.496,22.912,22.475,22.998,33.041c0.09,10.57-29.015-22.686-29.015-22.686
	s27.422,30.426,18.342,31.145c-9.084,0.721-32.571-29.027-32.571-29.027s26.273,39.023,17.563,35.459
	c-8.705-3.564-89.446-96.932-101.897-106.813C31.937,96.287,74.424,71.185,74.424,71.185z"/>
<path fill="#FFCEB0" d="M228.821,88.387c0,0-60.536,64.593-74.38,68.957c-13.844,4.363-30.244,1.221-32.441,7.816
	c-2.193,6.596,28.222-1.607,22.416,8.311c-5.801,9.912-25.239,19.813-26.488,30.309c-1.244,10.49,31.334-19.357,31.334-19.357
	s-30.601,27.223-21.654,28.938c8.951,1.717,35.564-25.266,35.564-25.266s-30.404,35.898-21.357,33.313
	c9.047-2.584,99.557-86.497,113.016-94.945C268.293,118.013,228.821,88.387,228.821,88.387z"/>
<path fill="#FB4C47" d="M177.284,133.238c0,0,18.619,35.256,35.734,39.008c17.115,3.75,54.086-29.717,62.154-46.293
	c8.069-16.574-31.262-66.73-39.679-73.945C223.335,50.523,168.652,101.81,177.284,133.238z"/>
<path fill="#128E5A" d="M61.755,36.979c0,0,61.238,60.353,58.336,76.024c-2.898,15.674-26.282,34.448-45.14,40.597
	c-18.858,6.146-60.087-18.612-60.087-36.665C11.857,86.275,27.489,54.413,61.755,36.979z"/>
</svg>
