<?xml version="1.0" encoding="utf-8"?><!--Generator: Adobe Illustrator 15.0.0, SVG Export Plug-In . SVG Version: 6.00 Build 0)--><!DOCTYPE svg PUBLIC "-//W3C//DTD SVG 1.1//EN" "http://www.w3.org/Graphics/SVG/1.1/DTD/svg11.dtd"><svg xmlns="http://www.w3.org/2000/svg" width="270" height="249" viewBox="7 -5.5 270 249"><linearGradient id="a" gradientUnits="userSpaceOnUse" x1="54.8" y1="91.5" x2="70.5" y2="37" gradientTransform="matrix(1 0 0 -1 8 270)"><stop offset="0" style="stop-color:#FFD0D0"/><stop offset="1" style="stop-color:#FFF8F8"/></linearGradient><path fill="url(#a)" d="M109 240c-15 5-31 8-47 4-18-3-34-19-43-34-3-6-6-12-5-19 0-15 15-17 27-15l20 8c10 5 22 8 32 15 3 3 5 6 9 7l18 7c5 2 11 6 11 11 0 6-6 9-11 11l-11 5z"/><linearGradient id="b" gradientUnits="userSpaceOnUse" x1="285" y1="168.6" x2="109.1" y2="209.2" gradientTransform="matrix(1 0 0 -1 8 270)"><stop offset="0" style="stop-color:#FFF8F8"/><stop offset="1" style="stop-color:#FFD0D0"/></linearGradient><path fill="url(#b)" d="M53 42C78 5 129-9 171 4c20 7 37 21 52 35 14 13 27 26 36 43 7 11 11 24 15 37 4 18 0 42-24 40-6 0-11-2-16-4l-13-1c-11-2-22-6-32-11-20-10-39-23-61-32-17-7-36-10-54-10-8 0-17 0-24-3-17-9-9-33-3-46l6-10z"/><linearGradient id="c" gradientUnits="userSpaceOnUse" x1="262.9" y1="227.2" x2="202.5" y2="253" gradientTransform="matrix(1 0 0 -1 8 270)"><stop offset="0" style="stop-color:#FFD0D0"/><stop offset="1" style="stop-color:#FFF7F7"/></linearGradient><path fill="url(#c)" d="M248 47c4 4 20 14 20 2 0-3-1-5-3-8l-6-6-7-10c-5-6-11-12-18-15-5-2-14-1-16 5-4 10 11 12 16 15 4 3 7 9 10 14l4 3z"/><linearGradient id="d" gradientUnits="userSpaceOnUse" x1="251.6" y1="59.6" x2="9" y2="200" gradientTransform="matrix(1 0 0 -1 8 270)"><stop offset="0" style="stop-color:#FFCFCF"/><stop offset="1" style="stop-color:#FFF8F8"/></linearGradient><path fill="url(#d)" d="M172 36c9 5 15 13 23 19 13 10 31 12 46 19 16 7 27 19 33 35 6 21 7 46 1 67-6 24-21 40-43 50a178 178 0 01-77 17c-52 0-121-18-139-74l-1-2-3-19c-1-23 3-48 11-70 6-15 17-27 30-36 17-12 38-15 59-17 16-1 33-1 48 5l12 6z"/><path fill="#E27B5A" d="M74 71s54 71 67 77 30 4 31 11c2 7-28-4-23 6 5 11 23 23 23 33 0 11-29-23-29-23s27 31 18 32c-9 0-32-29-32-29s26 39 17 35c-8-4-89-97-102-107-12-10 30-35 30-35z"/><path fill="#FFCEB0" d="M229 88s-61 65-75 69c-13 5-30 2-32 8-2 7 28-1 22 8-5 10-25 20-26 31-1 10 31-20 31-20s-30 28-21 29c9 2 35-25 35-25s-30 36-21 33c9-2 99-86 113-95 13-8-26-38-26-38z"/><path fill="#FB4C47" d="M177 133s19 35 36 39 54-29 62-46-31-67-40-74c-12-1-66 50-58 81z"/><path fill="#128E5A" d="M62 37s61 60 58 76-26 34-45 41c-19 6-60-19-60-37-3-31 12-63 47-80z"/></svg>