<?xml version="1.0" encoding="utf-8"?>
<!-- Generator: Adobe Illustrator 15.0.0, SVG Export Plug-In . SVG Version: 6.00 Build 0)  -->
<!DOCTYPE svg PUBLIC "-//W3C//DTD SVG 1.1//EN" "http://www.w3.org/Graphics/SVG/1.1/DTD/svg11.dtd">
<svg version="1.1" id="Layer_1" xmlns="http://www.w3.org/2000/svg" xmlns:xlink="http://www.w3.org/1999/xlink" x="0px" y="0px"
	 width="889px" height="812px" viewBox="110 0 889 812" enable-background="new 110 0 889 812" xml:space="preserve">
<g opacity="0.67">
	<path fill="#03673D" d="M321.055,365.954l-18.135,6.045l17.798-11.187c-0.145-1.707-0.325-3.428-0.542-5.162l-9.576,1.842
		l9.063-5.61c-2.073-13.368-6.688-30.146-13.021-47.271l-35.297,13.624l33.731-17.785c-8.857-23.009-20.691-46.186-33.534-62.17
		l-18.972,13.391l15.127-17.929c-11.687-12.998-24.029-19.615-35.609-14.5c-14.069,6.217-18.101,36.36-13.769,72.708l9.502-0.169
		l-9.291,1.859c1.999,15.907,5.579,32.932,10.603,49.627l36.238-12.231l-34.599,17.513c7.653,23.861,18.257,46.695,31.404,64.193
		l14.288-14.287l-11.608,17.734c11.07,13.758,23.828,23.731,38.064,27.494C302.92,443.684,323.064,409.831,321.055,365.954z"/>
	<path fill="#04AD66" d="M304.996,443.684c0,0,20.144-33.853,18.135-77.729l-18.135,6.045l17.798-11.187
		c-0.146-1.707-0.325-3.428-0.542-5.162l-9.576,1.842l9.063-5.61c-2.073-13.368-6.688-30.146-13.021-47.269l-35.298,13.622
		l33.731-17.783c-8.857-23.011-20.692-46.188-33.534-62.172l-18.973,13.393l15.128-17.931c-11.687-12.998-24.029-19.615-35.609-14.5
		c0,0,52.675,125.573,69.808,224.143C304.314,443.481,304.653,443.593,304.996,443.684z"/>
	<path fill="#10794D" d="M293.668,471.274l-13.42,3.132l12.256-6.641c-1.261-3.601-2.766-7.356-4.576-11.281
		c-3.727-8.073-9.059-17.311-15.236-26.242l-12.073,9.174l8.505-14.173c-18.725-25.381-43.339-45.902-55.44-25.935
		c-4.974,8.206-5.302,21.268-1.868,35.953l27.468-0.964l-26.481,4.854c2.742,10.021,7.144,20.639,12.946,30.891l9.27-4.17
		l-7.987,6.389c6.114,10.381,13.662,20.3,22.366,28.737l18.901-20.617l-16.288,23.074c11.449,10.428,24.748,18.254,39.331,21.301
		C291.342,524.756,304.614,506.14,293.668,471.274z"/>
	<path fill="#04AD66" d="M290.26,524.506c0.362,0.082,0.721,0.174,1.085,0.249c0,0,13.273-18.616,2.326-53.479l-13.421,3.131
		l12.257-6.641c-1.261-3.601-2.766-7.356-4.577-11.28c-3.725-8.073-9.058-17.311-15.235-26.244l-12.073,9.176l8.504-14.173
		c-17.649-23.927-40.529-43.517-53.233-28.964C226.068,410.001,268.941,469.438,290.26,524.506z"/>
	<path fill="#007248" d="M252.343,509.605c-7.492-7.077-20.86-15.766-36.379-23.751c-6.73,9.943-14.243,21.174-15.536,23.634
		c-0.185,0.438-0.254,0.59-0.17,0.363c0.029-0.084,0.088-0.208,0.17-0.363c1.088-2.579,6.355-15.564,10.622-26.102
		c-9.31-4.568-19.221-8.813-28.998-12.274l-5.322,25.249l2.452-26.244c-30.49-10.343-58.919-12.577-62.539,7.45
		c-1.001,5.534,0.94,11.685,5.099,18.122c11.687-0.685,28.592-1.781,28.592-1.781l-24.646,7.162
		c9.039,11.138,23.888,22.844,41.106,33.541l14.791-28.707l-12.09,30.359c18.135,11.002,38.607,20.817,57.539,27.681
		c1.606-7.08,2.78-12.21,2.78-12.21l0.239,13.28c3.644,1.273,7.22,2.428,10.703,3.456l1.566-6.123l1.027,6.868
		c17.341,4.863,32.086,6.379,40.534,2.854C283.883,572.069,290.601,545.745,252.343,509.605z"/>
	<path fill="#096B42" d="M357.356,320.595c18.27-45.005,43.26-54.4,53.472-53.472c16.934-2.227,17.824,27.293,16.152,42.332h-25.622
		l25.622,5.013c-0.446,24.063-6.87,49.759-10.026,59.599l-31.749-6.127l31.749,10.583c-8.021,30.301-20.052,58.3-25.065,68.511
		l-32.306-15.039l30.635,18.381l-3.898,6.684l-8.912-1.671l7.798,3.899c-13.813,28.073-39.547,39.547-50.688,41.775
		c-9.356-11.141-12.067-32.491-12.254-41.775l16.71-3.899h-16.71c-1.781-16.041,3.713-43.816,6.685-55.7l12.811,5.57l-12.254-8.355
		l1.671-5.57l27.293,8.355l-25.064-15.596c2.674-15.596,15.596-46.231,21.723-59.599l17.267,2.228L357.356,320.595z"/>
	<path fill="#0EA867" d="M385.474,460.233c-14.102,27.787-39.748,39.573-50.808,41.993c16.59-114.473,60.486-204.269,80.359-234.856
		c13.687,2.489,13.999,29.724,12.442,43.031l-25.403-1.037l25.403,4.666c-1.659,27.374-6.912,51.845-9.332,60.659l-34.217-7.259
		l32.662,10.888c-7.881,34.01-19.874,60.14-24.886,68.953l-31.625-15.553l30.588,18.664l-4.147,7.258l-8.813-2.072L385.474,460.233z
		"/>
	<path fill="#128E5A" d="M317.606,662.193c0,0.002,0,0.003-0.665-0.042l0.665,0.045c-0.023,0.351-0.315,0.623-0.667,0.622
		c-0.353-0.001-0.643-0.276-0.663-0.627c-2.568-43.076-19.552-76.042-41.614-101.098c-21.721-23.589-47.346-40.957-72.635-53.72
		c0.029-0.046,0.058-0.093,0.087-0.14c-16.772-8.341-31.182-13.583-39.513-16.614l-0.001-0.001
		c-1.906-0.693-3.494-1.271-4.719-1.744c-15.132-5.019-29.041-8.508-40.551-10.911c0.013-0.104,0.023-0.209,0.033-0.313
		c0.016-0.17,0.031-0.341,0.062-0.508c3.588-19.311,31.884-17.131,62.238-7.129l-2.359,24.727c0.021,0.008,0.043,0.017,0.065,0.025
		l5.152-23.791c9.734,3.35,19.602,7.451,28.874,11.864c-3.446,8.257-7.543,18.063-9.536,22.782c0.323,0.16,0.647,0.32,0.972,0.481
		c2.833-4.405,8.725-13.012,14.122-20.82c15.647,7.886,29.125,16.462,36.679,23.447c38.576,35.669,31.822,61.625,31.822,61.625
		c-0.374,0.153-0.765,0.295-1.167,0.425c16.339,21.649,28.717,48.47,32.475,81.546c0.235-5.832,0.493-14.113,0.614-24.412
		c0.252-21.5-0.092-51.793-2.475-86.96c-4.77-70.344-17.698-160.142-50.319-238.071c-0.142-0.339,0.018-0.73,0.358-0.872
		c0.339-0.142,0.73,0.018,0.872,0.357c32.703,78.125,45.646,168.09,50.419,238.496c2.386,35.208,2.73,65.537,2.478,87.064
		c-0.126,10.765-0.402,19.329-0.646,25.203c-0.121,2.938-0.235,5.202-0.319,6.734c-0.042,0.765-0.076,1.347-0.101,1.739
		c-0.007,0.131-0.014,0.239-0.02,0.327l-0.007,0.114l-0.007,0.112l-0.002,0.027L317.606,662.193z"/>
	<path fill="none" stroke="#014D2D" stroke-linecap="round" stroke-linejoin="round" stroke-miterlimit="10" d="M243.549,435.15
		c0,0,73.392,102.405,73.392,227.001c11.095-217.613,67.497-336.196,67.497-336.196"/>
	<path fill="#F52D29" d="M340.91,627.692h-58.866c0,0-15.849,125.483,35.093,140.049C368.078,782.306,340.91,627.692,340.91,627.692
		z"/>
	<path fill="#F80700" d="M351.259,627.692h-55.192c0,0-12.488,125.483,27.649,140.049
		C387.55,774.931,351.259,627.692,351.259,627.692z"/>
</g>
<g opacity="0.76">
	<path fill="#FF1F55" d="M363.782,40.179h-19.039V115.1h19.039V40.179z"/>
	<path fill="#FFC702" d="M386.347,40.179h-19.038V115.1h19.038V40.179z"/>
	<path fill="#3D99EE" d="M400.418,41.52l-16.126,10.124l39.878,63.458l16.127-10.123L400.418,41.52z"/>
	<path fill="#6F2A1A" d="M548.976,131.616H343.524c-4.383,0-8.585-1.74-11.685-4.838c-3.099-3.097-4.84-7.298-4.84-11.678h238.498
		c0,4.38-1.74,8.58-4.839,11.678C557.561,129.875,553.358,131.615,548.976,131.616z"/>
	<path fill="#BDD8F5" d="M552.884,42.953h-90.959v72.146h90.959V42.953z"/>
	<path fill="#FB4C47" d="M546.804,50.04h-78.792v57.958h78.792V50.04z"/>
	<path fill="#FFC700" d="M507.407,97.617c10.271,0,18.599-8.323,18.599-18.59s-8.327-18.59-18.599-18.59
		c-10.273,0-18.601,8.323-18.601,18.59S497.134,97.617,507.407,97.617z"/>
	<path fill="#1DB776" d="M529.856,107.998h-61.845V80.246c10.676-0.404,26.445,0.894,41.344,9.455
		C517.385,94.313,524.367,100.544,529.856,107.998z"/>
	<path fill="#11915B" d="M546.801,69.881v38.118h-49.584c3.177-6.632,7.262-12.791,12.137-18.298
		C517.817,80.187,529.893,71.991,546.801,69.881z"/>
	<path fill="#592A3C" d="M375.235,145.954h-14.826l2.048-30.855h10.73L375.235,145.954z"/>
	<path fill="#592A3C" d="M532.094,145.954h-14.826l2.049-30.855h10.729L532.094,145.954z"/>
	<path fill="#925C50" d="M843.914,98.912H632.482V0h211.432V98.912z M641.548,89.853H834.85V9.062H641.545L641.548,89.853z"/>
	<path fill="#FFFFFF" d="M834.85,9.062H641.546v80.791H834.85V9.062z"/>
	<path fill="#FFC700" d="M684.531,68.818c16.289-3.814,26.399-20.105,22.583-36.386S686.999,6.046,670.71,9.86
		s-26.4,20.105-22.583,36.386C651.943,62.527,668.242,72.633,684.531,68.818z"/>
	<path fill="#11915B" d="M641.546,64.346l57.464-25.649c4.578-2.044,9.627-2.8,14.604-2.185c4.976,0.614,9.688,2.575,13.632,5.671
		l60.729,47.668H641.548L641.546,64.346z"/>
	<path fill="#1DB776" d="M741.877,53.669l43.284-14.303c4.629-1.529,9.581-1.803,14.35-0.794c4.77,1.009,9.186,3.266,12.795,6.54
		l22.543,20.437v24.309h-46.876L741.877,53.669z"/>
</g>
<path fill="none" stroke="#925D51" stroke-width="5.81" stroke-miterlimit="10" d="M890.349,286.798v412.105"/>
<path fill="#AC6352" d="M809.958,285.333c0,0,70.138,29.735,160.057-3.499L921.456,171.64l-71.929-1.75L809.958,285.333z"/>
<path fill="#984B39" d="M940.493,214.839c-28.261,32.008-74.159,45.486-122.32,46.526l-8.215,23.968
	c0,0,70.138,29.735,160.059-3.499L940.493,214.839z"/>
<path fill="#925D51" d="M275.172,762.272h709.446c4.678,0,8.47,3.791,8.47,8.469l0,0c0,4.678-3.792,8.47-8.47,8.47H275.172
	c-4.677,0-8.469-3.792-8.469-8.47l0,0C266.703,766.063,270.495,762.272,275.172,762.272z"/>
<path fill="#F5C827" d="M630.526,393.656c-0.808-0.126-1.627-0.188-2.457-0.188H443.466h-0.16
	c-12.751-0.001-23.061-0.001-23.061,46.835v251.054c0-6.311,3.26-4.542,8.381-1.764c4.024,2.184,9.197,4.99,14.84,4.99h184.604
	c1.769,0,3.491-0.276,5.146-0.722h180.86c7.845,0,15.036-2.798,20.63-4.976c7.118-2.77,11.649-4.534,11.649,1.757V440.35
	c0-46.696-14.332-46.695-32.058-46.693h-0.222H630.526z"/>
<g opacity="0.7">
	<g opacity="0.7">
		<path fill="#DCB21D" d="M435.084,524.238v166.66c0-11.979,9.336,3.431,20.851,3.431H621.7c8.391,0,15.619-8.17,18.927-7.977v4.546
			c0-2.279,0.337-3.563,0.957-4.153c0.627,0.591,0.967,1.874,0.967,4.153v-4.548c3.285-0.161,10.435,7.979,18.731,7.979h164.199
			c11.407,0,20.654-15.409,20.654-3.431V424.073c0-2.669-0.03-5.167-0.083-7.56L435.084,524.238z"/>
	</g>
</g>
<path fill="#EBAFB2" d="M453.511,648.111c0,16.915-9.67,30.626-21.598,30.626h-47.517c-11.93,0-21.601-13.711-21.601-30.626V537.856
	c0-16.915,9.671-30.627,21.601-30.627h47.517c11.928,0,21.598,13.712,21.598,30.627V648.111z"/>
<path fill="#CAA41E" d="M473.267,660.326c0,18.396-14.029,33.311-31.338,33.311h-68.942c-17.309,0-31.339-14.914-31.339-33.311
	V540.408c0-18.398,14.03-33.312,31.339-33.312h68.942c17.309,0,31.338,14.913,31.338,33.312V660.326z"/>
<path fill="#CAA41E" d="M957.102,660.611c0,18.455-13.836,33.415-30.903,33.415h-67.989c-17.068,0-30.904-14.96-30.904-33.415
	V540.318c0-18.455,13.836-33.415,30.904-33.415h67.989c17.067,0,30.903,14.96,30.903,33.415V660.611z"/>
<path fill="#925D51" d="M392.78,801.411c0,5.847-3.816,10.589-8.521,10.589c-4.708,0-8.523-4.742-8.523-10.589v-36.584
	c0-5.848,3.815-10.588,8.523-10.588c4.705,0,8.521,4.74,8.521,10.588V801.411z"/>
<path fill="#925D51" d="M922.095,799.517c0,5.848-3.814,10.59-8.522,10.59c-4.705,0-8.521-4.742-8.521-10.59v-36.584
	c0-5.847,3.816-10.588,8.521-10.588c4.708,0,8.522,4.741,8.522,10.588V799.517z"/>
<path fill="#F5C827" d="M936.358,507.097h-23.897c-11.998,0-21.724,13.72-21.724,30.643v153.207H405.205V537.739
	c0-16.923-9.727-30.643-21.724-30.643h-23.896c-11.998,0-21.724,13.72-21.724,30.643v209.893c0,8.857,2.68,16.813,6.938,22.407
	c3.965,5.995,9.601,9.766,15.872,9.766l575.686-1.53c11.998,0,21.724-13.72,21.724-30.643V537.739
	C958.082,520.816,948.356,507.097,936.358,507.097z"/>
<path fill="#FFFFFF" d="M528.952,523.195h-88.415c-3.364,0-6.091,3.181-6.091,7.104v103.151c0,3.925,2.727,7.105,6.091,7.105h88.415
	c3.364,0,6.09-3.181,6.09-7.105V530.3C535.042,526.376,532.316,523.195,528.952,523.195z"/>
<path fill="#FFFFFF" d="M871.098,534.406l-80.402-14.032c-3.06-0.534-6.087,2.173-6.765,6.047l-17.79,101.826
	c-0.676,3.874,1.256,7.447,4.313,7.98l80.404,14.033c3.058,0.534,6.087-2.174,6.764-6.048l17.789-101.826
	C876.088,538.513,874.157,534.94,871.098,534.406z"/>
<path fill="#FFE792" d="M861.963,714.351c16.325,0,29.559-14.767,29.559-32.984v-29.686c0-18.218-13.233-32.984-29.559-32.984
	H633.667c-1.64-0.651-3.356-0.997-5.123-0.997H425.645c-11.612,0-21.025,14.922-21.025,33.329v29.995
	c0,18.406,9.413,33.327,21.025,33.327h155.448c0.02,0,0.038,0,0.058,0H861.963z"/>
<path fill="#FF504A" d="M577.736,344.017c-3.027-0.244-5.851-1.626-7.924-3.848c-5.416-5.81-13.174-19.321-2.063-43.316
	c20.684-44.686,96.33-37.982,114.373-5.512c12.838,23.1,25.609,27.683,18.718,34.633
	C694.192,332.682,615.406,347.058,577.736,344.017z"/>
<path fill="#FFFFFF" d="M711.066,612.483c-0.082,0.011-0.17,0.022-0.251,0.033c-16.36,2.384-32.95,4.572-49.587,5.858
	c-0.953,0.07-1.908,0.146-2.865,0.203c-17.605,1.252-35.258,1.439-52.729-0.279c-5.73-0.563-11.445-1.341-17.1-2.375
	c-12.642-2.309-21.162-14.257-19.115-26.939c1.928-11.908,3.188-23.189,4.016-33.794c0.124-1.577,0.244-3.135,0.344-4.678
	c0.838-12.379,1.109-23.778,1.199-34.134c0.005-0.881,0.012-1.752,0.016-2.613c0-0.39,0.008-0.777,0.008-1.158
	c0.003-0.592,0.003-1.178,0.003-1.756c0.008-0.396,0.008-0.784,0.008-1.166c0-0.808,0.004-1.595,0-2.383
	c0.012-2.421,0.004-4.772,0.012-7.056v-0.606c0.004-7.902,0.036-14.977,0.354-21.179c0.012-0.284,0.023-0.559,0.046-0.837
	c0.07-1.288,0.135-2.566,0.198-3.825c0.055-1.221,0.116-2.43,0.159-3.627c0.132-3.357,0.221-6.595,0.273-9.686
	c0.033-2.601,0.033-5.092-0.007-7.455c-0.05-2.623-0.143-5.08-0.291-7.356c-0.057-0.753-0.108-1.531-0.17-2.33
	c-0.093-1.21-0.194-2.465-0.298-3.754c-0.063-0.784-0.13-1.573-0.209-2.376c-0.035-0.35-0.063-0.705-0.097-1.064
	c-0.005-0.09-0.017-0.176-0.021-0.257c-0.046-0.496-0.092-0.99-0.135-1.494c-0.05-0.489-0.099-0.979-0.147-1.473
	c-0.078-0.861-0.163-1.741-0.258-2.627c-0.407-4.134-0.881-8.474-1.362-12.923c-0.157-1.394-0.312-2.81-0.468-4.226
	c-0.249-2.195-0.5-4.414-0.744-6.623c-0.167-1.425-0.329-2.853-0.487-4.276c-2.441-21.451-4.736-41.989-3.92-48.507
	c1.413-11.286,56.071-41.074,56.071-41.074l32.81-1.031c0,0,46.053,18.551,54.549,29.749c0.045,0.055,0.083,0.112,0.125,0.163
	c1.927,2.638,3.14,6.303,3.834,10.833c0.622,3.983,0.843,8.629,0.797,13.84c-0.021,3.709-0.182,7.706-0.422,11.945
	c-0.253,4.495-0.597,9.264-0.976,14.259c-0.108,1.453-0.223,2.925-0.337,4.414c-0.117,1.514-0.229,3.041-0.346,4.587
	c-0.075,0.999-0.149,2.007-0.223,3.018c-0.2,2.669-0.396,5.386-0.572,8.14c-0.057,0.888-0.12,1.786-0.177,2.687
	c-0.038,0.565-0.071,1.143-0.102,1.713c-0.035,0.584-0.069,1.166-0.103,1.754v0.011c-0.03,0.54-0.064,1.075-0.089,1.613
	c-0.04,0.586-0.067,1.173-0.096,1.763c-0.055,1.08-0.111,2.162-0.155,3.254c-0.046,0.9-0.082,1.81-0.116,2.716
	c-0.014,0.16-0.02,0.329-0.02,0.492c-0.03,0.586-0.053,1.174-0.068,1.756l-0.009,0.307l-0.009,0.146
	c-0.022,0.768-0.049,1.547-0.069,2.319c-0.031,0.928-0.054,1.854-0.076,2.776c-0.01,0.427-0.014,0.865-0.021,1.299
	c-0.012,0.383-0.015,0.777-0.022,1.166c0,0.197-0.004,0.388-0.004,0.59c-0.012,0.534-0.02,1.068-0.025,1.618
	c-0.007,0.91-0.009,1.834-0.009,2.778v1.495c0.002,2.615,0.03,5.349,0.082,8.191c0.019,1.174,0.045,2.363,0.072,3.572
	c0.028,1.279,0.063,2.572,0.095,3.883c0.084,2.754,0.173,5.566,0.285,8.431c0.012,0.419,0.024,0.833,0.044,1.255
	c0.008,0.172,0.012,0.341,0.019,0.512c0.034,0.935,0.071,1.871,0.114,2.82c0.059,1.364,0.122,2.743,0.177,4.12
	c0.063,1.491,0.166,3.071,0.297,4.737c0.161,2.085,0.369,4.295,0.62,6.63c0.056,0.546,0.118,1.099,0.185,1.655
	c0.103,0.896,0.204,1.808,0.329,2.734c0.068,0.582,0.137,1.16,0.215,1.751c0.048,0.373,0.095,0.748,0.146,1.124
	c0.181,1.404,0.376,2.848,0.584,4.316c0.022,0.163,0.045,0.325,0.066,0.487c0.106,0.744,0.223,1.491,0.325,2.253
	c0.211,1.448,0.439,2.929,0.67,4.428c0.067,0.42,0.131,0.848,0.197,1.271c0.399,2.553,0.829,5.169,1.278,7.846
	c0.078,0.466,0.163,0.944,0.243,1.423c0.179,1.053,0.363,2.114,0.548,3.183c0.646,3.725,1.331,7.534,2.046,11.404
	c0.835,4.475,1.704,9.027,2.606,13.615c0.737,3.772,1.502,7.567,2.273,11.361c1.808,8.876,3.687,17.748,5.54,26.309
	C733.532,597.481,724.561,610.515,711.066,612.483z"/>
<path fill="#1DB776" fill-opacity="0.56" d="M714.832,352.387c-23.969,5.136-46.206,6.603-63.77,6.603
	c-3.19,0-6.227-0.048-9.093-0.13c-27.134-0.793-44.782-4.726-45.521-4.889l1.277-5.649l1.274-5.646h0.004
	c0.346,0.078,17.656,3.887,43.613,4.619c17.531,0.493,41.757-0.384,68.255-5.905c0.044,0.055,0.084,0.11,0.124,0.164
	C712.922,344.191,714.138,347.856,714.832,352.387z"/>
<path fill="#1DB776" fill-opacity="0.56" d="M715.625,366.226c-0.021,3.709-0.184,7.706-0.424,11.945
	c-23.442,4.983-45.298,6.452-62.893,6.452c-4.356,0-8.451-0.09-12.246-0.24c-27.115-1.061-44.72-5.169-45.455-5.344l2.666-11.271
	c0.174,0.042,17.478,4.061,43.551,5.054C659.766,373.548,686.548,372.747,715.625,366.226z"/>
<path fill="#1DB776" fill-opacity="0.56" d="M714.23,392.43c-0.108,1.453-0.223,2.925-0.338,4.414
	c-0.116,1.514-0.229,3.041-0.346,4.587c-0.074,0.998-0.147,2.006-0.224,3.018c-22.086,4.464-42.74,5.83-59.747,5.83
	c-5.555,0-10.713-0.144-15.412-0.371c-27.096-1.334-44.656-5.619-45.393-5.797l2.779-11.244c0.171,0.04,17.435,4.232,43.488,5.487
	C658.044,399.269,684.961,398.73,714.23,392.43z"/>
<path fill="#1DB776" fill-opacity="0.56" d="M712.373,418.741v0.012c-0.03,0.542-0.063,1.074-0.089,1.613
	c-0.038,0.587-0.065,1.173-0.095,1.763c-0.057,1.08-0.111,2.162-0.156,3.254c-0.044,0.899-0.082,1.809-0.115,2.716
	c-0.013,0.159-0.02,0.329-0.02,0.492c-0.031,0.586-0.053,1.174-0.067,1.755l-0.011,0.308c-20.904,4.037-40.511,5.318-56.979,5.318
	c-6.767,0-12.999-0.213-18.581-0.546c-27.077-1.601-44.593-6.063-45.325-6.249l2.892-11.213h0.004
	c0.158,0.041,4.532,1.144,12.106,2.425c7.575,1.281,18.348,2.742,31.313,3.497C656.219,424.991,683.092,424.723,712.373,418.741z"/>
<path fill="#1DB776" fill-opacity="0.56" d="M592.102,443.062l-1.498,5.593l1.503-5.593H592.102z M711.668,453.032
	c-0.051-2.844-0.08-5.577-0.084-8.192c-29.709,5.871-56.958,5.887-76.117,4.576c-25.913-1.767-43.047-6.272-43.36-6.354
	l-1.503,5.593l-1.5,5.591c0.729,0.194,18.194,4.831,45.255,6.702c6.438,0.448,13.748,0.75,21.749,0.75
	c16.269,0,35.358-1.25,55.631-5.095C711.714,455.396,711.688,454.205,711.668,453.032z"/>
<path fill="#1DB776" fill-opacity="0.56" d="M712.768,482.361c-20.076,3.82-39.06,5.092-55.401,5.092
	c-9.245,0-17.643-0.407-24.915-0.982c-27.036-2.148-44.457-6.957-45.188-7.157l1.561-5.576l1.554-5.577h0.002
	c0.277,0.078,17.373,4.759,43.297,6.792c19.648,1.538,47.828,1.769,78.505-4.269c0.034,0.937,0.072,1.873,0.114,2.82
	c0.059,1.364,0.121,2.743,0.179,4.122C712.536,479.115,712.639,480.695,712.768,482.361z"/>
<path fill="#1DB776" fill-opacity="0.56" d="M715.908,507.74c-20.671,4.123-40.312,5.498-57.295,5.498
	c-10.498,0-19.978-0.527-28.063-1.247c-27.021-2.418-44.395-7.4-45.124-7.61l3.229-11.12v-0.004
	c0.167,0.05,17.246,4.928,43.232,7.227c20.439,1.81,50.153,2.293,82.376-4.227c0.182,1.405,0.377,2.848,0.584,4.315
	c0.023,0.164,0.046,0.325,0.069,0.488c0.104,0.743,0.22,1.491,0.323,2.253C715.45,504.764,715.678,506.241,715.908,507.74z"/>
<path fill="#1DB776" fill-opacity="0.56" d="M720.221,532.867c-21.689,4.643-42.419,6.185-60.378,6.185
	c-11.751,0-22.317-0.66-31.202-1.542c-27.002-2.688-44.33-7.843-45.054-8.063l3.339-11.086c0.168,0.048,17.201,5.099,43.168,7.656
	c21.615,2.131,53.623,2.879,88.081-4.553C718.821,525.188,719.504,528.997,720.221,532.867z"/>
<path fill="#1DB776" fill-opacity="0.56" d="M725.099,557.846c-22.915,5.3-44.935,7.057-64.034,7.057
	c-13.015,0-24.67-0.814-34.328-1.876c-26.98-2.959-44.265-8.288-44.985-8.513l1.728-5.528l1.721-5.527l0.004,0.004
	c0.268,0.08,17.234,5.276,43.102,8.089c22.921,2.489,57.567,3.543,94.521-5.068C723.563,550.255,724.327,554.05,725.099,557.846z"/>
<path fill="#FB4C47" d="M636.866,596.906c1.107-47.742-7.066-103.293-6.997-151.049c0.062-42.818,3.19-85.329,3.157-128.146
	c-10.216,0.768-14.604,2.512-14.604,2.512s-9.767,8.334-41.551,18.691c-29.971,9.766-24.401,120.465-22.579,182.424
	c1.82,61.96,1.097,101.243,60.017,108.772c5.534,0.708,10.971,1.332,16.294,1.854C630.692,617.796,636.537,611.109,636.866,596.906z
	"/>
<path fill="#B63A37" d="M572.947,471.021c-0.633,0-1.204-0.442-1.341-1.09c-0.159-0.739,0.313-1.47,1.056-1.63
	c0.751-0.162,18.436-4.188,24.534-25.362c0.207-0.73,0.97-1.149,1.7-0.941c0.728,0.209,1.15,0.971,0.938,1.7
	c-6.565,22.811-25.787,27.12-26.603,27.293C573.137,471.011,573.04,471.021,572.947,471.021z"/>
<path fill="#B63A37" d="M624.383,587.501c-0.57,0-1.05-0.445-1.082-1.023c-4.743-85.489-8.517-169.058-2.666-251.541
	c0.043-0.597,0.564-1.044,1.158-1.004c0.599,0.042,1.048,0.561,1.006,1.158c-5.845,82.356-2.073,165.85,2.668,251.266
	c0.032,0.599-0.426,1.109-1.022,1.143C624.423,587.501,624.404,587.501,624.383,587.501z"/>
<path fill="#FB4C47" d="M739.134,382.275c1.421-44.106-19.823-55.747-62.217-62.105c-0.165-0.025-0.327-0.049-0.492-0.072
	c-0.681,7.286-0.432,14.686,0.044,21.96c0.76,11.634,2.111,23.201,2.578,34.854c1.959,48.626,6.718,81.654,2.812,145.476
	c-2.938,47.969,4.729,73.146,6.072,109.493c24.066-3.676,43.007-13.471,54.67-33.347
	C764.482,561.245,737.716,426.381,739.134,382.275z"/>
<path fill="#B63A37" d="M734.155,469.533c-0.103,0-0.203-0.009-0.309-0.034c-0.282-0.065-28.47-6.982-33.233-47.976
	c-0.088-0.754,0.452-1.437,1.207-1.522c0.759-0.093,1.436,0.453,1.521,1.206c4.543,39.087,30.854,45.553,31.12,45.612
	c0.739,0.17,1.202,0.906,1.032,1.646C735.35,469.101,734.783,469.533,734.155,469.533z"/>
<path fill="#B63A37" d="M691.165,579.658c-0.521,0-0.981-0.377-1.069-0.909c-1.986-12.07-1.225-44.45-0.484-75.762
	c0.561-23.821,1.092-46.32,0.472-59.874c-2.094-45.888-8.364-109.978-8.427-110.618c-0.06-0.595,0.376-1.126,0.972-1.185
	c0.591-0.057,1.127,0.377,1.185,0.972c0.063,0.643,6.339,64.785,8.437,110.729c0.622,13.63,0.091,36.165-0.472,60.026
	c-0.736,31.213-1.496,63.489,0.459,75.359c0.097,0.589-0.304,1.148-0.895,1.245C691.283,579.652,691.224,579.658,691.165,579.658z"
	/>
<path fill="#002014" d="M652.622,219.014l-20.847,7.571c0,0-6.254,8.623-14.452,6.845c-3.288-0.715-6.889-3.102-10.526-8.383
	c-12.709-18.463,17.944-44.043,36.367-39.745c9.035,2.107,11.485,10.262,11.631,18.024
	C654.949,211.384,652.622,219.014,652.622,219.014z"/>
<path fill="#FFD339" d="M652.621,219.014l-20.846,7.571c0,0-6.254,8.623-14.452,6.845c0-9.562,13.413-27.046,37.472-30.104
	C654.949,211.384,652.621,219.014,652.621,219.014z"/>
<path fill="#FFD339" d="M652.274,182.13c-0.376,0-0.785,0.044-1.229,0.132c-1.08,0.216-1.78,0.741-2.201,1.652
	c-1.873,4.055,2.077,13.713,4.9,19.418c1.744-6.329,3.834-16.909,0.88-20.243C654.057,182.448,653.282,182.13,652.274,182.13z
	 M654.074,208.094c-0.471,0-0.909-0.252-1.142-0.671c-0.999-1.79-9.655-17.683-6.461-24.604c0.769-1.664,2.175-2.744,4.063-3.121
	c3.218-0.641,5.066,0.548,6.048,1.656c5.131,5.794-0.595,23.808-1.265,25.843c-0.163,0.492-0.602,0.842-1.118,0.892
	C654.157,208.093,654.115,208.094,654.074,208.094z"/>
<path fill="#FFD339" d="M669.901,188.562c-0.123,0-0.249,0.008-0.374,0.027c-4.418,0.587-9.758,9.958-12.579,15.886
	c5.867-2.471,15.173-7.189,16.409-11.48c0.277-0.966,0.091-1.82-0.584-2.691C671.864,189.135,670.923,188.562,669.901,188.562z
	 M654.439,208.178c-0.352,0-0.696-0.141-0.945-0.403c-0.359-0.377-0.462-0.929-0.262-1.408c0.824-1.976,8.276-19.347,15.948-20.371
	c1.471-0.195,3.645,0.113,5.656,2.703c1.183,1.521,1.54,3.258,1.032,5.019c-2.111,7.324-19.059,13.68-20.983,14.382
	C654.74,208.153,654.59,208.178,654.439,208.178z"/>
<path fill="#002014" d="M615.747,236.145c-4.553-0.681-9.673-3.108-12.887-9.812c-7.591-15.825,10.563-29.18,10.747-29.313
	c0.371-0.268,0.888-0.183,1.156,0.186c0.269,0.371,0.185,0.89-0.187,1.158c-0.173,0.126-17.212,12.68-10.224,27.252
	c6.235,13.001,19.965,8.427,20.546,8.223c0.435-0.148,0.904,0.082,1.055,0.514c0.147,0.432-0.08,0.903-0.513,1.054
	C625.359,235.435,620.918,236.917,615.747,236.145z"/>
<path fill="#002014" d="M676.145,238.1c0,0,8.137,34.163-3.164,56.276c-11.3,22.113-22.653,28.136-6.428,35.005
	c16.228,6.868,34.688-6.215,47.077,0.59c14.956,8.214-1.813-60.728-9.289-89.904c-7.65-29.854-43.983-33.195-43.983-33.195
	L676.145,238.1z"/>
<path fill="#002014" d="M697.651,262.648c0,0,14.538-33.296-12.721-48.969c-27.259-15.673-54.792-3.836-62.127,14.209
	c-7.336,18.044,3.897,29.914,3.897,29.914L697.651,262.648z"/>
<path fill="#FBB990" d="M650.934,332.95c7.868,2.185,11.016-1.303,13.432-3.897l1.626-14.106l0.951-8.227l0.196-1.212l-3.617-0.401
	l-26.689-7.699l-3.61,16.948l-1.716,8.035C634.938,325.63,639.496,329.774,650.934,332.95z"/>
<path fill="#181818" d="M665.989,314.947c-8.271,3.729-24.584,2.035-32.77-0.592c-0.028-0.003-0.05-0.013-0.078-0.023l3.688-16.924
	l26.689,7.699l3.617,0.401l-0.196,1.211L665.989,314.947z"/>
<path fill="#FB9476" d="M687.782,262.853c0,0,15.848-4.606,12.739,9.395c-3.427,15.417-16.043,11.04-18.215,10.042L687.782,262.853z
	"/>
<path fill="#FFFFFF" d="M676.395,288.459c-0.877,5.866,3.183,11.351,9.048,12.227c5.867,0.877,11.352-3.181,12.229-9.049
	c0.748-5.003-2.103-9.72-6.594-11.546c-0.007,0.01-0.015,0.021-0.022,0.038c-0.755,0.198-0.913,0.78-0.983,1.413
	c3.982,1.417,6.545,5.506,5.897,9.842c-0.735,4.924-5.342,8.336-10.271,7.6c-4.924-0.736-8.336-5.346-7.601-10.27
	c0.331-2.225,1.453-4.138,3.038-5.498c0.41-0.35,0.853-0.666,1.318-0.94c-0.415-0.374-0.81-0.81-1.157-1.308
	c-0.428,0.266-0.846,0.569-1.229,0.9C678.153,283.49,676.793,285.787,676.395,288.459z"/>
<path fill="#FA7764" d="M689.554,277.713c-0.029-0.004-0.061-0.011-0.091-0.019c-0.459-0.12-0.736-0.589-0.617-1.05
	c1.764-6.795,6.768-9.15,6.979-9.247c0.432-0.195,0.943-0.007,1.141,0.427c0.196,0.431,0.008,0.941-0.422,1.139
	c-0.188,0.087-4.482,2.147-6.03,8.115C690.4,277.508,689.984,277.778,689.554,277.713z"/>
<path fill="#FA7764" d="M695.225,274.853c-0.243-0.036-0.47-0.175-0.606-0.401c-0.025-0.038-1.084-1.72-2.601-1.739
	c-0.473-0.002-0.855-0.393-0.852-0.869c0.008-0.475,0.396-0.855,0.871-0.85c2.471,0.025,3.987,2.457,4.049,2.56
	c0.248,0.407,0.118,0.937-0.287,1.183C695.62,274.845,695.417,274.881,695.225,274.853z"/>
<path fill="#FFC29C" d="M696.472,260.933c-0.984,5.568-2.502,10.979-4.391,16.053c-0.85,2.299-1.786,4.526-2.777,6.668
	c-6.982,15.093-17.021,25.968-25.039,26.909c-12.694,1.493-27.105-4.709-34.171-21.264c-1.153-2.705-2.363-5.972-2.941-9.822
	c-0.078-0.534-0.154-1.082-0.22-1.641c-2.07-17.2,2.292-41.721,2.292-41.721c10.405-15.534,32.774-11.394,45.751-9.258
	C687.962,228.997,700.993,235.45,696.472,260.933z"/>
<path fill="#FB9476" d="M660.753,301.674c-2.756-0.411-4.384-1.66-4.454-1.714c-0.375-0.292-0.442-0.833-0.15-1.207
	c0.291-0.375,0.83-0.443,1.203-0.152c0.029,0.021,1.488,1.108,3.92,1.407c2.48,0.302,4.143-0.27,4.157-0.276
	c0.447-0.158,0.94,0.076,1.101,0.521c0.158,0.445-0.071,0.938-0.517,1.098c-0.081,0.03-2.037,0.72-4.947,0.365
	C660.958,301.704,660.856,301.689,660.753,301.674z"/>
<path fill="#108A57" d="M612.434,466.759c-0.552,0-1.064-0.352-1.243-0.906c-1.87-5.757-3.159-12.251-3.215-12.524
	c-0.139-0.71,0.321-1.396,1.03-1.537c0.706-0.139,1.396,0.321,1.535,1.031c0.014,0.065,1.316,6.618,3.136,12.225
	c0.224,0.687-0.153,1.424-0.84,1.647C612.704,466.738,612.567,466.759,612.434,466.759z"/>
<path fill="#108A57" d="M619.415,464.416c-0.546,0-1.054-0.343-1.238-0.888c-1.945-5.731-3.32-12.205-3.378-12.478
	c-0.149-0.707,0.303-1.4,1.01-1.55c0.706-0.15,1.398,0.303,1.549,1.008c0.014,0.067,1.401,6.599,3.296,12.178
	c0.231,0.686-0.136,1.427-0.818,1.658C619.695,464.393,619.554,464.416,619.415,464.416z"/>
<path fill="#108A57" d="M626.402,462.073c-0.539,0-1.043-0.335-1.233-0.872c-2.02-5.703-3.479-12.156-3.541-12.428
	c-0.158-0.704,0.283-1.404,0.989-1.563c0.702-0.157,1.402,0.284,1.561,0.989c0.017,0.064,1.489,6.575,3.456,12.129
	c0.242,0.68-0.116,1.426-0.795,1.667C626.694,462.048,626.546,462.073,626.402,462.073z"/>
<path fill="#108A57" d="M633.38,459.73c-0.532,0-1.03-0.327-1.226-0.855c-2.097-5.675-3.641-12.108-3.705-12.379
	c-0.169-0.702,0.264-1.408,0.968-1.575c0.702-0.168,1.405,0.266,1.575,0.968c0.015,0.064,1.574,6.555,3.615,12.08
	c0.249,0.677-0.098,1.432-0.774,1.681C633.685,459.704,633.531,459.73,633.38,459.73z"/>
<path fill="#108A57" d="M640.365,457.388c-0.525,0-1.021-0.319-1.222-0.839c-2.17-5.648-3.801-12.06-3.867-12.33
	c-0.18-0.7,0.245-1.411,0.944-1.588c0.7-0.177,1.411,0.247,1.588,0.947c0.018,0.063,1.662,6.533,3.775,12.033
	c0.259,0.674-0.076,1.431-0.751,1.688C640.679,457.359,640.521,457.388,640.365,457.388z"/>
<path fill="#108A57" d="M647.345,455.046c-0.519,0-1.01-0.312-1.214-0.824c-2.246-5.62-3.961-12.012-4.033-12.281
	c-0.187-0.696,0.229-1.413,0.927-1.6c0.697-0.187,1.413,0.229,1.599,0.926c0.017,0.064,1.75,6.515,3.935,11.985
	c0.269,0.672-0.059,1.432-0.728,1.7C647.67,455.015,647.506,455.046,647.345,455.046z"/>
<path fill="#108A57" d="M654.327,452.703c-0.513,0-0.998-0.305-1.208-0.808c-2.32-5.593-4.121-11.964-4.197-12.231
	c-0.196-0.695,0.209-1.417,0.905-1.613c0.694-0.195,1.417,0.209,1.61,0.905c0.02,0.064,1.836,6.493,4.098,11.938
	c0.275,0.666-0.04,1.433-0.708,1.708C654.664,452.67,654.494,452.703,654.327,452.703z"/>
<path fill="#0CAD69" d="M691.947,313.328c-0.267,3.41-0.899,6.815-2.062,9.996c-0.295,0.814-0.628,1.611-1.001,2.391v0.004
	c-1.873,3.963-4.707,7.455-8.872,10.009c0,0-20.31,8.633-44.234-1.962h-0.004c-1.358-0.603-2.729-1.271-4.112-2.003
	c-1.207-0.639-2.417-1.329-3.63-2.073c-10.393-6.366-14.511-14.945-15.638-23.115c-0.101-0.729-0.179-1.449-0.233-2.174
	c-0.441-5.761,0.489-11.189,1.601-15.325c0.076-0.274,0.15-0.544,0.226-0.805c1.204-4.214,2.521-6.896,2.521-6.896
	s5.379-2.337,12.436-3.41c2.683-0.407,5.609-0.631,8.576-0.473c3.368,0.175,6.79,0.844,9.967,2.293
	c22.685,10.35,34.174,14.972,40.756,6.088c0,0,1.143,3.306,2.186,8.285c0.148,0.707,0.291,1.443,0.434,2.212
	c0.384,2.111,0.729,4.44,0.955,6.896C692.115,306.482,692.217,309.903,691.947,313.328z"/>
<path fill="#108E59" d="M690.862,296.369c-0.303,0.468-0.643,0.942-1.016,1.413c-2.874,3.631-8.458,7.811-18.938,7.811
	c-0.644,0-1.301-0.015-1.98-0.049c-10.163-0.485-18.086-4.681-25.751-8.737c-9.147-4.84-17.791-9.416-29.26-7.001l-0.154-0.73
	l-0.151-0.731c0.128-0.023,0.255-0.051,0.379-0.074c11.803-2.352,20.591,2.298,29.885,7.218c7.52,3.977,15.297,8.094,25.124,8.56
	c8.906,0.43,15.509-1.974,19.633-7.138c0.739-0.926,1.329-1.863,1.797-2.754C690.579,294.863,690.72,295.601,690.862,296.369z"/>
<path fill="#108E59" d="M689.883,323.324c-0.295,0.814-0.628,1.611-1.001,2.391v0.003c-3.8,2.182-8.353,3.677-13.619,4.468
	c-2.993,0.453-6.217,0.675-9.656,0.675c-4.479,0-9.323-0.38-14.492-1.141c-15.511-2.294-28.771-7.299-28.905-7.353l0.535-1.396
	c0.131,0.052,13.259,5.008,28.613,7.273C663.571,330.039,679.398,330.418,689.883,323.324z"/>
<path fill="#0CAD69" d="M654.024,442.994l-45.987,15.017c0,0-0.608-2.68-1.55-7.236c-0.209-1.016-0.438-2.129-0.675-3.324
	c-0.65-3.235-1.398-7.094-2.188-11.4c-0.198-1.092-0.398-2.208-0.599-3.354c-0.64-3.603-1.293-7.455-1.93-11.483
	c-0.175-1.116-0.351-2.244-0.522-3.387c-0.57-3.767-1.124-7.65-1.628-11.592c-0.146-1.143-0.291-2.29-0.43-3.442
	c-0.472-3.901-0.89-7.834-1.236-11.735c-0.108-1.168-0.205-2.333-0.294-3.495c-0.318-4.065-0.551-8.072-0.666-11.946
	c-0.034-1.192-0.062-2.372-0.074-3.537c-0.053-4.34,0.055-8.479,0.365-12.3c0.101-1.253,0.224-2.466,0.371-3.642
	c0.101-0.852,0.22-1.685,0.346-2.495c0.601-3.785,1.434-7.217,2.439-10.333c0.418-1.308,0.871-2.558,1.349-3.754
	c8.513-21.381,25.231-25.595,25.231-25.595c12.384,1.229,17.826,14.46,17.826,14.46c-2.596,2.474-4.471,5.873-5.757,9.95
	c-0.332,1.058-0.627,2.161-0.88,3.304c-0.689,3.062-1.107,6.424-1.301,10.002c-0.063,1.11-0.102,2.242-0.12,3.389
	c-0.056,3.343,0.061,6.839,0.317,10.431c0.078,1.122,0.172,2.25,0.276,3.386c0.321,3.459,0.758,6.989,1.285,10.532
	c0.169,1.13,0.344,2.254,0.526,3.382c0.574,3.526,1.229,7.055,1.938,10.538c0.224,1.12,0.46,2.232,0.696,3.343
	c0.765,3.581,1.579,7.096,2.412,10.489c0.27,1.104,0.542,2.194,0.818,3.271c0.921,3.643,1.86,7.117,2.765,10.344
	c0.31,1.109,0.62,2.193,0.922,3.241c1.116,3.87,2.162,7.304,3.056,10.15c0.369,1.174,0.71,2.244,1.021,3.208
	C653.303,440.944,654.024,442.994,654.024,442.994z"/>
<path fill="#108E59" d="M638.413,338.37c-0.333,1.057-0.628,2.158-0.881,3.301c-8.14-1.004-22.924-1.938-37.769,1.638
	c0.418-1.309,0.871-2.56,1.349-3.754c7.377-1.596,14.464-2.127,20.312-2.186C628.328,337.295,634.267,337.832,638.413,338.37z"/>
<path fill="#108E59" d="M636.232,351.675c-0.063,1.109-0.101,2.241-0.119,3.388c-9.715-0.417-24.975-0.025-39.506,4.714
	c0.101-1.251,0.225-2.464,0.371-3.642c9.633-2.961,19.236-4.087,26.777-4.441C628.456,351.474,632.703,351.521,636.232,351.675z"/>
<path fill="#108E59" d="M636.706,368.88c-10.369,0.175-25.94,1.472-40.39,6.737c-0.034-1.193-0.062-2.374-0.076-3.54
	c10.639-3.727,21.512-5.363,29.846-6.057c3.792-0.318,7.288-0.468,10.342-0.523C636.508,366.617,636.601,367.745,636.706,368.88z"/>
<path fill="#108E59" d="M638.521,382.795c-10.709,0.721-26.651,2.737-41.242,8.262c-0.107-1.17-0.204-2.334-0.293-3.496
	c14.675-5.435,30.318-7.429,41.01-8.147C638.165,380.541,638.34,381.667,638.521,382.795z"/>
<path fill="#108E59" d="M641.152,396.675c-10.883,1.233-27.31,3.895-42.21,9.559c-0.146-1.143-0.291-2.29-0.431-3.444
	c14.973-5.599,31.086-8.233,41.944-9.458C640.68,394.454,640.916,395.566,641.152,396.675z"/>
<path fill="#108E59" d="M644.385,410.438c-10.911,1.721-27.926,5.053-43.29,10.774c-0.175-1.116-0.35-2.244-0.522-3.387
	c15.312-5.622,32.072-8.925,42.995-10.662C643.836,408.27,644.108,409.359,644.385,410.438z"/>
<path fill="#108E59" d="M648.078,424.022c-10.791,2.195-28.49,6.261-44.448,12.026c-0.198-1.09-0.399-2.206-0.601-3.353
	c15.888-5.69,33.328-9.709,44.126-11.917C647.465,421.888,647.775,422.972,648.078,424.022z"/>
<path fill="#108E59" d="M652.146,437.379c-10.45,2.63-28.947,7.563-45.659,13.396c-0.211-1.017-0.438-2.129-0.678-3.325
	c16.615-5.774,34.859-10.641,45.318-13.278C651.498,435.344,651.837,436.415,652.146,437.379z"/>
<path fill="#128E5A" d="M635.778,333.766h-0.004c-0.341-0.019-0.69-0.059-1.055-0.128c-1.104-0.209-2.12-0.865-3.06-1.875
	c-7.906-8.528-9.943-42.183-9.943-42.183s2.963-7.324,7.227-11.613c2.681-0.407,5.609-0.631,8.576-0.473
	c0.614,6.32,2.74,26.468,5.214,32.012C645.576,315.873,645.213,334.27,635.778,333.766z"/>
<path fill="#108E59" d="M691.948,313.328c-11.554,8.966-36.769,3.804-59.792-2.98c-7.866-2.318-14.42-3.4-19.763-3.771
	c-0.097-0.729-0.177-1.451-0.231-2.174c10.008,0.626,23.416,3.438,40.025,7.212c24.632,5.593,35.853-3.848,39.632-8.347
	C692.118,306.484,692.219,309.907,691.948,313.328z"/>
<path fill="#181818" d="M675.253,267.722c-0.38,2.43,0.407,4.574,1.762,4.787c1.359,0.215,2.771-1.586,3.151-4.019
	c0.15-0.958,0.118-1.867-0.057-2.636c2.415,0.483,3.451-0.905,3.451-0.905c-1.604-0.025-3.647-0.69-4.611-1.037
	c-0.341-0.127-0.55-0.209-0.55-0.209C677.045,263.488,675.636,265.286,675.253,267.722z"/>
<path fill="#181818" d="M678.401,263.702c0,0,0.208,0.082,0.551,0.21C678.782,263.805,678.599,263.733,678.401,263.702z"/>
<path fill="#FD9B7E" d="M692.085,276.986c-0.852,2.299-1.786,4.526-2.777,6.668c-1.092,0.009-2.263-0.067-3.471-0.238
	c-5.395-0.763-9.52-3.125-9.214-5.274c0.306-2.147,4.928-3.267,10.317-2.506C688.863,275.908,690.626,276.383,692.085,276.986z"/>
<path fill="#FD9B7E" d="M652.483,273.925c-0.309,2.172-4.976,3.304-10.427,2.532c-5.45-0.774-9.619-3.159-9.309-5.331
	c0.306-2.17,4.975-3.304,10.424-2.532C648.622,269.368,652.791,271.753,652.483,273.925z"/>
<path fill="#FBB990" d="M629.982,260.194c0.295-2.056-0.58-4.094-2.258-5.315c-4.158-3.026-9.729-4.74-12.489,0.76
	c-5.123,10.21,4.186,23.891,12.238,22.089L629.982,260.194z"/>
<path fill="#FB9476" d="M631.671,277.057c-0.156,0.145-0.31,0.284-0.468,0.411c-0.462,0.383-0.935,0.708-1.415,0.979
	c-0.883,0.5-1.776,0.825-2.632,1.033c-0.082-0.539-0.156-1.085-0.217-1.644c0.611-0.146,1.241-0.359,1.863-0.673
	c0.504-0.238,1.008-0.54,1.487-0.915c0.19-0.15,0.384-0.314,0.565-0.483c0.3-0.293,0.729-0.228,0.954,0.137
	C632.034,276.259,631.979,276.784,631.671,277.057z"/>
<path fill="#FB9476" d="M623.877,270.63c-0.422-0.062-0.743-0.433-0.732-0.871c0.168-6.892-4.204-10.572-4.248-10.608
	c-0.365-0.302-0.421-0.843-0.119-1.21c0.3-0.369,0.84-0.424,1.209-0.123c0.206,0.169,5.068,4.216,4.88,11.981
	c-0.011,0.476-0.407,0.852-0.88,0.839C623.948,270.638,623.913,270.634,623.877,270.63z"/>
<path fill="#FB9476" d="M618.383,265.802c-0.198-0.03-0.385-0.127-0.522-0.289c-0.311-0.359-0.272-0.899,0.087-1.211
	c0.101-0.088,2.518-2.146,5.231-1.429c0.458,0.122,0.732,0.594,0.611,1.054c-0.124,0.458-0.598,0.729-1.054,0.611
	c-1.826-0.483-3.646,1.051-3.665,1.067C618.873,265.774,618.62,265.838,618.383,265.802z"/>
<path fill="#FB9476" d="M668.964,276.925h0.006H668.964z M664.645,281.269c-0.348-0.052-0.655-0.314-0.726-0.719
	c-0.067-0.38,0.156-0.753,0.506-0.921c2.117-1.004,4.157-2.295,4.513-2.841c-0.293-1.569-1.454-7.803-1.879-10.085
	c-0.088-0.468,0.221-0.913,0.688-1.001c0.466-0.087,0.915,0.219,1.003,0.685c0.439,2.358,1.662,8.921,1.905,10.22
	c0.086,0.449,0.341,1.813-5.516,4.588C664.98,281.271,664.807,281.293,664.645,281.269z"/>
<path fill="#181818" d="M653.719,264.505c-0.348,2.436-1.726,4.255-3.084,4.064c-1.361-0.192-2.186-2.328-1.839-4.766
	c0.137-0.958,0.433-1.82,0.825-2.503c-2.451-0.243-3.037-1.875-3.037-1.875c1.54,0.445,3.691,0.407,4.714,0.358
	c0.364-0.023,0.586-0.042,0.586-0.042C653.242,259.933,654.068,262.063,653.719,264.505z"/>
<path fill="#181818" d="M651.89,259.741c0,0-0.223,0.019-0.587,0.04C651.496,259.73,651.692,259.711,651.89,259.741z"/>
<path fill="#111111" d="M687.683,263.833c-0.492-1.018-1.14-2.032-1.838-2.944c-0.703-0.919-1.494-1.754-2.341-2.488
	c-0.84-0.746-1.765-1.356-2.721-1.845c-0.944-0.521-1.975-0.806-2.969-1.063l-0.104-0.025c-1.082-0.277-1.732-1.38-1.455-2.461
	c0.276-1.082,1.379-1.734,2.459-1.456c0.126,0.032,0.253,0.079,0.366,0.133c1.257,0.597,2.476,1.253,3.516,2.128
	c1.055,0.844,1.995,1.797,2.783,2.841c0.796,1.035,1.474,2.132,2.033,3.275c0.557,1.151,1.008,2.305,1.327,3.563
	c0.076,0.299-0.104,0.601-0.401,0.677c-0.261,0.067-0.524-0.062-0.637-0.296L687.683,263.833z"/>
<path fill="#111111" d="M641.332,256.454c0.865-1.185,1.827-2.214,2.898-3.188c1.068-0.966,2.241-1.835,3.513-2.586
	c1.261-0.765,2.645-1.368,4.098-1.809c1.453-0.483,2.998-0.66,4.556-0.761c1.112-0.072,2.072,0.773,2.145,1.885
	c0.071,1.113-0.772,2.073-1.884,2.145c-0.111,0.008-0.222,0.004-0.327-0.005l-0.13-0.014c-1.19-0.123-2.425-0.224-3.657-0.036
	c-1.234,0.145-2.48,0.436-3.684,0.904c-1.208,0.452-2.391,1.034-3.517,1.738c-1.114,0.702-2.21,1.529-3.147,2.429l-0.03,0.028
	c-0.221,0.213-0.573,0.204-0.786-0.017C641.189,256.969,641.176,256.667,641.332,256.454z"/>
<path fill="#002014" d="M640.355,234.183c0,0,15.955,21.778,53.235,20.713c20.058-0.572,2.638-31.892-27.259-33.653
	C636.433,219.484,640.355,234.183,640.355,234.183z"/>
<path fill="#181818" d="M693.688,251.488c0,0,2.24,16.608-1.604,25.498c0,0,7.208-14.867,4.96-24.264
	S693.688,251.488,693.688,251.488z"/>
<path fill="#002014" d="M650.351,234.248c0,0-17.769,30.291-13.421,54.743c4.345,24.45,10.69,43.916-6.835,45.741
	c-17.345,1.809-28.85-5.003-44.38,1.138h-0.004c-0.162,0.066-0.321,0.129-0.487,0.198c-0.406,0.167-0.771,0.268-1.108,0.313
	c-2.689,0.346-3.204-3.164-2.196-9.155c0.359-2.119,0.905-4.542,1.611-7.218c3.271-12.39,10-30.117,17.308-47.154
	c5.742-13.38,11.841-26.335,16.91-35.943c1.846-3.5,3.558-6.55,5.062-9.024c16.041-26.312,51.766-18.893,51.766-18.893
	L650.351,234.248z"/>
<path fill="#002014" d="M618.814,238.062c-0.164,0.299-9.214,16.94-17.979,34.791c-7.153,14.564-14.116,29.939-15.921,37.907
	c-0.776,3.433-1.204,6.514-1.39,9.249c-0.591,8.745,1.301,13.954,2.181,15.86c-0.159,0.066-0.321,0.131-0.485,0.197
	c-0.406,0.17-0.773,0.27-1.109,0.314c-0.698-1.542-1.78-4.564-2.195-9.155c-0.388-4.243-0.202-9.831,1.381-16.832
	c4.064-17.959,32.839-70.882,34.061-73.126c0.089-0.165,0.228-0.283,0.388-0.355c0.228-0.105,0.5-0.105,0.736,0.026
	C618.884,237.155,619.034,237.659,618.814,238.062z"/>
<g opacity="0.4">
	<g opacity="0.4">
		<g opacity="0.4">
			<g opacity="0.4">
				<g opacity="0.4">
					<g opacity="0.4">
						<path opacity="0.4" fill="#FFC29C" enable-background="new    " d="M671.44,254.942c0,0-19.357-5.879-24.87,15.403
							c-5.517,21.279,13.565,30.834,25.669,28.495C684.344,296.499,692.307,258.551,671.44,254.942z"/>
					</g>
				</g>
			</g>
		</g>
	</g>
</g>
<path fill="#FFFFFF" d="M652.134,252.681c-7.24,0-13.128,5.891-13.128,13.131c0,7.238,5.888,13.128,13.128,13.128
	s13.129-5.89,13.129-13.128C665.263,258.572,659.374,252.681,652.134,252.681z M652.134,280.747c-8.237,0-14.937-6.7-14.937-14.935
	c0-8.237,6.699-14.937,14.937-14.937s14.938,6.7,14.938,14.937C667.071,274.047,660.371,280.747,652.134,280.747z"/>
<path fill="#FFFFFF" d="M685.224,259.392c-7.239,0-13.128,5.89-13.128,13.128c0,7.241,5.889,13.131,13.128,13.131
	c7.241,0,13.13-5.89,13.13-13.131C698.354,265.282,692.465,259.392,685.224,259.392z M685.224,287.458
	c-8.236,0-14.937-6.701-14.937-14.938c0-8.235,6.7-14.935,14.937-14.935c8.237,0,14.938,6.7,14.938,14.935
	C700.161,280.757,693.461,287.458,685.224,287.458z"/>
<path fill="#FFFFFF" d="M671.139,268.642c-1.592-2.453-4.524-1.415-4.649-1.369l-0.62-1.697c1.519-0.555,4.891-0.835,6.786,2.081
	L671.139,268.642z"/>
<path fill="#108E59" d="M694.891,611.712c-4.178,2.999-9.872,11.961-19.762,15.106C618.95,644.694,566.524,610,566.524,610
	c-3.113-15.386-1.188-32.867,3.995-39.267c-1.63-2.273-0.552-4.991-0.552-4.991l-24.739-45.863c0.6,0.377,38.808,24.53,67.12,41.642
	h0.013c8.158,4.928,15.494,9.271,20.869,12.289c8.201,4.605,18.672,5.056,28.93,3.643c19.995-2.763,39.177-12.615,39.177-12.615
	s47.841-28.21,59.915-27.236C770.64,538.354,736.671,590.118,694.891,611.712z"/>
<path fill="#FFFFFF" d="M589.08,658.116c0,0-3.024,0.566-7.938,1.575c-1.399,0.286-2.951,0.604-4.627,0.96
	c-2.225,0.47-4.671,0.994-7.279,1.574c-1.488,0.329-3.028,0.676-4.612,1.035c-19.696,4.486-45.776,11.311-56.278,17.982
	c-0.735,0.467-1.45,0.931-2.138,1.396c-16.002,10.76-19.275,20.051-22.244,18.165c-3.098-1.963-3.792-10.019,1.263-15.315
	c3.499-3.67,5.949-9.024,10.649-14.812c1.27-1.564,2.704-3.163,4.368-4.768c7.351-7.083,19.114-14.403,25.683-20.03
	c0.424-0.362,0.825-0.719,1.203-1.066c5.407-4.987,7.518-15.249,17.383-18.368c4.822-1.522,10.6-0.93,16.174,0.542
	c0.991,0.26,1.977,0.551,2.944,0.858c1.451,0.464,2.87,0.975,4.237,1.501c1.889,0.74,3.68,1.518,5.313,2.28
	c1.565,0.73,2.991,1.446,4.221,2.088c2.965,1.554,4.798,2.709,4.798,2.709L589.08,658.116z"/>
<path fill="#80D7B2" d="M560.68,626.987c-5.831,7.632-19.26,22.221-34.76,18.894c0.424-0.363,0.825-0.719,1.204-1.067
	c5.407-4.987,7.518-15.249,17.383-18.369C549.328,624.923,555.106,625.518,560.68,626.987z"/>
<path fill="#80D7B2" d="M506.206,682.639c-16.002,10.76-19.275,20.051-22.242,18.167c-3.1-1.963-3.792-10.021,1.261-15.317
	c3.501-3.67,5.951-9.022,10.649-14.81C499.833,673.488,504.044,677.47,506.206,682.639z"/>
<path fill="#80D7B2" d="M581.137,659.691c-1.399,0.284-2.949,0.604-4.627,0.96c-2.914-5.321-4.376-11.811-4.287-19.212
	c0.046-3.741,0.477-7.141,0.953-9.813c1.567,0.731,2.992,1.446,4.221,2.088c-0.349,2.25-0.628,4.928-0.66,7.813
	C576.67,647.361,577.63,654.041,581.137,659.691z"/>
<path fill="#80D7B2" d="M567.863,629.347c-1.367-0.526-2.786-1.037-4.237-1.501c-0.941,2.733-2.29,7.338-2.897,12.752
	c-0.987,8.775,0.351,16.481,3.891,22.662c1.584-0.358,3.125-0.705,4.612-1.034C561.745,650.76,565.863,635.222,567.863,629.347z"/>
<path fill="#0CAD69" d="M825.234,574.854c-21.091,25.757-68.51,52.104-119.225,67.391c-17.608,5.308-32.727,9.292-45.629,12.278
	c-10.159,2.355-18.95,4.087-26.494,5.352c-29.129,4.886-39.835,2.851-39.835,2.851s-17.974-5.779-10.268-34.977
	c0,0,34.074-7.832,60.475-20.882c5.383-2.659,10.449-5.539,14.84-8.614c1.029-0.721,2.054-1.453,3.064-2.197
	c24.538-17.974,45.519-42.388,100.815-64.457c0,0,28.922-17.563,52.17-9.688c3.467,1.171,6.75,2.864,9.717,5.2
	C841.711,540.366,839.473,557.477,825.234,574.854z"/>
<path fill="#108E59" d="M721.945,634.354l-10.993,1.51l-66.685-28.997c5.383-2.661,10.447-5.538,14.841-8.614
	c1.026-0.721,2.052-1.453,3.063-2.196L721.945,634.354z"/>
<path fill="#108E59" d="M660.388,654.522c-10.159,2.356-18.95,4.087-26.495,5.352c-21.221-5.763-46.63-16.516-46.63-16.516
	l1.655-13.18L660.388,654.522z"/>
<path fill="#108E59" d="M825.232,574.856c-17.406-23.395-13.948-42.983-10.086-52.945c3.47,1.173,6.75,2.864,9.719,5.2
	C841.71,540.366,839.471,557.477,825.232,574.856z"/>
<path fill="#108E59" d="M586.683,636.457c17.734-3.473,54.206-18.359,97.563-39.821c32.427-16.052,69.918-36.735,75.608-44.22
	c3.073-4.042,3.948-7.419,2.6-10.036c-2.019-3.916-8.278-4.578-11.141-4.671c-0.738-0.025-1.343,0.574-1.32,1.314
	c0.021,0.669,0.552,1.21,1.223,1.231c2.813,0.102,7.689,0.791,8.976,3.292c1.068,2.079-0.696,5.132-2.366,7.326
	c-4.589,6.037-36.008,24.321-74.708,43.479c-33.324,16.496-76.287,35.564-96.922,39.606L586.683,636.457z"/>
<path fill="#108E59" d="M590.514,624.111c1.318,15.575,4.734,29.831,13.026,41.002c0,0-7.722,5.078-14.403,0.915
	c-5.102-3.181-14.152-27.808-9.76-40.562C583.852,623.265,587.66,622.592,590.514,624.111z"/>
<path fill="#FFFFFF" d="M712.635,664.405c0,0,2.98,0.761,7.818,2.09c1.377,0.376,2.906,0.799,4.555,1.261
	c2.189,0.614,4.596,1.299,7.16,2.048c1.463,0.426,2.979,0.871,4.534,1.333c19.36,5.768,44.938,14.283,54.98,21.624
	c0.706,0.519,1.389,1.027,2.044,1.537c15.264,11.782,17.924,21.266,21.007,19.581c3.222-1.755,4.438-9.75-0.257-15.366
	c-3.254-3.892-5.348-9.394-9.657-15.478c-1.166-1.644-2.491-3.332-4.048-5.042c-6.871-7.55-18.13-15.621-24.316-21.667
	c-0.4-0.388-0.778-0.771-1.132-1.146c-5.068-5.329-6.504-15.706-16.146-19.466c-4.71-1.833-10.515-1.62-16.173-0.517
	c-1.008,0.195-2.01,0.42-2.995,0.666c-1.479,0.369-2.927,0.783-4.327,1.221c-1.932,0.614-3.769,1.274-5.45,1.926
	c-1.611,0.628-3.079,1.248-4.348,1.812c-3.06,1.354-4.966,2.385-4.966,2.385L712.635,664.405z"/>
<path fill="#80D7B2" d="M743.006,635.197c5.319,8,17.768,23.433,33.449,21.128c-0.399-0.389-0.776-0.771-1.131-1.144
	c-5.069-5.331-6.505-15.707-16.146-19.467C754.468,633.883,748.666,634.096,743.006,635.197z"/>
<path fill="#80D7B2" d="M793.725,694.298c15.263,11.782,17.924,21.267,21.007,19.581c3.222-1.755,4.438-9.751-0.258-15.367
	c-3.254-3.891-5.346-9.393-9.656-15.477C800.682,685.58,796.22,689.281,793.725,694.298z"/>
<path fill="#80D7B2" d="M720.454,666.494c1.377,0.377,2.904,0.799,4.555,1.261c3.254-5.118,5.14-11.498,5.535-18.891
	c0.197-3.735-0.008-7.155-0.31-9.853c-1.611,0.626-3.081,1.246-4.351,1.81c0.203,2.267,0.307,4.956,0.15,7.84
	C725.719,654.484,724.323,661.085,720.454,666.494z"/>
<path fill="#80D7B2" d="M732.17,669.804c1.462,0.426,2.977,0.871,4.534,1.333c3.935-5.936,5.776-13.537,5.365-22.359
	c-0.255-5.441-1.3-10.124-2.061-12.914c-1.478,0.369-2.925,0.784-4.325,1.221C737.297,643.075,740.388,658.849,732.17,669.804z"/>
<path fill="#0CAD69" d="M718.276,634.856c5.777,29.642-12.533,34.23-12.533,34.23s-27.286,3.357-110.378-27.759
	c-47.907-17.939-92.08-45.974-112.487-72.261c-14.984-19.301-17.154-37.666,1.417-50.403c4.279-2.935,9.076-4.616,14.068-5.399
	c22.992-3.607,50.151,11.865,50.151,11.865c55.954,26.698,41.949,35.873,88.611,65.597
	C663.813,607.726,718.276,634.856,718.276,634.856z"/>
<path fill="#108E59" d="M498.363,513.265c0.89,10.022,2.415,43.535-15.485,55.803c-14.984-19.301-17.154-37.666,1.419-50.403
	C488.576,515.729,493.371,514.048,498.363,513.265z"/>
<path fill="#108E59" d="M714.82,643.356c-17.471-4.625-52.891-21.865-94.75-46.117c-31.307-18.139-67.363-41.231-72.553-49.07
	c-2.803-4.236-3.455-7.663-1.938-10.184c2.27-3.778,8.562-4.027,11.424-3.935c0.738,0.025,1.301,0.662,1.231,1.396
	c-0.065,0.668-0.633,1.172-1.302,1.152c-2.814-0.084-7.724,0.285-9.171,2.699c-1.204,2.002,0.359,5.163,1.881,7.464
	c4.185,6.322,34.343,26.624,71.705,48.273c32.174,18.64,73.799,40.477,94.125,45.857L714.82,643.356z"/>
<path fill="#108E59" d="M711.8,630.786c-2.336,15.459-6.676,29.456-15.681,40.061c0,0,7.373,5.572,14.311,1.856
	c5.299-2.837,15.942-26.82,12.396-39.834C718.502,630.378,714.747,629.459,711.8,630.786z"/>
<path fill="#FB4C47" d="M795.577,512.719c-6.203,7.938-14.762,12.379-21.556,16.92c-16.339,10.927-49.489,17.834-46.998-19.804
	c2.495-37.633,30.966-22.383,10.019-88.483c-8.94-28.203-15.098-86.337-15.098-86.337s46.796,32.784,74.484,113.639
	c2.159,6.299,3.791,12.048,4.971,17.303C806.755,489.828,802.725,503.586,795.577,512.719z"/>
<path fill="#B63A37" d="M795.574,512.719c-10.152-18.127-1.732-36.046,5.822-46.763
	C806.751,489.828,802.721,503.586,795.574,512.719z"/>
<path fill="#B63A37" d="M726.915,516.572c-0.519,0-0.983-0.36-1.094-0.888c-0.068-0.32-1.642-7.979,1.481-18.161
	c2.87-9.349,10.432-22.648,30.163-32.919c0.552-0.288,1.228-0.073,1.513,0.475c0.286,0.55,0.071,1.227-0.476,1.512
	c-18.985,9.884-26.259,22.569-29.019,31.473c-2.995,9.651-1.487,17.082-1.473,17.155c0.129,0.605-0.259,1.2-0.862,1.328
	C727.069,516.564,726.991,516.572,726.915,516.572z"/>
<path fill="#B63A37" d="M743.917,475.561c-0.152,0.016-0.312-0.002-0.466-0.053c-0.589-0.198-0.905-0.833-0.705-1.419
	c3.632-10.813,5.96-15.443,6.057-15.635c0.28-0.552,0.953-0.772,1.506-0.491c0.553,0.28,0.773,0.953,0.493,1.505
	c-0.024,0.045-2.361,4.705-5.932,15.334C744.724,475.234,744.343,475.519,743.917,475.561z"/>
<path fill="#B63A37" d="M745.183,470.636c-0.617,0-1.12-0.502-1.12-1.12c0-22.029-29.437-71.907-29.734-72.41
	c-0.316-0.532-0.141-1.221,0.391-1.536c0.533-0.316,1.219-0.139,1.537,0.392c1.228,2.069,30.047,50.914,30.047,73.554
	C746.303,470.134,745.803,470.636,745.183,470.636z"/>
<path fill="#B63A37" d="M724.346,414.025c-0.232,0-0.469-0.072-0.671-0.224c-3.809-2.847-13.448-5.364-13.545-5.389
	c-0.599-0.155-0.958-0.767-0.802-1.364c0.154-0.601,0.766-0.961,1.363-0.805c0.412,0.107,10.164,2.652,14.326,5.763
	c0.494,0.371,0.598,1.073,0.227,1.569C725.024,413.869,724.688,414.025,724.346,414.025z"/>
<path fill="#FAB893" d="M710.626,571.348c0.183,1.99,0.354,4.068,0.598,5.746c0.458,3.17,1.182,4.905,2.758,1.891
	c0.35-0.68,0.634-1.546,0.865-2.543c1.358-5.815,0.911-16.052,1.538-18.282c0.71-2.535,3.667-9.745,3.926-10.152
	c-0.134,0.3-1.467,4.709-1.62,7.429c-0.146,2.551,0,5.65,0,11.931c0,2.738,0.101,5.569,0.446,7.63v0.006
	c0.445,2.662,1.306,4.019,2.9,2.172c0.786-0.909,1.288-2.505,1.615-4.394c0.859-4.905,0.552-11.831,1.004-14.099
	c0.608-3.039,3.076-7.949,3.232-8.258c-0.935,3.127-0.935,2.819-1.454,6.927c-0.367,2.87-1.036,10.506-0.327,13.928
	c0.301,1.476,0.865,2.172,1.819,1.363c1.49-1.261,2.524-3.109,3.255-5.225c0.821-2.373,1.256-5.087,1.531-7.688
	c0.521-4.922,2.512-7.955,2.512-7.955c-1.104,5.33-1.71,10.486-1.383,13.149c0.228,1.883,0.917,2.519,2.218,1.086
	c2.537-2.788,5.1-12.007,5.985-15.474c0.03-0.106,0.055-0.213,0.08-0.313c0.032-0.106,0.051-0.199,0.078-0.29
	c0.118-0.464,0.18-0.728,0.18-0.728l0.006-0.006c0.736-2.89,1.4-5.777,2.374-8.364c1.445-3.844,3.593-7.027,7.726-8.558
	c9.376-3.486,6.497-21.318-6.646-22.39c-3.829-0.312-7.619,0.957-10.624,3.35c-1.913,1.523-4.611,3.651-7.343,5.737l-0.006,0.007
	c-0.262,0.335-8.81,10.92-11.485,17.514c-2.718,6.694-5.022,17.269-5.546,20.302C710.313,559.831,710.107,565.589,710.626,571.348z"
	/>
<path fill="#FB4C47" d="M504.045,521.514c6.242,8.14,14.854,12.694,21.688,17.352c16.439,11.204,49.795,18.285,47.288-20.31
	c-2.511-38.589-31.154-22.949-10.078-90.731c8.994-28.919,10.078-86.552,10.078-86.552s-41.973,31.636-69.834,114.548
	c-2.172,6.457-3.813,12.352-4.997,17.743C492.801,498.042,496.856,512.149,504.045,521.514z"/>
<path fill="#B63A37" d="M504.304,523.099c10.152-18.129,1.733-36.046-5.819-46.763C493.129,500.208,497.159,513.966,504.304,523.099
	z"/>
<path fill="#B63A37" d="M572.963,526.952c0.518,0,0.983-0.36,1.094-0.887c0.068-0.321,1.642-7.98-1.483-18.162
	c-2.868-9.349-10.431-22.647-30.163-32.921c-0.55-0.286-1.226-0.071-1.512,0.477c-0.285,0.548-0.072,1.225,0.477,1.512
	c18.984,9.882,26.259,22.569,29.02,31.473c2.992,9.649,1.486,17.082,1.472,17.155c-0.128,0.605,0.258,1.199,0.862,1.328
	C572.807,526.944,572.885,526.952,572.963,526.952z"/>
<path fill="#B63A37" d="M555.965,485.94c0.154,0.016,0.313-0.001,0.467-0.054c0.586-0.197,0.902-0.833,0.706-1.419
	c-3.634-10.813-5.962-15.442-6.059-15.635c-0.28-0.551-0.953-0.772-1.506-0.49c-0.552,0.279-0.773,0.952-0.493,1.506
	c0.023,0.044,2.362,4.703,5.934,15.333C555.158,485.613,555.539,485.899,555.965,485.94z"/>
<path fill="#B63A37" d="M554.696,481.015c0.62,0,1.12-0.502,1.12-1.12c0-22.028,29.438-71.906,29.735-72.408
	c0.317-0.533,0.141-1.221-0.392-1.537c-0.531-0.316-1.219-0.139-1.535,0.394c-1.229,2.067-30.049,50.912-30.049,73.552
	C553.576,480.513,554.078,481.015,554.696,481.015z"/>
<path fill="#B63A37" d="M575.534,424.405c0.233,0,0.468-0.072,0.669-0.225c3.81-2.847,13.448-5.362,13.545-5.388
	c0.599-0.154,0.961-0.768,0.805-1.366s-0.769-0.958-1.365-0.804c-0.413,0.105-10.163,2.652-14.327,5.764
	c-0.494,0.369-0.596,1.073-0.227,1.569C574.855,424.249,575.191,424.405,575.534,424.405z"/>
<path fill="#FAB893" d="M589.254,581.727c-0.183,1.991-0.352,4.07-0.595,5.745c-0.461,3.17-1.184,4.907-2.758,1.893
	c-0.353-0.681-0.636-1.546-0.867-2.544c-1.356-5.816-0.911-16.053-1.539-18.281c-0.709-2.537-3.667-9.745-3.923-10.152
	c0.131,0.302,1.464,4.709,1.618,7.43c0.146,2.548,0,5.649,0,11.93c0,2.739-0.1,5.571-0.445,7.63v0.006
	c-0.445,2.663-1.308,4.02-2.902,2.172c-0.784-0.908-1.286-2.505-1.612-4.395c-0.86-4.905-0.554-11.832-1.005-14.1
	c-0.61-3.039-3.076-7.948-3.234-8.256c0.935,3.127,0.935,2.819,1.457,6.928c0.364,2.867,1.036,10.504,0.327,13.927
	c-0.302,1.476-0.868,2.172-1.822,1.364c-1.488-1.264-2.524-3.11-3.252-5.226c-0.824-2.373-1.256-5.087-1.533-7.687
	c-0.521-4.925-2.511-7.957-2.511-7.957c1.104,5.333,1.708,10.487,1.381,13.148c-0.226,1.885-0.917,2.519-2.218,1.086
	c-2.537-2.786-5.099-12.006-5.983-15.471c-0.032-0.107-0.057-0.215-0.082-0.314c-0.032-0.108-0.049-0.201-0.076-0.288
	c-0.118-0.465-0.18-0.729-0.18-0.729l-0.008-0.007c-0.734-2.887-1.4-5.776-2.373-8.363c-1.444-3.843-3.591-7.026-7.725-8.56
	c-9.378-3.484-6.497-21.316,6.644-22.39c3.831-0.311,7.621,0.957,10.626,3.351c1.913,1.524,4.61,3.652,7.341,5.738l0.006,0.007
	c0.265,0.333,8.812,10.92,11.485,17.514c2.72,6.695,5.024,17.269,5.546,20.302C589.568,570.209,589.775,575.97,589.254,581.727z"/>
</svg>
