<svg width="192" height="65" fill="none" xmlns="http://www.w3.org/2000/svg"><path d="M85.8 38.6c.7 0 1.4-.1 2-.4a5 5 0 001.6-1.2l1.8 1.7c-.6.8-1.4 1.4-2.4 1.8a7.2 7.2 0 01-5.8.2c-.9-.4-1.6-.9-2.3-1.5a6.7 6.7 0 01-1.5-7.5A6.7 6.7 0 0183 28a7.4 7.4 0 015.9.2c1 .4 1.8 1 2.4 1.8l-1.9 1.8a4.7 4.7 0 00-3.6-1.8 4.2 4.2 0 00-4.3 4.4c0 .6.1 1.1.3 1.7a4.4 4.4 0 002.3 2.2c.6.2 1.1.3 1.7.3zm20.2-4.3a6.7 6.7 0 01-4.2 6.4 7.2 7.2 0 01-5.6 0 7 7 0 01-4.3-6.3c0-1 .2-1.9.6-2.7a6.8 6.8 0 013.7-3.7c.9-.3 1.8-.5 2.8-.5a7.2 7.2 0 015 2 6.7 6.7 0 012 4.9zm-2.8 0a4.4 4.4 0 00-1.2-3l-1.3-1c-.6-.2-1.1-.3-1.7-.3a4.1 4.1 0 00-3.9 2.6c-.2.6-.3 1.1-.3 1.8a4.5 4.5 0 001.2 3l1.3 1c.5.2 1 .3 1.7.3.6 0 1.1-.1 1.7-.3a4.2 4.2 0 002.2-2.3c.2-.6.3-1.1.3-1.8zm8.1 6.7l-5.4-13.3h3l4 10.5 4.2-10.5h2.9L114.5 41h-3.2zm9.8 0V27.7h2.7V41h-2.7zm5.2 0V27.7h5a7.4 7.4 0 015 2c.7.5 1.2 1.2 1.6 2a6.4 6.4 0 010 5.3 6.3 6.3 0 01-3.7 3.5c-1 .3-1.8.5-2.8.5h-5.1zm5-10.8H129v8.3h2.4c.5 0 1 0 1.6-.3l1.3-.8a4.2 4.2 0 001.3-3 4.3 4.3 0 00-1.3-3c-.3-.4-.8-.7-1.3-1l-1.6-.2zm12.4 4.3h7.1v2.2h-7.1v-2.2zm17.4-6.8V41h-2.6V30.3l-2.6 1.1v-2.3l3.5-1.4h1.7zm6.6-.2a5.7 5.7 0 014.2 1.8c.5.6 1 1.3 1.2 2 .3.9.4 1.8.4 2.8 0 1-.1 2-.4 2.9-.3.9-.8 1.6-1.4 2.2-.5.7-1.2 1.1-2 1.5a6.8 6.8 0 01-4.9.1c-.7-.2-1.3-.5-1.7-.9l1.4-1.9a4 4 0 002.7 1c1.1 0 2-.5 2.7-1.2.6-.8 1-2 1-3.4-.4.5-1 .9-1.6 1.2a5.5 5.5 0 01-3.9 0c-.5-.1-1-.4-1.4-.8a4 4 0 01-1-1.3 4 4 0 01-.3-1.6 4.4 4.4 0 013-4c.6-.3 1.3-.4 2-.4zm0 6.4c.6 0 1.2-.1 1.7-.4.5-.2 1-.6 1.4-1a4 4 0 00-1.1-2c-.5-.6-1.2-.8-2-.8-.6 0-1.2.2-1.7.6a2 2 0 00-.8 1.5c0 .6.3 1.2.7 1.5.5.4 1.1.6 1.9.6z" fill="#035755"/><path d="M46 33.5c0 1 .8 1.9 1.8 1.9h4.3c2.2 0 4.4.5 6.4 1.5a3.8 3.8 0 100-6.8c-2 1-4.1 1.5-6.4 1.5h-4.3c-1 0-1.9.8-1.9 1.9zM20.2 45.8c-.7-.6-1.7-.6-2.3 0l-2.5 2.6a11.6 11.6 0 01-4.6 2.8 3.1 3.1 0 00-1.4 5 3.1 3.1 0 005.4-1c.6-1.7 1.5-3.3 2.8-4.6l2.6-2.5c.6-.6.6-1.6 0-2.3zM43 23c.6.7 1.6.7 2.3 0l2.6-2.6c1.4-1.3 3-2.4 4.8-3a3.3 3.3 0 10-4.1-4.2c-.6 1.8-1.6 3.5-3 4.9L43 20.7c-.7.7-.7 1.7 0 2.3z" fill="#FB4C47"/><path d="M32.5 47c-1 0-1.9.8-1.9 1.8v4.3a14 14 0 01-1.5 6.4 3.8 3.8 0 003.1 5.5 3.8 3.8 0 003.7-5.5c-1-2-1.5-4.1-1.5-6.4v-4.3c0-1-.9-1.9-1.9-1.9z" fill="#FFA2A1"/><path d="M36 59.5c-1-2-1.6-4.1-1.6-6.4v-4.3a1.9 1.9 0 00-3.8 0v4.3c0 2.3.6 4.4 1.5 6.4a3.8 3.8 0 01-1.5 5c.5.3 1 .5 1.7.5a3.8 3.8 0 003.6-5.5z" fill="#FB4C47"/><path d="M18.3 25.6a6.2 6.2 0 100-12.4 6.2 6.2 0 000 12.4z" fill="#FF807E"/><path d="M18.3 13.2c-.7 0-1.3.1-1.9.3a6.2 6.2 0 010 11.8 6.2 6.2 0 102-12z" fill="#FB4C47"/><path d="M32.5 53.8a20.3 20.3 0 100-40.6 20.3 20.3 0 000 40.6z" fill="#FFBFBE"/><path d="M32.5 13.2l-1.9.1a20.3 20.3 0 010 40.4h1.9a20.3 20.3 0 100-40.5z" fill="#FFA2A2"/><path d="M40.1 30.7a4.1 4.1 0 100-8.3 4.1 4.1 0 000 8.3z" fill="#FFA2A1"/><path d="M40.1 22.4c-.7 0-1.3.2-1.9.5a4.1 4.1 0 010 7.3 4.1 4.1 0 101.9-7.8zM25.2 44.2a2.8 2.8 0 100-5.6 2.8 2.8 0 000 5.6z" fill="#FF807E"/><path d="M46.3 52.3a3.8 3.8 0 100-7.6 3.8 3.8 0 000 7.6z" fill="#FB4C47"/><path d="M46.3 44.7c-.7 0-1.3.2-1.9.5a3.8 3.8 0 010 6.6c.6.4 1.2.5 1.9.5a3.8 3.8 0 000-7.6z" fill="#FF807E"/><path d="M19 33.5c0 1-.8 1.9-1.8 1.9h-4.3a14 14 0 00-6.4 1.5 3.8 3.8 0 110-6.8c2 1 4.1 1.5 6.4 1.5h4.3c1 0 1.9.8 1.9 1.9z" fill="#FB4C47"/><path d="M32.5 20c1 0 1.9-.8 1.9-1.8v-4.3c0-2.2.5-4.4 1.5-6.4a3.8 3.8 0 10-6.8 0c1 2 1.5 4.1 1.5 6.4v4.3c0 1 .8 1.9 1.9 1.9z" fill="#FFA2A1"/><path d="M36.3 5.5a3.8 3.8 0 00-5.7-3 3.8 3.8 0 011.5 5 14 14 0 00-1.5 6.4v4.3a1.9 1.9 0 103.8 0v-4.3c0-2.2.5-4.4 1.5-6.4.3-.6.4-1.2.4-2z" fill="#FB4C47"/><path d="M60.2 29.7c-.6 0-1.1.1-1.6.4l-.3.1a3.8 3.8 0 010 6.6l.2.1a3.8 3.8 0 101.7-7.2z" fill="#FF807E"/></svg>