<?xml version="1.0" encoding="utf-8"?><!--Generator: Adobe Illustrator 15.0.0, SVG Export Plug-In . SVG Version: 6.00 Build 0)--><!DOCTYPE svg PUBLIC "-//W3C//DTD SVG 1.1//EN" "http://www.w3.org/Graphics/SVG/1.1/DTD/svg11.dtd"><svg xmlns="http://www.w3.org/2000/svg" width="1581" height="813" viewBox="-33.5 0 1581 813" enable-background="new -33.5 0 1581 813"><path opacity=".1" fill="#FA5652" enable-background="new    " d="M1899.1 1171.6c-6-.2-11.2 4.4-12.7 10.8a221.6 221.6 0 01-50-2.4l.1-3.4c0-5.5-.3-10.9-1-16.2a57.3 57.3 0 0131.8-11.6c2.6 6.4 8.9 10.1 14.9 8.6 6.8-1.7 10.7-9.4 8.8-17.2-1.9-7.8-9-12.8-15.7-11-6.2 1.5-10 8-9.2 15.1a44.5 44.5 0 01-32.6 4.4 115 115 0 00-8.2-23.6 118.3 118.3 0 0135.8-22.2c4.2 5.1 11 6.9 16.3 3.9 6.1-3.5 7.9-12 4-19-3.8-7-11.9-9.9-18-6.4-5.3 3-7.3 9.8-5.3 16.1a123 123 0 01-37 19.5c-4-6.8-8.6-13.2-13.8-19a84.8 84.8 0 0128.5-42.9c5.7 3.6 12.8 3.2 17-1.5 4.7-5.3 3.7-13.9-2.2-19.3-5.8-5.4-14.4-5.5-19-.2-4.2 4.7-4 12 .2 17.3a81.4 81.4 0 01-38.8 32.9c-7-5.6-14.8-10.4-23-14.2a51.5 51.5 0 0110.4-17c6.2 2.6 13.3.8 16.6-4.6 3.6-6 1.1-14.4-5.6-18.6-6.8-4.1-15.2-2.6-18.8 3.4-3.2 5.4-1.7 12.4 3.3 16.9a81.2 81.2 0 01-9.7 18.2l-2.5-1c-9.8-3.9-20.3-6.4-31.3-7.3a101 101 0 01-4.6-47.4c6.4-1.2 11.3-6.2 11.4-12.4 0-7.1-6.2-13-14.2-13-7.9-.1-14.4 5.6-14.4 12.7-.1 6.2 4.8 11.5 11.4 12.7a90.9 90.9 0 01-4.5 47.1c-10.6.5-20.7 2.4-30.3 5.6a45.2 45.2 0 01-6.7-21.4c6.2-3.2 9.5-10 7.4-16.1-2.3-6.7-10.2-10-17.7-7.3s-11.7 10.2-9.3 17c2 5.7 8.2 9 14.6 8a79.7 79.7 0 016.6 21.7c-8.7 3.4-17 7.8-24.4 13.2a108 108 0 01-30.8-36.3c4.5-5 5.4-12.1 1.7-17-4.2-5.7-12.7-6.4-19-1.6-6.3 4.8-8 13.3-3.9 19 3.7 5 10.8 6.1 16.8 3a84.6 84.6 0 0124.4 41.5 117.7 117.7 0 00-19.4 22.9 82.7 82.7 0 01-29.2-15.8c2.3-6.4.3-13.4-5.1-16.4-6-3.5-14.2-.7-18 6.3-4 7-2.2 15.5 4 19 5.3 3 12.2 1.3 16.4-4a86.4 86.4 0 0128.3 17c-6.5 11.5-11 24.2-13.3 37.7a148.6 148.6 0 01-41.8-2.8c-.1-7-4.7-13-11-13.8-7-.8-13.3 5-14.3 13-.9 8 4 15 11 16 6.1.6 11.8-3.9 13.7-10.5a160 160 0 0141.3 6.8 114.2 114.2 0 001.3 31.2 93.6 93.6 0 01-49.4 15.3c-2.4-6.3-8.2-10.3-14.3-9.2-6.8 1.2-11.3 8.7-9.9 16.6 1.4 7.9 8.1 13.3 15 12 6-1 10-6.8 10.2-13.4a145.5 145.5 0 0152-6.6c3 9.8 7.3 19 12.7 27.6a73.3 73.3 0 01-26.3 13.2c-3.4-5.8-10-8.5-15.7-6.3-6.5 2.6-9.5 10.8-6.6 18.3a15 15 0 009.6 9.2 11.4 11.4 0 009.5-1.4c4.7-3.1 6.8-9.7 4.9-16a106.9 106.9 0 0129.5-10 112.6 112.6 0 0012.4 14.1 95.8 95.8 0 01-31.7 38.4c-5.4-4-12.5-4-16.9.3-5 5-4.7 13.6.8 19.4 5.5 5.8 14 6.5 19 1.6 4.4-4.3 4.8-11.4 1.1-17a124.8 124.8 0 0139-33.1c8.5 6.3 18 11.5 28.2 15.2a85.7 85.7 0 01-12.1 35.5c-6.6-1.4-13 1.5-15.4 7.3-2.6 6.6 1.3 14.4 8.6 17.4 7.4 3 15.4 0 18-6.6 2.3-5.7-.3-12.3-5.9-15.9a125.8 125.8 0 0114.6-35.1c7.8 2.2 16 3.7 24.5 4.1a167.1 167.1 0 011.4 54.5c-6.5 1.2-11.3 6.3-11.4 12.4-.1 7.1 6.2 13 14.2 13 7.9.2 14.3-5.5 14.4-12.6 0-6.1-4.6-11.3-11-12.7a193.2 193.2 0 012.1-54.4c8.9-.3 17.4-1.5 25.7-3.7l2 3.8a88.6 88.6 0 017.8 23.3c-5.7 3.3-8.7 9.8-6.7 15.7 2.2 6.7 10.2 10 17.6 7.4 7.5-2.6 11.8-10.1 9.5-16.9-2-6-8.5-9.2-15.1-8a62.5 62.5 0 01-7.8-27.5c9.1-3.1 17.7-7.4 25.7-12.7a145.3 145.3 0 0133.8 41.6c-4.5 4.9-5.3 12-1.7 16.9 4.2 5.7 12.8 6.4 19 1.6 6.4-4.9 8.1-13.4 4-19-3.7-5-10.5-6.2-16.4-3.3a173.8 173.8 0 01-30.3-43.8 117.7 117.7 0 0022.2-23.7 131.4 131.4 0 0144.6 23.1c-2.2 6.3-.3 13.1 5 16.2 6 3.6 14 1 18-6s2.4-15.5-3.6-19c-5.3-3.2-12.2-1.5-16.5 3.6a98.7 98.7 0 01-40.1-29.7 116 116 0 007.8-18 92.7 92.7 0 0134.2 8.3c-.6 6.7 3 13 9 14.6 6.7 1.8 13.9-3 16-10.7 2-7.8-1.8-15.6-8.5-17.4-6-1.7-12.2 1.9-15 8a85 85 0 01-33.4-10.5c1.5-5.8 2.6-11.8 3.2-18a238.6 238.6 0 0150.2 2c1 6.4 5.9 11.4 11.8 11.7 7 .3 13-6 13.3-14 .3-8-5.1-14.8-12-15zM1554.4 986c-2.4 0-4.5 1.8-5.1 4.4a89.4 89.4 0 01-20-1v-1.3c0-2.2-.2-4.4-.4-6.5a22.8 22.8 0 0112.7-4.7c1 2.6 3.6 4 6 3.4 2.7-.6 4.3-3.7 3.6-6.9-.8-3.1-3.6-5.1-6.3-4.4-2.5.6-4 3.2-3.7 6a18 18 0 01-13.2 1.9c-.7-3.4-1.8-6.5-3.3-9.6a47.9 47.9 0 0114.4-8.9c1.7 2 4.5 2.8 6.6 1.6 2.5-1.4 3.2-4.8 1.6-7.7-1.5-2.8-4.8-4-7.2-2.5-2.2 1.2-3 4-2.1 6.5a48.9 48.9 0 01-15 7.8 46.1 46.1 0 00-5.5-7.7 34.3 34.3 0 0111.5-17.2c2.3 1.5 5.1 1.3 6.8-.6 1.9-2.1 1.5-5.6-.9-7.8-2.3-2.1-5.8-2.2-7.6 0-1.7 1.8-1.6 4.8 0 6.9a33 33 0 01-15.6 13.2c-2.8-2.2-5.9-4.1-9.2-5.7a21.3 21.3 0 014.2-6.8c2.5 1 5.4.3 6.7-1.9 1.4-2.4.4-5.7-2.3-7.4-2.7-1.7-6.1-1.1-7.6 1.3-1.3 2.2-.6 5 1.4 6.8a33.7 33.7 0 01-4 7.3 49.6 49.6 0 00-13.5-3.3 41.2 41.2 0 01-1.9-19c2.6-.5 4.6-2.6 4.6-5 0-2.9-2.5-5.2-5.7-5.3-3.2 0-5.8 2.3-5.8 5.1 0 2.5 2 4.7 4.6 5.1a36.5 36.5 0 01-1.8 19c-4.3.2-8.3 1-12.2 2.3a18.5 18.5 0 01-2.7-8.7c2.5-1.3 3.8-4 3-6.4-1-2.7-4.1-4-7.1-3s-4.7 4.1-3.8 6.8c.8 2.4 3.3 3.7 5.9 3.3a33.1 33.1 0 012.6 8.7 45.2 45.2 0 00-9.8 5.3 43.3 43.3 0 01-12.3-14.6c1.8-2 2.1-4.9.6-6.9-1.6-2.2-5-2.5-7.6-.6-2.6 2-3.3 5.4-1.6 7.7 1.5 2 4.4 2.4 6.8 1.2a34.2 34.2 0 019.8 16.7l-1.5 1.4c-2.3 2.3-4.5 5-6.3 7.8a33 33 0 01-11.7-6.4c.9-2.5 0-5.3-2.1-6.6-2.5-1.4-5.7-.2-7.3 2.6-1.5 2.8-.8 6.2 1.6 7.6 2.2 1.2 5 .5 6.7-1.6a35 35 0 0111.3 6.8 46.3 46.3 0 00-5.3 15.2 59.7 59.7 0 01-16.8-1.1c0-2.9-2-5.3-4.5-5.6-2.7-.3-5.3 2-5.7 5.2-.4 3.2 1.6 6.1 4.4 6.5 2.5.2 4.8-1.6 5.5-4.2a64.4 64.4 0 0116.6 2.7 51.5 51.5 0 00.6 12.6 37.7 37.7 0 01-20 6.1c-.8-2.5-3.2-4.1-5.6-3.7-2.8.5-4.6 3.5-4 6.7.5 3.2 3.2 5.3 6 4.8 2.4-.4 4-2.7 4-5.4a58.8 58.8 0 0121-2.6c1.2 4 3 7.6 5.2 11a30.3 30.3 0 01-10.7 5.4c-1.3-2.3-4-3.4-6.3-2.5-2.6 1-3.8 4.3-2.6 7.3a6 6 0 003.8 3.7 4.5 4.5 0 003.8-.6c2-1.2 2.8-3.9 2-6.4a42.9 42.9 0 0111.9-4 45.4 45.4 0 005 5.7 38.6 38.6 0 01-12.8 15.4c-2.1-1.6-5-1.6-6.8.1-2 2-1.8 5.5.4 7.8 2.2 2.4 5.6 2.6 7.6.7 1.8-1.8 2-4.6.5-6.9a50.7 50.7 0 0115.6-13.3c3.5 2.6 7.3 4.6 11.4 6.1a34.4 34.4 0 01-4.9 14.3c-2.6-.6-5.3.6-6.2 3-1 2.6.5 5.7 3.5 7 3 1.1 6.2 0 7.2-2.7 1-2.3-.1-5-2.4-6.4a50.2 50.2 0 016-14.1c3 .9 6.4 1.5 9.8 1.6a67.1 67.1 0 01.5 22c-2.6.4-4.5 2.5-4.6 5 0 2.8 2.5 5.2 5.7 5.2s5.8-2.3 5.8-5.1c0-2.5-1.8-4.6-4.4-5.1a76.2 76.2 0 01.9-22c3.5 0 7-.5 10.3-1.4l.8 1.5c1.7 3.5 2.7 6.8 3.2 9.4-2.4 1.4-3.6 4-2.8 6.3 1 2.7 4.1 4 7.1 3s4.8-4 3.8-6.8c-.8-2.4-3.3-3.7-6-3.2a25 25 0 01-3.2-11c3.7-1.3 7.2-3 10.4-5.2a58.8 58.8 0 0113.6 16.7c-1.8 2-2.1 4.9-.7 6.9 1.7 2.2 5.1 2.5 7.7.6 2.5-2 3.2-5.4 1.5-7.7-1.4-2-4.2-2.4-6.6-1.3a70 70 0 01-12.2-17.6 45.9 45.9 0 009-9.5 52.8 52.8 0 0118 9.3c-1 2.5-.2 5.3 2 6.5 2.3 1.5 5.6.4 7.2-2.4 1.6-2.8 1-6.3-1.5-7.7-2-1.3-4.8-.6-6.6 1.5a39.3 39.3 0 01-16.1-12c1.2-2.3 2.3-4.7 3.1-7.2a36 36 0 0113.8 3.3c-.3 2.7 1.2 5.2 3.6 5.9 2.7.7 5.6-1.2 6.4-4.3.8-3.1-.7-6.3-3.4-7-2.4-.7-4.9.7-6 3.2a34.2 34.2 0 01-13.5-4.2c.6-2.3 1-4.7 1.3-7.2a94 94 0 0120.2.7c.4 2.6 2.4 4.7 4.8 4.8 2.8 0 5.2-2.4 5.3-5.7.1-3.2-2-6-4.9-6z"/><path fill="#F7B66B" d="M1348.3 481.5h-15.6v13.2h15.6v-13.2z"/><path fill="#F44A45" d="M800.6 637.3s-2.3 0 0-11.8c2.4-11.8 2.4-29.9 7-35.4 4.8-5.4 20.5-11.7 32.3-18 11.8-6.3 18.8-14.2 23.5-14.2s3.2 7.1 9.5 0c6.3-7 7-.7 13.3 0l6.3.8s-1.6 6.3 0 10.2c1.6 4 4 4.8 9.4 3.2 5.5-1.6 12.6-16 15-17.5 2.3-1.4 5.4 14.3 7 19.8 1.6 5.5 12.6 19.7 16.5 27.5 4 7.9-25.1 44-31.4 45.6-6.3 1.5-25.1-1.6-28.3 0-3.1 1.5-10-14.2-10.5-15.7-.5-1.6-4.4.8-4.4.8s-9.4-7.1-15.7-6.3c-6.3.8-18 7-22 7.8-4 .8-14.1 0-14.1 0l-5.5 4.7-7.9-1.5zM882.8 669.7s1.6-6.3 2.1-9.4c.5-3.1 6.3-4.2 6.3-4.2s1.6 6.3 0 9.4c-1.6 3.2-8.4 4.2-8.4 4.2z"/><path fill="#167C51" d="M943.6 679.7s1-8.4 5.7-10c4.7-1.5 21.5-13 25.7-13.6 4.2-.5 0 9.4 0 9.4s-16.3 11.6-20.5 14.2c-4.1 2.6-11.5 2.7-11 0zM985 656s4.1-7.7 4.6-12c.5-4.1 4.2-7.3 4.2-7.3s1.6 9 2.1 9.7c.5.8 2.1 2.4 2.1 5.5 0 3.2-12 9-13 8.4-1.1-.5-1.6-1 0-4.2zM877.6 514.2s3.4 9 4.7 9.5c1.3.5 13.3 3 16.7 5.7 3.5 2.6 1.6 6.3 0 7.9-1.5 1.5 1.4 4.2 3.7 3.9 2.4-.3 5 1 5.8 2.6.8 1.6 5.2 3.4 6.5 2.4 1.3-1 2.9-5.3 4.7-5.8 1.9-.5 7.9-1.6 8.4 0s4.2 4.8 5.8 6c1.5 1.3 5.5 1.2 8.3 0 3-1-1.3-2-2.8-3.1-1.6-1-4-2.6-5.3-6.8-1.3-4.2.6-5.5-2.8-7.4-3.5-1.8-18.1-11.7-22-12.8-4-1-17.3 2.1-21.2.8-4-1.3-4-3.7-5-4.2s-7.3-3.1-5.5 1.3z"/><path fill="#035755" d="M939.1 528.1s4.2 0 6.3 1.4c2 1.5 4.2 2 2.3 2.5-1.8.6-7 2.4-8.6.8-1.6-1.6-2.4-4.9 0-4.7zM849.1 539.6s3.3-3 6-3 5.8 1.5 5.8 1.5-4.8 2.6-7 3.3c-2.1.6-6.3-.5-4.8-1.8zM836.5 539s2.6-2.9 5-3.3c2.4-.4 6.1.9 6.1.9L842 539c-3 1.2-6.6 1-5.5 0zM835.4 541.6s2.6.4 3.7 0c1-.4.7 2.6-.9 2.6-1.5 0-3.9-.1-2.8-2.6zM826 538s2.4-1.2 4.6-1.7c2.2-.5 5.5-.8 4.9 0-.7.8-1.7 2.5-3.5 2.8-1.8.3-8-.2-6-1z"/><path fill="#0C6C44" d="M795.3 529.5s2.7-2 7-1.4c4.2.6 9.6 1.7 13.1 2.7 3.5 1 8.7 5 11 4.8 2.2-.1 3.7 1.2 1 1.5-2.8.4-11.3.6-15.4-.5-4-1.1-8.5-3.7-11.8-4-3.2-.2-6.7-2.2-5-3zM838.9 528s-3-8.2-3.3-11.7c-.4-3.5 4.3-11.8 4.8-13.2.6-1.4 10.8-1.2 13.4-2.2 2.7-1-.8 4.5-3.3 4.5-2.6 0-6.9.5-8.5 1.3-1.7.7-.8 3-.5 3 .3 0 5.5.1 6.1.8.7.7-2.5 2.6-2.5 3.2.1.5 3 5.8 3.2 7.4 0 1.6-.8 6.2-1.3 5.8-.6-.5-3.2-2.1-3.5-3.4-.4-1.3-1.4-3.5-2.7-3.7-1.3-.2-.6 3.7-.6 5.1 0 1.4-.9 4.4-1.3 3z"/><path fill="#035755" d="M853.8 512.4s2.5.3 3.3 1.5c.8 1.2-1 1.5-2.2 1.4-1.3-.1-3-2.7-1-3z"/><path fill="#0C6C44" d="M862.6 508.4v-5c0-1.7.3-3.8 1.2-3.8.8 0 3 3.6 2.6 4.4-.3.8-1.1 3.8-2 4.4-.7.7-1.8 1.6-1.8 0z"/><path fill="#035755" d="M868 513.2s2.3 0 3.3.6 1.5 1.2 1 1.5c-.6.3-3 .1-3.6 0-.7-.1-2-2.2-.7-2z"/><path fill="#167C51" d="M805.1 500.8c.4-.1 4.5-1.8 7.2-1.8 2.8 0 5.4-6.8 8.6-7.3 3.1-.4 5.5-6.5 8-7.5 2.3-1 8 1.8 7.4 2.7-.6.9-2.8 3.3-3.6 5-1 1.6-.3 6.2.4 7.7.6 1.5 2.8 3.6 2.4 4a413 413 0 00-6.7 13.1 6 6 0 01-5 3.3c-2.3.1-9.9-.7-12-1.6-2-1-3.6-5.3-4.1-6.7-.6-1.4-1.9-3.3-2-5.1-.1-1.9-1.3-5.6-.6-5.8z"/><path fill="#0C6C44" d="M763.2 485.7s7.2 2.5 8.8 3.7c1.5 1.2 5.7 7 8.4 9.7 2.6 2.9 7 6 7.3 7.2.3 1.4 6.8 11.2 7.1 12.4.3 1.2 1.4 6.4 0 6.5-1.3.1-8.3-1.7-9.5-3.4-1.2-1.6-7.2-7-7.4-9.4-.3-2.4-2.8-9.9-4-11.6-1.4-1.8-4-1.7-4.9-2.9-.9-1.2-3.2-6.6-4.7-7-1.5-.5-2-5.5-1-5.2z"/><path fill="#035755" d="M793.1 511.4s0 3.2 1.2 4c1.2.7 1.9 1.6 2.3 1.3.5-.3.8-1.6.5-2.9-.4-1.2-4-3.8-4-2.4z"/><path fill="#0C6C44" d="M715.5 471v7.5c0 1.6 4.8 5 5 5.5.3.4 1.6-6.8 1.6-8.1 0-1.3-6.6-7.2-6.6-5z"/><path fill="#035755" d="M543.1 371.8l3 .8c.7.3 3.6 1.5 3.3 1.9-.3.3-3.7.4-4 .4-.3 0-2.4.7-2.8 0-.4-.6-2-3.3-1.6-3 .3.2 1.1-.3 2.1 0zM511 361.4s3 1.7 4 2c1 .2 2 2 2.6 2.7.5.7-2 0-2.6-.4-.5-.3-2.7-.5-3.4-1-.8-.6-1.4-3.7-.6-3.3zM498.6 351.5l1.8 1.8c.4.5-.6 3.3 0 4.2.5 1-.8 3-.9 2.5 0-.4-1.7-2.3-2.3-3.5-.7-1.1-.8-1.8-.7-3 .2-1 1.3-2.7 2-2zM497 344.4s-1.1 1.6 0 2.3c1 .7 2.8 1.6 2.8 1.6s.2-.9 0-2c-.2-1-2.4-3.3-2.9-1.9zM482.6 354.4s.7 1.2 1.2 1.3c.5.2 1.7-.5 2-.6.5-.1-1.6-1.1-1.6-1.4 0-.2-1.6.7-1.6.7zM476.3 356.7s.4-.5 1.5-1c1.2-.4 2.6-.3 3-.4.4 0 0 .7-.7 1.4-.7.6-1.7 1.5-3.1 1.7-1.5.2-1.8.8-1.5.2.2-.7-.2-1.2.8-2z"/><path fill="#167C51" d="M456.2 311.3s.5-2 1.5-3.6c1-1.7.5-6.4.9-7.1.3-.8 3.2-5 3.3-5.4.1-.3-7.2-7-7.5-8-.3-1 .2-4 .7-5 .4-1.2 3.1-6.5 3.7-6.7.5-.2 2.2 0 2.2 0s.6 2 1.5 2.6c.9.5 3 1.3 3.5 1.8.5.6 1 7.8 1.3 8.4.2.7 4 8.7 4.5 8.9.4.2 4.9 3.7 5 4.1 0 .5-1 7.2-1.5 7.6a65 65 0 01-6.2 1.8c-.5.1-1.6 1.2-2.8 1.4-1.2.3-10.1-.8-10.1-.8zM441.3 300.9s1.4-5.1 2.3-6.2c.9-1.1 3.5-3 4.5-3.5 1-.4 6.3-1.5 6.2-1l-.6 4.7c0 .5 1.4 3.2 1.2 4 0 .7-2.7 5.2-3.7 5.8-1 .7-8 2.3-8.2 1.7l-.5-2.9-1.2-1.2c-.4-.3 0-1.4 0-1.4z"/><path fill="#035755" d="M454.3 274.8s-1.9 2-2.2 2.5c-.3.6-1 2.9-.6 2.7.3 0 1.4-.7 2.1-1.1.8-.5 1.1-2.2 1.4-2.7.2-.4-.7-1.4-.7-1.4zM468.5 265s-2 2-2.3 2.8c-.3.8-1.3 2.3-.7 2.4.7.1 2.9-1.3 3-1.4 0-.1.3-.2.9-1.2.5-1-1-2.6-1-2.6z"/><path fill="#41294A" d="M603.7 225.8l1.4-2c.4-.3 2.4-1 2.7-1 .3 0 .9 2.7 0 3-.9.3-3.4 1.7-3.4 1.7s-1-1.2-.7-1.7z"/><path fill="#0C6C44" d="M610.2 209.8s1.2-5 2.4-6.4c1.2-1.4 8.8-11.8 9.6-12 .8-.2 3.6-1.6 5-2.2 1.4-.5 0 5.5 0 5.5s.4.1 1.4-.1c1-.2 3-.6 3 0v3.5s-8.8 6.3-8.9 7l-.4 6.4c.4 1.5 2 5 2 5.6v2.7s-4.5-1.2-5.5-1.6c-1-.5-4-5-4.5-5.2a21 21 0 01-3-1.7 7.5 7.5 0 01-1.1-1.5zM631.6 188.4s-1.2 1.2-1.7 2c-.4.9 1.7 1.9 2.7 2.5 1 .7 2.8.6 3.6 0 .7-.5 4-3.7 4-3.7-.1-.7-3-2-4-2s-4.6 1.2-4.6 1.2zM646.1 184.3s-5.5 1-5.9 1.7c-.4.6 3.9 2.4 4.9 2.4 1 0 2.4.3 3.7 0 1.2-.4 3.2-3 3.2-3s-3-1.7-5.9-1z"/><path fill="#167C51" d="M619.7 547.3s-2.3 5.5-3 6c-.6.5-6.5 6.1-8 7-1.4 1-3 2.2-3.5 3.4-.5 1.1-2.7 4.4-2.3 5 .3.7 1.8 2.5 1.8 3.3 0 .8-2.2 4.3-2.7 6-.4 1.9-1.4 9.2-1 10.2.6 1 2.2 6.4 4 7 1.8.7 10.1-11.7 11.1-14 1-2.3.2-3.3 1.5-4.3s2.8-13.4 3.3-14.9 2.1-2.3 2.3-3c.1-.6-1.3-11.2-1.7-11.7-.3-.5-.1-1.3-1.8 0zM602.2 463.8s.5.5 2.5 1.6c2 1.2 4.4-1 6.5-.8 2.1.2 11-2.5 12.6-2.5 1.7 0 2.3.6 1.7 3.7s-4 16.5-5.3 19c-1.3 2.4-16.1 16.5-19.3 19.6a101.8 101.8 0 00-10.3 12.6c-.2.8.5 13.6 1.1 15.2a34 34 0 012.2 7.5c.1 2.2-.7 17-1.3 19-.7 2-16 14.6-16.6 16.4-.6 1.8-1.6 4.8-1 5.4.7.7 2.7 1.5 2 4-.7 2.4-1.7 4.5-2.2 5.5-.4 1-3.7 1-5 2.6-1.3 1.7-1 5.6-2 8.4-1 2.8-3.7 5.7-5.2 8.2-1.5 2.4-6 6-7 8.5-1.2 2.5-3 4.4-3.7 5.4-.6 1-12.7 2-15.2 3-2.4 1-3.6 3-5.4 3.2-1.8.2-6 0-6 0s-3.2-4.4-3.5-6c-.3-1.7-2.1-4.3-1.6-7 .5-2.5-6.6-19.9-7.6-22s-1.3-15.4-1.4-18.4c-.2-3-6.1-7.7-5.5-9.6.6-2 .7-9.2 1-10.8.4-1.7 3.2-7.8 4-9.7.8-2 1-5 1-6.5 0-1.7-1.5-3.5-1.5-5.3l.2-5.2c0-.5-10-15.7-11-17-1-1.4-1.2-2.7-1-4.8.2-2.1.5-5 0-5.7-.7-.8-.6-8.4 0-9.9.5-1.4-3-5.4-3-5.4l-7.8-1s-4-5-4.8-5.2c-.8-.1-3.7-.6-4.5-.1-.9.4-4.1 1.4-5.1 1.4h-6s-1.9 2.8-3.5 3.1l-3.6.7-2.6-1.6s-4.5-.9-6.1-.5c-1.6.3-3.8 1.6-4.4 1.6-.7 0-3 0-3.5-.2-.5-.1-15.7-14.4-17-16.3-1.3-2-6.2-8.9-6.4-9.7l-.8-8-2.3-2 .8-5.4c.3-1.4 3.5-6.4 4-7.2.5-.8-.9-2.4-.7-3.3.2-.8 1.8-3.2 1.8-3.2s-1.6-5.4-1.5-7c.2-1.7-.3-2 .7-4.3s.3-9.9.8-10.8c.5-1 11.8-10.5 13.4-10.8 1.7-.4 3-2.8 3-2.8s-.2-4.1.1-6c.4-2 7.7-11.3 9-12.2 1.4-.8 3.8-4.3 4.5-4.3h15.5c1.5 0 4.5-3 5.6-3 1.1 0 27.2.3 27.8 0 .7-.4 1.2 10 2.2 10.2 1 .2 5 2.5 5.4 3.2.3.6 1 1.4 1.2 1.6.2.2 6.6 1.3 7 1.8l4.5 6.2s6.4 0 7-.3c.4-.3 2.9-5.6 3.3-6.2.5-.7 2-.7 3.7-.7 1.6 0 5.8 1.8 6.5 1.8.7 0 1 4.6 1.3 5 .3.6 2.3-2.2 2.8-2.2s10 2.3 11.1 2.8c1.2.5 11.7 11 13.6 12 2 1.1 7 15.5 7.7 16.6.7 1.2.8 4.6.8 4.6s2.8 2 3.3 3.6c.5 1.7 1.8 5 2.4 6.3.7 1.3 1.7 5 3.3 6.3 1.7 1.3 2.3 6.4 3 7.4.6 1 .8 4.7 1.5 4.9.6.2 3.2 1.3 4.2 2.1 1 .9 2.6 3 3.6 3.8 1 .8 1 5 1 5z"/><path fill="#0C6C44" d="M279.5 707.8l-6.3-3.1c-2.4-1-5-3-5-3s-1.3-2.5-2.2-2.7c-.9-.2-4.8 2.4-4.8 2.4l2.8 6.4 6.4 2.1c1 .5 9.1-2.1 9.1-2.1z"/><path fill="#167C51" d="M267.3 693.1l-1.7-5.2s5.8-6 6.5-8c.7-2.3.9-8.8.9-8.8l-2.6-3.3s6.7-10 7.2-11.8c.4-1.7 0-5.9 0-5.9s.4-1 2-1.5c1.5-.4 3.6-5.5 4.7-6.8 1.1-1.3 11.8-5.4 12.3-6.3.4-.9.8-4 .8-4s-3-7-2-7.6c1.2-.6 6.2 0 6.2 0s10.7-10.9 15.3-16.4c4.5-5.4 4.1-14.6 5.4-17.9 1.3-3.2 19-11.5 20.5-14.1 1.6-2.7 5.7-19.5 5.7-19.5s1.8-12.9 2.4-14.8c.7-2 7.7-4.8 8.1-7 .4-2.2 1-16.4 1-16.4s-11.5-3-12-4.6c-.4-1.5-.4-3.5-1.4-4.6-1.1-1-13.4-2.6-14.2-2.8-1-.2-6.4-7.2-6.4-7.2s-9.8.9-11.3 0-1.9-2.8-1.9-2.8.1-6.4 0-7.9c0-1.5-8.8-9-11.2-10.5-2.4-1.5-12.7-5.4-14.4-7-1.8-1.5-3.5-7.6-4.2-8.5-.6-.9-19.8-3-20.5-3.5l-6.8-3.5s-3 3.5-4.1 2.9c-1.1-.7-2-5-2.9-5s-6.3 3.2-6.3 3.2-4.6 1.1-5.7 2.2c-1 1.1-3.2 6.1-4.3 6.6-1.1.4-4 1-4 1s-1.3 3.8-.8 4.6c.4 1 2.6 5 2.6 5s-.4 8.8-1.1 9.4c-.7.7-9.6 12.7-9.8 13.8-.2 1.1 0 4.8 0 4.8s3.5 3 2.6 5.2c-.9 2.2-4.2 5.5-4.2 6.8 0 1.3 4.6 7.9 5.7 8.5 1.1.7 1.3 9.4 2 10.3.6.9 10 14 11.1 14.8 1.1 1 14.9 12.5 15.3 14.9.4 2.4 2.6 12.9 1.5 19.6-1 6.8-2.4 15.5-3.2 18.2-1 2.6-.3 25.8-.7 27.7-.4 2-.9 5-1.5 5.7-.7.6.2 16.8.6 19.4.5 2.6 1.3 10.3 0 12.7a18.6 18.6 0 00-2 8c.3 1.3 2.5 7.5 2.7 8.3.2.9.4 4.6.4 4.6l4 3 .8 5 5.5 1.4c1 .2 1.3-2.2 1.3-2.2s2 1.1 4.4.5c2.4-.7 1.7-2.7 1.7-2.7z"/><path fill="#0C6C44" d="M213.2 413.3s10.6-.5 11.7 0c1.2.5 11.7 7.2 12.7 7.7l6.3 3s-1.4 1.1-2.6 1.5c-1.1.3-9.1 0-9.1 0s-1.5-4-2.3-4.5c-.9-.5-5.8-3-7-3.4-1-.3-8.1 1.8-8.1 1.8s-3-2-3.4-2.6c-.5-.7 1.8-3.5 1.8-3.5zM230.7 429.6s3.6.6 4.9 1 2.8 2.2 2.8 2.2-3.3-.3-3.9 0c-.6.4-3.8 0-3.8 0s-1.1-3.4 0-3.2zM244 429.5s1.6.9 2.7 0c1.2-.8 2.8-2.4 3.8-2.4s4.9-.3 5.7 0c.8.3 3.3 1.3 2.6 2.4-.6 1.2-3.4 4.5-4.5 4.5-1.2 0-4.1.6-4.6 0-.5-.7-1.8-1-1.8-1l-3-.8c-.6-.2-2.9-3-1-2.7z"/><path fill="#F44A45" d="M299 315s11.6-10.2 12.6-9.4c1 .8 0 5.7 0 5.7s1.5 1.2 3 1.3c1.7.2 2.5 5.1 2.9 5.8.3.6 0 6.4-1.2 6.4-1.1 0-3.6-1.8-3.6-1.8l-7.5-1.2-2.5-1s-4.7-.8-4.6-1.4l.9-4.3zM232.3 244.7s3.1-6.2 4.4-7c1.3-.9 6-1.4 6-1.4s2.5 5.4 3.2 5.6c.7.2 4.6 2.8 4.6 2.8l-1.2 1h-6.7s-4.2 3.7-4.9 3.9c-.6.2-6-3.7-5.4-5zM240 250.7s-.8 2.5 0 2.7c.8.1 3.8-1.4 4.1-2.7l.3-1.3s-4.1.2-4.4 1.3zM255.7 246.5l-1.4 3.1s-.5.3 1.4-.2c2-.5 3.5-3 3.5-3s-1.7-1.2-3.5 0zM258.2 243s8.5 1.7 9.6 1.7c1.2 0 3.5 4.4 4.8 4.7 1.3.4 6 .5 7.7 2 1.6 1.5 5.2 6.5 6 6.4.9-.2 0-2.6 0-2.6l-2.4-7.4s6 6 6.7 5.6c.7-.4 1.6-10.4 1.6-10.4s-4.5-6.2-4.7-6.7c-.2-.5.5-1.4 1.6-1.6 1.2-.2 5.6 4.4 7.2 4.3 1.7-.2 8.6-7.7 8.6-7.7s-17-10.4-15.6-10.9c1.3-.4 1.8-.6 1.8-1.3 0-.6 1.1-3.9 1.1-3.9s-7.6-9-8.8-9h-5.2l-2.5-1.8a72 72 0 00-16.5-2.5s-3-4.5-3.5-4.9c-.5-.3-6.4 0-6.4 0s-3.6 8-4 7.4c-.5-.7 0-3.8 0-3.8l1.6-5.2-5.5 1s-6.8 7.2-6.6 8l.6 8.7s4.9 2.4 6.6 2.8a78.3 78.3 0 0018.6-.3l2.5-1.5 1.3 3.4s2.1 4.4 2.8 4.6l6.2 2-.5 6.7c0 .5-4.9 4.9-5.7 5.5-.8.7-6 4-6.7 4-.7 0-3.5 2.4-2.3 2.7z"/><path fill="#F44A45" d="M267.7 224.2s-4 2.3-4 3.1c0 .8-.8 4.8 0 4.6.9-.2 3.5-3.3 4-3.8.5-.6 0-3.9 0-3.9zM261.1 217.8s-2.1 0-3 1.2l-1.4 2.3s2.3.3 3.3 0c1-.4 2-1.7 2-1.7s0-1.9-.9-1.8zM140 200.8l1.7 1.7v3.3s10.1.7 10.5 0c.5-.6 1.5-4 2.2-4.3.8-.4 4-3.4 4-3.4s.7 4 0 4c-.6 0-.6 1.6-.6 1.6l1 5.4s11.8.5 11.6.9c-.3.3-2.9 1.2-2.9 1.2s-8 1-8.2 1.5c-.2.4-.4 2.5-.4 2.5l9 4.4c1.2.6 5.2 1.2 5.8 1 .7 0 4-2.2 4-2.2l9.8.4c1 0 4.3.9 5 .8h3.8s1.8-4.4 2.3-4.6c.6-.2 2-1.4 2-1.4s.1-1.4 0-2.1c-.1-.7-7.5-8.8-8-9.8-.6-1-1.5-4.6-1.5-4.6H188s-1.3 2.3-1.8 2.4c-.6.1-1.7-1.5-1.7-1.5l-3.9 1.4s-9-.5-9.5-.9l-3.1-2.4-2 .8-1.3-1.5s.8-.7 1-1.4c.3-.6 0-2.2 0-2.2s-7 .3-7.4 0c-.3-.2-2-1.2-2.4-1.3H146s-2.8 4.7-3 5.5c0 .8-3 4.8-3 4.8zM155.3 179.4s.2-1 .8-1.5c.5-.5 9-5 9.6-5.2.5-.2 8.4 0 8.4 0s-1.7 3-2.3 3.3l-5.4 2.5-1.7 3.2c-.2.1-1.7-1.6-1.7-1.6s-8-.1-7.7-.7zM169 183.4s5.2-4.8 5.7-5c.6-.2 5.6 3.2 6.1 3.3.6.1.5 2 .5 2.7 0 .7-3 3.3-3 3.7 0 .5-1.5 1-1.5 1s-.9-1.5-1.6-1.7l-6.1-.8c-.4-.1-1-2.3 0-3.2zM192.7 194.3s1.1-1 1.9-1.1h1.9s.7 2.5 0 2.8l-2.4.9s-1.1-1.9-1.4-2.7zM202.5 199.6l1.8-.7c1-.2 3.5 0 3.5 0s.4-1 0-1.6c-.4-.5-1.2-1-1.2-1V195s5.9-.5 6.1-1c.2-.4 1.2-.8 1.5-.9h3s-1.4 2.8-1.9 2.8c-.4 0-1.8 1-1.8 1l1.2 1c.4.4 1 1 1 1.7.2.7-.6 3.6-.6 3.6s-3.1 3.6-3.7 3.6c-.5 0-2.4.8-2.8 0-.5-.8-1.1-2.8-1.1-2.8l-3.8-1c-.6-.2-1.2-3.4-1.2-3.4z"/><path fill="#FA5652" d="M194.8 186.2s-.6-.9-1.3-1.3l-3.2-2c-.2 0-2.3-.6-2.4-1.2 0-.6-.2-3.6.4-4 .7-.4 2.6-1 2.6-1s.8 2 1.1 2.2c.4.1 1.6 1.2 2.8 1.2 1.2 0 3.1.8 3.1.8s-1.4 1.3-1.8 1.3c-.3 0-.5 2-.5 2l1.2.9s-1.7 1.6-2 1.1z"/><path fill="#F44A45" d="M181.3 172s-.5-1.4.7-1.7c1.3-.4 2-1.5 2-1.5s2-2.4 2.5-2.5h5s-2 2.5-2 2.8l.2 2.4s-1 2-1.4 2.1c-.4.1-5.2.6-5.4.5l-1.6-2.1z"/><path fill="#FA5652" d="M180 168.5s-2.6.5-2.6 1.1c0 .6-2 2.3-1.7 2.4h2.2l2.2-1.4c.5-.3 1.5-2.5 0-2.1z"/><path fill="#F44A45" d="M198.8 185.5s1.7-.7 2.4-.7h2.4s-.4 1.8-1.7 2.2c-1.3.5-3 .5-3 .5s-1.5-1.6 0-2z"/><path fill="#FA5652" d="M220.8 196.4s2.5-1.2 3.6-1c1 .2 3.3-.4 3.3-.4s1.7-1.5 3.5-1.5h3.6s-1.4 2.8-2 3.4c-.4.5-2.8 1.3-2.8 1.3h-3.5s-1.6 2.4-2 2.5c-.5.2-2 1.3-2.3 1.3h-2.9s.2-5.1 1.5-5.6z"/><path fill="#FA5652" d="M222.6 193s1.8-1 3.3-1h4s-1.4 2-2.4 2.3l-5.5.4c-.2 0 .6-1.6.6-1.6z"/><path fill="#F44A45" d="M220.8 187s1.4-2 1.7-2.2c.3-.1 1.7-.5 3.4-.6h4s-.3 3.7-1.3 4l-5.9 1.5c-1.3.3-2-2.7-2-2.7zM207.2 183.8s1.8.4 2.6 1c.9.7 2.8 1.4 3 1.3l3 .2c.5 0 1.9-4 1.9-4l1.6-2.2c.2-.3-.5-1.7-.5-1.7h-5s-1.1-.4-1.5-.4c-.3.1-2.5 2.3-2.5 2.3l-2.6 3.5zM202.5 180.2l1.9-2.2s1 .2 2 0c.9-.1.8 1.8.8 1.8s-1.7 1.9-1.9 1.7c-.2-.2-2 0-2 0s-1.8-.3-.8-1.3zM199.3 172s.6 1.4 1.3 1.6c.8.3 1.6 1 1.6 1l1.4.4s-.4-2.6-.6-3c-.2-.3-4-.6-3.7 0zM213.3 164.2l-3.3-1.8c-.7-.2-2.8 0-2.8 0l-.8 1.8-2.6 2s-1.8 1.8-1.6 2 3.6.2 5 .4 5.6-.3 5.6-.3l1.5 2s1.6.5 2.1.5l2.4-.2s-.6-3-.9-3.3c-.3-.3-2.7-1.3-2.7-1.3s-1.4-1.5-2-1.8zM227.2 172s-3.2-.5-3.7-1.2l-1.1-1.4-2.1-2.2 5.2-1.5c1-.2 3 1.7 3.2 2 .2.1.5 1.4.5 1.4l.7 1.2 1.3 1.3s-3.2.5-4 .4z"/><path fill="#FA5652" d="M229.3 172.3s1.9-.2 2.6 0c.7.1 1.3 1 1.3 1l.3 1s-2.7.2-3 0c-.4 0-1.2-.3-1.7-.6-.4-.2.5-1.4.5-1.4zM223 176.5s5.4-.2 6.2 0c.8 0 2.3.8 2.3.8l2 .7-2.7 1.2h-3.4l-2-.7H223c-.8-.1-1.5-1-1.5-1s.7-1.3 1.5-1z"/><path fill="#F44A45" d="M177.6 188.8s4.9-2.1 6-1.9c1.3.3 7.2 0 7.2 0l4.6-.8-4-4.4-3-2-5.7 2-4-1.2-1.1 4.3v4zM223 178.5a1435.5 1435.5 0 007.7 3.7c1-.2 1.7 2.6 1.7 2.6l2.4 4 1.5.9s5.3-1.6 6.5-1c1.2.7 4.2 2.2 4.6 1.8.5-.4 5.6-1.3 7.8-.8s6.8.9 6.8.9l3.6-1.8-4-4c-.7-.6-8.6-1.4-8.6-1.4s-10 .2-10.3 0c-.3-.3-2.7-3.7-3-3.6l-5-1.3h-11.6zM260.6 195.4s1.3 2.6 2.8 3.1c1.5.5 6.4 1 6.4 1h4.1s-2.5-4-4-4.1c-1.7-.2-9.3 0-9.3 0zM271.3 180.8s-1.8-1.6-2.6-1.5c-.9 0-2.2-.8-2.2-.8l-3.1 2.3s-3-1.6-4-1.5h-6l-3.9.5-5.9-.1-2.4-1.7 4-3.5c.5-.4 1.7-2.3 2.2-2.3.5 0 2.8-.5 3.3 0 .4.4 2 1.1 2 1.1l.9-1.1-1.1-2-2.2-1.4 1.2-.4-1.2-1.8-3 1.8h-3.7l-7.8-.8-3-7.2-3-1.4s-1-3 0-3 3.7-3.2 3.7-3.2 3-4.4 3.7-4.4c.7 0 5.8 1.5 5.8 1.5s10.8 10.6 11 11.1c0 .5 1.2 4.8 1.9 4.7.6-.1 4.7.6 4.7.6s-.8-3.4-1.3-4l-2.6-3.4 1.6-.8s1.7-.2 3.7 1l2 1-.6-4.2-4-1.3-4.7-.5-4.3-1.4s-2.5-1.7-3.7-2.8c-1.1-1.2-1.3-3.1-1.3-3.1l5-2.2 6.3-1.6 2.6.8 4-.8s4.4-1.5 6.5-2c2.1-.5 5 .9 9.2 0 4.2-.8 5.5-1 7.2 0 1.6.9 3.4.9 3.4.9l3.6-1.6H307.1l4 2.7 5 1.5s3.8.1 4.3.6-3 3.1-3 3.1l-9.4 1s-1.2 6-2 6-4.4 1.2-4.4 1.2-6.6 2.6-7.9 3c-1.3.3-11.1 1.1-11.1 1.1s-.8 5.6-1.3 6c-.5.2-2.5 2.3-2.5 2.3l.7 1.5-8.5 6.1s2.3 1.3 1.3 2.9l-1 1.5z"/><path fill="#167C51" d="M286.7 170s1.6-2.3 2.6-2.6l5.9-1.3s6.9-2.5 8.2-2.8c1.3-.3 4.9-2.8 4.9-2.8s-3.3-.1-3.4-1.3c-.2-1.1.8-2.4.8-2.4s1.4-3 2.6-3.3l6.4-2 2.4-2.1s11.2-3.3 13-4.1c1.8-.8 14.4.5 18.1 0l6.1-1s2-1.3 4.6-2c2.6-.6 12.3-1.3 16.4-.8 4 .5 7-1.2 7-1.2s22.8-.6 24.7 0c2 .6 9 1.7 9.5 1.7s4 3.5 3.1 3.3c-.8-.2-4.5 1-4.5 1s-16.7.8-17.6 1.3c-.8.5-1 2.1-.5 2.1s20.5-1 21-.8c.5.2-2.1 4-1.3 4s4.7-1.9 5.2-1.9l19.4.5c1.1 0-1 2.8-1 2.8s-5.8 1.8-7.4 2.5c-1.6.6-1.8 3.7-2.6 3.7s-5.3 2-5.3 2-1.1 4.6-1.8 6c-.6 1.5-2.7 3.3-2.7 3.3l1.8 3.6c.5.8 3 3.4 3 5.5v2s-5.3-1.6-5.8-2c-.5-.4-.5 2-.5 2l1.8 1.5s.5 10.8 0 11.8l-1.8 4-8.2-3.3s-.7 3.2 0 3.2c.6 0 4 2.7 4 2.7l.6 3.9s-4.4-1.6-5.7-2.5c-1.4-.8-1.5.7-1.5.7l1 1 4.9 2.6s1.4 3.6 1.6 5c.2 1.2-.3 2.2-.3 2.2H411l-2.3-2.1-3.5-.4-3 .9-3.2.5-.5 2 5 .9s5.2-.7 7 0c1.8.7-2.5 4-3 4.6-.5.6-6 4.6-6.7 4.6-.6 0-2.1-.4-7.7 0-5.5.3-8.8 1.3-8.8 1.3l-2.3 3.3-3.8 3.4c-.5.5-4.2 1.1-4.2 1.1h-5.8s-.8 3.3-1.6 3.8-6.7 7.4-6.7 7.4-3.3 8-4.4 10c-1.2 2-2 4.7-3 5.5-1 .8-3.4 3.3-3.4 3.3h-4.5l-9.6-7-3.5-11.2s-1.3-.1-1.4-1.3c-.2-1.1-3.1-11-3.1-11l.1-8.7 4-3 1.8-1 .1-5-1.1-.8-2.6 2h-2.7l1.2-4.7 2.3-2 4.2-.3-3.6-2.8-4.7-1.2s-1-12.4-1.8-13.4-3.7-3.8-3.7-3.8l-3.7-6-5-2.1-5-1.6H294.7l-3.6-2.4-2.6-1 2.3-1.3 3-2 3-.7-1-1.2h-5.2l-1.6-1.1-2.3-1.2zM409.6 236.2h4.1v2.1h2.5l5-2.1 8.8-1 2.6 1.5 2.1 3.9-3.8 7.4-5 2-5.3 1.9-2.6-2.3-5.7-1.2-2.6-5.5v-.8l-1.2-2.5-2.8-1 1.5-2 2.4-.4z"/><path fill="#FA5652" d="M101.2 301.8l3 2.2 3.3 3 1.2 3v1.8l-3.8-2.4-3-2.6-.7-3.3v-1.7z"/><path fill="#DA5C5D" d="M89.4 271.5v6.9l-3.5-3.4v-4.8s2.2-.3 3.5 1.3z"/><path fill="#FF5476" d="M94 278.4l2.6 4.1v3.6l-2.7-2.3-2.4-2.4 2.4-3z"/><path fill="#DA5C5D" d="M33.5 274.3l3.3-3.3 3.1-2.4 1.3 1.6-2.1 2.8-1.7 2.5h-3l-.9-1.2z"/><path fill="#F44A45" d="M862.5 393.6v-8.3l1.6-3.6 3 2.7v9.2h-4.6zM867.1 378.7l3.7-5h6.2l2.8-3.3 2.6-4.3s.6 3.7 2.6-2l2-5.6v-4h5.3l3.6 2v13.9l-2 6-4 2.3-10.1 4.7s1.6 3.6-1.8 1.6l-3.3-2-4.6-1.3h-3v-3zM886 349.9v-4.3l3-4.3v-5h5.3l3.6 2 3.7 2-3.7 6-5.3 3.6H886zM887.7 332.3l-1.7-12.6v-2l-4.5-6v-12.9h3l1.5 8 5 11 2.8 1.6v12.9h-6.1z"/><path fill="#0C6C44" d="M801.4 436.5l4.4-3.8h4.2v3.8l-4.3 3.1h-1l-3.3-3.1zM835.8 423.2l1.8-5.7 2-2.7 2.2-1 2.7 4.7-4.4 4.7v2.3l-4.3.8v-3zM837.6 437.2v8l-1.8 4.8 3.1 3.7 4 3 1.6-5.6v-13.9l-4.4-1-2.5 1zM846.7 452.9l.8 3.7v1.3l3.1 2.5 1.1-3.8V453l-1.5-1.1-3.5 1zM853.4 460.4v2.2l-1.7 4-2.5 1v3.4h1.2l3-1.3s2.5-2.5 3.6-4l1.2-1.6v-2.4l-4.8-1.3zM840.1 456.6l5.4 1.8v2l-2.7.9-2.7-1-.7-1.4.7-2.3zM830.5 471l2.5-5.3 2.8-2.5h2.5l1 1.4-1 4-2.5 2.4-.8 4h-4.5v-4zM845.5 478.5l6.2-3.5 2-4h2.7l1.4 1.3.4 2.4v3.8l-.4 4.4-2.6.9-3.5-1.8v-1.7l-5 1.7h-1.2v-3.5z"/><path fill="#167C51" d="M975.8 239.7a405 405 0 00-28.4-13.1c-.9-.3-14.2-3-14.9-2.2-.6.9-1 4.6-2 4.3l-2.3-.8-1.8-2-13.7.4c-1.3 0-4 2.7-5 2.7-1.1 0-7.7-8.1-8.8-8.3-1-.3-19.7-.9-19.9-1.1-.2-.2-.8-2.9-2.4-3.3-1.5-.4-16.1-5.9-17.6-5.9H844c-1.5 0-3.5 4.6-3.5 4.6s-14.2.4-15.5.6c-1.3.3-2 1.1-3 1.1-1.1 0-8.1-10.4-9.6-10.9-1.6-.4-9.2-1.3-11.2-1-2 .1-3.7 1.9-5.2 1.7-1.5-.2-6.1.4-7.4-.5-1.4-.8-3.1-.7-4.4-1.3-1.3-.6-11.8-.8-12.9-1-1-.3-2.8-2.5-4.1-2.2-1.3.2-6.8 3.2-7.7 3-.9-.2 3-3 3-3s6.8-4.6 7.3-6.4c.4-1.7-2.6-4-3.7-5.4a9 9 0 00-4.8-3c-1.3-.3-7.9-1-10-1.8-2.3-1-3.8-3.3-5.5-3.7-1.8-.5-4-.3-6 0-1.9.2-6.3 5.2-7.4 5.4-1 .2-14.4 1.3-15.2 1.3-1 0-6.6 4.4-8.3 4.6-1.8.2-6 1.8-7.2 3-1.3 1.4-2.7 6.2-4.4 6.2-1.7 0-7-.5-8 .8-1.2 1.4-3.8 2.2-2.5 3.1 1.3.9 8.8 6.1 7.7 6.6-1.1.4-4.9-1.4-8-2.2-3.2-.9-5.8-1.1-6.4-.7-.7.5-1.8 3.7-3.1 3.5-1.3-.2-2.2-5.7-3-5.9-1-.2-3.6.9-3.6 3.7 0 2.9 2 7.4 3.3 10.5 1.3 3 5.3 5.2 7.2 5.9 2 .7 3.3 3 2.2 3.5-1 .4-5-.2-5.7.2-.6.4-3.5 6.6-5.4 7.4-2 1-5.7 1.6-5.3 1 .5-.7 3.7-6.2 3.5-9.7-.2-3.5-2.2-8.3-3.5-11-1.3-2.5.4-6 0-8.6-.4-2.7-7.4-2.7-9.6-1.8-2.2.9-4.6 4.4-5 6.6-.4 2.1 2.6 7.6 4.8 9.8 2.2 2.2.9 4.3-.2 4.3s-7.9-5.6-11.8-7.6-9.2-1.7-11.1-1.5c-2 .2-2.9 3.5-1.3 3.3 1.5-.3 5.2 3 5.2 3.7 0 .6-14 1-16 1.5-2 .4-4.3-.9-5-1.1-.6-.2-16.6 10.5-17.4 10.3-.9-.3-1.1-6-1.3-6.8-.3-.9-3.8-2.2-4.4-2.4-.7-.2-.9 3.5-1.1 5-.2 1.5-4 5-4 5l-6 5.3s1.7 3.5 0 3.5c-1.8 0-6.6-2.9-8.1-2.9s.4 4.7 0 5c-.5.3-2.6 0-2.6 0s-7.2-10.6-6.4-11.5c.9-.9 6.6-.7 7.7.9 1 1.5-.2 2 1 1.5 1.4-.5 6.4-1.1 6.4-1.1s3-3.3 3-4.2c0-.8-21.3-14.6-22.7-15-1.3-.5-.4.4-3.2.4-2.9 0-4-.2-4-.2s-.8.2 0-1.8c1-2-5.2-4.8-5.9-5-.6-.2-5.2 2-5.9 2-.6 0-3.9-.7-3.9-.7l-7.9 4s-5.2.8-6 1.7-5 1.1-5.7 1.8c-.7.6-7.2 5.6-5.7 6.3 1.5.6 1 4.4 1 4.4s-13.9 15.7-15.9 17.4c-2 1.8-9.6 8.5-9.8 9.6-.2 1.1-2.2 4.2-1 4.8 1 .7 3 2 3 2.9 0 .8.9 9 1.7 9.1 1 .3 4.2.5 4.2.5s4.6-2.9 5.2-2.9c.7 0 3.8 7.7 4.5 8.8.8 1 1 5.4 1 5.4l3.5 1.6s5.9-1.4 7.4-2.2c1.5-.9 1.3-7.7 1.3-8.8 0-1 6.3-7 6.6-8 .2-1.1-2.7-8.3-2.9-9.4a15 15 0 012-7.2c1-1.1 3.3-1.1 4.3-2.4 1.1-1.3 5.7-7.7 6.8-8.5 1.1-1 5.3-1.4 5.3-1.4s2 2.9.6 3.5c-1.3.7-7.2 4.8-7.6 6-.5 1-4.2 11.7-2.9 13 1.3 1.3 5.3 4.4 7.5 4.8 2.1.5 9.1-2 11.3-1.5 2.2.4 4.8 2.4 4.8 2.4s-8 1.1-9.6 1.8c-1.5.6-4.1 1.3-4.1 1.3s-.7 8-1.8 8c-1 0-5.4 1.8-5.4 1.8s-4 9.4-5 9.8c-1.2.4-24 1.1-26 .4l-1.1-11.3s-3.3 2-4 2.8-1 9.4-2 10c-.8.7-8.7 5.3-9 6.2-.3.9-10.6 14.2-12.3 14-1.8-.3-7-1.1-7.5.2-.4 1.3-.8 3.5-2.1 4.1-1.4.7-7.5 2-7.5 2s1.3 1.7 2.2 2c.9.2 2.9 0 2.9 0s3.7 6 4.5 6.7c1 .7-.2 8.5-.4 9.2-.2.7-4.6 0-5.9 0-1.3 0-5.4-1-5.4-1l-9.7 2.7c-1 .3-3 2.2-2.1 3.3l2.1 3-1.3 4.9-2.8 6s4 6.2 5.2 7.5c1.3 1.3 16.6-.4 17.5 0 .9.5 6.8-5.7 7.4-6.5.7-1 0-7.2 0-7.2s8.5-4.6 9.6-6.2c1.1-1.5 1.1-5 1.1-5s10 .5 11.4.2l6.7-.8s6.6 7.6 8.1 9.1c1.6 1.6 10.7 6.6 10.7 6.6s2.2 5.7 2.6 4.8c.5-.9.5-5.9.5-5.9s.4.2 1.7-.2c1.3-.5-11.8-9-12.6-11.4l-2.4-6.3s15.2 7.4 16.6 9.6c1.3 2.2 1 10 2.1 10.5 1.1.4 4.2 4.1 4.6 5.2.5 1.1 2.2 5.5 3.3 5.7 1 .2 3.5 1.5 3.5 1.5s5-5.2 5-5.9c0-.6-3.5-4.8-4-5.9-.4-1 7.3-4.3 9-4.5 1.8-.3 5.3 1.3 5.3 1.3s-6 4.6-4.6 5.9c1.3 1.3 4 10.2 5.7 10.4 1.7.3 18.7-1.3 20 0 1.4 1.3 2 3 2 3s-1 16-4.9 16c-4 0-11.8.4-10.1 1 1.6.7 6.1 7.7 12.2 10.8 3.7 2 13.2 18.4 13.6 21.4.3 3 13.8 33 16.4 34.3 2.6 1.3 30.5-11.1 33.4-12.4a66 66 0 0013.4-18c0-1.7-7.2-14.1-7.8-15.1-.7-1-11.8 5.2-13.8 4.6-2-.7-12.1-19-10.8-19.7 1.3-.6 6.6 2.3 6.6 2.3s4.9 9.2 6.5 9.5c1.6.3 11.5-2 12.8-1.6 1.3.3 2 5.9 4 5.9 1 0 7.8.3 13.6.7l12-13.7v-27.7l10.7-5.3 8-7.5 4.3-7.6v-29.7l8.9-4.7 9.2-1.3 3.3-10V290l7-10h14.1v4.3l9.7 9.4h5.3l7.8 5h11.6l10.6 6.8 8.2 1 8.3 5.1h10.4l8.8-5.2 5-7.7 5-5V290l-5-12.7-8.8-2-1-7.8 4.8-6.1h5l5-9.6h9.5l5.4 5.9h7.4l11.6 9.8 8 2.6h10.3l2.6 7.9c5.1-.5 11.7-.9 12.2-.5.9.7 2.4 3.3 4.6 3.5 2.2.3 7.6-3.8 9.2-3.6 1.5.1-2.2-3.6-2.2-3.6s3.7-5.2 5.2-5.2 3.7 2 5.2 2.6c1.6.7 9.2-5.9 9.2-5.9s1.3 1.6 1.3 2.2c0 .7-8.3 13.5-10 14.6-1.8 1.1-4.4 3.7-4.4 3.7s-1.7 10-.9 11.8c1 1.8 8.6 21 9.7 19.2a180 180 0 007.6-14c.4-1.5-1.3-3.4 0-5.4 1.3-2 4.4-4 4.4-5.2 0-1.3-1.8-5.7-2-7.4-.2-1.8-2.6-3.1-2.6-3.1s.6-4.6 2.8-5c2.2-.5 2.6-2.2 6.6-2.4 3.9-.2 5.9-.5 5.9-.5s3.2 1.6 4.1 1.6c.9 0 5.5-9.2 6.8-9 1.3.2 4.6.9 5.4.4l3.7-1.5s3.5-.9 3.5-2.2c0-1.3-3.2-7.8-4.3-8.3-1.1-.4-2.6-2-2.6-2s1.7-1.9 2.6-2.3c.8-.5 1.3-3.7 1.3-3.7s1.5-1.6 3 0a67.7 67.7 0 0016 9.8l3 .4v-5.4c0-1.1 1.8-4.2 1.8-4.2s-14.4-6.5-15.7-7.8z"/><path fill="#F44A45" d="M872.5 270.2l-8-2.6-11.5-9.8h-7.5l-5.4-6h-9.5l-5 9.7h-5l-4.7 6.1.9 7.8 8.8 2 5 12.7v3.7l-5 5-5 7.7-8.8 5.2h-10.4l-8.3-5.2-8.2-1-10.6-6.7h-11.6l-7.8-5h-5.3l-9.7-9.4v-4.3h-14.2l-6.9 10v15.4l-3.3 10-9.2 1.4-8.9 4.7v29.7L693 359l-8 7.5-10.5 5.4v27.6L662.4 413c4.3.3 8 .7 8.6 1 1.3.9 11.5 10.7 11.5 10.7l-2.7 2s3.6 4.2 5.3 4.6c1.6.3 7.8-2.3 7.8-2.3s2 14.4 2.3 15.7c.3 1.3 9.5 29.8 12.5 29.5 3-.4 5.9-6 7.5-9.9 1.6-3.9.7-12.7 2.3-15 1.6-2.3 6.5-2.3 7.2-4.3.6-2 3.6-8.8 3.6-8.8s8.2-1 8.5-2.3c.3-1.3 1.7-5.3 1.7-5.3l9.1-3.9s2.3 7.5 4 7.9c1.6.3 8.1 6.5 8.1 6.5s-1.6 9.2-.6 9.5c1 .3 9.8-.6 9.8-.6s2.7 11.3.9 13.2c0 0 1.6 13.4 2.8 16.2 1.2 2.9 6.9 8.1 7.8 10.4.8 2.3 0 6.8 1.7 8.7 1.8 2 7.4 6 8.9 6.7 1.4.6.7-4.2 1-5.5.2-1.3-1.7-.7-1.7-4.1 0-3.4-.1-4-.6-5.5-.6-1.5-9.3-10-10.6-11-1.2-1-3-3.2-3.3-4.4-.3-1.2-.2-7-.2-8.1 0-1.3 3.3-5.5 3.5-5.5.2 0 6.4 7.4 7.7 8.4 1.3 1 4.3 8.3 5.7 8.7 1.4.5 10.5-10 11.6-12 1-2 2-11.3 0-13.4-2.1-2-7.2-5-7.8-7.3-.5-2.4-2.3-6.6-1.2-8.2a21 21 0 016-5c.9-.1 4.3 2.3 5.4 2.1 1 0 3.6-1 4.9-1.2 1.3-.2 12.9-5.8 15.3-8.7 2.4-2.8 12.2-17.9 11.9-20.3 0 0-3-4.4-2.3-5.7l2.3-4.5-9.1-12.8s8.1-7.2 6.8-8.5c-1.2-1.3-16.4-2-15.7-3.6.7-1.7 7.3-10.5 8.2-10.5 1 0 2.7 6.9 2.7 6.9s8.1-2 9.5-1c1.3 1 1.3 6.2 2.2 8.2 1 2 5 11.4 6.6 11.1 1.6-.3 3-5 6.6-5.2 3.6-.4 0-7.2 0-10.2 0-3-5-4-4.3-7.5.6-3.6 3.6-10.2 8.2-10.8 4.6-.7 10.5-5.6 13.4-9.5 3-4 6.6-17.7 5-23-1.7-5.2-2-12.7-2-12.7l-7-1.8s-5 .7-5 0c0-.6-3.3-4.3-3.3-4.3s16-17.3 17.6-18c.6-.2 3.3-.5 6.4-.8l-2.6-7.9h-10.3zM915.3 289l8 2.5 2.5 5 6.3 1v5.5l-6.3 16-10.5-15-.4-6.3.4-8.7zM805.2 500.8l3.4 1.9h4.5l3.8.7 3.7-2.6 4-5.2 3.7-3.9.5-2.5 3.3-2.3 2-1.9s-3.4-1.9-4.6-1.2l-3 1.9-6.9 6.5-2.6 1.3-4.2 5-3.4.5s-4 1.3-4.2 1.8z"/><path fill="#167C51" d="M185.3 377.6h-10.6l-14.5 3.4-5-3.4-8.3-2.3-10.6 2.3-20.6-1.4c.5 2.7 1 6.2 2.3 7.2 2 1.4 2.8 9 3.1 10 .4 1 1 3.2 2.7 3.9 1.6.7 3.7 6.7 4.2 8.3.5 1.7 5.2 5.4 6.4 5.8 1.1.3 1.6-2.6 1.6-2.6s-3.9-5.3-4.2-6.6l-2-5.9c-.2-.5-3.6-11.8-3-11.8.7 0 1.5.3 1.5.3l5.3 12.3c.6 1.5 8.5 10.3 9.5 11.3s3 14.3 3.6 14.8l11.1 10c1 .8 7.2 4.4 8.7 5.2 1.5.8 4.7 1 5.2 1s10.8.1 11.2.8c.3.6 5.7 6.2 6 7 .3.8 8.9.8 10 1.2 1.2.3 3.1 4.7 3.4 6 .4 1.4 10.2 12.2 11.3 13.3 1.2 1.2 7 1.3 7.7 1.2.9-.2 2.8-1.2 3.5-1.8.6-.7.6-3 .6-3s-1.6-1.8-2.4-1.8h-4s-5.8-4-6.3-5c-.5-1.2 1.1-16.6.8-17.3-.3-.6-12-2.6-12.5-3.6s0-4 0-4 3.6-8.2 3.6-9.2-3.8-3.8-3.8-3.8l-14.3 8.4c-.9.4-13-.9-13.6-1.8-.7-1 .5-23.6.8-25.6.3-2 6.2-8.2 8.8-8.8 2.7-.7 16.4-.4 17.6-.9 1.1-.4 5.4-2.6 5.4-2.6l-8.2-7-12-3.5z"/><path fill="#F44A45" d="M306.2 292.7l-7.7-9.7s-2.3-12.4-2.8-13.1c-.5-.7-4.3-4.6-4.3-4.6l-3.3 3.6-2 2-6.1-.7s-1.7-10.5-2.3-11c-.7-.4-10.5-7.1-11.7-7.6-1.1-.5-8.6 1.1-9.3 1.1-.6 0-3.3 13.8-3.3 13.8l-2 3c-.4.4-.3 3.8.7 4.2 1 .3 1 4.9 1 4.9l-2.4 6-5 3.5c-.6.5-2 9.8-2 10.5 0 .6-1.2 4.9-2.6 4.2-1.3-.6-2-5-2-5l-3-1.7s-1-5.6-1.5-7c-.5-1.5-8.5-6-8.5-6s-8.7-6.2-9.3-6.3l-6.6-2.3-.8-2.8s-2.5-.8-2.8-1.3c-.3-.5-.5-4.8.5-5.9 1-1.2 12.3-16.2 13.3-16.7s5.2-1 5.2-1 10.3-11 11.6-11.8c1.3-.8 6.4-2 6.4-2s6.7-2 7.4-2.6c.6-.5 1.8-11 1.1-11.8-.6-.8-7-1.6-7.7-1.3-.6.4-.8 3.8-2.6 4.5-1.8.6-6.7 5.2-6.7 5.2s-.7-7.5-1.1-7.5l-4.6-.2s-1.3-3.5-1.8-3.1c-.5.3-2.3 0-2.3 0s-.2-6.6-.8-8.4c-.7-1.8-4.3-3.4-4.3-3.4s-5 6.9-5.2 7.4c-.2.5 1.6 2.6 1.6 2.6l4.7 1.8s-1.8 2.8-2 3.6c0 .8-3.4 1.8-3.4 1.8l-1.4-2.8-5.4-3.4s-5 3-4.6 3.9c.3 1 2.1 1.6 2.1 1.6l-1.6 1.8s-8.4.7-10.3.7c-2 0-11.2-2.5-12.2-2.3-1 .2-2.3 3.4-2.3 3.4s-5.7.4-6.3.2c-.7-.2-13-1.3-12.8-1.8.1-.5 1.8-2.1 1.8-2.1l-.7-1.5-12.4-1.5s-1.5-1.6-3.1-2.6c-1.7-1-12.5-1-12.5-1s-1.3-1.8-2.6-2.1c-1.3-.3-15.4.7-15.4.7s-6.4 4.2-7.4 4.4c-1 .1-10.6-.8-10.6-.8s-5.9-4.1-7.5-4.3c-1.7-.2-13.5-1.3-14.4-1.6l-4.6-1.8s-2.8 1-3.3 1-2.5-1.7-3.8-2.5c-1.3-.8-16.7-2-18-1.3l-4.9 2.4s-8 2.8-8.7 2.8c-.6 0-2 4.3-3.4 4.8-1.5.5-7.4.8-7.5 1.4l-1 3.2s4.7 2.7 5 3.4c.4.6-.4 3.1.7 3.6 1.2.5-2.8 1.5-3.6 1.3-.8-.2-5.7 1.6-5.7 1.6s-3.1 3.5-3.3 4.1c-.2.7 0 2 0 2s10.5-.2 10.5.8-.5 3.8-.5 3.8-6.7 2.4-7 3.4c-.4 1-6.8 6-7 6.7-.4.9-.3 9.4.7 10l2.3 1.5s0 2.8.2 3.4c.1.7 11.3 1.5 11.3 1.5s.5 4.4-.5 4.8c-1 .3-8.4 3.4-10.5 3.9-2.1.5-12.3 9-12.3 9s-1.1 1 0 1.1c1.2.2 10.2-4.9 10.7-4.9l9.1-.5c2.3-.1 9.2-5.9 10.2-6.8 1-1 3.3-5.1 3.3-5.1L40 267c1.1-.5 2.4-3.3 2.4-3.3l6.7-9s3.3 1.1 2.8 1.6-7.2 6.2-6.7 6.6c.5.3-1.5 3-.5 2.7 1-.3 7.4-3.7 8.7-3.7 1.3 0 3.1-.3 3.1-.3s2-3.3 2.6-3.3c.7 0 3.3 3 4 3 .6.3 14.9-.2 16.3.3 1.5.4 4.5 3.6 4.5 3.6l6.5.3c1.3 0 3.3 2.6 3.3 2.6s4.7 12 5.9 13.6c1.1 1.6 2.8 17.7 3.3 18.3.4.7 2.7 1.2 3.7 2s2.1 5 2.8 5.4c.7.3 2.8 3.8 2.8 3.8l-4.1 3.9c-.7.5-.2 15.9-1 17-.8 1.2-4 4.1-4 5.1s-.7 13.4-.2 16.4c.4 3 6 18 7.7 18.2 1.6.1 2.9-.4 4 1.3.4.5.7 1.7 1 3.1l20.6 1.4 10.6-2.3 8.4 2.3 4.8 3.4 14.6-3.4h10.6l12 3.4 8.2 7.1s8.5 0 9.6.8c1.2.9 4.4 12.2 5.3 13.1.8 1 4.7 4.3 5 3.6l2.2-4.5s-1.7-11-1.7-11.7c0-.6.7-4.7.4-5.7-.4-1 10.3-9.2 11.7-10.1 1.5-1 3.6-3.6 3.6-3.6s2.7-9.7 3.5-10.2c.8-.5 8.2-10.5 9.2-10.8 1-.3 6-3.1 7-3.8 1-.6 1.3-3.4 2-4.4.6-1 6.2-5 6.2-5s5.2.4 6 0c.9-.6 4.5 0 4.5 0l9.1-5.8s-7.3-6.6-8.3-6.4c-1 .2-1.2-5.9-.7-6.7l2-3.4s-.2-2.8.5-3.2c.6-.3 8-1.1 8-1.1s4 1.1 5 1.1c.9 0 14-9.5 14-9.5s-.3-5.5 0-6-3.4-2.1-3.4-2.1zM474.6 315l6.2 1.9 3.2-1s2.5.8 4 0l1.5-.6v-4.1l-2.3-2.7-5.2-2-7.4 8.6z"/><path fill="#FFF" d="M64 88h75a5 5 0 015 5v213a5 5 0 01-5 5H64a5 5 0 01-5-5V93a5 5 0 015-5z"/><path fill="none" stroke="#A2A5B2" stroke-linecap="round" d="M106.8 217.2h-8.2M106.8 162.1h-8.2"/><path fill="none" stroke="#687089" stroke-width="1.5" stroke-linecap="round" stroke-linejoin="round" d="M88.9 124.8h27.6M102.7 111v27.6M88.9 189.2h27.6"/><path fill="#F44A45" d="M99 241.2c.7-2 3.4-2 4.2 0l7.6 19c.6 1.5-.6 3.2-2.2 3.2H93.5a2.3 2.3 0 01-2.2-3.2l7.6-19z"/><path fill="#A2A5B2" d="M103.2 287.9c-.8 2-3.5 2-4.3 0l-7.6-19c-.5-1.6.6-3.2 2.2-3.2h15.1c1.6 0 2.8 1.6 2.2 3.1l-7.6 19z"/><path fill="#FFF" d="M930.2 88h67.6c2.3 0 4.2 1.9 4.2 4.2v64.6c0 2.3-1.9 4.2-4.2 4.2h-67.6a4.2 4.2 0 01-4.2-4.2V92.2c0-2.3 1.9-4.2 4.2-4.2z"/><path fill="none" stroke="#F44A45" stroke-width="2.7" stroke-linecap="round" stroke-linejoin="round" d="M961.6 133.1a11.6 11.6 0 100-23.1 11.6 11.6 0 000 23.1zM979 139l-9.3-9.3"/><linearGradient id="a" gradientUnits="userSpaceOnUse" x1="1265" y1="93.6" x2="1265" y2="1267.1" gradientTransform="matrix(1 0 0 -1 25 1321.1)"><stop offset="0" style="stop-color:#FFFBFB"/><stop offset="1" style="stop-color:#FDFDFD"/></linearGradient><path fill="url(#a)" d="M1038 88h504v635h-504V88z"/><path fill="#FFF" d="M1095.6 407h43.7c1.5 0 2.7 1.2 2.7 2.6v29.7c0 1.5-1.2 2.7-2.7 2.7h-43.7a2.6 2.6 0 01-2.6-2.7v-29.7c0-1.4 1.2-2.6 2.6-2.6z"/><defs><filter id="b" filterUnits="userSpaceOnUse" x="1093" y="407" width="49" height="35"><feColorMatrix values="1 0 0 0 0  0 1 0 0 0  0 0 1 0 0  0 0 0 1 0"/></filter></defs><mask maskUnits="userSpaceOnUse" x="1093" y="407" width="49" height="35" id="c"><path fill="#FFF" filter="url(#b)" d="M1095.6 407h43.7c1.5 0 2.7 1.2 2.7 2.6v29.7c0 1.5-1.2 2.7-2.7 2.7h-43.7a2.6 2.6 0 01-2.6-2.7v-29.7c0-1.4 1.2-2.6 2.6-2.6z"/></mask><g mask="url(#c)"><path fill="#F1361D" d="M1093 407h49v35h-49z"/><path fill="#FFDC42" d="M1110.6 417.4l1.7.3 1.3 1.2.3-1.7 1.2-1.3-1.7-.3-1.3-1.1-.3 1.7-1.2 1.2zm4.6 6l1.4-1 1.8.1-1-1.5.1-1.7-1.5.9h-1.7l1 1.4-.1 1.8zm-2 9.5l-1.5 1v-1.7l-1-1.5h1.8l1.4-1v1.8l1 1.4h-1.7zm1.2-4.4l1.7-.2 1.6.8-.2-1.7.8-1.6-1.8.2-1.5-.7.2 1.7-.8 1.5zM1104.7 426.4l-4.1 3 1.5-4.9-4-3h5l1.6-4.8 1.6 4.8h5l-4 3 1.5 4.8-4.1-2.9z"/></g><path fill="#13615F" d="M1180.3 436.4c-2 0-3.7-.4-5.3-1.3-1.5-.8-2.7-2-3.6-3.6a11 11 0 01-1.3-5.4c0-2 .5-3.9 1.3-5.4a9 9 0 013.6-3.7 11.7 11.7 0 019.9-.4c1.4.5 2.5 1.4 3.4 2.4.9 1 1.5 2.3 1.7 3.7h-4c-.3-1-1-2-2-2.6-1-.7-2.2-1-3.7-1-1.3 0-2.4.3-3.4.8-1 .6-1.7 1.4-2.2 2.5-.5 1-.8 2.3-.8 3.7a8 8 0 00.8 3.7c.5 1 1.3 1.8 2.3 2.4 1 .5 2 .8 3.3.8 1.4 0 2.6-.3 3.6-1s1.8-1.5 2-2.7h4.1a7.7 7.7 0 01-1.7 3.7c-.8 1.1-2 2-3.4 2.5-1.3.6-2.9 1-4.6 1zm12.4-21.7h3.5v9c.4-.6 1-1 1.8-1.4.7-.4 1.6-.6 2.4-.6 1.7 0 3 .5 3.8 1.6a6 6 0 011.4 4.1v8.6h-3.5v-7.8c0-1.2-.3-2.1-.8-2.6-.6-.5-1.2-.7-2-.7s-1.5.2-2.2.7c-.6.5-1 1.3-1 2.5v7.9h-3.4v-21.3zm18.3 4.8c-.7 0-1.3-.3-1.7-.7-.5-.4-.7-1-.7-1.6 0-.7.2-1.3.7-1.7.4-.4 1-.6 1.7-.6s1.3.2 1.7.6c.5.4.7 1 .7 1.7 0 .6-.2 1.1-.7 1.6-.4.4-1 .7-1.7.7zm-1.7 2.7h3.5V436h-3.5v-13.8zm14.9-.5c1.6 0 2.8.6 3.8 1.6s1.4 2.4 1.4 4.1v8.6h-3.5v-7.8c0-2.2-1-3.3-2.8-3.3a3 3 0 00-2.3.8c-.5.6-.8 1.4-.8 2.4v7.9h-3.4v-13.8h2.9l.2 1.6c.5-.6 1-1.1 1.9-1.5.8-.4 1.6-.6 2.6-.6zm22.9.5V436h-3.3v-2a5 5 0 01-2 1.8c-1 .4-2 .6-3 .6a6 6 0 01-5.7-3.4 8.4 8.4 0 01-.9-3.9c0-1.4.3-2.7.9-3.8.6-1.2 1.4-2 2.4-2.6 1-.7 2.2-1 3.6-1 1 0 2 .2 2.8.6a5 5 0 012 1.6l.3-1.7h2.9zm-7.5 11c1.2 0 2.2-.3 2.9-1.1.7-.8 1-1.8 1-3 0-1.3-.3-2.3-1-3.1-.7-.8-1.6-1.2-2.8-1.2s-2.2.4-2.9 1.2c-.7.8-1 1.8-1 3 0 1.3.3 2.3 1 3.1.8.8 1.7 1.2 2.8 1.2z"/><path fill="#035755" d="M1387.8 425.8c.8.3 1.4.8 1.8 1.5.4.7.6 1.4.6 2.3 0 1-.2 1.7-.7 2.4-.5.7-1.2 1.3-2 1.6s-1.8.6-2.8.6c-1.1 0-2-.2-3-.6-.8-.3-1.5-.9-2-1.6-.4-.7-.7-1.5-.7-2.4 0-1 .2-1.7.7-2.3a4 4 0 011.7-1.5c-.5-.3-1-.8-1.3-1.4-.4-.6-.6-1.2-.6-2 0-.7.3-1.4.7-2 .4-.7 1-1.2 1.8-1.5a6.2 6.2 0 015.3 0c.8.3 1.4.8 1.8 1.5.4.6.6 1.3.6 2.1a3.8 3.8 0 01-1.9 3.3zm-3.2-5c-.7 0-1.2.1-1.7.5-.4.4-.7.8-.7 1.4 0 .6.3 1.1.7 1.5.5.4 1 .6 1.8.6.6 0 1.2-.2 1.6-.6.5-.4.7-.9.7-1.5s-.2-1-.6-1.4c-.5-.4-1-.6-1.8-.6zm0 11c.9 0 1.5-.2 2-.6.6-.5.9-1 .9-1.8a2 2 0 00-.8-1.7 3 3 0 00-2-.6c-.9 0-1.6.2-2.1.6a2 2 0 00-.8 1.7c0 .7.3 1.3.8 1.8.5.4 1.2.6 2 .6zm7.4-10.6c1.3 0 2.2-.3 2.9-.7.6-.4 1-1 1.3-1.9h2.4V434h-2.7v-10.8h-3.9v-2zm11 9.5c.5 0 1 .2 1.4.6.4.4.6 1 .6 1.6 0 1-.4 2-1 2.7-.8.7-1.7 1.2-2.8 1.3v-.9c.7 0 1.2-.3 1.6-.7.4-.4.6-.9.5-1.3h-.5c-.5 0-.9 0-1.2-.4-.3-.3-.5-.6-.5-1.1 0-.6.2-1 .5-1.3.4-.3.8-.5 1.3-.5zm10.7-6.2c1.3.1 2.4.6 3.1 1.5.8.8 1.2 1.9 1.2 3.2a4.8 4.8 0 01-2.7 4.4c-.9.4-1.8.6-2.9.6-1 0-2-.2-2.8-.6a4.7 4.7 0 01-2.7-4.5h2.8c0 .8.2 1.4.7 2 .6.5 1.2.7 2 .7.9 0 1.6-.2 2-.7.6-.5.9-1.2.9-2s-.2-1.4-.7-1.8c-.5-.5-1.1-.7-1.9-.8h-2.6v-1.9l3.8-3.6h-6v-2.4h9.4v2.3l-3.6 3.6zm17.8 4v2.4h-2v3.1h-2.6v-3.1h-7.1v-2.1l6.4-10.2h3.4v10h1.9zm-4.6 0v-6.7l-4.2 6.8h4.2zm12.2 5.8c-1.2 0-2.3-.3-3.2-1a6 6 0 01-2-2.7c-.5-1.2-.7-2.6-.7-4.3 0-2.5.5-4.4 1.6-5.8a5 5 0 014.3-2.2c1.2 0 2.3.4 3.2 1 .9.6 1.5 1.5 2 2.7.5 1.3.7 2.7.7 4.3 0 1.7-.2 3-.7 4.3a6 6 0 01-2 2.7c-1 .6-2 1-3.2 1zm0-2.5c1 0 1.8-.5 2.3-1.4.5-1 .8-2.3.8-4s-.3-3.2-.8-4.2-1.3-1.4-2.3-1.4c-1 0-1.8.5-2.3 1.4-.5 1-.8 2.3-.8 4.1 0 1.8.3 3.1.8 4s1.3 1.5 2.3 1.5z"/><path fill="#128E5A" d="M1476.7 430.6c-.7.7-1.7.7-2.4 0l-8.3-10c-.8-1 0-2.4 1.2-2.4h16.6c1.3 0 2 1.5 1.1 2.5l-8.3 10z"/><path fill="#13615F" d="M1171.2 360v-19.9h3.7V360h-3.7zm15-11h-2.6v11h-3.5v-11h-2.6v-2.8h2.6v-3.7h3.5v3.7h2.6v2.8zm16.3-2.8V360h-3.3v-2c-.5.8-1.1 1.3-2 1.8-1 .4-1.9.6-3 .6a6 6 0 01-5.7-3.4 8.5 8.5 0 01-.8-3.9c0-1.4.3-2.7.8-3.8.6-1.2 1.4-2 2.4-2.6 1-.7 2.3-1 3.6-1 1 0 2 .2 2.8.6.9.4 1.6 1 2 1.6l.3-1.7h3zm-7.4 11c1.1 0 2-.3 2.8-1.1.7-.8 1.1-1.8 1.1-3 0-1.3-.3-2.3-1-3.1a3.6 3.6 0 00-2.9-1.2c-1.2 0-2.1.4-2.8 1.2-.7.8-1 1.8-1 3 0 1.3.3 2.3 1 3.1.7.8 1.6 1.2 2.8 1.2zm11.2-18.5h3.5V360h-3.5v-21.3zm20.8 7.5l-6.4 16.3a8 8 0 01-2 3c-.8.7-2 1.1-3.5 1.1-.9 0-1.7-.1-2.5-.3v-2.9l1.9.3c1 0 1.6-.2 2-.6.5-.3.8-.9 1-1.6l.4-1-6-14.3h3.8l3.8 10.1 3.8-10.1h3.7z"/><path fill="#FFF" stroke="#F5F5F5" stroke-width=".7" d="M1095.7 331.3h43.6c1.3 0 2.4 1 2.4 2.4v29.6c0 1.3-1 2.4-2.4 2.4h-43.6c-1.3 0-2.4-1-2.4-2.4v-29.6c0-1.3 1.1-2.4 2.4-2.4z"/><defs><filter id="d" filterUnits="userSpaceOnUse" x="1093" y="331" width="49" height="35"><feColorMatrix values="1 0 0 0 0  0 1 0 0 0  0 0 1 0 0  0 0 0 1 0"/></filter></defs><mask maskUnits="userSpaceOnUse" x="1093" y="331" width="49" height="35" id="e"><path fill="#FFF" filter="url(#d)" stroke="#FFF" stroke-width=".7" d="M1095.7 331.3h43.6c1.3 0 2.4 1 2.4 2.4v29.6c0 1.3-1 2.4-2.4 2.4h-43.6c-1.3 0-2.4-1-2.4-2.4v-29.6c0-1.3 1.1-2.4 2.4-2.4z"/></mask><g mask="url(#e)"><path fill="#E43D4C" d="M1125.7 331h16.3v35h-16.3z"/><path fill="#1BB65D" d="M1093 366h16.3v-35H1093v35z"/></g><path fill="#035755" d="M1381.5 349.8c.8.3 1.3.8 1.8 1.5.4.7.6 1.4.6 2.3 0 1-.3 1.7-.7 2.4-.5.7-1.2 1.3-2 1.6s-1.8.6-2.9.6c-1 0-2-.2-2.9-.6a4.3 4.3 0 01-2.7-4 4 4 0 012.4-3.8c-.6-.3-1-.8-1.4-1.4a3.8 3.8 0 01.2-4c.4-.7 1-1.2 1.8-1.5.7-.4 1.6-.6 2.6-.6s1.9.2 2.7.6c.7.3 1.3.8 1.8 1.5.4.6.6 1.3.6 2.1a3.8 3.8 0 01-1.9 3.3zm-3.2-5c-.7 0-1.3.1-1.7.5-.5.4-.7.8-.7 1.4 0 .6.2 1.1.7 1.5.5.4 1 .6 1.7.6s1.3-.2 1.7-.6c.5-.4.7-.9.7-1.5s-.2-1-.7-1.4c-.4-.4-1-.6-1.7-.6zm0 11a3 3 0 002-.6c.6-.5.8-1 .8-1.8a2 2 0 00-.8-1.7 3 3 0 00-2-.6c-.8 0-1.5.2-2 .6a2 2 0 00-.8 1.7c0 .7.2 1.3.8 1.8.5.4 1.2.6 2 .6zm13.6-8c1 0 2 .2 2.8.6.8.4 1.5 1 2 1.8.4.8.7 1.7.7 2.7a5.1 5.1 0 01-2.9 4.7c-.9.4-2 .6-3 .6-1.2 0-2.2-.2-3-.6a5 5 0 01-2.7-4.6c0-1 .2-1.9.6-2.7l1.5-2.5 3.5-5.2h3l-3.7 5.3 1.2-.1zm-.4 8c1 0 1.6-.2 2.2-.8.6-.5.9-1.2.9-2 0-1-.3-1.6-.8-2.1a3 3 0 00-2.2-.8c-.8 0-1.6.3-2.1.8-.6.5-1 1.2-1 2 0 1 .4 1.6 1 2.1a3 3 0 002 .8zm9.3-1.1c.6 0 1 .2 1.5.6.4.4.6 1 .6 1.6 0 1-.4 2-1.1 2.7-.7.7-1.6 1.2-2.8 1.3v-.9c.8 0 1.3-.3 1.7-.7.4-.4.5-.9.5-1.3h-.6c-.4 0-.8 0-1.1-.4-.3-.3-.5-.6-.5-1.1 0-.6.2-1 .5-1.3.3-.3.8-.5 1.3-.5zm14.7-2.1v2.3h-1.9v3.1h-2.6v-3.1h-7.1v-2.1l6.3-10.2h3.4v10h2zm-4.5 0v-6.8l-4.2 6.8h4.2zm12.2-10.3c1.1 0 2.1.3 3 .7s1.5 1.1 2 2c.5.7.7 1.6.7 2.6a6 6 0 01-.3 2 8 8 0 01-.7 1.6l-1.1 1.6-3.5 5.2h-3l3.7-5.3a5.9 5.9 0 01-4-.5 5 5 0 01-2.6-4.5c0-1 .2-2 .7-2.8.5-.8 1.2-1.4 2.1-1.9.9-.4 1.9-.7 3-.7zm-3 5.4c0 .8.2 1.5.8 2a3 3 0 002 .8c1 0 1.7-.3 2.3-.8.5-.5.8-1.2.8-2 0-1-.3-1.6-.8-2.1a3 3 0 00-2.2-.8 3 3 0 00-2.1.8c-.6.5-.9 1.2-.9 2zm19.4 2.1c.8.3 1.4.8 1.8 1.5.4.7.6 1.4.6 2.3 0 1-.2 1.7-.7 2.4-.5.7-1.2 1.3-2 1.6s-1.8.6-2.8.6c-1.1 0-2-.2-3-.6a4.3 4.3 0 01-2.7-4 4 4 0 012.4-3.8c-.5-.3-1-.8-1.3-1.4-.4-.6-.6-1.2-.6-2 0-.7.3-1.4.7-2 .4-.7 1-1.2 1.8-1.5.8-.4 1.7-.6 2.7-.6 1 0 1.8.2 2.6.6.8.3 1.4.8 1.8 1.5.4.6.6 1.3.6 2.1 0 .7-.1 1.4-.5 2-.3.6-.8 1-1.4 1.3zm-3.2-5c-.7 0-1.2.1-1.7.5-.4.4-.6.8-.6 1.4 0 .6.2 1.1.6 1.5.5.4 1 .6 1.8.6.6 0 1.2-.2 1.7-.6.4-.4.6-.9.6-1.5s-.2-1-.6-1.4c-.5-.4-1-.6-1.8-.6zm0 11a3 3 0 002-.6c.6-.5.9-1 .9-1.8a2 2 0 00-.8-1.7 3 3 0 00-2-.6c-.9 0-1.6.2-2.1.6a2 2 0 00-.8 1.7c0 .7.3 1.3.8 1.8.5.4 1.2.6 2 .6z"/><path fill="#F44A45" d="M1474.3 343.4c.7-.7 1.7-.7 2.4 0l8.3 10c.8 1 0 2.4-1.2 2.4h-16.6c-1.3 0-2-1.5-1.1-2.5l8.3-10z"/><path fill="#13615F" d="M1171 264.1h3.7v12.6c0 1.5.4 2.6 1.3 3.3.9.7 2 1 3.3 1a5 5 0 003.4-1c.9-.8 1.3-1.9 1.3-3.3V264h3.6v12.7c0 1.7-.4 3-1 4.2-.8 1.1-1.8 2-3 2.6-1.3.5-2.7.8-4.3.8-1.6 0-3-.3-4.3-.9a6.7 6.7 0 01-2.9-2.5c-.7-1.2-1-2.5-1-4.2v-12.7zm20.3 5.7c0-1.2.2-2.3.8-3.2.6-1 1.5-1.6 2.5-2.1 1.1-.5 2.4-.8 3.8-.8a9 9 0 013.6.8c1.1.4 2 1.1 2.6 2 .6 1 .9 2 .9 3.1h-3.8c0-.8-.3-1.5-1-2a4 4 0 00-2.5-.8c-1 0-1.8.2-2.4.7-.5.5-.8 1.1-.8 1.9 0 .7.2 1.3.7 1.6.6.4 1.2.6 2 .8l3.3.8c1.5.4 2.7 1 3.6 2a5 5 0 011.4 3.6 5.7 5.7 0 01-3.6 5.5c-1 .5-2.4.7-4 .7-2.1 0-4-.5-5.4-1.6a5.8 5.8 0 01-2.2-4.4h3.7c0 .9.4 1.6 1.2 2.1.7.6 1.7.8 2.9.8 1 0 2-.2 2.6-.7.7-.5 1-1.1 1-2 0-.7-.2-1.3-.7-1.6-.4-.4-1-.7-1.8-.9l-3.3-.8c-1.6-.4-2.9-1-3.8-2a5 5 0 01-1.3-3.5zm23-5.7h3.8l7.3 19.9h-3.8l-1.6-4.5h-7.6l-1.7 4.5h-3.7l7.4-19.9zm4.6 12.4l-1.2-3.5-1-3-.5-1.2a51.2 51.2 0 01-1.5 4.2l-1.3 3.5h5.5z"/><path fill="#FFF" d="M1095.7 255h43.6c1.5 0 2.7 1.2 2.7 2.7v29.6c0 1.5-1.2 2.7-2.7 2.7h-43.6a2.7 2.7 0 01-2.7-2.7v-29.6c0-1.5 1.2-2.7 2.7-2.7z"/><defs><filter id="f" filterUnits="userSpaceOnUse" x="1093" y="255" width="49" height="35"><feColorMatrix values="1 0 0 0 0  0 1 0 0 0  0 0 1 0 0  0 0 0 1 0"/></filter></defs><mask maskUnits="userSpaceOnUse" x="1093" y="255" width="49" height="35" id="g"><path fill="#FFF" filter="url(#f)" d="M1095.7 255h43.6c1.5 0 2.7 1.2 2.7 2.7v29.6c0 1.5-1.2 2.7-2.7 2.7h-43.6a2.7 2.7 0 01-2.7-2.7v-29.6c0-1.5 1.2-2.7 2.7-2.7z"/></mask><g mask="url(#g)"><path fill="#D02F44" d="M1142 255h-49v2.3h49V255zm0 4.7h-49v2.3h49v-2.3zm-49 4.6h49v2.4h-49v-2.4zm49 4.7h-49v2.3h49V269zm-49 4.7h49v2.3h-49v-2.3zm49 4.6h-49v2.4h49v-2.4zm-49 4.7h49v2.3h-49V283zm49 4.7h-49v2.3h49v-2.3z"/><path fill="#46467F" d="M1093 255h21v16.3h-21z"/><linearGradient id="h" gradientUnits="userSpaceOnUse" x1="1078.5" y1="1063.8" x2="1078.5" y2="1052.1" gradientTransform="matrix(1 0 0 -1 25 1321.1)"><stop offset="0" style="stop-color:#FFFFFF"/><stop offset="1" style="stop-color:#F0F0F0"/></linearGradient><path fill="url(#h)" d="M1102.3 258.5a1.2 1.2 0 11-2.3 0 1.2 1.2 0 012.3 0zm-4.6 0a1.2 1.2 0 01-2.4 0c0-.6.5-1.2 1.2-1.2.6 0 1.2.6 1.2 1.2zm8.1 1.2a1.2 1.2 0 100-2.4 1.2 1.2 0 000 2.4zm5.9-1.2a1.2 1.2 0 01-2.4 0 1.2 1.2 0 012.4 0zm-12.9 3.5a1.2 1.2 0 100-2.3c-.6 0-1.1.5-1.1 1.1 0 .7.5 1.2 1.1 1.2zm5.9-1.2a1.2 1.2 0 11-2.4 0 1.2 1.2 0 012.4 0zm3.5 1.2a1.2 1.2 0 100-2.3 1.2 1.2 0 000 2.3zm3.5 1.2a1.2 1.2 0 01-2.4 0 1.2 1.2 0 012.4 0zm-5.9 1.1a1.2 1.2 0 100-2.3 1.2 1.2 0 000 2.3zm-3.5-1.1a1.2 1.2 0 11-2.3 0 1.2 1.2 0 012.3 0zm-5.8 1.1c.6 0 1.2-.5 1.2-1.1s-.6-1.2-1.2-1.2a1.2 1.2 0 100 2.3zm3.5 1.2c0 .6-.5 1.2-1.2 1.2-.6 0-1.1-.6-1.1-1.2a1.2 1.2 0 012.3 0zm3.5 1.2c.6 0 1.2-.6 1.2-1.2a1.2 1.2 0 10-1.2 1.2zm5.8-1.2a1.2 1.2 0 11-2.3 0 1.2 1.2 0 012.3 0zm1.2 3.5c.6 0 1.2-.5 1.2-1.2a1.2 1.2 0 00-2.4 0c0 .7.6 1.2 1.2 1.2zm-3.5-1.2a1.2 1.2 0 11-2.3 0 1.2 1.2 0 012.3 0zm-5.8 1.2c.6 0 1.1-.5 1.1-1.2a1.2 1.2 0 10-2.3 0c0 .7.5 1.2 1.2 1.2zm-3.5-1.2a1.2 1.2 0 01-2.4 0c0-.6.5-1.1 1.2-1.1.6 0 1.2.5 1.2 1.1z"/></g><path fill="#035755" d="M1362.5 269.2c1.2 0 2.2-.3 2.8-.7.7-.4 1.1-1 1.3-1.9h2.4V282h-2.7v-10.8h-3.8v-2zm15.1 13c-1.2 0-2.2-.3-3.1-.9a6 6 0 01-2-2.7c-.5-1.2-.7-2.6-.7-4.3 0-2.5.5-4.4 1.5-5.8a5 5 0 014.3-2.2c1.3 0 2.3.4 3.2 1a6 6 0 012 2.7c.5 1.3.8 2.7.8 4.3 0 1.7-.3 3-.7 4.3a5.3 5.3 0 01-5.2 3.7zm0-2.4c1 0 1.9-.5 2.4-1.4.5-1 .8-2.3.8-4 0-1.8-.3-3.2-.8-4.2s-1.3-1.4-2.3-1.4c-1 0-1.8.5-2.4 1.4-.5 1-.7 2.3-.7 4.1 0 1.8.2 3.1.7 4 .6 1 1.3 1.5 2.4 1.5zm13.8 2.5c-1.3 0-2.3-.4-3.2-1a6 6 0 01-2-2.7c-.5-1.2-.7-2.6-.7-4.3 0-2.5.5-4.4 1.5-5.8a5 5 0 014.4-2.2c1.2 0 2.2.4 3.1 1a6 6 0 012 2.7c.5 1.3.8 2.7.8 4.3 0 1.7-.3 3-.7 4.3a5.3 5.3 0 01-5.2 3.7zm0-2.5c1 0 1.8-.5 2.3-1.4.5-1 .8-2.3.8-4 0-1.8-.3-3.2-.8-4.2s-1.3-1.4-2.3-1.4c-1 0-1.8.5-2.4 1.4-.5 1-.7 2.3-.7 4.1 0 1.8.2 3.1.7 4 .6 1 1.3 1.5 2.4 1.5zm8.6-1.1c.6 0 1 .2 1.5.6.4.4.6 1 .6 1.6 0 1-.4 2-1.1 2.7-.7.7-1.6 1.2-2.8 1.3v-.9c.8 0 1.3-.3 1.7-.7.4-.4.5-.9.5-1.3h-.6c-.4 0-.8 0-1.1-.4-.4-.3-.5-.6-.5-1.1a1.7 1.7 0 011.8-1.8zm10.8-6.2c1.3.1 2.3.6 3.1 1.5.8.8 1.2 1.9 1.2 3.2a4.8 4.8 0 01-2.7 4.4c-.9.4-1.8.6-2.9.6-1 0-2-.2-2.8-.6a4.7 4.7 0 01-2.7-4.5h2.7c0 .8.3 1.5.8 2s1.2.7 2 .7c.9 0 1.5-.2 2-.7.6-.5.9-1.2.9-2s-.3-1.4-.7-1.8c-.5-.5-1.1-.7-1.9-.8h-2.6v-1.9l3.7-3.6h-6v-2.4h9.5v2.3l-3.6 3.6zm12.2-6.2c1.2 0 2.2.3 3 .7a5 5 0 012 2c.5.7.7 1.6.7 2.6a6 6 0 01-.3 2l-.7 1.6-1 1.6-3.6 5.2h-3l3.7-5.3a5.9 5.9 0 01-4-.5 5 5 0 01-2-1.8c-.4-.8-.6-1.7-.6-2.7 0-1 .2-2 .7-2.8.5-.8 1.2-1.4 2.1-1.9 1-.4 2-.7 3-.7zm-3 5.4c0 .8.2 1.5.8 2a3 3 0 002.1.8c.9 0 1.6-.3 2.2-.8.6-.5.9-1.2.9-2 0-1-.3-1.6-1-2.1a3 3 0 00-2-.8 3 3 0 00-2.2.8c-.6.5-.8 1.2-.8 2zm15.3 7.8h5.7v2.5h-9.7v-2l5.4-5.9c.5-.5.9-1 1.1-1.5.3-.4.5-1 .5-1.5 0-.7-.3-1.3-.7-1.7-.4-.4-1-.6-1.7-.6-.8 0-1.4.3-1.9.8s-.6 1.1-.6 1.9h-2.7c0-1 .2-1.9.6-2.7.5-.8 1-1.4 2-1.8a6 6 0 012.8-.7c1 0 1.8.2 2.6.6s1.3.9 1.7 1.6c.4.7.6 1.5.6 2.4a5 5 0 01-.6 2.5l-1.6 2.2-3.5 4z"/><path fill="#F44A45" d="M1473.3 267.4c.7-.7 1.7-.7 2.4 0l8.3 10c.8 1 0 2.4-1.2 2.4h-16.6c-1.3 0-2-1.5-1.1-2.5l8.3-10z"/><path fill="#13615F" d="M1170.6 497.8c0-1.2.3-2.3.9-3.2.6-1 1.4-1.6 2.5-2.1 1-.5 2.3-.8 3.7-.8 1.4 0 2.6.3 3.7.8s1.9 1.1 2.5 2c.6 1 .9 2 .9 3.1h-3.7c0-.8-.4-1.5-1-2a4 4 0 00-2.6-.8c-1 0-1.7.2-2.3.7-.6.5-.9 1.1-.9 1.9 0 .7.3 1.3.8 1.6.5.4 1.2.7 2 .9l3.3.8c1.4.3 2.6 1 3.6 2a5 5 0 011.3 3.5 5.7 5.7 0 01-3.5 5.5c-1.2.5-2.5.7-4 .7-2.2 0-4-.5-5.4-1.6a5.8 5.8 0 01-2.3-4.4h3.7c0 .9.5 1.6 1.2 2.2.7.5 1.7.7 2.9.7 1.1 0 2-.2 2.7-.7.6-.5 1-1.1 1-2 0-.7-.3-1.3-.8-1.6-.4-.4-1-.7-1.7-.9l-3.4-.8c-1.6-.4-2.9-1-3.8-2a5 5 0 01-1.3-3.5zm25.7 0a6.3 6.3 0 015.9 3.5 8 8 0 01.8 3.8c0 1.4-.3 2.7-.8 3.8-.6 1.1-1.4 2-2.4 2.6-1 .6-2.2 1-3.6 1a7 7 0 01-2.7-.6c-.8-.3-1.4-.8-1.9-1.4v7.9h-3.4v-20.2h2.8l.3 2c.5-.8 1.2-1.4 2-1.8 1-.4 1.9-.7 3-.7zm-.7 11.5c1.2 0 2.1-.4 2.8-1.2.7-.8 1-1.8 1-3 0-1.3-.3-2.3-1-3a3.6 3.6 0 00-2.8-1.2c-1.1 0-2 .4-2.8 1.1-.7.8-1 1.8-1 3.1s.3 2.3 1 3c.7.8 1.6 1.2 2.8 1.2zm24.5-11.1V512h-3.3v-2c-.5.8-1.1 1.3-2 1.8-1 .4-1.9.6-3 .6a6.2 6.2 0 01-5.7-3.4 8.6 8.6 0 01-.8-3.9c0-1.4.3-2.7.8-3.8.6-1.2 1.4-2 2.4-2.6 1-.7 2.3-1 3.6-1 1 0 2 .2 2.8.6.9.4 1.6 1 2 1.6l.3-1.7h3zm-7.4 11c1.1 0 2-.3 2.8-1.1.7-.8 1.1-1.8 1.1-3 0-1.3-.3-2.3-1-3.1a3.7 3.7 0 00-2.9-1.2c-1.2 0-2.1.4-2.9 1.2-.6.8-1 1.8-1 3 0 1.3.4 2.3 1 3.1.8.8 1.7 1.2 2.9 1.2zm13-13.7c-.7 0-1.3-.3-1.8-.7-.4-.4-.7-1-.7-1.6 0-.7.3-1.3.7-1.7.5-.4 1-.6 1.8-.6.7 0 1.3.2 1.7.6.4.4.7 1 .7 1.7 0 .6-.3 1.1-.7 1.6-.5.4-1 .7-1.7.7zm-1.8 2.7h3.5V512h-3.5v-13.8zm15-.5c1.5 0 2.8.6 3.7 1.6a6 6 0 011.4 4.1v8.6h-3.5v-7.8c0-2.2-.9-3.3-2.7-3.3-1 0-1.8.3-2.3.8-.5.6-.8 1.4-.8 2.4v7.9h-3.4v-13.8h2.8l.3 1.6c.4-.6 1-1.1 1.8-1.5.8-.4 1.7-.6 2.6-.6z"/><path fill="#FFF" d="M1095.6 483h43.7c1.5 0 2.7 1.2 2.7 2.6v29.7c0 1.5-1.2 2.7-2.7 2.7h-43.7a2.6 2.6 0 01-2.6-2.7v-29.7c0-1.4 1.2-2.6 2.6-2.6z"/><defs><filter id="i" filterUnits="userSpaceOnUse" x="1093" y="483" width="49" height="35"><feColorMatrix values="1 0 0 0 0  0 1 0 0 0  0 0 1 0 0  0 0 0 1 0"/></filter></defs><mask maskUnits="userSpaceOnUse" x="1093" y="483" width="49" height="35" id="j"><path fill="#FFF" filter="url(#i)" d="M1095.6 483h43.7c1.5 0 2.7 1.2 2.7 2.6v29.7c0 1.5-1.2 2.7-2.7 2.7h-43.7a2.6 2.6 0 01-2.6-2.7v-29.7c0-1.4 1.2-2.6 2.6-2.6z"/></mask><g mask="url(#j)"><path fill="#DD172C" d="M1093 492.3h49V483h-49v9.3zM1093 518h49v-9.3h-49v9.3z"/><path fill="#FFD133" d="M1093 508.7h49v-16.4h-49v16.4z"/><path fill="#FFEDB1" d="M1105.8 499.3h2.4v1.2h-2.4v-1.2z"/><path fill="none" stroke="#A41517" stroke-width=".9" d="M1103.4 499c0-.2.2-.4.5-.4h3.9c.2 0 .4.2.4.5l-.3 4.4c-.1.7-.7 1.2-1.4 1.2h-1.4c-.7 0-1.2-.5-1.3-1.2l-.4-4.4z"/><path fill="#A41517" d="M1103.5 500.5h4.7v1.2h-1.2l-1.2 2.3-1.1-2.3h-1.2v-1.2zM1100.9 497h.5c.5 0 1 .4 1 .9v6.4c0 .5-.5.9-1 .9h-.5a.9.9 0 01-.9-1V498c0-.5.4-.9.9-.9zM1110.2 497h.6c.5 0 .9.4.9.9v6.4c0 .5-.4.9-1 .9h-.5a.9.9 0 01-.9-1V498c0-.5.4-.9 1-.9zM1103.5 496.4c0-1 .8-1.7 1.8-1.7h1.1c1 0 1.8.8 1.8 1.7v.2c0 .2-.2.4-.5.4h-3.8a.4.4 0 01-.4-.4v-.2z"/></g><path fill="#035755" d="M1376.4 499.8c1 0 2 .2 2.7.6.9.4 1.5 1 2 1.8s.7 1.7.7 2.7a5.1 5.1 0 01-2.9 4.7c-.9.4-1.9.6-3 .6s-2.1-.2-3-.6-1.5-1.1-2-2c-.4-.7-.6-1.6-.6-2.6s.1-1.9.5-2.7l1.5-2.5 3.6-5.2h3l-3.7 5.3 1.2-.1zm-.4 8c.9 0 1.6-.2 2.2-.8.6-.5.9-1.2.9-2 0-1-.3-1.6-1-2.1a3 3 0 00-2-.8c-.9 0-1.6.3-2.2.8-.6.5-.9 1.2-.9 2s.3 1.6.9 2.1a3 3 0 002.1.8zm19.2-3.2v2.3h-1.9v3.1h-2.6v-3.1h-7.2v-2.1l6.4-10.2h3.4v10h2zm-4.5 0v-6.8l-4.3 6.8h4.3zm7.9 2c.6 0 1 .3 1.4.7.4.4.6 1 .6 1.6 0 1-.3 2-1 2.7-.8.7-1.7 1.2-2.8 1.3v-.9c.7 0 1.3-.3 1.6-.7.4-.4.6-.9.6-1.3h-.6c-.5 0-.9 0-1.2-.4-.3-.3-.4-.6-.4-1.1a1.7 1.7 0 011.8-1.8zm9.4 3.7c-1.2 0-2.3-.3-3.2-1a6 6 0 01-2-2.7c-.4-1.2-.7-2.6-.7-4.3 0-2.5.6-4.4 1.6-5.8a5 5 0 014.3-2.2c1.3 0 2.3.4 3.2 1a6 6 0 012 2.7c.5 1.2.8 2.7.8 4.3 0 1.7-.3 3-.8 4.3a6 6 0 01-2 2.7c-.9.6-2 1-3.2 1zm0-2.5c1 0 1.8-.5 2.3-1.4.6-1 .8-2.3.8-4s-.2-3.2-.8-4.2c-.5-1-1.2-1.4-2.3-1.4s-1.8.5-2.3 1.4c-.5 1-.8 2.3-.8 4.1 0 1.8.3 3.1.8 4s1.3 1.5 2.3 1.5zm14-8c1 0 1.9.3 2.7.7.8.5 1.4 1 1.8 1.9.5.7.7 1.6.7 2.6a5 5 0 01-2.8 4.6c-.9.4-1.8.6-2.9.6-1 0-2-.2-2.9-.6a5 5 0 01-2-1.8c-.4-.8-.6-1.7-.6-2.7h2.7c0 .8.2 1.4.8 2 .5.5 1.2.7 2 .7a3 3 0 002-.8 2.7 2.7 0 000-4c-.4-.6-1.1-.9-2-.9-.5 0-1 .2-1.5.4s-.9.5-1.1.9l-2.6-.4 2-8.4h8v2.4h-6l-.9 3.5c.7-.4 1.6-.6 2.6-.6zm13.3-5.5c1 0 2 .3 3 .7.8.5 1.5 1.1 2 2 .4.7.6 1.6.6 2.6a6 6 0 01-.3 2l-.7 1.6-1 1.6-3.6 5.2h-3l3.7-5.3a5.8 5.8 0 01-4-.5 5 5 0 01-2-1.8c-.4-.8-.6-1.7-.6-2.7 0-1 .2-2 .7-2.8.5-.8 1.2-1.4 2.1-1.9 1-.4 2-.7 3-.7zm-3.1 5.4c0 .8.2 1.5.8 2a3 3 0 002.1.8c.9 0 1.6-.3 2.2-.8.6-.5.9-1.2.9-2 0-1-.3-1.6-.9-2.1a3 3 0 00-2.1-.8 3 3 0 00-2.2.8c-.6.5-.8 1.2-.8 2z"/><path fill="#F44A45" d="M1473.3 495.4c.7-.7 1.7-.7 2.4 0l8.3 10c.8 1 0 2.4-1.2 2.4h-16.6c-1.3 0-2-1.5-1.1-2.5l8.3-10z"/><path fill="#13615F" d="M1190.2 577.2v1.9c0 1.8-.5 3.5-1.3 4.9-.9 1.4-2 2.5-3.6 3.2a11 11 0 01-5.1 1.2c-2 0-3.8-.4-5.3-1.3-1.5-.8-2.7-2-3.5-3.5a11 11 0 01-1.3-5.4c0-2 .4-3.9 1.3-5.5.9-1.5 2-2.8 3.6-3.6 1.6-1 3.3-1.4 5.3-1.4 1.7 0 3.1.3 4.4.9 1.4.6 2.5 1.4 3.3 2.4a8 8 0 011.7 3.5h-3.8c-.4-1-1.1-2-2.1-2.5-1-.6-2.2-1-3.6-1a6 6 0 00-4.6 2 7.5 7.5 0 00-1.7 5.2c0 2 .5 3.8 1.7 5a6.2 6.2 0 004.7 1.8c1.6 0 3-.4 4-1.2a5 5 0 002-3.5h-6.3v-3h10.2zm16.1 6.5c-.3 1.4-1 2.5-2.3 3.4a7.6 7.6 0 01-4.4 1.3c-1.5 0-2.7-.3-3.8-1-1-.5-2-1.4-2.5-2.5a8.2 8.2 0 01-1-3.9c0-1.4.4-2.7 1-3.8.6-1.1 1.4-2 2.5-2.5 1-.7 2.3-1 3.7-1 1.3 0 2.5.3 3.5 1a6 6 0 012.4 2.2c.6 1 .9 2.2.9 3.4 0 .7 0 1.3-.2 1.8h-10.3c0 1 .4 1.8 1 2.5.8.6 1.7 1 2.8 1 .8 0 1.5-.2 2.1-.5.6-.4 1-.8 1.2-1.4h3.4zm-3.5-4a3 3 0 00-1-2.3c-.6-.5-1.4-.8-2.4-.8s-1.9.3-2.5.9a3 3 0 00-1 2.2h6.8zm13.2-5.7l1.3.2v3l-.8-.1c-1.2 0-2.2.3-2.9 1a4 4 0 00-1 3v6.9h-3.4v-13.8h3l.4 2c.2-.7.6-1.2 1.2-1.6.6-.4 1.4-.6 2.2-.6zm20-.3c1.5 0 2.7.5 3.6 1.4a5 5 0 011.4 3.8v9.1h-3.4v-8.3c0-1-.2-1.7-.7-2.2-.5-.5-1.1-.7-1.9-.7-.9 0-1.6.2-2.1.8-.5.6-.8 1.4-.8 2.3v8.1h-3.4v-8.3c0-1-.2-1.6-.7-2.2-.5-.5-1.1-.7-2-.7-.8 0-1.5.3-2 .8-.5.6-.8 1.4-.8 2.3v8.1h-3.4v-13.8h3.1l.2 1.5c.4-.6 1-1.1 1.7-1.4a5.2 5.2 0 015 .2 4 4 0 011.7 1.8c.4-.8 1-1.4 1.8-1.9.8-.4 1.7-.7 2.7-.7zm22.8.5V588h-3.4v-2c-.4.8-1.1 1.3-2 1.8-.9.4-1.9.6-3 .6-1.2 0-2.4-.3-3.4-.9-1-.6-1.7-1.4-2.3-2.5a8.6 8.6 0 01-.8-3.9c0-1.4.3-2.7.9-3.8.5-1.2 1.3-2 2.4-2.6 1-.7 2.2-1 3.5-1 1 0 2 .2 2.9.6.8.4 1.5 1 2 1.6l.2-1.7h3zm-7.5 11c1.2 0 2.1-.3 2.8-1.1.8-.8 1.1-1.8 1.1-3 0-1.3-.3-2.3-1-3.1-.7-.8-1.7-1.2-2.9-1.2s-2.1.4-2.8 1.2c-.7.8-1 1.8-1 3 0 1.3.3 2.3 1 3.1.7.8 1.7 1.2 2.8 1.2zm18.8-11.5c1.6 0 2.9.6 3.8 1.6 1 1 1.4 2.4 1.4 4.1v8.6h-3.5v-7.8c0-2.2-.9-3.3-2.7-3.3a3 3 0 00-2.3.8c-.6.6-.8 1.4-.8 2.4v7.9h-3.5v-13.8h3l.2 1.6c.4-.6 1-1.1 1.8-1.5.8-.4 1.7-.6 2.6-.6zm22 .5l-6.3 16.3a8 8 0 01-2 3c-.8.7-2 1.1-3.6 1.1l-2.5-.3v-2.9l2 .3c.9 0 1.6-.2 2-.6.4-.3.8-.9 1-1.6l.4-1-6-14.3h3.8l3.7 10.1 3.9-10.1h3.7z"/><path fill="#FFF" d="M1095.7 559h43.6c1.5 0 2.7 1.2 2.7 2.7v29.6c0 1.5-1.2 2.7-2.7 2.7h-43.6a2.7 2.7 0 01-2.7-2.7v-29.6c0-1.5 1.2-2.7 2.7-2.7z"/><defs><filter id="k" filterUnits="userSpaceOnUse" x="1093" y="559" width="49" height="35"><feColorMatrix values="1 0 0 0 0  0 1 0 0 0  0 0 1 0 0  0 0 0 1 0"/></filter></defs><mask maskUnits="userSpaceOnUse" x="1093" y="559" width="49" height="35" id="l"><path fill="#FFF" filter="url(#k)" d="M1095.7 559h43.6c1.5 0 2.7 1.2 2.7 2.7v29.6c0 1.5-1.2 2.7-2.7 2.7h-43.6a2.7 2.7 0 01-2.7-2.7v-29.6c0-1.5 1.2-2.7 2.7-2.7z"/></mask><g mask="url(#l)"><path fill="#262626" d="M1093 570.7h49V559h-49v11.7z"/><path fill="#F01515" d="M1093 582.3h49v-11.6h-49v11.6z"/><path fill="#FFD521" d="M1093 594h49v-11.7h-49V594z"/></g><path fill="#035755" d="M1384 575.9c1 0 1.9.2 2.7.6.8.5 1.4 1 1.8 1.9.5.7.7 1.6.7 2.6a5 5 0 01-2.8 4.6c-.8.4-1.8.6-2.9.6-1 0-2-.2-2.9-.6a5 5 0 01-2-1.8c-.4-.8-.6-1.7-.6-2.7h2.7c0 .8.3 1.4.8 2 .5.5 1.2.7 2 .7a3 3 0 002.1-.8c.6-.5.8-1.2.8-2 0-.9-.2-1.6-.8-2-.5-.6-1.2-.9-2-.9-.6 0-1.1.2-1.6.4s-.8.5-1.1.8l-2.6-.3 2-8.4h8v2.4h-6l-.9 3.5a5 5 0 012.6-.6zm13.1 10.4a5.3 5.3 0 01-5.2-3.7c-.4-1.2-.7-2.6-.7-4.3 0-2.5.6-4.4 1.6-5.8a5 5 0 014.3-2.2c1.3 0 2.3.4 3.2 1 .9.6 1.6 1.5 2 2.7.5 1.3.8 2.7.8 4.3 0 1.7-.3 3-.8 4.3a6 6 0 01-2 2.7c-.9.6-2 1-3.2 1zm0-2.5c1 0 1.8-.5 2.4-1.4.5-1 .7-2.3.7-4s-.2-3.2-.7-4.2c-.6-1-1.3-1.4-2.4-1.4-1 0-1.8.5-2.3 1.4-.5 1-.8 2.3-.8 4.1 0 1.8.3 3.1.8 4 .5 1 1.3 1.5 2.3 1.5zm8.7-1.1c.6 0 1 .2 1.4.6.4.4.6 1 .6 1.6 0 1-.3 2-1 2.7-.8.7-1.7 1.2-2.8 1.3v-.9c.7 0 1.2-.3 1.6-.7.4-.4.6-.9.6-1.3h-.6c-.5 0-.9 0-1.2-.4-.3-.3-.4-.6-.4-1.1 0-.6.1-1 .5-1.3.3-.3.7-.5 1.3-.5zm12.7-4.9c.7.3 1.3.8 1.7 1.5a4.5 4.5 0 01-.1 4.7c-.5.7-1.1 1.3-2 1.6a7 7 0 01-2.8.6c-1.1 0-2-.2-3-.6-.8-.3-1.4-.9-2-1.6-.4-.7-.6-1.5-.6-2.4 0-1 .2-1.7.6-2.3a4 4 0 011.7-1.5c-.5-.3-1-.8-1.3-1.4-.4-.6-.5-1.2-.5-2 0-.7.2-1.4.6-2 .4-.7 1-1.2 1.8-1.5.8-.4 1.7-.6 2.7-.6 1 0 1.8.2 2.6.6.8.3 1.4.8 1.8 1.5.4.6.7 1.3.7 2.1a3.8 3.8 0 01-2 3.3zm-3.3-5c-.7 0-1.2.1-1.7.5-.4.4-.6.8-.6 1.4 0 .6.2 1.1.7 1.5.4.4 1 .6 1.7.6s1.2-.2 1.7-.6c.4-.4.7-.9.7-1.5s-.3-1-.7-1.4c-.5-.4-1-.6-1.8-.6zm0 11c.9 0 1.6-.2 2-.6.6-.5.9-1 .9-1.8a2 2 0 00-.8-1.7 3 3 0 00-2-.6c-.9 0-1.5.2-2 .6a2 2 0 00-.9 1.7c0 .7.3 1.3.8 1.8.6.4 1.2.6 2 .6zm17.2-13.2v2.2l-6 13.2h-3l6-13h-7.1v-2.4h10.1zm1.3 2.6c1.3 0 2.2-.3 2.9-.7.6-.4 1-1 1.2-1.9h2.5V586h-2.8v-10.8h-3.8v-2z"/><path fill="#F44A45" d="M1473.3 571.4c.7-.7 1.7-.7 2.4 0l8.3 10c.8 1 0 2.4-1.2 2.4h-16.6c-1.3 0-2-1.5-1.1-2.5l8.3-10z"/><path fill="#13615F" d="M1171.2 664v-19.9h3.7V664h-3.7zm14.5-14l1.3.2v3l-.8-.1c-1.3 0-2.2.3-3 1-.6.7-1 1.7-1 3v6.9h-3.4v-13.8h3.2l.3 2c.2-.7.6-1.2 1.2-1.6.6-.4 1.3-.6 2.2-.6zm17.6.2V664h-3.3v-2c-.5.8-1.2 1.3-2 1.8-1 .4-2 .6-3 .6-1.3 0-2.4-.3-3.4-.9-1-.6-1.8-1.4-2.3-2.5a8.6 8.6 0 01-.8-3.9c0-1.4.2-2.7.8-3.8.6-1.2 1.4-2 2.4-2.6 1-.7 2.3-1 3.6-1 1 0 2 .2 2.8.6.9.4 1.6 1 2 1.6l.3-1.7h3zm-7.4 11c1.1 0 2-.3 2.8-1.1.7-.8 1.1-1.8 1.1-3 0-1.3-.4-2.3-1-3.1a3.7 3.7 0 00-2.9-1.2c-1.2 0-2.1.4-2.9 1.2-.7.8-1 1.8-1 3 0 1.3.3 2.3 1 3.1.8.8 1.7 1.2 2.9 1.2zm18.8-11.5c1.6 0 2.8.6 3.8 1.6s1.4 2.4 1.4 4.1v8.6h-3.5v-7.8c0-2.2-1-3.3-2.8-3.3a3 3 0 00-2.3.8c-.5.6-.8 1.4-.8 2.4v7.9h-3.4v-13.8h2.9l.2 1.6c.5-.6 1-1.1 1.9-1.5.8-.4 1.6-.6 2.6-.6z"/><path fill="#FFF" stroke="#F5F5F5" stroke-width=".7" d="M1095.7 635.3h43.6c1.3 0 2.4 1 2.4 2.4v29.6c0 1.3-1 2.4-2.4 2.4h-43.6c-1.3 0-2.4-1-2.4-2.4v-29.6c0-1.3 1.1-2.4 2.4-2.4z"/><defs><filter id="m" filterUnits="userSpaceOnUse" x="1093" y="635" width="49" height="35"><feColorMatrix values="1 0 0 0 0  0 1 0 0 0  0 0 1 0 0  0 0 0 1 0"/></filter></defs><mask maskUnits="userSpaceOnUse" x="1093" y="635" width="49" height="35" id="n"><path fill="#FFF" filter="url(#m)" stroke="#FFF" stroke-width=".7" d="M1095.7 635.3h43.6c1.3 0 2.4 1 2.4 2.4v29.6c0 1.3-1 2.4-2.4 2.4h-43.6c-1.3 0-2.4-1-2.4-2.4v-29.6c0-1.3 1.1-2.4 2.4-2.4z"/></mask><g mask="url(#n)"><path fill="#38BB56" d="M1093 646.7h49V635h-49v11.7z"/><path fill="#DE1B27" d="M1093 670h49v-11.7h-49V670z"/><path fill="#FFF" fill-opacity=".5" d="M1095.8 644.3c-.3 0-.5.2-.5.5v1.4c0 .3.2.5.5.5h1.4c.3 0 .5-.2.5-.5v-1.4c0-.3-.2-.5-.5-.5h-1.4zm4.7 0c-.3 0-.5.2-.5.5v1.4c0 .3.2.5.5.5h1.4c.2 0 .4-.2.4-.5v-1.4c0-.3-.2-.5-.4-.5h-1.5zm4.2.5c0-.3.2-.5.4-.5h1.4c.3 0 .5.2.5.5v1.4c0 .3-.2.5-.5.5h-1.4a.4.4 0 01-.4-.5v-1.4zm5-.5c-.2 0-.4.2-.4.5v1.4c0 .3.2.5.5.5h1.4c.3 0 .5-.2.5-.5v-1.4c0-.3-.2-.5-.5-.5h-1.4zm4.3.5c0-.3.2-.5.5-.5h1.4c.2 0 .4.2.4.5v1.4c0 .3-.2.5-.4.5h-1.4a.4.4 0 01-.5-.5v-1.4zm5.1-.5c-.2 0-.4.2-.4.5v1.4c0 .3.2.5.4.5h1.4c.3 0 .5-.2.5-.5v-1.4c0-.3-.2-.5-.5-.5h-1.4zm4.2.5c0-.3.2-.5.5-.5h1.4c.3 0 .5.2.5.5v1.4c0 .3-.2.5-.5.5h-1.4a.4.4 0 01-.5-.5v-1.4zm5.2-.5c-.3 0-.5.2-.5.5v1.4c0 .3.2.5.5.5h1.4c.2 0 .4-.2.4-.5v-1.4c0-.3-.2-.5-.4-.5h-1.5zm4.2.5c0-.3.2-.5.4-.5h1.4c.3 0 .5.2.5.5v1.4c0 .3-.2.5-.5.5h-1.4a.5.5 0 01-.4-.5v-1.4zm5-.5c-.2 0-.4.2-.4.5v1.4c0 .3.2.5.5.5h1.4c.3 0 .5-.2.5-.5v-1.4c0-.3-.2-.5-.5-.5h-1.4zm-42.4 14.5c0-.3.2-.5.5-.5h1.4c.3 0 .5.2.5.5v1.4c0 .3-.2.5-.5.5h-1.4a.4.4 0 01-.5-.5v-1.4zm5.2-.5c-.3 0-.5.2-.5.5v1.4c0 .3.2.5.5.5h1.4c.2 0 .4-.2.4-.5v-1.4c0-.3-.2-.5-.4-.5h-1.5zm4.2.5c0-.3.2-.5.4-.5h1.4c.3 0 .5.2.5.5v1.4c0 .3-.2.5-.5.5h-1.4a.4.4 0 01-.4-.5v-1.4zm5-.5c-.2 0-.4.2-.4.5v1.4c0 .3.2.5.5.5h1.4c.3 0 .5-.2.5-.5v-1.4c0-.3-.2-.5-.5-.5h-1.4zm4.3.5c0-.3.2-.5.5-.5h1.4c.2 0 .4.2.4.5v1.4c0 .3-.2.5-.4.5h-1.4a.4.4 0 01-.5-.5v-1.4zm5.1-.5c-.2 0-.4.2-.4.5v1.4c0 .3.2.5.4.5h1.4c.3 0 .5-.2.5-.5v-1.4c0-.3-.2-.5-.5-.5h-1.4zm4.2.5c0-.3.2-.5.5-.5h1.4c.3 0 .5.2.5.5v1.4c0 .3-.2.5-.5.5h-1.4a.4.4 0 01-.5-.5v-1.4zm5.2-.5c-.3 0-.5.2-.5.5v1.4c0 .3.2.5.5.5h1.4c.2 0 .4-.2.4-.5v-1.4c0-.3-.2-.5-.4-.5h-1.5zm4.2.5c0-.3.2-.5.4-.5h1.4c.3 0 .5.2.5.5v1.4c0 .3-.2.5-.5.5h-1.4a.5.5 0 01-.4-.5v-1.4zm5-.5c-.2 0-.4.2-.4.5v1.4c0 .3.2.5.5.5h1.4c.3 0 .5-.2.5-.5v-1.4c0-.3-.2-.5-.5-.5h-1.4z"/><defs><filter id="o" filterUnits="userSpaceOnUse" x="1113.1" y="649.2" width="8.8" height="7.6"><feColorMatrix values="1 0 0 0 0  0 1 0 0 0  0 0 1 0 0  0 0 0 1 0"/></filter></defs><mask maskUnits="userSpaceOnUse" x="1113.1" y="649.2" width="8.8" height="7.6" id="p"><path fill="#FFF" filter="url(#o)" d="M1115.1 650a3.5 3.5 0 104.8 0"/></mask><path mask="url(#p)" fill="#D80915" d="M1114.5 649.2c-.8.9-1.4 2-1.4 3.3h1.8c0-.8.3-1.4.9-2l-1.3-1.3zm-1.4 3.3c0 2.4 2 4.4 4.4 4.4v-1.8a2.6 2.6 0 01-2.6-2.6h-1.8zm4.4 4.4c2.4 0 4.4-2 4.4-4.4h-1.8c0 1.4-1.2 2.6-2.6 2.6v1.8zm4.4-4.4c0-1.3-.5-2.4-1.4-3.2l-1.2 1.3c.5.5.8 1.2.8 1.9h1.8z"/><path fill="#D80915" d="M1117.2 651.3h.6c.5 0 .9.4.9 1v2.8c0 .5-.4.9-1 .9h-.5a.9.9 0 01-.9-.9v-2.9c0-.5.4-.9 1-.9z"/></g><path fill="#035755" d="M1380.5 652.5c1.3.1 2.3.6 3.1 1.5.8.8 1.2 1.9 1.2 3.2a4.8 4.8 0 01-2.7 4.4c-.9.4-1.8.6-2.9.6-1 0-2-.2-2.8-.6-.9-.4-1.5-1-2-1.8a5 5 0 01-.7-2.7h2.7a2.6 2.6 0 002.8 2.7c.9 0 1.5-.2 2-.7.6-.5.9-1.2.9-2s-.3-1.4-.7-1.8a3 3 0 00-2-.8h-2.5v-1.9l3.7-3.6h-6v-2.4h9.5v2.3l-3.6 3.6zm10.8 7h5.7v2.5h-9.7v-2l5.4-5.9c.5-.5.9-1 1.1-1.5.3-.4.5-1 .5-1.5 0-.7-.2-1.3-.7-1.7-.4-.4-1-.6-1.7-.6-.8 0-1.4.3-1.9.8-.4.5-.6 1.1-.6 1.9h-2.6c-.1-1 0-1.9.5-2.7.5-.8 1.1-1.4 2-1.8a6 6 0 012.8-.7c1 0 1.8.2 2.6.6s1.3.9 1.7 1.6c.4.7.6 1.5.6 2.4a5 5 0 01-.6 2.5l-1.6 2.2-3.5 4zm9.3-.8c.6 0 1 .2 1.5.6.4.4.6 1 .6 1.6 0 1-.4 2-1.1 2.7-.7.7-1.6 1.2-2.7 1.3v-.9c.6 0 1.2-.3 1.6-.7.4-.4.5-.9.5-1.3h-.6c-.4 0-.8 0-1.1-.4-.3-.3-.5-.6-.5-1.1 0-.6.2-1 .5-1.3.3-.3.8-.5 1.3-.5zm10.8-6.2c1.3.1 2.3.6 3.1 1.5.8.8 1.2 1.9 1.2 3.2a4.8 4.8 0 01-2.7 4.4c-.9.4-1.8.6-2.9.6-1 0-2-.2-2.8-.6-.9-.4-1.5-1-2-1.8a5 5 0 01-.7-2.7h2.8c0 .8.2 1.4.7 2 .6.5 1.2.7 2 .7.9 0 1.5-.2 2-.7.6-.5.9-1.2.9-2s-.3-1.4-.7-1.8c-.5-.5-1.1-.7-1.9-.8h-2.6v-1.9l3.8-3.6h-6v-2.4h9.4v2.3l-3.6 3.6zm13 0c1.4.1 2.4.6 3.2 1.5.8.8 1.2 1.9 1.2 3.2a4.8 4.8 0 01-2.7 4.4c-.9.4-1.8.6-2.9.6-1 0-2-.2-2.9-.6a4.7 4.7 0 01-2.6-4.5h2.7c0 .8.3 1.4.8 2 .5.5 1.2.7 2 .7a2.6 2.6 0 002.8-2.7c0-.8-.2-1.4-.6-1.8-.5-.5-1.1-.7-2-.8H1421v-1.9l3.6-3.6h-6v-2.4h9.4v2.3l-3.5 3.6zm10.9 7h5.7v2.5h-9.7v-2l5.4-5.9c.5-.5.9-1 1.1-1.5.3-.4.5-1 .5-1.5 0-.7-.3-1.3-.7-1.7-.4-.4-1-.6-1.7-.6-.8 0-1.4.3-1.9.8s-.6 1.1-.6 1.9h-2.7c0-1 .2-1.9.6-2.7.5-.8 1-1.4 2-1.8a6 6 0 012.8-.7c1 0 1.8.2 2.6.6s1.3.9 1.7 1.6c.4.7.6 1.5.6 2.4a5 5 0 01-.6 2.5l-1.6 2.2-3.5 4z"/><path fill="#F44A45" d="M1473.3 647.4c.7-.7 1.7-.7 2.4 0l8.3 10c.8 1 0 2.4-1.2 2.4h-16.6c-1.3 0-2-1.5-1.1-2.5l8.3-10z"/><path fill="#035755" d="M1114.8 184v5h-18.4v-30.8h5.7V184h12.7zm6.8-20.6c-1 0-2-.3-2.6-1-.8-.7-1.1-1.6-1.1-2.6s.3-1.9 1-2.5c.8-.7 1.7-1 2.7-1 1.1 0 2 .3 2.7 1 .7.6 1 1.5 1 2.5s-.3 1.8-1 2.6c-.7.7-1.6 1-2.7 1zm-2.6 4.2h5.3V189h-5.3v-21.4zm14.6 0l2.5 6.5 1.9 5.6 1.2 3.6 1.4-4c.7-2.1 1.4-3.8 2-5.2l2.5-6.5h5.5l-8.9 21.4h-5.3l-8.5-21.4h5.7zm40 14.7c-.5 2.2-1.7 4-3.6 5.3-2 1.4-4.2 2-6.9 2-2.2 0-4.1-.4-5.8-1.4-1.7-1-3-2.3-4-4-.9-1.8-1.3-3.8-1.3-6 0-2.3.4-4.2 1.4-6 1-1.6 2.2-3 3.9-3.9 1.7-1 3.6-1.4 5.7-1.4 2 0 3.9.5 5.5 1.4 1.6.8 2.8 2 3.7 3.6a12.2 12.2 0 011 8h-16c.1 1.5.7 2.8 1.7 3.8a6 6 0 004.2 1.5c1.3 0 2.4-.2 3.3-.7a4 4 0 002-2.2h5.1zm-5.5-6.1c0-1.5-.6-2.7-1.5-3.6-1-.8-2.2-1.3-3.8-1.3-1.5 0-2.8.5-3.8 1.4-1 .8-1.6 2-1.7 3.5h10.8zm21.8-18h12.2c3.7 0 6.6.9 8.5 2.5 2 1.7 3 4 3 7.1 0 2.2-.6 4-1.6 5.5a8.4 8.4 0 01-4.1 3.3l5.8 12.4h-6.3l-5.1-11.5h-6.8V189h-5.6v-30.8zm12.2 14.4c1.8 0 3.2-.4 4.1-1.3 1-.9 1.4-2 1.4-3.4s-.4-2.6-1.4-3.4c-1-.9-2.3-1.3-4.1-1.3h-6.6v9.4h6.6zm36 9.7c-.4 2.2-1.6 4-3.5 5.3-2 1.4-4.3 2-6.9 2-2.2 0-4.1-.4-5.8-1.4-1.7-1-3-2.3-4-4-.9-1.8-1.3-3.8-1.3-6 0-2.3.4-4.2 1.4-6 1-1.6 2.2-3 3.9-3.9 1.6-1 3.5-1.4 5.6-1.4 2.1 0 4 .5 5.6 1.4 1.6.8 2.8 2 3.7 3.6.9 1.5 1.3 3.3 1.3 5.2 0 1.1 0 2-.2 2.7h-16c0 1.6.6 3 1.6 4a6 6 0 004.2 1.4c1.3 0 2.4-.2 3.3-.7a4 4 0 002-2.2h5.2zm-5.5-6.1c0-1.5-.5-2.7-1.5-3.6-1-.8-2.1-1.3-3.7-1.3s-2.8.5-3.8 1.4c-1 .8-1.6 2-1.7 3.5h10.7zm22.5-9.3c2 0 3.8.5 5.4 1.5 1.6.9 2.8 2.2 3.7 4 .9 1.6 1.4 3.6 1.4 5.8 0 2.3-.5 4.3-1.4 6a9.8 9.8 0 01-9.2 5.4c-1.5 0-2.9-.2-4.2-.7a7 7 0 01-3-2.2v12.1h-5.3v-31.2h4.5l.4 3a8 8 0 013.1-2.7c1.4-.6 3-1 4.6-1zm-1 17.9c1.7 0 3.2-.6 4.3-1.8a6.7 6.7 0 001.7-4.7c0-2-.6-3.5-1.7-4.7a5.6 5.6 0 00-4.3-1.8c-1.8 0-3.3.6-4.4 1.8a6.7 6.7 0 00-1.7 4.7c0 2 .6 3.6 1.7 4.7a5.7 5.7 0 004.3 1.8zm15-6.5a10.6 10.6 0 015.6-9.9c1.7-1 3.8-1.5 6-1.5 2.3 0 4.3.5 6 1.5 1.9 1 3.2 2.3 4.2 4 1 1.8 1.5 3.7 1.5 5.9 0 2.1-.5 4-1.5 5.8-1 1.7-2.3 3-4.1 4-1.8 1-3.8 1.5-6 1.5-2.4 0-4.4-.5-6.2-1.4a10.8 10.8 0 01-5.6-10zm5.4 0c0 1.9.6 3.4 1.8 4.7a5.8 5.8 0 004.4 1.8c1.9 0 3.4-.6 4.5-1.8a6.6 6.6 0 001.8-4.8c0-1.9-.6-3.4-1.8-4.7a5.9 5.9 0 00-4.5-1.8c-1.8 0-3.3.6-4.5 1.8a6.6 6.6 0 00-1.7 4.7zm33.1-11l2 .3v4.6l-1.2-.1c-2 0-3.4.5-4.5 1.6-1 1-1.5 2.6-1.5 4.5V189h-5.4v-21.4h4.9l.4 3c.4-1 1-1.8 2-2.4.9-.5 2-.8 3.3-.8zm18.2 4.7h-4.1v17h-5.4v-17h-4v-4.4h4V162h5.4v5.6h4v4.4zm12.4 17.6c-2.7 0-4.8-.6-6.5-1.8a6.5 6.5 0 01-2.7-5h5.3c0 .8.4 1.6 1.1 2 .7.6 1.6.8 2.7.8s2-.2 2.6-.6c.6-.5.9-1 .9-1.9 0-.7-.3-1.2-.8-1.6-.4-.3-1-.5-1.8-.7l-3.6-.9c-2-.4-3.5-1.2-4.5-2.2-.9-1.1-1.4-2.4-1.4-4a6 6 0 012.4-4.9 9.7 9.7 0 016.2-1.9c2.5 0 4.6.6 6.1 1.9a6.3 6.3 0 012.5 5h-5.3c0-1-.3-1.6-1-2.1-.6-.5-1.4-.7-2.4-.7s-1.7.2-2.2.6c-.6.4-.8 1-.8 1.7s.2 1.2.6 1.5c.4.3 1 .5 1.9.7l4.1 1c1.9.4 3.3 1.2 4.2 2.3.9 1 1.3 2.4 1.3 3.9a6 6 0 01-2.4 5 10.2 10.2 0 01-6.5 2z"/><path fill="#FFF" d="M1406.2 151h73.6c3.4 0 6.2 2.8 6.2 6.2v36.6c0 3.4-2.8 6.2-6.2 6.2h-73.6a6.2 6.2 0 01-6.2-6.2v-36.6c0-3.4 2.8-6.2 6.2-6.2z"/><path fill="none" stroke="#A2A5B2" stroke-width="2.9" stroke-linecap="round" stroke-linejoin="round" d="M1423.2 182.9l-7.3-7.4 7.3-7.3"/><path fill="none" stroke="#F44A45" stroke-width="2.9" stroke-linecap="round" stroke-linejoin="round" d="M1462.2 168l7.3 7.4-7.3 7.4"/><path fill="none" stroke="#DEE1ED" stroke-width="2.2" stroke-linecap="round" d="M1443.5 166.7V184"/></svg>