<svg width="556" height="575" fill="none" xmlns="http://www.w3.org/2000/svg"><path d="M211 548.4c-29.7 10.5-59.6 15.3-91.6 9.2C84 551 53 520.4 35.6 490.1a68.5 68.5 0 01-11-36.9c1.6-30 30-33.3 54-28.5 13.5 2.7 26 9 38.3 15.1 20.4 10.2 44.4 15.2 62.7 29.4 6.2 4.8 10.8 10.5 18 14 11 5.4 23.7 8 35.2 12.8 9.7 4.3 20.6 11.2 20.6 21.8 0 10.9-11.3 17.8-21.3 22.2-7 3-14.1 5.9-21.2 8.4z" fill="url(#paint0_linear)"/><path d="M101.8 161.4c48.6-71.5 149-100.2 230.3-73.3 39.3 13 72.2 40 102.5 68 26.7 24.7 52.7 51.4 71 83.2a298 298 0 0127.6 72c9.4 36.3.9 83.2-46.1 79.7-11-.8-20.6-4.7-30.9-8.2-8.3-2.8-16.5-1.1-25.2-2.5a233.6 233.6 0 01-62.6-20.9c-40.5-19.2-77.5-45.2-119-62a288.3 288.3 0 00-107.4-21c-15.5 0-31.8 1.1-45.7-5.8-34.2-17.1-18.8-63.3-6-89.2 3.3-7 7.2-13.6 11.5-20z" fill="url(#paint1_linear)"/><path d="M482.5 172.2c8 7.3 39.4 27 40 3.8a24 24 0 00-6-15.6c-4.2-4.8-8.8-7.4-12-13a134 134 0 00-13.2-19.2c-10-12.4-21.8-23.8-36-28.8-10-3.6-27-2.7-31.7 10.1-7 18.7 22.6 22 31.6 28.9 8.6 6.4 13.5 17.4 20.2 26.2 2.2 2.8 4.5 5.3 7 7.6z" fill="url(#paint2_linear)"/><path d="M334.7 149.6c17 10 29.6 24.8 45 36.9 25.7 20 61 24 90.4 38 30 14.1 52.8 36.2 63 68 13.3 41 14.5 89.8 3.3 132-12.4 46.4-41.5 77.3-84.1 97.8A347.6 347.6 0 01302 554.8c-102.2.6-238.1-35.4-272.9-145l-1-3.1a159.6 159.6 0 01-6.2-37.6A356.2 356.2 0 0143.4 232c10.7-28.5 33.6-52.6 57.7-69.7 34-24.1 75.3-30.3 116.5-33.2 30.5-2.1 64.8-2.9 93.6 8.8 8.1 3.3 16 7.2 23.5 11.7z" fill="url(#paint3_linear)"/><path d="M405.8 545c-130.9 38.1-240 1.4-278.2-21.7l-35.4-27.2 12.2-20.4 76.4-6.8 126.8-6.8L410 482.5l106.4-35.3h10.9c-16.4 55.5-87.8 88.4-121.4 97.9z" fill="#FB4C47"/><path d="M138 492.9h325.6s11.4-187.2-30.1-214.6C392 250.9 198 256.6 155 280 112 303.4 138 493 138 493z" fill="#FB4C47"/><path d="M192.2 238.9a2 2 0 01-1.4-.5c-.8-.8-21.7-18.3-10.3-53.7 4-12.4 7.9-21.2 11.3-29 6.3-13.9 10.8-24 11.6-45.5 0-1.1 1.2-2 2.2-2 1.2 0 2 1 2 2.2-.8 22.3-5.7 33.3-11.9 47.1-3.4 7.6-7.2 16.3-11.2 28.5-10.5 32.5 8.2 48.4 9 49.1a2.1 2.1 0 01-1.3 3.8zM307.8 27.6a26.6 26.6 0 11-53.2-2 26.6 26.6 0 0153.2 2z" fill="#000C3E"/><path d="M189.8 228.5s7.8 16.1 39.7 21.8c32 5.7 57-5.9 81.6 3 24.6 9 60.2-2.7 67.2-13 7-10.4 5.6-125-13.8-144.2C345 77 243.3 61 221.3 83.4c-22 22.5-45.5 132.2-31.5 145.1z" fill="#000C3E"/><path d="M374 138.1a87.7 87.7 0 11-175.4-6.6 87.7 87.7 0 01175.4 6.6z" fill="#000C3E"/><path d="M322.3 211.5s5.7 68.3 0 76c-5.7 7.5-41.8 1.8-51.3 0-9.5-2-13.3-76-7.6-76 5.7 0 57.8-15.3 58.9 0z" fill="#FFCEB0"/><path d="M214.7 131.5s3.6 106.5 75.6 111.1c72 4.6 71.9-145.4 45.8-159.7-26-14.3-134.8-11.6-121.4 48.6z" fill="#FFCEB0"/><path d="M288.6 154.3s13.7 32.8 10.2 35c-3.5 2.2-13.9 1.8-16.7-.6-2.8-2.4.9-38 6.5-34.4z" fill="#EE9B68"/><path d="M267 165.3a6.8 6.8 0 11-13.5-.6 6.8 6.8 0 0113.5.6zM325.1 162.1a6.8 6.8 0 11-13.5-.6 6.8 6.8 0 0113.5.6z" fill="#41294A"/><path d="M271.4 74.7s-25.9 12.5-30.8 36c-4.9 23.4-2.4 83.4-29.7 80.7 0 0-53-118.8 60.5-116.7zM285 75.2C282.6 77 311.6 77 328 97c16.6 20.1 20.5 70.3 23.1 71.2 2.6 1 12.8-62.2-5.4-81.1-18.1-19-47.5-21.3-60.8-11.8z" fill="#000C3E"/><path d="M264.4 233s28 15.9 57.1 1c0 0 2.3 17.9 0 22-2.2 4.1-48.3 7-57.4-13.3 0 0-2.3-10.6.3-9.8z" fill="#EE9B68"/><path d="M345 172.4s6.9-26.7 19-17.2c12 9.5 1 37.4-10.8 39.9-12 2.5-14.8-9-8.2-22.7zM231.4 168.1s-4.9-27-17.6-18.5c-12.7 8.5-3.9 37.2 7.8 40.6 11.6 3.4 15.3-7.9 9.8-22z" fill="#FFCEB0"/><path d="M315.6 138s13-6.4 20.5 3.4c6.7 8.7-8.8 1.4-14.7 2.4-5.8 1-13.4.3-5.8-5.8zM265 139.3s-13-6.4-20.5 3.5c-6.7 8.6 8.9 1.3 14.7 2.3 5.9 1 13.5.2 5.8-5.8z" fill="#41294A"/><path d="M259.7 150.1a20.5 20.5 0 00-15 34.7c3.7 4 8.7 6.4 14.2 6.6h.8a20.5 20.5 0 0015.1-34.7c-3.7-4-8.8-6.3-14.3-6.5h-.8zm0 44.1h-.9a23.3 23.3 0 01-22.5-24.3 23.4 23.4 0 0123.4-22.6h.9a23.3 23.3 0 0122.5 24.3 23.4 23.4 0 01-23.4 22.6zM318.2 146.9a20.5 20.5 0 00-15 34.6c3.7 4 8.7 6.4 14.2 6.6h.8a20.5 20.5 0 0015.1-34.7c-3.7-4-8.8-6.3-14.3-6.5h-.8zm0 44h-.9a23.3 23.3 0 01-22.5-24.3 23.4 23.4 0 0123.4-22.6h.9a23.3 23.3 0 0122.6 24.4 23.4 23.4 0 01-23.5 22.5z" fill="#FFFCF6"/><path d="M238.4 166.6h-.5l-8.6-3.4c-.7-.3-1-1.1-.8-1.9.3-.7 1.1-1 1.8-.8l8.6 3.4a1.4 1.4 0 01-.5 2.7zM339.4 163a1.4 1.4 0 01-.4-2.9l12-3.4c.7-.2 1.5.2 1.7 1 .2.7-.2 1.5-1 1.7l-11.9 3.4-.4.1z" fill="#FFFCF6"/><path d="M280 69.1s3.3 57.8 19.2 63c16 5.3 55 3.8 57-2.5 1.9-6.3-30.4-57.1-53.5-65.3-40.5-14.3-75.6 51.7-71 67.6 4.7 15.9 39.5 2 47 0 7.4-2.1-.1-51.3 1.4-62.8z" fill="#000C3E"/><path opacity=".2" d="M240.5 189.9s36.8-20.2 52.7-16.8c15.9 3.3 43.9 4.4 45 10.2 1.2 5.7-35.6 2.3-46.9 3-11.3 1-55 13-50.8 3.6z" fill="#DB5C5D"/><path d="M261.2 177a2.1 2.1 0 01-.8-4c3.3-1.3 4-2.3 4-2.3.5-1 1.6-1.5 2.7-1.1 1.1.4 1.6 1.7 1.2 2.8-.3 1-1.6 2.7-6.4 4.5l-.7.2zM316.9 175.6c-1.3 0-3.2-.5-6.3-2a2.1 2.1 0 112-3.8c3.1 1.6 4.4 1.5 4.4 1.5 1-.4 2.2.1 2.6 1.2.4 1.1-.3 2.4-1.3 2.8-.3.1-.8.3-1.4.3z" fill="#EE9B68"/><path d="M281.7 171.8a1.4 1.4 0 010-2.9l14.4-1.1c.9-.1 1.5.5 1.6 1.3 0 .8-.6 1.5-1.3 1.5l-14.5 1.2h-.2z" fill="#FFFCF6"/><path d="M264.5 53.3c-.3 0-.6 0-1-.2-7.7-4-12.4-9.7-13.7-16.7-3-15.4 11-32 11.5-32.6a2.1 2.1 0 013.3 2.7c-.2.2-13.3 15.7-10.7 29.1 1.1 5.7 5 10.3 11.6 13.7a2.1 2.1 0 01-1 4zM295.2 58a2.1 2.1 0 01-1.3-3.7c.1-.1 15.6-13.3 15.3-27-.2-5.7-3.3-11-9.2-15.3a2.1 2.1 0 112.5-3.4c7 5.2 10.7 11.5 10.9 18.6.4 15.7-16.1 29.8-16.8 30.3-.4.4-.9.5-1.4.5zM371.3 237a2.1 2.1 0 01-1.3-3.7c.7-.6 17.9-14.3 13.4-37.4-1.8-9-5-19-8.4-29.6-6-18.5-12.2-37.6-12.3-56 0-1.2 1-2.1 2.2-2.1 1.1 0 2 .9 2 2 .2 17.9 6.2 36.6 12.1 54.8 3.5 10.7 6.7 20.8 8.5 30.1a43.6 43.6 0 01-15 41.5c-.3.3-.8.5-1.2.5z" fill="#000C3E"/><path d="M378.3 140.3a2.1 2.1 0 01-2-2.4c2.8-23.3-1.7-42.4-13.3-56.7-18.8-23-50.1-25.9-50.4-25.9-1.2 0-2-1.1-2-2.3.1-1.1 1.1-2 2.3-2 1.4.2 33.5 3 53.4 27.5 12.4 15.3 17.2 35.4 14.1 60 0 1-1 1.8-2 1.8z" fill="#000C3E"/><path d="M292.2 222.8l-6.8-.2a2.8 2.8 0 01-2.7-3c0-1.5 1.4-2.6 2.9-2.6 4.7.2 10.5.2 11.7-.1 1.5-.5 3 .2 3.5 1.7.6 1.5-.2 3.1-1.7 3.6-1.1.4-3.8.6-7 .6z" fill="#DB5C5D"/><path d="M224 183.5a2.1 2.1 0 01-2-2.7 21.2 21.2 0 00-5.4-21.2c-.9-.8-1-2.1-.2-3 .8-.9 2.1-1 3-.2.5.5 11.4 10.4 6.7 25.6-.3 1-1.1 1.5-2 1.5zM349.9 189.8h-.2c-1.2-.2-2-1.2-2-2.4a42.4 42.4 0 019.7-24.6 2.1 2.1 0 013 3s-7.1 7.7-8.4 22c-.1 1.1-1 2-2.1 2z" fill="#EE9B68"/><path d="M232 169.9s18.5 15.4 20 17.7c1.4 2.4.8 32.3-2 32-3-.4-20.6-29-22.5-28.9-1.9 0-1 3.2-1 3.2s15 24.8 24 31.8c9.1 7 65.6 7.4 77 .9 11.6-6.5 21.3-30.9 20.5-31.4-1-.5-3.1-2.5-3.5-1.6-.3.7-16 28.5-17.9 27.6-2-.8.3-31.7 0-34.6-.2-3 22.7-25.1 22.7-25.1l1.6-2.8-2.3-.6s-22.4 22.3-28 22.2c-5.6-.1-64.4 4.1-67.1 3.1-2.7-1-21-20.7-23.2-19.9-2.3.8 1.1 4.6 1.8 6.4z" fill="#FFFCF6"/><path d="M224.7 284.3s48.2 57.6 85.3 42.2c37.2-15.4 72-57.2 53.3-62.7-18.7-5.6-167.8-2.6-138.6 20.5z" fill="#FFCEB0"/><path d="M436.2 250.2s-6.5-50.8-8.7-54.1c-2.2-3.3-18.8 21.7-14.3 35.9 4.5 14.1-57.4 14.5-52.6 35.2 4.8 20.7 1.9 48.6 27.6 50 25.6 1.5 54.9-5.5 61-15 6-9.5-13-52-13-52z" fill="url(#paint4_linear)"/><path d="M474.8 296s71.5 83.6 57.6 138.6c-14 55-82 63.8-96 56.7-14-7.1-8.8-243 38.4-195.3zM143.7 285.5S56.8 378.8 62.5 462c4.6 68.7 110.1 58.3 123 51.8 13-6.5 2-271.7-41.8-228.3z" fill="#D9423D"/><path d="M441.2 262.3s87.1 172.3 63.2 201.9c-24 29.5-66.5 32.8-83.5 8.4-10-14.3 4-140.5-10.7-156s26.3-62.4 31-54.3zM307 440s59.3 22.3 68.8 41.2c9.5 18.8-25.7-4.2-34-7.6-8.2-3.4 21.6 20.4 22.5 25.9 1 5.4-33.2-16.2-33.2-16.2s23.7 25 21.4 30.2c-2.4 5.3-29.4-16.2-29.4-16.2s14 22.2 9.4 25.4c-4.6 3.1-35.2-33.8-60.4-32.3-25.2 1.6-120.7 57-157 1.3-36.3-55.6-5.6-82.1 64.7-81.4 70.3.8 107.8 21.5 127.3 29.7z" fill="#FFCEB0"/><path d="M289.3 9.2c-.6 0-1.3 0-2 .2-1.8.4-3 1.3-3.7 2.8-3.2 6.8 3.5 23 8.2 32.7 3-10.7 6.5-28.5 1.5-34a5 5 0 00-4-1.7zm3 43.7c-.7 0-1.5-.5-1.9-1.2-1.6-3-16.2-29.7-10.8-41.3a9.2 9.2 0 016.8-5.3c5.4-1 8.5 1 10.2 2.8 8.6 9.7-1 40-2.1 43.4a2.2 2.2 0 01-2.1 1.6z" fill="#FFD310"/><path d="M319 20h-.7c-7.4 1-16.4 16.8-21.1 26.8 9.9-4.2 25.5-12.1 27.6-19.3.5-1.7.1-3-1-4.6-1.5-2-3.1-2.9-4.8-2.9zm-26 33a2.2 2.2 0 01-2-3c1.3-3.4 13.9-32.6 26.8-34.3 2.4-.3 6 .2 9.5 4.6 2 2.5 2.6 5.4 1.7 8.4-3.5 12.3-32 23-35.3 24.2l-.7.1z" fill="#FFD310"/><path d="M251.7 45.2a54.2 54.2 0 0054.2 0" stroke="#FFD310" stroke-width="3.9"/><defs><linearGradient id="paint0_linear" x1="41" y1="428" x2="130" y2="582.8" gradientUnits="userSpaceOnUse"><stop stop-color="#FFC5C6"/><stop offset="1" stop-color="#FFF6F6"/></linearGradient><linearGradient id="paint1_linear" x1="540" y1="252" x2="181.3" y2="18.7" gradientUnits="userSpaceOnUse"><stop stop-color="#fff"/><stop offset="1" stop-color="#FFD7D7"/></linearGradient><linearGradient id="paint2_linear" x1="523.3" y1="175.6" x2="405.2" y2="125.2" gradientUnits="userSpaceOnUse"><stop stop-color="#FFBEBF"/><stop offset="1" stop-color="#FFFBFC"/></linearGradient><linearGradient id="paint3_linear" x1="555" y1="429" x2="43" y2="225" gradientUnits="userSpaceOnUse"><stop stop-color="#FFD7D7"/><stop offset="1" stop-color="#FFF8F8"/></linearGradient><linearGradient id="paint4_linear" x1="450" y1="329" x2="405.3" y2="195.8" gradientUnits="userSpaceOnUse"><stop stop-color="#FFC4A0"/><stop offset="1" stop-color="#FFCEB0"/></linearGradient></defs></svg>