<svg width="657" height="690" fill="none" xmlns="http://www.w3.org/2000/svg"><path d="M224 564.9c-31.5 11.1-63.2 16.3-97.1 9.9-37.8-7.2-70.6-39.6-89.1-71.8A72.8 72.8 0 0126 463.8c1.7-31.8 31.8-35.4 57.4-30.2 14.4 2.9 27.6 9.5 40.7 16 21.7 10.9 47.1 16.2 66.6 31.2 6.5 5.1 11.4 11.2 19 14.9 11.8 5.7 25.3 8.4 37.4 13.6 10.4 4.5 22 11.9 22 23.2 0 11.5-12.1 18.9-22.7 23.5a331 331 0 01-22.5 8.9z" fill="url(#paint0_linear)"/><path d="M108.2 154c51.5-76 158.1-106.6 244.6-78 41.6 13.8 76.6 42.5 108.8 72.3 28.4 26.2 56 54.6 75.3 88.3 13.3 23 22.7 50.7 29.4 76.5 10 38.6 1 88.3-49 84.7-11.7-.9-21.8-5-32.8-8.7-8.8-3-17.5-1.2-26.7-2.7a248 248 0 01-66.5-22.2c-43-20.3-82.3-48-126.5-65.9a306.2 306.2 0 00-114-22.2c-16.5 0-33.8 1.2-48.5-6.2-36.4-18.2-20-67.2-6.4-94.8 3.5-7.3 7.7-14.4 12.3-21.2z" fill="url(#paint1_linear)"/><path d="M512.4 165.4c8.5 7.7 41.9 28.7 42.5 4 .2-6-2.6-12-6.4-16.5-4.3-5.2-9.2-7.9-12.6-14-4.2-7.2-8.9-14-14.1-20.3-10.7-13-23.2-25.2-38.3-30.6C473 84.2 455 85.2 450 98.8c-7.4 19.8 24 23.4 33.6 30.6 9.1 6.9 14.3 18.6 21.5 28 2.2 2.9 4.7 5.6 7.4 8z" fill="url(#paint2_linear)"/><path d="M355.5 141.3c18 10.6 31.4 26.5 47.8 39.2 27.3 21.3 64.7 25.6 96 40.4 32 15 56 38.5 67 72.2 14 43.6 15.4 95.4 3.4 140.3-13.2 49.3-44.1 82-89.3 103.9a369.2 369.2 0 01-159.7 34.4c-108.5.7-252.9-37.5-289.8-154l-1-3.2c-3.8-13-6-26.4-6.6-40-2.4-47.9 6-100.7 22.8-145.7 11.3-30.2 35.6-55.8 61.3-74 36-25.6 80-32.1 123.7-35.2 32.4-2.3 68.8-3 99.4 9.3a186 186 0 0125 12.4z" fill="url(#paint3_linear)"/><path d="M431 561.4c-139 40.4-254.9 1.5-295.5-23l-37.6-29 13-21.6 81.1-7.2 134.7-7.3L435.4 495l113-37.6h8.1c-17.4 59-89.8 93.9-125.5 104z" fill="#FB4C47"/><path d="M419.5 274s110 5 136.5 120.5c21 149-78 96.3-101.7 89-23.6-7.4-108-198.1-34.8-209.5z" fill="#D9423D"/><path d="M143.6 506.3h336s11.7-193.2-31-221.4c-42.9-28.3-243-22.4-287.4 1.7-44.4 24.2-17.6 219.7-17.6 219.7z" fill="#FB4C47"/><path d="M195 257.8c-.4 0-.8-.1-1.2-.4-1-.6-25-15.3-18.8-53.2 2.2-13.2 4.8-22.8 7.1-31.2 4.2-15.2 7.3-26.2 4.8-48.3-.1-1.2.7-2.2 2-2.4 1.1 0 2.2.8 2.4 2 2.5 22.9-.8 34.8-5 49.9-2.2 8.3-4.8 17.7-7 30.7-5.7 35 16.5 48.6 16.8 48.8a2.2 2.2 0 01-1.1 4zM280.7 24.4a27.5 27.5 0 11-54.6 6.2 27.5 27.5 0 0154.6-6.2z" fill="#000C3E"/><path d="M191.3 247.5s10.4 15.3 43.8 16.1c33.5 1 57.2-14.7 83.7-9.4 26.5 5.3 61-12 66.6-23.7 5.7-11.6-13.5-128.3-36.3-145-22.8-16.6-129-17.2-148 9-19.1 26.4-26.1 142-9.8 153z" fill="#000C3E"/><path d="M365.3 127a90.6 90.6 0 11-180 20.2 90.6 90.6 0 01180-20.3z" fill="#000C3E"/><path d="M323.8 209.7s16.4 68.9 11.7 77.5c-4.6 8.6-42.3 8.4-52.3 8-10-.6-25.2-75.5-19.4-76.4 5.8-.9 56.6-24.4 60-9z" fill="#FFCEB0"/><path d="M201.7 144.8s20 108 94.2 101.7c74.2-6.4 51-159.5 22.2-170-28.7-10.6-139.3 8.8-116.4 68.3z" fill="#FFCEB0"/><path d="M280.6 156.6s19.1 31.4 15.8 34.1c-3.2 2.8-13.9 4-17 2-3.3-2-5-39 1.2-36z" fill="#EE9B68"/><path d="M250.8 78s-24.5 16.8-25.9 41.5c-1.4 24.6 10.5 85.5-17.8 86.9 0 0-72.4-113 43.7-128.3zM264.7 76.5c-2.1 2 27.4-2.5 47.4 15.5 20 17.9 31.8 68.5 34.5 69 2.8.6 3.5-65.4-18-82-21.4-16.5-51.7-14.3-63.9-2.5z" fill="#000C3E"/><path d="M268.1 240.5s31 12 58.4-7.7c0 0 5.1 18 3.4 22.5-1.6 4.5-48.2 14.6-60.6-4.7 0 0-4-10.5-1.2-10z" fill="#EE9B68"/><path d="M341 166.3s2.9-28.2 16.6-20.4c13.8 7.8 7 38-4.8 42.4-11.7 4.4-16.4-7-11.8-22zM224.4 179.5s-9.1-26.9-20.8-16.2c-11.6 10.7 1.7 38.5 14.2 40.2 12.4 1.7 14.4-10.4 6.6-24z" fill="#FFCEB0"/><path d="M305.6 137.2s11-10 21.3-2.4c9 6.7-8.4 3.9-14 6.5-5.4 2.6-13.2 4.1-7.3-4zM255 146.8s-13-7.1-21.3 2.7c-7.2 8.7 9.1 1.8 15.1 3 6 1.3 13.9 1 6.2-5.7z" fill="#41294A"/><path d="M253.7 156.5c-.8 0-1.6 0-2.4.2a21.3 21.3 0 004.8 42.3 21.2 21.2 0 0018.7-23.6 21.3 21.3 0 00-21-18.9zm0 45.5a24.2 24.2 0 01-2.7-48.2 24.1 24.1 0 0121.6 39.1 24 24 0 01-19 9.1zM313 144.2l-2.5.1a21.1 21.1 0 00-18.8 23.5 21.3 21.3 0 1021.2-23.6zm-.2 45.5a24.2 24.2 0 01-2.6-48.3 24.2 24.2 0 112.6 48.3z" fill="#FFFCF6"/><path d="M231 177l-.2-.1-9.3-2.1c-.8-.2-1.3-1-1.1-1.8.2-.8 1-1.3 1.7-1l9.3 2a1.5 1.5 0 01-.3 3zM333.6 157.6c-.5 0-1-.4-1.3-.9-.4-.7 0-1.6.7-2l11.6-5.2a1.5 1.5 0 011.2 2.6l-11.6 5.3-.6.2z" fill="#FFFCF6"/><path d="M258.8 71s12.2 58.4 29.3 61.3c17 3 56.7-4.6 57.7-11.3 1-6.8-39.8-53.6-64.6-58.4-43.6-8.3-69.2 64.4-62 79.9 7.2 15.5 40.6-4.1 47.8-7.3 7.3-3.3-8-52.3-8.2-64.2z" fill="#000C3E"/><path d="M276.1 175.5c-.7 0-1.3-.5-1.4-1.2-.2-.7.3-1.5 1-1.7l14.7-3.4c.8-.2 1.6.3 1.8 1 .1.9-.3 1.7-1.1 1.8l-14.7 3.4h-.3z" fill="#FFFCF6"/><path d="M240.2 57.3c-.3 0-.5 0-.7-.2-8.6-2.9-14.2-7.9-16.7-14.8-5.4-15.3 6.3-34.3 6.8-35.1.7-1 2-1.4 3-.7 1 .6 1.4 2 .7 3 0 .2-11 18-6.4 31.3 2 5.7 6.7 9.8 14 12.2a2.2 2.2 0 01-.7 4.3zM272.2 57.4c-.5 0-1-.2-1.4-.6-1-.8-1-2.2-.2-3 .1-.2 14-16 11.4-30-1-5.8-5-10.6-11.7-14.2-1-.6-1.5-2-.9-3s2-1.4 3-.9c8 4.3 12.6 10.1 14 17.4 2.8 16-11.9 32.8-12.5 33.5-.5.5-1 .8-1.7.8zM377.4 228.3c-.5 0-1-.2-1.5-.6-.9-.8-1-2.2 0-3 .6-.8 16-17.4 7.9-40.3-3.2-8.9-8-18.6-13.2-28.9-9-18-18.2-36.5-21-55.3-.3-1.1.5-2.3 1.7-2.5 1.2-.2 2.3.7 2.5 1.9 2.9 18.1 12 36.3 20.7 54 5.2 10.4 10.1 20.2 13.4 29.4a45 45 0 01-9 44.6c-.3.5-1 .7-1.5.7z" fill="#000C3E"/><path d="M369.7 128.5c-1.2 0-2.1-1-2.2-2.1-.6-24.3-8.1-43-22.2-55.9C322.6 50 290 51.8 289.8 52c-1.3.1-2.2-.9-2.3-2 0-1.3.8-2.3 2-2.4 1.4 0 34.7-2 58.7 19.8 15 13.6 23 33.5 23.7 59 0 1.2-1 2.2-2.1 2.2z" fill="#000C3E"/><path d="M291.5 226.5c-2.5 0-4.3-.4-4.5-.5a2.2 2.2 0 01-1.6-2.6 2.2 2.2 0 012.7-1.6s6.3 1.5 11-1.9c1-.6 2.4-.4 3.1.6.7 1 .5 2.3-.5 3-3.4 2.4-7.3 3-10.2 3zM219 196.4a2.2 2.2 0 01-2.2-2.5c2-13.6-8.7-20.7-8.8-20.8-1-.6-1.3-2-.7-3 .7-1 2-1.3 3-.7a26 26 0 0110.8 25.1c-.1 1.1-1 1.9-2.1 1.9zM348.3 183.3c-1.2 0-2.1-.9-2.2-2a43.6 43.6 0 016-26.6 2.2 2.2 0 013.6 2.5s-6.1 9-5.2 23.8c0 1.2-.9 2.3-2 2.3h-.2z" fill="#EE9B68"/><path d="M227.7 291.1s49.8 59.5 88.1 43.6c38.3-16 74.2-59 55-64.8-19.3-5.7-173.2-2.7-143 21.3z" fill="#FFCEB0"/><path d="M265.2 177.8a6.6 6.6 0 11-13.1 2 6.6 6.6 0 0113-2zM327.3 165.9a6.6 6.6 0 11-13 2 6.6 6.6 0 0113-2z" fill="#41294A"/><path d="M276 218.5c-.4 0-.7 0-1-.2-1-.6-1.5-1.9-1-3 .4-.6 8-15 20-16.3 7-.8 13.7 2.7 20.2 10.4.8 1 .6 2.3-.3 3.1-1 .8-2.3.7-3-.3-5.5-6.5-11-9.5-16.3-8.9-9.9 1-16.6 14-16.7 14-.4.8-1.1 1.2-2 1.2z" fill="#EE9B68"/><g filter="url(#filter0_d)"><circle cx="399.9" cy="442.6" r="105.4" fill="#fff"/></g><path d="M345.8 395.5s44 58.8 55.1 63.7c11 4.9 24.9 3.8 26 9.4 1.3 5.7-23-3.9-19.2 4.8 3.9 8.8 19 18.7 19.1 27.5 0 8.7-24-18.9-24-18.9s22.7 25.3 15.1 25.9c-7.5.6-27-24.1-27-24.1s21.8 32.4 14.6 29.4c-7.3-3-74.3-80.4-84.6-88.7-10.4-8.2 25-29 25-29z" fill="#E27B5A"/><path d="M474 409.8s-50.3 53.6-61.8 57.2c-11.4 3.7-25 1-26.9 6.5-1.8 5.5 23.4-1.3 18.6 7-4.8 8.2-21 16.4-22 25.1-1 8.7 26-16 26-16s-25.4 22.5-18 24c7.5 1.4 29.6-21 29.6-21s-25.2 29.8-17.7 27.6c7.5-2.1 82.6-71.8 93.8-78.8 11.2-7-21.6-31.6-21.6-31.6z" fill="#F8B38A"/><path d="M431.2 447s15.5 29.3 29.7 32.4c14.2 3.1 36.7-19.5 43.4-33.2 6.7-13.8-8.2-54.8-21.7-68.8-10-1.2-58.6 43.5-51.4 69.6z" fill="#F65551"/><path d="M332.2 362s54 55.2 51.5 68.2c-2.4 13-21.8 28.6-37.5 33.7-15.6 5.1-51.2-15.6-51.2-30.6a103.1 103.1 0 0137.2-71.4z" fill="#128E5A"/><path d="M152 426s118.8 65 141 64.6c22.2-.2 44.6-12.6 50.9-4 6.3 8.5-41.8 11-28.6 22.7 13.1 11.6 46.1 16.7 53 31.4 6.8 14.6-54.9-13.2-54.9-13.2s57.5 25 45.3 31.7c-12.2 6.8-63.8-19.7-63.8-19.7s61.4 37.6 47 38.2c-14.4.6-186-78.2-209.7-84C108.6 487.8 152 426 152 426z" fill="#FFC6A6"/><path d="M243.6 422.3s1.4 55.1-11.2 76.2c-30.2 50-111.6 43.9-135.9 8-24.3-35.9 28.8-217.1 64.7-219.9 35.9-2.7 82.4 83.4 82.4 135.7z" fill="#D9423D"/><path d="M266.8 5.7c-.6 0-1.4 0-2.2.2a5 5 0 00-3.9 3c-3.3 7.2 3.7 24.4 8.8 34.6 3-11.3 6.8-30.2 1.5-36.1a5.3 5.3 0 00-4.2-1.7zM270 52c-.8 0-1.6-.4-2-1.2-1.8-3.2-17.2-31.5-11.5-43.9 1.3-3 3.9-4.9 7.2-5.6 5.8-1.1 9 1 10.8 3 9.2 10.3-1 42.5-2.2 46.1A2.3 2.3 0 01270 52z" fill="#FFD310"/><path d="M298.3 17.2h-.7c-7.9 1-17.4 17.8-22.4 28.4 10.5-4.4 27-12.9 29.3-20.5a5 5 0 00-1-4.8c-1.7-2.1-3.4-3.1-5.2-3.1zm-27.6 35a2.3 2.3 0 01-2.2-3.3c1.5-3.5 14.8-34.5 28.5-36.3 2.6-.4 6.5.2 10.1 4.8a9.7 9.7 0 011.9 9c-3.8 13-34 24.4-37.5 25.6l-.8.2z" fill="#FFD310"/><path d="M226.9 44a57.6 57.6 0 0057.5 0" stroke="#FFD310" stroke-width="4.9"/><defs><linearGradient id="paint0_linear" x1="23.3" y1="468.2" x2="56" y2="581.6" gradientUnits="userSpaceOnUse"><stop stop-color="#FCC"/><stop offset="1" stop-color="#FEE"/></linearGradient><linearGradient id="paint1_linear" x1="633.3" y1="165" x2="267.8" y2="80.6" gradientUnits="userSpaceOnUse"><stop stop-color="#fff"/><stop offset="1" stop-color="#FFCECE"/></linearGradient><linearGradient id="paint2_linear" x1="555.8" y1="169" x2="430.4" y2="115.5" gradientUnits="userSpaceOnUse"><stop stop-color="#FFD1D1"/><stop offset="1" stop-color="#FFFBFC"/></linearGradient><linearGradient id="paint3_linear" x1="527.5" y1="522.2" x2="23.4" y2="230.3" gradientUnits="userSpaceOnUse"><stop stop-color="#FFCDCD"/><stop offset="1" stop-color="#FFF3F3"/></linearGradient><filter id="filter0_d" x="214.4" y="261.1" width="370.9" height="370.9" filterUnits="userSpaceOnUse" color-interpolation-filters="sRGB"><feFlood flood-opacity="0" result="BackgroundImageFix"/><feColorMatrix in="SourceAlpha" values="0 0 0 0 0 0 0 0 0 0 0 0 0 0 0 0 0 0 127 0"/><feOffset dy="4"/><feGaussianBlur stdDeviation="40"/><feColorMatrix values="0 0 0 0 0 0 0 0 0 0 0 0 0 0 0 0 0 0 0.22 0"/><feBlend in2="BackgroundImageFix" result="effect1_dropShadow"/><feBlend in="SourceGraphic" in2="effect1_dropShadow" result="shape"/></filter></defs></svg>