<svg width="574" height="567" fill="none" xmlns="http://www.w3.org/2000/svg"><path d="M218 539.5c-30.5 10.8-61.4 15.8-94.3 9.6-36.7-7-68.5-38.4-86.5-69.7a70.7 70.7 0 01-11.3-38c1.6-31 30.8-34.4 55.6-29.4 14 2.8 26.9 9.2 39.6 15.5 21 10.6 45.8 15.8 64.7 30.4 6.3 4.9 11 10.8 18.4 14.4 11.5 5.5 24.6 8.2 36.4 13.2 10 4.4 21.3 11.5 21.3 22.5 0 11.2-11.7 18.4-22 22.9a321 321 0 01-21.8 8.6z" fill="url(#paint0_linear)"/><path d="M105.5 140.4c50.1-73.8 153.7-103.5 237.6-75.7 40.5 13.4 74.4 41.2 105.7 70.2 27.6 25.5 54.3 53 73.2 85.8 12.8 22.4 22 49.2 28.5 74.2 9.7 37.5 1 85.9-47.6 82.3-11.3-.8-21.2-4.9-31.8-8.5-8.6-2.9-17-1.1-26-2.6a241 241 0 01-64.6-21.5c-41.8-19.8-80-46.7-122.8-64A297.4 297.4 0 00147 259c-16 0-32.9 1.1-47.2-6-35.3-17.7-19.4-65.3-6.2-92 3.5-7.2 7.5-14 12-20.6z" fill="url(#paint1_linear)"/><path d="M498.2 151.5c8.2 7.5 40.6 27.9 41.2 4 .2-6-2.5-11.8-6.2-16.2-4.2-5-9-7.6-12.3-13.5-4-7-8.6-13.6-13.6-19.7-10.4-12.8-22.5-24.5-37.2-29.8-10.3-3.6-27.8-2.7-32.7 10.5-7.1 19.2 23.4 22.8 32.7 29.8 8.8 6.6 13.8 18 20.8 27 2.2 3 4.7 5.5 7.3 7.9z" fill="url(#paint2_linear)"/><path d="M345.7 128.1c17.5 10.3 30.6 25.7 46.5 38 26.5 20.7 62.9 25 93.3 39.3 31 14.6 54.4 37.4 65 70.2 13.6 42.3 15 92.6 3.3 136.1-12.8 48-42.8 79.8-86.8 101a358.6 358.6 0 01-155 33.5c-105.4.6-245.6-36.5-281.5-149.7l-1-3.1a164.6 164.6 0 01-6.4-38.8 367.4 367.4 0 0122.2-141.5c11-29.4 34.6-54.2 59.5-71.9 35-24.8 77.6-31.2 120.1-34.2 31.5-2.2 66.9-3 96.6 9 8.4 3.5 16.5 7.5 24.2 12.1z" fill="url(#paint3_linear)"/><path d="M419.1 536.1c-135 39.3-247.6 1.4-287-22.4l-36.6-28 12.7-21.1 78.8-7 130.8-7 105.5 21 109.8-36.5h11.2c-16.9 57.3-90.5 91.2-125.2 101z" fill="#FB4C47"/><path d="M125.6 504.6H459S470.6 313 428.2 285c-42.5-28-232-18.4-273.3 9.9-104.9 71.7-29.3 209.8-29.3 209.8z" fill="#FB4C47"/><path d="M181.1 244.5c-.5 0-1-.1-1.4-.4-.9-.8-22.3-18.8-10.6-55 4.1-12.7 8.1-21.7 11.7-29.6a107 107 0 0011.8-46.7c0-1.2 1-2 2.2-2 1.2 0 2.2 1 2.1 2.2-.9 22.9-5.9 34-12.2 48.2-3.5 7.9-7.4 16.7-11.4 29.2-10.8 33.3 8.4 49.6 9.2 50.3a2.2 2.2 0 01-1.4 3.8zM299.4 28.3a27.3 27.3 0 11-54.5-2 27.3 27.3 0 0154.5 2z" fill="#000C3E"/><path d="M178.7 234s8 16.4 40.6 22.2c32.7 5.9 58.3-6 83.5 3.2 25.2 9.1 61.7-2.8 68.9-13.4 7.2-10.6 5.7-128-14.2-147.6-19.9-19.7-124-36-146.6-13-22.6 23-46.6 135.3-32.2 148.6z" fill="#000C3E"/><path d="M367.2 141.4a89.8 89.8 0 11-179.5-6.7 89.8 89.8 0 01179.5 6.7z" fill="#000C3E"/><path d="M314.3 216.5s5.8 70 0 77.7c-5.8 7.8-42.8 2-52.5 0-9.7-1.9-13.6-77.7-7.7-77.7 5.8 0 59-15.6 60.2 0z" fill="#FFCEB0"/><path d="M204.1 134.7s3.7 109 77.4 113.7c73.8 4.7 73.7-149 47-163.5-26.7-14.7-138-12-124.4 49.8z" fill="#FFCEB0"/><path d="M279.8 158s14 33.6 10.5 35.8c-3.7 2.2-14.3 1.8-17.1-.7-2.9-2.4.8-38.9 6.6-35.1z" fill="#EE9B68"/><path d="M262.2 76.5s-26.5 12.8-31.5 36.8c-5 24-2.4 85.4-30.4 82.6 0 0-54.3-121.6 61.9-119.4zM276 77c-2.3 1.7 27.3 1.7 44.3 22.2 17 20.6 21 72 23.6 72.9 2.6 1 13.1-63.7-5.5-83-18.6-19.5-48.7-21.9-62.3-12z" fill="#000C3E"/><path d="M255 238.5s28.8 16.3 58.5 1c0 0 2.4 18.3 0 22.6-2.3 4.2-49.4 7.2-58.7-13.6 0 0-2.4-11 .3-10z" fill="#EE9B68"/><path d="M337.5 176.5s7.1-27.3 19.4-17.6c12.3 9.7 1.2 38.2-11 40.8-12.1 2.6-15-9.1-8.4-23.2zM221.3 172.1s-5-27.7-18-19c-13 8.8-4 38 7.9 41.6 12 3.5 15.7-8 10-22.6z" fill="#FFCEB0"/><path d="M307.1 142.7s12.3-8.3 21.3.7c8 8-8.8 2.6-14.6 4.4-5.8 1.7-13.6 2-6.7-5.1zM256.1 144.6s-11.7-9-21.2-.5c-8.4 7.4 8.6 3.1 14.3 5.2 5.7 2 13.5 2.9 7-4.7z" fill="#41294A"/><path d="M250.2 153.7a21.1 21.1 0 00-.8 42.2h.9a21.1 21.1 0 00.8-42.2h-.9zm0 45.1h-.9a24 24 0 011-48h.8a24 24 0 01-.8 48zM310.1 150.3a21 21 0 00-15.4 35.5 21 21 0 0014.7 6.7h.8a21 21 0 0015.4-35.4 21 21 0 00-14.7-6.7h-.8zm0 45.2h-.9a23.9 23.9 0 01-23-25 24 24 0 0124-23h.8a23.9 23.9 0 0123.1 24.8 24 24 0 01-24 23.2z" fill="#FFFCF6"/><path d="M228.4 170.6l-.5-.1-8.8-3.5a1.4 1.4 0 111-2.7l8.8 3.5c.8.3 1.1 1.1.8 1.9-.2.6-.7 1-1.3 1zM331.9 166.8a1.4 1.4 0 01-.4-2.9l12.2-3.5c.7-.2 1.5.3 1.8 1 .2.8-.3 1.6-1 1.8l-12.3 3.5h-.3z" fill="#FFFCF6"/><path d="M271 70.8s3.4 59 19.7 64.4c16.3 5.4 56.4 4 58.3-2.5 2-6.5-31-58.5-54.7-66.9-41.6-14.6-77.4 53-72.7 69.2 4.8 16.3 40.4 2 48 0 7.7-2.2 0-52.5 1.5-64.2z" fill="#000C3E"/><path d="M272.8 175.8a1.4 1.4 0 01-.1-2.9l14.8-1.1c1-.2 1.5.5 1.6 1.3 0 .8-.5 1.5-1.3 1.6l-14.9 1.1h-.1z" fill="#FFFCF6"/><path d="M255.2 54.5c-.4 0-.7 0-1-.2-8-4.1-12.8-9.8-14.2-17-3-15.8 11.3-32.8 12-33.5.7-.9 2-1 3-.2.9.8 1 2.2.2 3-.1.2-13.6 16.1-10.9 29.8 1.1 5.9 5.1 10.6 11.9 14a2.2 2.2 0 01-1 4.1zM286.6 59.4c-.6 0-1.2-.3-1.7-.8-.7-.9-.6-2.3.3-3 .2-.2 16-13.7 15.7-27.6-.2-6-3.4-11.2-9.4-15.8a2.2 2.2 0 112.6-3.5c7.2 5.4 11 11.8 11.1 19.2.4 16-16.5 30.4-17.2 31-.4.3-1 .5-1.4.5zM364.5 242.7c-.7 0-1.3-.3-1.8-.8-.7-1-.5-2.3.4-3 .8-.7 18.4-14.7 13.8-38.3-1.8-9.3-5.1-19.5-8.7-30.4-6-18.9-12.4-38.4-12.5-57.3 0-1.2 1-2.2 2.2-2.2 1.2 0 2.2 1 2.2 2.2 0 18.2 6.3 37.4 12.3 56 3.5 11 6.9 21.3 8.7 30.8a44.6 44.6 0 01-15.3 42.6c-.4.3-.9.4-1.3.4z" fill="#000C3E"/><path d="M371.7 143.6h-.3c-1.2-.1-2-1.2-1.9-2.4 3-23.9-1.6-43.4-13.5-58-19.2-23.6-51.3-26.6-51.6-26.6-1.2 0-2.1-1.1-2-2.3 0-1.2 1.1-2.1 2.3-2 1.4 0 34.3 3 54.7 28 12.7 15.7 17.5 36.3 14.5 61.4-.2 1.1-1.1 2-2.2 2z" fill="#000C3E"/><path d="M283.2 228.4c-4 0-7.2-1.3-7.4-1.4a2.2 2.2 0 01-1.2-2.8 2.2 2.2 0 012.9-1.2s6 2.4 11.1-.1a2.2 2.2 0 012 3.8c-2.5 1.3-5.1 1.7-7.4 1.7zM213.8 187.9a2.2 2.2 0 01-2-2.8c3.8-13-5.6-21.6-5.7-21.7a2.2 2.2 0 012.9-3.2c.5.4 11.6 10.6 6.8 26.2-.2.9-1.1 1.5-2 1.5zM342.6 194.3h-.2c-1.2-.2-2.1-1.2-2-2.4a43.3 43.3 0 019.8-25.2 2.2 2.2 0 013.2 3s-7.4 8-8.7 22.6c0 1.1-1 2-2.1 2z" fill="#EE9B68"/><path d="M216 291.2s49.3 59 87.4 43.2c38-15.8 73.6-58.6 54.5-64.3-19.1-5.6-171.8-2.7-141.9 21z" fill="#FFCEB0"/><path d="M348.4 211.7s14.8 107.9 1 120c-14 12.2-31.6 1.6-55.2 9.7-23.6 8-24.4-24.8-22.8-41.6 1.6-16.8 9.3-123.6 77-88z" fill="#fff"/><path d="M84.5 378.6l-29.2 86.2 212.7 72s32.6-82.5 28.5-84c-4.1-1.3-212-74.2-212-74.2z" fill="#128E5A"/><path d="M126.5 482.9s36.4-25.1 35.1-18.8c-1.2 6.4-15.3 18.8-15.3 18.8s25.6-19.8 27.2-9.9c1.7 9.9-7.3 19.3-7.3 19.3s18-14.4 20.9-7c2.9 7.5-20.3 40.2-40.8 39.3-20.5-1-29.8-35-19.8-41.7z" fill="#FFC6A6"/><path d="M140 434.4l79.6 32.5s13.9-42.2 11.3-47c-2.6-5-31.3-6.7-39.2-14.5-7.9-7.7-5-17.2-18.2-15.5-13.1 1.6-33.5 44.5-33.5 44.5z" fill="#fff"/><path d="M285.1 221.3l-.7-.1c-6.3-2.3-9.4-5.1-9.5-8.6-.2-5.6 7.8-9.4 9.4-10a2.2 2.2 0 111.7 4c-2.9 1.2-6.8 4-6.8 5.9 0 .5.6 2.4 6.7 4.6a2.2 2.2 0 01-.7 4.2z" fill="#EE9B68"/><path d="M259 179.8c-.5 0-1-.2-1.5-.5-9-8-15.4-5.9-15.7-5.8-1 .4-2.4-.2-2.8-1.3-.4-1.1.2-2.3 1.3-2.8.3-.1 8.9-3.3 20.1 6.6a2.2 2.2 0 01-1.4 3.8zM303.6 180.3c-.6 0-1.2-.2-1.6-.7-.8-1-.7-2.3.2-3 11.2-10 19.8-6.8 20.1-6.7 1.2.4 1.7 1.7 1.3 2.8a2.2 2.2 0 01-2.8 1.3c-.3-.1-6.7-2.2-15.7 5.8-.5.3-1 .5-1.5.5z" fill="#41294A"/><path d="M444.6 472.6s26.7 34 68 9.7c43.5-36.9 53.3-85 35.4-121.4-23-38.7-79.7-81.3-94.3-81.3-14.5.1-65.2 138-9.1 193z" fill="#D9423D"/><path d="M391.8 224s-56.4-24.2-77.3-18.6c-20.8 5.6 19.6 10.9 27.9 14.9 8.2 4-30.2-2.6-35 .4-4.9 3 35 14.3 35 14.3s-35.3-1-37.7 4.3c-2.4 5.4 32.4 11.4 32.4 11.4s-26.5 4.4-25.8 10.1c.7 5.7 49.7 4 65.8 24.2 16 20.3 38.7 131 106 120.9 67.2-10.2 66.6-51.7 18-104.9-48.4-53.2-89.7-67.7-109.3-77z" fill="#FFC6A6"/><path d="M282.3 8.6l-2.1.3a5 5 0 00-3.8 2.8c-3.3 7 3.6 23.8 8.5 33.7 3-11 6.6-29.3 1.5-35.1a5.1 5.1 0 00-4-1.7zm3.2 45c-.9 0-1.6-.4-2-1.1-1.8-3.1-16.8-30.7-11.2-42.7a9.5 9.5 0 017-5.4c5.6-1.1 8.8 1 10.5 2.9 8.9 10-1 41.3-2.2 44.8a2.3 2.3 0 01-2.1 1.6z" fill="#FFD310"/><path d="M312.9 19.8h-.7c-7.6 1-16.9 17.3-21.8 27.6 10.2-4.3 26.3-12.5 28.5-20a5 5 0 00-1-4.6c-1.6-2-3.2-3-5-3zm-26.8 34a2.3 2.3 0 01-2.1-3.1c1.4-3.5 14.3-33.6 27.6-35.4 2.6-.3 6.4.2 9.9 4.7 2 2.7 2.6 5.7 1.7 8.7-3.6 12.7-33 23.8-36.3 25l-.8.1z" fill="#FFD310"/><path d="M243.5 45.8a56 56 0 0055.9 0" stroke="#FFD310" stroke-width="4.9"/><defs><linearGradient id="paint0_linear" x1="23.1" y1="445.6" x2="54.9" y2="555.8" gradientUnits="userSpaceOnUse"><stop stop-color="#FFCBCB"/><stop offset="1" stop-color="#FFF1F1"/></linearGradient><linearGradient id="paint1_linear" x1="494.5" y1="186" x2="166.3" y2="33.8" gradientUnits="userSpaceOnUse"><stop stop-color="#fff"/><stop offset="1" stop-color="#FDD"/></linearGradient><linearGradient id="paint2_linear" x1="540.3" y1="155" x2="447.1" y2="85.1" gradientUnits="userSpaceOnUse"><stop stop-color="#FDD"/><stop offset="1" stop-color="#FFFBFC"/></linearGradient><linearGradient id="paint3_linear" x1="512.8" y1="498.1" x2="23.2" y2="214.5" gradientUnits="userSpaceOnUse"><stop stop-color="#FFE6E6"/><stop offset="1" stop-color="#FFF5F5"/></linearGradient></defs></svg>