<svg width="1171" height="873" fill="none" xmlns="http://www.w3.org/2000/svg"><path d="M541.1 722.8c-35.2 20.4-72 33.6-114 33.4-46.8-.2-93.2-31.6-122.5-66-10.9-12.8-20.4-27.6-22.6-44.3-5.1-38.5 30.1-49.4 61.8-49 17.9.4 35.2 5.3 52.3 10.2 28.3 8.2 60 8.9 86.6 22.6 9 4.6 16.1 10.8 26 13.5 15.4 4.2 32.1 4.5 47.8 8 13.4 3 28.9 9.3 31.4 22.8 2.5 13.8-10.2 25.3-21.9 33.2a402.4 402.4 0 01-24.9 15.6z" fill="url(#paint0_linear)"/><path d="M292.8 267.7C333.8 157.4 457.2 87 573.4 96.2c56 4.4 108.2 29.5 157.4 56.8 43.3 24 86.2 50.8 120.6 87a405.4 405.4 0 0160 86c24.1 45 28 109.7-35.2 120.4-14.8 2.5-28.7.4-43.5-.9-12-1-22.2 3.9-34 4.9-30 2.5-60.3-1.4-89.6-7.3-59.7-12.3-117-34.7-177.4-43.5-49.5-7.1-100-4.7-148.6 7.1-20.5 5-41.7 11.7-62.3 7-50.7-11.5-45.3-77.5-36.9-116 2.3-10.1 5.2-20.2 8.9-30z" fill="url(#paint1_linear)"/><path d="M792.5 161.7c12 6.5 56.8 21.4 50.6-7.4a30.5 30.5 0 00-12.2-17.5c-6.5-4.7-13-6.5-18.7-12.5a170.5 170.5 0 00-22.1-19.7C773.9 92.4 756 82 736.8 80c-13.4-1.3-34 4.9-36 22.1-2.9 25.2 34.7 20.4 47.8 26 12.6 5.4 21.9 17.6 33 26.4 3.4 2.8 7 5.2 11 7.3z" fill="url(#paint2_linear)"/><path d="M588.7 174.8c25.6 7.7 47.2 23.3 71.5 34.2 40.4 18.1 88.3 12.1 131.7 21 44.3 9 81.4 30.8 105.3 69.5 30.8 50 48.2 114 47 173.4-1.3 65.3-29.8 115.5-79.4 156.5-49.6 41-108.8 68.9-170.3 86.7-6 1.7-11.9 3.3-17.9 4.8-134.8 33.9-326 30.4-407.5-103.4a217.1 217.1 0 01-22.7-51.3 484.6 484.6 0 01-16-188.2c5-41 30-73.1 56.3-103.6 37-42.8 87.2-71.5 140.6-88.7C467 173 512 161 554 167c11.8 1.7 23.4 4.3 34.8 7.8z" fill="url(#paint3_linear)"/><path d="M902.3 591.9c-23.7 33-51.8 60.2-90.1 77.4-42.8 19-98 9.6-138.9-9.7-15.2-7.2-30-16.7-38.8-31-20.5-33 7-57.4 36.1-70 16.4-7.2 34.2-9.8 51.8-12.4 29.2-4.2 58.3-16.6 88.2-15.1 10 .5 19.2 3.1 29.3 1.5 15.8-2.4 31.1-9.1 46.9-12.3 13.4-2.8 30-3.5 38 7.8 8 11.5 1 27.3-6.3 39.2a402.1 402.1 0 01-16.2 24.6z" fill="url(#paint4_linear)"/><path d="M506.4 412.3c-.3 0-.7-.1-1-.3-.2-.2-6.5-5.2-11.4-15.4a64 64 0 01-2-46.7c4.4-14.6 8.8-25 12.6-34.3 7-16.7 12-28.7 12.4-54.3 0-.9.7-1.6 1.6-1.6 1 0 1.6.8 1.6 1.7-.4 26.1-5.8 39-12.7 55.5-3.8 9-8 19.4-12.4 34-11.7 39.3 12 58.4 12.3 58.6a1.6 1.6 0 01-1 2.8zM636.8 161a31.4 31.4 0 11-62.8-.8 31.4 31.4 0 0162.8.8z" fill="#000C3E"/><path d="M503.4 401s9.7 18.9 47.4 24.6c37.8 5.8 67-8.5 96.2 1.4 29.3 9.8 71-5 79-17.3 8-12.4 3-147.4-20.4-169.5-23.4-22.1-143.8-38.2-169.2-11-25.3 27-49.8 157-33 171.9z" fill="#000C3E"/><path d="M718 289.4a103.4 103.4 0 11-207-2.9 103.4 103.4 0 01207 2.9z" fill="#000C3E"/><path d="M530 286s7.2 125.5 92.2 129c85 3.3 80.7-173.5 49.6-189.6-31.1-16.1-159.2-10-141.8 60.7z" fill="#FFCEB0"/><path d="M617.7 310.9s17.2 38.2 13 41c-4 2.6-16.3 2.4-19.6-.4-3.4-2.7 0-44.8 6.6-40.6z" fill="#F5A473"/><path d="M592.6 324.4a8 8 0 11-16-.4 8 8 0 0116 .4zM661 319a8 8 0 11-16-.4 8 8 0 0116 .4zM595.2 217.6s-30 15.4-35.2 43.2c-5.1 27.7-.5 98.4-32.8 96 0 0-65.7-138.6 68-139.2zM611.3 217.8c-2.8 2 31.4 1.1 51.5 24.3 20 23.2 26 82.2 29.1 83.3 3 1 13.4-73.7-8.6-95.5-21.9-21.8-56.6-23.7-72-12.1z" fill="#41294A"/><path d="M684.7 330.6s7.4-31.6 21.8-20.8c14.5 10.9 2.4 44-11.5 47.3-14 3.3-17.6-10.1-10.3-26.5zM550.7 328.7s-6.5-31.8-21.2-21.3c-14.7 10.4-3.6 43.9 10.2 47.6 13.9 3.7 18-9.7 11-26.3z" fill="#FFCEB0"/><path d="M649.2 291s15-8 24.2 3.4c8.2 10-10.4 1.9-17.2 3.2-6.9 1.3-15.9.7-7-6.7zM589.5 293.8s-15.4-7.2-24 4.7c-7.6 10.4 10.5 1.3 17.4 2.3 6.9 1 15.9 0 6.6-7zM643.7 375.2s-9.8-14.8-20.4-13.9c-10.6 1-18.7 14.6-20.1 15.2 0 0 16.5 7.7 40.5-1.3z" fill="#41294A"/><path d="M584.2 306.7a24.5 24.5 0 00-17.5 41.4 24.2 24.2 0 0017.1 7.3h.4a24.4 24.4 0 00.3-48.8h-.3zm0 52h-.4a27.4 27.4 0 01-27.2-28c.2-15 12.6-27.2 27.6-27.2h.4a27.6 27.6 0 01-.4 55.1zM653 301.2a24.4 24.4 0 00-.3 48.8h.3a24.5 24.5 0 0017.5-41.5 24.2 24.2 0 00-17.1-7.3h-.4zm0 52h-.3a27.6 27.6 0 01.3-55.2h.4a27.4 27.4 0 0127.2 28A27.7 27.7 0 01653 353z" fill="#FFFCF6"/><path d="M558.9 326.7h-.6l-10.2-3.8a1.6 1.6 0 011.1-3l10.2 3.7a1.6 1.6 0 01-.5 3.1zM677.9 319.5c-.7 0-1.3-.4-1.5-1.1-.3-.9.2-1.8 1-2l14-4.4a1.6 1.6 0 11.9 3l-14 4.4-.4.1z" fill="#FFFCF6"/><path d="M610.8 247s0 31.7 18.9 37.4c18.9 5.7 67.5 3.2 67-4.5-4.4-70-37.3-66.5-64.8-75.5-48.2-15.7-87.6 63-81.7 81.6 5.9 18.6 46.5 1.2 55.2-1.4 8.8-2.6 4-24.2 5.4-37.7z" fill="#000C3E"/><path opacity=".2" d="M562 354.1s42.9-24.7 61.7-21.3c18.8 3.5 51.9 4 53.4 10.8 1.5 6.7-42 3.7-55.3 5-13.3 1.3-64.5 16.6-59.8 5.5z" fill="#DB5C5D"/><path d="M586 337.6a1.6 1.6 0 01-.6-3.1c4.3-1.8 5.1-3.1 5.1-3.2.3-.8 1.2-1.2 2-.9.9.3 1.3 1.3 1 2.1-.2.6-1.3 2.7-6.9 5h-.6zM651.5 334.2c-1.3 0-3.4-.4-6.8-2a1.6 1.6 0 111.4-3c4.2 2.1 5.7 1.8 5.7 1.8.9-.4 1.7 0 2 .8.4.9 0 1.8-.8 2.2-.3 0-.7.2-1.5.2z" fill="#DB5C5D"/><path d="M610.1 331.5a1.6 1.6 0 01-.1-3.1l17-1.8c.9 0 1.7.6 1.8 1.4 0 1-.6 1.7-1.4 1.8l-17.1 1.7h-.2z" fill="#FFFCF6"/><path d="M586.5 191.6c-.2 0-.5 0-.7-.2-9-4.4-14.5-10.6-16.2-18.6-4-17.7 11.9-37.2 12.5-38a1.6 1.6 0 112.5 2c-.2.2-15.5 19.2-12 35.3 1.6 7 6.5 12.5 14.6 16.4a1.6 1.6 0 01-.7 3zM622.8 196.3a1.6 1.6 0 01-1-2.8c.2-.2 18.4-16.4 17.5-32.9-.3-7.1-4.2-13.4-11.6-18.6a1.6 1.6 0 111.9-2.6c8.1 5.8 12.5 13 13 21 .8 18.1-18 34.8-18.7 35.5-.3.3-.7.4-1 .4zM717.4 405.2c-.4 0-.9-.2-1.2-.6-.5-.7-.4-1.7.2-2.2.3-.2 21.2-17.7 15.1-45.3a317.2 317.2 0 00-10.8-34.8c-7.5-21.6-15.2-43.8-15.9-65.4 0-1 .7-1.6 1.6-1.7.8 0 1.6.7 1.6 1.6.6 21 8.3 43.1 15.8 64.4 4.3 12.5 8.4 24.3 10.8 35.2a51.4 51.4 0 01-16.2 48.4c-.2.3-.6.4-1 .4z" fill="#000C3E"/><path d="M723.1 291.6h-.2c-.8-.1-1.5-1-1.4-1.8 2.8-27.8-3.1-50.4-17.4-67.2-23-26.9-60.4-29.4-60.8-29.4-.9 0-1.5-.8-1.5-1.7 0-.8.8-1.5 1.7-1.5.4 0 39.1 2.6 63 30.6 15 17.4 21 40.8 18.2 69.5-.1.8-.8 1.5-1.6 1.5z" fill="#000C3E"/><path d="M609.2 378.3s15.8-11.1 30-1.6c0 0-16.6 6.2-30 1.6zM619.6 389.7H616c-.9 0-1.6-.7-1.6-1.6 0-.9.7-1.6 1.7-1.6 6 .1 13.1 0 14.3-.5.8-.3 1.7.1 2 1 .3.8 0 1.7-.9 2-1.6.6-7.5.7-11.8.7zM542.5 346.2h-.4a1.6 1.6 0 01-1.2-2 26 26 0 00-7.3-25.8 1.6 1.6 0 112-2.4c.6.5 13.3 11.5 8.4 29-.2.7-.8 1.2-1.5 1.2zM691 350h-.2c-.9 0-1.5-.8-1.5-1.7a48.9 48.9 0 0110.4-28.7c.6-.7 1.6-.7 2.3-.1.6.6.7 1.6 0 2.2 0 .1-8.4 9.5-9.5 26.8 0 .9-.8 1.5-1.6 1.5z" fill="#DB5C5D"/><path d="M659 402s5 56.5-1.7 65.5-49.2 2.2-60.4 0c-11.2-2.3-11.2-95.9-9-89.5 18.7 52.2 69.8 6 71 24z" fill="#FFCEB0"/><path d="M592 407.5s30.2 14.5 64.4-3c0 0 2.7 21 0 26-2.6 4.8-57 8.3-67.6-15.7 0 0 .1-8.3 3.2-7.3z" fill="#F5A473"/><path d="M427.2 850.9h390.4s20-339.4-29-376.3c-48.8-37-264.1-18.5-314.8 13-50.7 31.5-46.6 363.3-46.6 363.3z" fill="#FB4C47"/><path d="M622.2 460.8s-15 130.4-8.5 148.6c6.5 18.2-1.9 98.7-4.5 109.1-2.7 10.5-83.8 15-104.8 6.6-20.9-8.4 5.4-234 17-275.8 11.8-41.8 99.5-17.2 100.8 11.5z" fill="#05BA6E"/><path d="M384 301s32.6 62.4 55.5 63c22.8.6 100-93.3 128.4-94.3 28.4-1 52.8 1.8 53-5 0-6.8-39.6-14.2-39.6-14.2s57.4 3.7 45.5-2.6c-11.9-6.3-40.3-11.9-40.3-11.9s41.2 1.7 41.5-2.7c.3-4.5-42.9-11-42.9-11s52.6-1.6 43-8.9c-9.6-7.2-27.7-4-76.7 3.4-49 7.5-159.8 72.9-167.4 84.1z" fill="#FFCEB0"/><path d="M441.2 298s52.2 31 29.5 66.3c-24.2 37.5-22.9 26.3-27 41.5-4.2 15.2 64.7 44.8 67.9 57.8 3.1 13-29.4 172.7-59.9 166.2-26.5-5.7-173.8-89.3-195-172.9-16.4-64.8 117.4-223.2 184.5-159z" fill="#FB4C47"/><path d="M577.8 662.4S520 789.8 541.3 806.9c21.2 17 38.4 5.9 57.2 17 18.8 11 36.8 5.5 52-4.1 15-9.7-24.3-136.4-40.5-148.5-16.3-12-29.2-15.5-32.2-8.9z" fill="#fff"/><path d="M770 465.5s31.1 3.8 55.5 48.5c18.3 33.5 53.8 229.5 0 257.5-53.8 27.9-104.2 13.3-123.8-5.5-19.5-18.9 15.3-115.8 38.4-123 23.2-7.3 29.9-177.5 29.9-177.5z" fill="#FB4C47"/><path d="M780 462.5s1.5-9-43.3-28.4c-35.7-15.5-66.3 10.6-120.8 13.4-54.5 2.8-49.6-18.8-88.2-8.8-59.5 15.5-12.1 54.5 7 59C554 502 618.3 610 780.2 462.4z" fill="#05BA6E"/><path d="M623.8 353.6s-.2 3.7 2 4c2 .4 6-.8 5-5.8 0 0-5.4 1.7-7 1.8z" fill="#fff"/><path d="M844.5 659.3h-.4a3.2 3.2 0 01-2.8-2.8c-2.6-3-20.4-9.5-32.3-13.8-23.5-8.5-34-12.7-36.3-17.3-2-3.8-1-9.5 0-16.6 1.7-11.2 3.9-25.2-3.2-38.7-12.4-23.3-11.2-57.8-11.1-59.3a3.2 3.2 0 016.3.3c0 .3-1.1 34.3 10.4 56 8.1 15.4 5.7 31.2 4 42.7-1 5.5-1.7 10.7-.7 12.8 2 3 20.5 9.7 32.8 14.1 27.7 10 37.3 14 36.5 19.9a3.2 3.2 0 01-3.2 2.7zM761.5 633.2c-.3 0-.6 0-.8-.2-10.6-2.8-26.9-5.8-27-5.8a3.2 3.2 0 111-6.3c.8.1 16.9 3 27.6 6a3.2 3.2 0 01-.8 6.3zM818.7 790.5h-.2C759.6 788 701 762.8 697.8 739c-1-7.5-1.8-11.2-2.2-13a3 3 0 01-1.7-3.3c.4-2.7 2.2-3.6 3.6-3.6 3.2 0 4.3 2 6.6 19 2.4 18.6 55.9 43.5 114.7 46.2a3.2 3.2 0 01-.1 6.3z" fill="#B31B1F"/><path d="M713 734.2h-.6c-1.7-.4-2.8-2.1-2.4-3.9.1-.6 14-62 27-106a3.2 3.2 0 116.1 1.8c-13 43.9-26.8 105-27 105.6a3.2 3.2 0 01-3 2.5zM437 601h-.5c-1.7-.3-3-2-2.6-3.7.3-2.2 8.1-54 19-78.3 10.4-23.5 15.8-47.4 15.8-47.7a3.2 3.2 0 116.2 1.4 289 289 0 01-16.3 49c-10.4 23.4-18.4 76-18.5 76.6a3.2 3.2 0 01-3.1 2.7zM388.5 420c-8.5 0-18-.5-28.4-1.9a3.2 3.2 0 01.8-6.3c31.8 4 54.4.3 66-2.2-5.7-1.9-13.9-3.7-22-3.2-18.2.8-45-15.5-46-16.2a3.2 3.2 0 113.3-5.4c.2.2 26.2 16 42.4 15.2 15.5-.8 33.8 6.1 35.4 9 .6 1.1.6 2.5-.1 3.5-.6.9-2 1.5-3 1.4-.6 0-2 .4-3.5.7a183 183 0 01-44.9 5.4zM466.7 351.6c-1.2 0-2.3-.7-2.9-1.8 0-.2-8-16.3-21.5-22.7-15.4-7.3-32.7-32.6-33.5-33.6a3.2 3.2 0 015.3-3.6c.2.2 17.1 25 31 31.4a60.2 60.2 0 0124.5 25.7 3.2 3.2 0 01-2.9 4.6z" fill="#B31B1F"/><path d="M614.5 536.5h-.4c-.8-.2-1.4-1-1.2-2 .1-.3 7.7-33.5 10-50.3 3.4-26.3-8.4-35.4-8.5-35.5a1.6 1.6 0 011.9-2.6c.5.4 13.4 10.2 9.7 38.5-2.3 17-9.9 50.3-10 50.7-.1.7-.8 1.2-1.5 1.2zM520.7 488.7l-3.2-.4 3.8-32c1.3-10.7 4.3-18 4.4-18.3a1.6 1.6 0 013 1.3s-3 7.2-4.3 17.3l-3.7 32z" fill="#08824F"/><path d="M611 841.4c-18.1 0-28.1-.6-42-1.4-17.7-1.1-42-2.6-98.9-3.4a3.2 3.2 0 11.1-6.4c57 .9 81.4 2.3 99.3 3.4 13.7.8 23.5 1.4 41.5 1.4 22.5 0 42.7-2.4 62.2-4.8 17-2.1 33.2-4 50.6-4.5 37-.8 64.6 0 64.8 0 1.8 0 3.2 1.6 3.1 3.3 0 1.8-1.5 3-3.2 3-.3 0-27.8-.7-64.6 0-17 .5-33 2.4-50 4.5-19.7 2.4-40 4.9-62.9 4.9z" fill="#B31B1F"/><path d="M755.1 799c-1.5 0-3.1-.8-4.5-2.9-4.3-6.5-5.6-7-14-5.7-7.4 1.2-10.4-4.2-12.4-7.7-.6-1.2-1.2-2.3-1.8-2.7-1.5-1.2-5.1.2-6.7 1l-1.5-2.7c.7-.4 6.7-3.6 10.2-.8 1 .8 1.8 2.1 2.6 3.7 2 3.4 3.9 6.8 9.2 6 9.5-1.4 12-.4 17 7.2 1.4 2 2.5 1.7 6-.3 2.7-1.6 6.8-4 9.8.2l-2.6 1.9c-1.1-1.6-2.2-1.4-5.5.6-1.6 1-3.7 2.1-5.8 2.1z" fill="#fff"/><path d="M718.1 649s-76-27.4-109-13.3c-33 14-60 50.2-55 52.6 5 2.4 32-18.4 32-18.4s-27.6 27.7-22.5 30.5c5.1 2.8 31.6-12 31.6-12s-18.5 19.7-10.5 21.2c7.9 1.5 25-14.8 42.6-15.4 17.8-.6 40.2 13.4 62.3 17.4 22.2 4 28.5-62.5 28.5-62.5z" fill="#FFCEB0"/><path d="M832.8 634.8h-.6c-.2 0-22.6-4.3-49.3-9.7a3.2 3.2 0 011.2-6.3c26.7 5.5 49 9.7 49.3 9.7a3.2 3.2 0 01-.6 6.3z" fill="#B31B1F"/><path fill-rule="evenodd" clip-rule="evenodd" d="M620.4 134.8c-.8 0-1.7 0-2.7.3-2.4.4-4 1.6-4.9 3.6-4.1 9 4.6 30.3 10.9 42.9 3.8-14 8.4-37.4 1.9-44.7a6.5 6.5 0 00-5.2-2.1zm3.4 57.2h.3a2.9 2.9 0 002 .1c4.3-1.5 41.7-15.6 46.4-31.7a12 12 0 00-2.3-11.1c-4.4-5.7-9.2-6.4-12.5-6-9.2 1.2-18.2 13.1-24.9 24.4 2.4-12.8 3.3-27.7-2.9-34.6-2.1-2.5-6.2-5.1-13.3-3.7a12 12 0 00-9 6.9c-6.3 13.6 8.2 42.9 13 52-6 1.1-12.2 1.4-18 1a67.5 67.5 0 01-30.4-9l-2.4 3.6a71.8 71.8 0 0032.5 9.8c6.9.4 14.2 0 21.5-1.7zm35.5-43h-.8c-9.8 1.3-21.5 22-27.8 35.1 13-5.4 33.5-15.9 36.3-25.3.6-2.2.2-4-1.3-6-2-2.6-4.1-3.8-6.4-3.8z" fill="#FFD310"/><path d="M197.3 243.8h113.2a24 24 0 0118.7 9l33.3 41.2a24 24 0 0019.4 9l213-6.4" stroke="#FFB2B1" stroke-width="5" stroke-linejoin="round"/><path d="M209.4 244.3a9.1 9.1 0 11-18.3 0 9.1 9.1 0 0118.3 0z" fill="#FF383D"/><path d="M11 244.4a70.6 70.6 0 11141.3 0 70.6 70.6 0 01-141.3 0z" fill="#FFE1E2"/><path d="M81.3 156.5a88.3 88.3 0 110 176.6v43.6" stroke="#FFD6D7" stroke-width="2.4" stroke-miterlimit="10"/><path d="M74 379a7.3 7.3 0 1114.6 0 7.3 7.3 0 01-14.5 0z" fill="#F2AEB0"/><path d="M53.2 242.2v3.8h5.4v2.2h-5.4v5.8h-2.6v-14.1h9v2.3h-6.4zm11.2 0v3.6h5.8v2.2h-5.8v3.6h6.4v2.4h-9v-14.1h9v2.3h-6.4zM75 240l2 5.2a141.7 141.7 0 012 5.8 181.8 181.8 0 002-5.8l2.1-5.2H86L80.5 254h-2.7l-5.5-14.1H75zm15.2 2.3v3.6h5.8v2.2h-5.8v3.6h6.5v2.4h-9v-14.1h9v2.3h-6.5zm9.2-2.3h5.6c1.7 0 3 .4 4 1.1.8.8 1.2 1.9 1.2 3.3 0 1-.2 1.8-.6 2.5-.5.7-1.1 1.2-2 1.5l2.7 5.7h-2.8l-2.4-5.3H102v5.3h-2.6v-14.1zm5.6 6.6c.8 0 1.5-.2 1.9-.6.4-.4.6-1 .6-1.6a2 2 0 00-.6-1.5c-.4-.4-1-.6-1.9-.6h-3v4.3h3z" fill="#FF383D"/><path d="M650.8 358h168.8a24 24 0 0121.1 12.6l31.2 57.8a24 24 0 0021.2 12.6h82.7" stroke="#FFB2B1" stroke-width="5" stroke-linejoin="round"/><path d="M980 440.9a9.1 9.1 0 11-18.3 0 9.1 9.1 0 0118.2 0z" fill="#FF383D"/><path opacity=".1" d="M1005.7 459.4a70.6 70.6 0 11141.3 0 70.6 70.6 0 01-141.3 0z" fill="#FF383D"/><path d="M1042.7 439.9h5.6c1.7 0 3 .4 4 1.1a4 4 0 011.3 3.3c0 1-.3 1.8-.7 2.5-.5.7-1.1 1.2-2 1.5l2.8 5.7h-3l-2.3-5.3h-3.1v5.3h-2.6v-14.1zm5.6 6.6c.9 0 1.5-.2 2-.6.4-.4.6-1 .6-1.6a2 2 0 00-.7-1.5c-.4-.4-1-.6-1.9-.6h-3v4.3h3zm7.6-6.6h2.6v9c0 1 .3 1.8 1 2.3.5.5 1.3.7 2.3.7 1 0 1.8-.2 2.4-.8.6-.5.9-1.3.9-2.3V440h2.6v9c0 1.2-.3 2.2-.8 3-.5.8-1.2 1.4-2 1.8-1 .4-2 .6-3.1.6-1.2 0-2.2-.2-3-.6-1-.4-1.6-1-2.1-1.8-.5-.9-.8-1.8-.8-3v-9zm26.3 0V454h-2.4l-6.5-9.7v9.7h-2.6v-14.1h2.4l6.5 9.7v-9.7h2.6zm14.6 0V454h-2.4l-6.5-9.7v9.7h-2.6v-14.1h2.5l6.5 9.7v-9.7h2.5zm4.8 0l1.7 2.9 1 2 .6 1 .6-1 1.2-2 1.6-2.9h2.9l-5 8.5v5.6h-2.6v-5.6l-5-8.5h3zm-39.8 29V483h-2.5l-6.5-9.7v9.7h-2.5v-14.1h2.4l6.5 9.7v-9.7h2.5zm17.2 7c0 1.5-.3 2.7-1 3.8-.6 1.2-1.5 2-2.6 2.7-1.2.6-2.4.9-3.9.9-1.4 0-2.6-.3-3.8-1-1-.6-2-1.4-2.6-2.5-.6-1.2-1-2.4-1-3.8 0-1.5.4-2.7 1-3.8.6-1.2 1.5-2 2.6-2.6 1.2-.7 2.5-1 3.9-1s2.7.3 3.8 1c1.1.6 2 1.4 2.6 2.5.7 1.2 1 2.4 1 3.8zm-2.7 0c0-1-.2-1.8-.6-2.5-.4-.8-1-1.3-1.7-1.8-.7-.4-1.5-.6-2.4-.6-1 0-1.8.2-2.5.6-.7.5-1.3 1-1.7 1.8-.4.7-.6 1.6-.6 2.6s.2 1.8.6 2.5a4.5 4.5 0 004.2 2.4c.9 0 1.7-.2 2.4-.6.7-.5 1.3-1 1.7-1.8.4-.7.6-1.6.6-2.6zm4.5-3a4.1 4.1 0 012.4-3.8c.8-.3 1.7-.5 2.7-.5 1 0 1.8.2 2.6.5.8.4 1.4.9 1.8 1.5.4.6.7 1.4.7 2.2h-2.7c0-.6-.3-1-.7-1.5-.5-.3-1-.5-1.8-.5-.7 0-1.3.2-1.7.5-.4.3-.6.8-.6 1.3s.2 1 .5 1.2l1.5.6 2.3.5c1 .3 1.9.8 2.5 1.4.7.7 1 1.6 1 2.6a4 4 0 01-.6 2.3c-.5.7-1.1 1.2-2 1.6-.7.3-1.6.5-2.7.5-1.6 0-2.9-.4-3.9-1.2-1-.7-1.5-1.8-1.6-3.1h2.7c0 .7.3 1.2.8 1.6.5.3 1.2.5 2 .5a3 3 0 002-.5c.4-.4.6-.8.6-1.4 0-.5-.1-1-.5-1.2-.3-.3-.7-.5-1.2-.6l-2.4-.6c-1.2-.2-2-.7-2.7-1.4-.6-.6-1-1.5-1-2.5zm15.5-1.7v3.6h5.7v2.2h-5.8v3.6h6.5v2.4h-9v-14.1h9v2.3h-6.5z" fill="#FF383D"/><path d="M1081 371.3a88.3 88.3 0 010 176.6v43.6" stroke="#FFD6D7" stroke-width="2.4" stroke-miterlimit="10"/><path d="M1073.8 593.7a7.3 7.3 0 1114.5 0 7.3 7.3 0 01-14.5 0z" fill="#F2AEB0"/><path opacity=".1" d="M11 730.4a70.6 70.6 0 11141.3 0 70.6 70.6 0 01-141.3 0z" fill="#FF383D"/><g filter="url(#filter0_d)"><path d="M31.8 726.9c1.4 0 2.6.3 3.7.9 1 .6 2 1.4 2.5 2.5.6 1.1 1 2.3 1 3.7 0 1.3-.4 2.6-1 3.6s-1.4 2-2.5 2.5c-1 .6-2.3.9-3.7.9h-5.2v-14.1h5.2zm-.2 11.7a5 5 0 002.4-.5 4 4 0 001.6-1.7 5 5 0 00.6-2.4c0-1-.2-1.8-.6-2.5A4 4 0 0034 730c-.7-.5-1.5-.7-2.4-.7h-2.4v9.4h2.4zM41.9 727l1.7 2.9a57 57 0 011.7 3 81.6 81.6 0 011.7-3l1.7-2.9h2.9l-5 8.5v5.6H44v-5.6l-5-8.5h3zm17.2 0c1.5 0 2.7.4 3.5 1.3.9.8 1.3 2 1.3 3.3a5 5 0 01-.6 2.4c-.4.7-1 1.3-1.6 1.7-.8.4-1.6.6-2.6.6h-3.2v4.8h-2.6v-14.1h5.8zm-.5 7c.9 0 1.5-.2 2-.7.4-.4.6-1 .6-1.7s-.2-1.2-.6-1.7c-.5-.4-1.1-.6-2-.6H56v4.7h2.7zm7-3c0-.9.2-1.6.7-2.3.4-.6 1-1.1 1.7-1.5.8-.3 1.7-.5 2.7-.5 1 0 1.8.2 2.6.5.8.4 1.4.9 1.8 1.5.4.6.6 1.4.6 2.2h-2.6c0-.6-.3-1-.7-1.5-.5-.3-1.1-.5-1.9-.5-.7 0-1.2.2-1.6.5-.4.3-.6.8-.6 1.3s.1 1 .5 1.2l1.5.6 2.3.5c1 .3 1.9.8 2.5 1.4.7.7 1 1.6 1 2.6a4 4 0 01-2.5 3.9c-.8.3-1.8.5-2.8.5-1.6 0-3-.4-3.9-1.2-1-.7-1.5-1.8-1.6-3.1h2.6c0 .7.3 1.2.9 1.6.5.3 1.2.5 2 .5s1.4-.2 2-.5c.4-.4.6-.8.6-1.4 0-.5-.2-1-.5-1.2-.3-.3-.7-.5-1.3-.6l-2.3-.6c-1.2-.2-2-.7-2.7-1.4-.7-.6-1-1.5-1-2.5zm24.3-4V741h-2.4l-6.5-9.7v9.7h-2.6v-14.1H81l6.5 9.7v-9.7h2.5zm17.3 7c0 1.5-.4 2.7-1 3.8-.7 1.2-1.5 2-2.7 2.7-1.1.6-2.4.9-3.8.9s-2.7-.3-3.8-1c-1.1-.5-2-1.4-2.7-2.5-.6-1.2-1-2.4-1-3.8 0-1.5.4-2.7 1-3.8.7-1.2 1.6-2 2.7-2.6 1.1-.7 2.4-1 3.8-1s2.7.3 3.8 1c1.2.6 2 1.4 2.7 2.5.6 1.2 1 2.4 1 3.8zm-2.8 0c0-1-.2-1.8-.6-2.5-.4-.8-1-1.3-1.7-1.8-.7-.4-1.5-.6-2.4-.6a4.4 4.4 0 00-4.1 2.4c-.4.7-.6 1.6-.6 2.6s.2 1.8.6 2.5c.4.8 1 1.3 1.7 1.8.7.4 1.5.6 2.4.6 1 0 1.7-.2 2.4-.6.8-.5 1.3-1 1.7-1.8.4-.7.6-1.6.6-2.6zm7.7-4.7v3.6h5.8v2.2h-5.8v3.6h6.5v2.4h-9v-14.1h9v2.3H112zm13-2.3h2.7L133 741h-2.7l-1.2-3.2h-5.3l-1.2 3.2h-2.7l5.3-14.1zm3.3 8.8l-1-2.5-.6-2.1-.3-1a33.2 33.2 0 01-1 3l-1 2.5h3.9z" fill="#FF383D"/></g><path d="M81.3 642.6a88.3 88.3 0 110 176.7v43.6" stroke="#FFD6D7" stroke-width="2.4" stroke-miterlimit="10"/><path d="M74 865a7.3 7.3 0 1114.6 0 7.3 7.3 0 01-14.5 0z" fill="#F2AEB0"/><path d="M186.7 742.8H365a24 24 0 0022.1-14.6l56.4-133a24 24 0 0122.1-14.6h207.2" stroke="#FFB2B1" stroke-width="5" stroke-linejoin="round"/><path d="M202 743.2a9.1 9.1 0 11-18.3 0 9.1 9.1 0 0118.3 0z" fill="#FF383D"/><path opacity=".1" d="M159.3 488.4a70.6 70.6 0 10-141.3 0 70.6 70.6 0 00141.3 0z" fill="#FF383D"/><path d="M58.2 474.2h-4.3V486h-2.5v-11.8H47V472h11.1v2.3zm2-2.3h2.5v5.9h6.2v-5.9h2.6V486H69v-6h-6.2v6H60v-14.1zm14.4 0h5.6c1.7 0 3 .4 3.9 1.1a4 4 0 011.3 3.3c0 1-.2 1.8-.7 2.5-.4.7-1 1.2-1.9 1.5l2.7 5.7h-2.9l-2.3-5.3h-3.1v5.3h-2.6v-14.1zm5.6 6.6c.8 0 1.4-.2 1.9-.6.4-.4.6-1 .6-1.6a2 2 0 00-.6-1.5c-.5-.4-1.1-.6-2-.6h-3v4.3h3zm21.7.4c0 1.5-.4 2.7-1 3.8-.6 1.2-1.5 2-2.7 2.7-1.1.6-2.4.9-3.8.9s-2.7-.3-3.8-1c-1.1-.6-2-1.4-2.6-2.5-.7-1.2-1-2.4-1-3.8 0-1.5.3-2.7 1-3.8.6-1.2 1.5-2 2.6-2.6 1.1-.7 2.4-1 3.8-1s2.7.3 3.8 1c1.2.6 2 1.4 2.7 2.5.6 1.2 1 2.4 1 3.8zm-2.8 0c0-1-.2-1.8-.6-2.5-.4-.8-1-1.3-1.6-1.8-.8-.4-1.6-.6-2.5-.6a4.4 4.4 0 00-4.1 2.4c-.4.7-.6 1.6-.6 2.6s.2 1.8.6 2.5c.4.8 1 1.3 1.7 1.8.7.4 1.5.6 2.4.6 1 0 1.7-.2 2.5-.6.7-.5 1.2-1 1.6-1.8.4-.7.6-1.6.6-2.6zm8.4-7h2.6l5.2 14.1h-2.7l-1.2-3.2H106L105 486h-2.7l5.3-14.1zm3.2 8.8l-1-2.5-.6-2.1-.3-1a35.4 35.4 0 01-1 3l-1 2.5h3.9zm15-6.5h-4.3V486H119v-11.8h-4.3V472h11.1v2.3zm-52 26.7c1.5 0 2.6.4 3.5 1.3.8.8 1.3 2 1.3 3.3a5 5 0 01-.6 2.4 4 4 0 01-1.7 1.7c-.7.4-1.6.6-2.6.6h-3.1v4.8h-2.6v-14.1h5.8zm-.5 7c.8 0 1.5-.2 1.9-.7.4-.4.7-1 .7-1.7s-.3-1.2-.7-1.7c-.4-.4-1-.6-1.9-.6h-2.7v4.7h2.7zm10.2-7H86l5.2 14.1h-2.7l-1.1-3.2H82l-1.2 3.2H78l5.3-14.1zm3.2 8.8l-.9-2.5-.7-2.1-.3-1a34.4 34.4 0 01-1 3l-1 2.5h4zM93 515v-14.1h2.6V515H93zm17.1-14.1V515h-2.4l-6.5-9.7v9.7h-2.6v-14.1h2.5l6.5 9.7v-9.7h2.5z" fill="#FF383D"/><path d="M90 400a88.3 88.3 0 100 176.6v43.7" stroke="#FFD6D7" stroke-width="2.4" stroke-miterlimit="10"/><path d="M97.4 622.5a7.3 7.3 0 10-14.5 0 7.3 7.3 0 0014.5 0z" fill="#F2AEB0"/><path d="M190.5 503h203.3a24 24 0 0019-9.2l42.7-55.2a24 24 0 0119-9.3h157.2" stroke="#FFB2B1" stroke-width="5" stroke-linejoin="round"/><path d="M200.8 503.6a9.1 9.1 0 11-18.3 0 9.1 9.1 0 0118.3 0z" fill="#FF383D"/><path opacity=".1" d="M1160 700.4a70.6 70.6 0 10-141.3 0 70.6 70.6 0 00141.3 0z" fill="#FF383D"/><path d="M1045.7 683.9c0-.9.2-1.6.6-2.3.5-.6 1-1.1 1.8-1.5.8-.3 1.7-.5 2.7-.5 1 0 1.8.2 2.6.5.7.4 1.3.9 1.8 1.5.4.6.6 1.4.6 2.2h-2.6c0-.6-.3-1-.8-1.5-.4-.3-1-.5-1.8-.5-.7 0-1.2.2-1.6.5-.4.3-.6.8-.6 1.3s.1 1 .5 1.2l1.4.6 2.4.5c1 .3 1.9.8 2.5 1.4.7.7 1 1.6 1 2.6a4 4 0 01-.7 2.3c-.4.7-1 1.2-1.8 1.6-.9.3-1.8.5-2.9.5-1.5 0-2.8-.4-3.8-1.2-1-.7-1.5-1.8-1.6-3.1h2.6c0 .7.3 1.2.8 1.6.6.3 1.3.5 2 .5.9 0 1.5-.2 2-.5.5-.4.7-.8.7-1.4 0-.5-.2-1-.5-1.2-.3-.3-.8-.5-1.3-.6l-2.3-.6c-1.2-.2-2-.7-2.7-1.4-.7-.6-1-1.5-1-2.5zm12.8-4h2.6v5.9h6.3v-5.9h2.5V694h-2.5v-6h-6.3v6h-2.6v-14.1zm18.4 0h2.6l5.2 14.1h-2.7l-1.2-3.2h-5.3l-1.2 3.2h-2.7l5.3-14.1zm3.2 8.8l-.9-2.5-.7-2.1-.3-1a30.7 30.7 0 01-1 3l-1 2.5h3.9zm13.1-2.7l4.9 8h-3.1l-3.5-5.9-2.4 3v3h-2.6v-14.2h2.6v7.2l5.8-7.2h3.2l-4.9 6zm6.8 8v-14.1h2.5V694h-2.5zm17-14.1V694h-2.4l-6.5-9.7v9.7h-2.5v-14.1h2.4l6.5 9.7v-9.7h2.5zm16.6 6.4v1.4a6.1 6.1 0 01-3.4 5.8c-1 .5-2.3.8-3.7.8-1.4 0-2.6-.3-3.7-1-1-.5-2-1.4-2.5-2.4a7.8 7.8 0 01-.9-3.9 8 8 0 011-3.8c.5-1.2 1.4-2 2.5-2.6 1-.7 2.3-1 3.8-1 1.1 0 2.1.2 3 .6 1 .4 1.8 1 2.4 1.7.6.7 1 1.6 1.2 2.5h-2.7c-.3-.8-.8-1.3-1.5-1.8-.7-.4-1.5-.6-2.5-.6-1.4 0-2.5.4-3.3 1.4-.8.9-1.2 2.1-1.2 3.6a5 5 0 001.2 3.6c.8.9 2 1.3 3.3 1.3 1.2 0 2.1-.3 2.9-.9.8-.6 1.2-1.4 1.4-2.5h-4.5v-2.2h7.2zm-70.6 37c-1.4 0-2.7-.3-3.8-1-1.1-.5-2-1.4-2.6-2.5-.6-1.1-.9-2.4-.9-3.9 0-1.4.3-2.7 1-3.8.5-1.1 1.4-2 2.5-2.6 1-.6 2.3-.9 3.8-.9 1.1 0 2.2.2 3.2.6 1 .4 1.8 1 2.4 1.8.7.7 1 1.6 1.2 2.6h-2.8c-.3-.8-.7-1.4-1.5-1.9-.7-.5-1.5-.7-2.5-.7s-1.8.2-2.5.6a4 4 0 00-1.5 1.8c-.4.7-.6 1.6-.6 2.6s.2 1.8.6 2.6a4 4 0 001.6 1.7c.7.4 1.5.6 2.4.6 1 0 1.8-.3 2.5-.7.8-.5 1.2-1.1 1.5-2h2.8c-.1 1-.5 2-1.2 2.7-.6.8-1.4 1.3-2.4 1.8-1 .4-2 .6-3.2.6zm9.2-14.4h2.5v5.9h6.3v-5.9h2.6V723h-2.6v-6h-6.3v6h-2.5v-14.1zm14.4 14.1v-14.1h2.6V723h-2.6zm14-2.3v2.3h-8.4v-14.1h2.6v11.8h5.9zm10.6 0v2.3h-8.5v-14.1h2.6v11.8h5.9zm1.6-7.8c0-.9.3-1.6.7-2.3.4-.6 1-1.1 1.8-1.5.7-.3 1.6-.5 2.6-.5s1.8.2 2.6.5c.8.4 1.4.9 1.8 1.5.4.6.7 1.4.7 2.2h-2.7c0-.6-.3-1-.7-1.5-.5-.3-1-.5-1.8-.5-.7 0-1.3.2-1.7.5-.4.3-.6.8-.6 1.3s.2 1 .5 1.2l1.5.6 2.3.5c1 .3 1.9.8 2.5 1.4.7.7 1 1.6 1 2.6a4 4 0 01-.6 2.3c-.5.7-1.1 1.2-2 1.6-.7.3-1.6.5-2.7.5-1.6 0-2.9-.4-3.9-1.2-1-.7-1.5-1.8-1.6-3.1h2.7c0 .7.3 1.2.8 1.6.5.3 1.2.5 2 .5a3 3 0 002-.5c.4-.4.6-.8.6-1.4 0-.5-.1-1-.5-1.2-.3-.3-.7-.5-1.2-.6l-2.4-.6c-1.2-.2-2-.7-2.7-1.4-.6-.6-1-1.5-1-2.5z" fill="#FA5652"/><path d="M1089.9 613.8a88.3 88.3 0 000 176.6V834" stroke="#FFD6D7" stroke-width="2.4" stroke-miterlimit="10"/><path d="M1097.1 836.2a7.3 7.3 0 10-14.5 0 7.3 7.3 0 0014.5 0z" fill="#F2AEB0"/><path d="M725.7 754.4h91.1a24 24 0 0018.8-9l25.5-31.8a24 24 0 0118.7-9H974" stroke="#FFA6A6" stroke-width="5" stroke-linejoin="round"/><path d="M980 704a9.1 9.1 0 11-18.3 0 9.1 9.1 0 0118.2 0z" fill="#FF383D"/><path opacity=".1" d="M1160 214.4a70.6 70.6 0 10-141.3 0 70.6 70.6 0 00141.3 0z" fill="#FF383D"/><path d="M1036.6 210.9h2.6v5.8h6.2V211h2.6V225h-2.6v-6h-6.2v6h-2.6v-14.1zm17 2.3v3.6h5.8v2.2h-5.8v3.6h6.5v2.4h-9v-14.1h9v2.3h-6.5zm13-2.3h2.7l5.2 14.1h-2.7l-1.1-3.2h-5.4l-1.2 3.2h-2.7l5.3-14.1zm3.3 8.8l-.9-2.5-.7-2.1-.3-1a30.7 30.7 0 01-1 3l-1 2.6h3.9zm11.7-8.8c1.3 0 2.6.3 3.6.9 1.1.6 2 1.4 2.6 2.5.6 1.1.9 2.3.9 3.7 0 1.3-.3 2.6-1 3.6-.5 1-1.4 2-2.4 2.5-1.1.6-2.3.9-3.7.9h-5.3v-14.1h5.3zm-.3 11.7c1 0 1.8-.1 2.5-.5a4 4 0 001.6-1.7 5 5 0 00.6-2.4c0-1-.2-1.8-.6-2.5a4 4 0 00-1.6-1.7c-.7-.4-1.5-.6-2.5-.6h-2.4v9.4h2.4zm13-11.7h2.6l5.2 14.1h-2.7l-1.2-3.2h-5.4l-1.1 3.2h-2.7l5.3-14.1zm3.2 8.8l-1-2.5-.6-2.1-.3-1-.4 1.3a59 59 0 01-.7 1.8l-1 2.5h4zm12.2 5.6c-1.4 0-2.6-.3-3.8-1-1-.5-1.9-1.4-2.5-2.5-.6-1.1-1-2.4-1-3.9 0-1.4.4-2.7 1-3.8.6-1.1 1.4-2 2.5-2.6 1.1-.6 2.4-.9 3.8-.9 1.2 0 2.3.2 3.3.6 1 .4 1.7 1 2.4 1.8.6.7 1 1.6 1.2 2.6h-2.9c-.2-.8-.7-1.4-1.4-1.9s-1.6-.7-2.6-.7-1.7.2-2.4.6a4 4 0 00-1.6 1.8c-.4.7-.5 1.6-.5 2.6s.1 1.8.5 2.6a4 4 0 001.6 1.7c.7.4 1.5.6 2.4.6 1 0 1.8-.3 2.6-.7.7-.5 1.2-1.1 1.4-2h2.9c-.2 1-.6 2-1.2 2.7-.6.8-1.4 1.3-2.4 1.8-1 .4-2 .6-3.3.6zm9.2-14.4h2.6v5.8h6.3V211h2.5V225h-2.5v-6h-6.3v6h-2.6v-14.1zm17 2.3v3.6h5.9v2.2h-5.8v3.6h6.4v2.4h-9v-14.1h9v2.3h-6.4z" fill="#FF383D"/><path d="M1089.9 127.7a88.3 88.3 0 000 176.6v43.6" stroke="#FFD6D7" stroke-width="2.4" stroke-miterlimit="10"/><path d="M1097.1 350a7.3 7.3 0 10-14.5 0 7.3 7.3 0 0014.5 0z" fill="#F2AEB0"/><path d="M975.8 222.9H849.6a24 24 0 00-16.5 6.5l-28.5 26.9a24 24 0 01-16.5 6.5h-114" stroke="#FFB2B1" stroke-width="5" stroke-linejoin="round"/><path d="M980 222.1a9.1 9.1 0 11-18.3 0 9.1 9.1 0 0118.2 0z" fill="#FF383D"/><defs><linearGradient id="paint0_linear" x1="279.6" y1="651.8" x2="343.9" y2="780.2" gradientUnits="userSpaceOnUse"><stop stop-color="#FFC8C8"/><stop offset="1" stop-color="#FFF2F5"/></linearGradient><linearGradient id="paint1_linear" x1="911.2" y1="248.5" x2="389.5" y2="38.2" gradientUnits="userSpaceOnUse"><stop stop-color="#fff"/><stop offset="1" stop-color="#FFD5D5"/></linearGradient><linearGradient id="paint2_linear" x1="843.9" y1="153.5" x2="682.9" y2="127" gradientUnits="userSpaceOnUse"><stop stop-color="#FFD3D3"/><stop offset="1" stop-color="#FFF6F6"/></linearGradient><linearGradient id="paint3_linear" x1="205.4" y1="428" x2="962.8" y2="428" gradientUnits="userSpaceOnUse"><stop stop-color="#FFF8F5"/><stop offset="1" stop-color="#FFDEDE"/></linearGradient><linearGradient id="paint4_linear" x1="893" y1="609.5" x2="694.6" y2="627.8" gradientUnits="userSpaceOnUse"><stop stop-color="#FFC2C2"/><stop offset="1" stop-color="#fff"/></linearGradient><filter id="filter0_d" x="26.6" y="726.6" width="106.4" height="14.7" filterUnits="userSpaceOnUse" color-interpolation-filters="sRGB"><feFlood flood-opacity="0" result="BackgroundImageFix"/><feColorMatrix in="SourceAlpha" values="0 0 0 0 0 0 0 0 0 0 0 0 0 0 0 0 0 0 127 0"/><feOffset/><feColorMatrix values="0 0 0 0 0 0 0 0 0 0 0 0 0 0 0 0 0 0 0.1 0"/><feBlend in2="BackgroundImageFix" result="effect1_dropShadow"/><feBlend in="SourceGraphic" in2="effect1_dropShadow" result="shape"/></filter></defs></svg>