<svg width="718" height="772" viewBox="0 0 718 772" fill="none" xmlns="http://www.w3.org/2000/svg">
<path d="M314.1 643.8C278.9 664.2 242.1 677.4 200.1 677.2C153.3 677 106.9 645.6 77.6 611.2C66.7 598.4 57.2 583.6 55 566.9C49.9 528.4 85.1 517.5 116.8 517.9C134.7 518.3 152 523.2 169.1 528.1C197.4 536.3 229.1 537 255.7 550.7C264.7 555.3 271.8 561.5 281.7 564.2C297.1 568.4 313.8 568.7 329.5 572.2C342.9 575.2 358.4 581.5 360.9 595C363.4 608.8 350.7 620.3 339 628.2C330.893 633.701 322.587 638.905 314.1 643.8V643.8Z" fill="url(#paint0_linear)"/>
<path d="M65.8 188.7C106.8 78.4 230.2 8 346.4 17.2C402.4 21.6 454.6 46.7 503.8 74C547.1 98 590 124.8 624.4 161C648.039 186.948 668.207 215.857 684.4 247C708.5 292 712.4 356.7 649.2 367.4C634.4 369.9 620.5 367.8 605.7 366.5C593.7 365.5 583.5 370.4 571.7 371.4C541.7 373.9 511.4 370 482.1 364.1C422.4 351.8 365.1 329.4 304.7 320.6C255.2 313.5 204.7 315.9 156.1 327.7C135.6 332.7 114.4 339.4 93.8 334.7C43.1 323.2 48.5 257.2 56.9 218.7C59.2 208.6 62.1 198.5 65.8 188.7V188.7Z" fill="url(#paint1_linear)"/>
<path d="M565.5 82.7C577.5 89.2 622.3 104.1 616.1 75.3C614.272 68.1883 609.941 61.9746 603.9 57.8C597.4 53.1 590.9 51.3 585.2 45.3C578.418 38.105 571.024 31.5135 563.1 25.6C546.9 13.4 529 3.00001 509.8 1.00001C496.4 -0.29999 475.8 5.90001 473.8 23.1C470.9 48.3 508.5 43.5 521.6 49.1C534.2 54.5 543.5 66.7 554.6 75.5C558 78.3 561.6 80.7 565.6 82.8L565.5 82.7Z" fill="url(#paint2_linear)"/>
<path d="M361.7 95.8C387.3 103.5 408.9 119.1 433.2 130C473.6 148.1 521.5 142.1 564.9 151C609.2 160 646.3 181.8 670.2 220.5C701 270.5 718.4 334.5 717.2 393.9C715.9 459.2 687.4 509.4 637.8 550.4C588.2 591.4 529 619.3 467.5 637.1C461.5 638.8 455.6 640.4 449.6 641.9C314.8 675.8 123.6 672.3 42.1 538.5C32.3466 522.454 24.7162 505.21 19.4 487.2C1.77439 426.123 -3.66219 362.176 3.39999 299C8.39999 258 33.4 225.9 59.7 195.4C96.7 152.6 146.9 123.9 200.3 106.7C240 94 285 82 327 88C338.8 89.7 350.4 92.3 361.8 95.8H361.7Z" fill="url(#paint3_linear)"/>
<path d="M675.3 512.9C651.6 545.9 623.5 573.1 585.2 590.3C542.4 609.3 487.2 599.9 446.3 580.6C431.1 573.4 416.3 563.9 407.5 549.6C387 516.6 414.5 492.2 443.6 479.6C460 472.4 477.8 469.8 495.4 467.2C524.6 463 553.7 450.6 583.6 452.1C593.6 452.6 602.8 455.2 612.9 453.6C628.7 451.2 644 444.5 659.8 441.3C673.2 438.5 689.8 437.8 697.8 449.1C705.8 460.6 698.8 476.4 691.5 488.3C686.402 496.695 680.999 504.901 675.3 512.9Z" fill="url(#paint4_linear)"/>
<path d="M279.4 333.3C279.1 333.3 278.7 333.2 278.4 333C278.2 332.8 271.9 327.8 267 317.6C260.469 302.842 259.755 286.162 265 270.9C269.4 256.3 273.8 245.9 277.6 236.6C284.6 219.9 289.6 207.9 290 182.3C290 181.4 290.7 180.7 291.6 180.7C292.6 180.7 293.2 181.5 293.2 182.4C292.8 208.5 287.4 221.4 280.5 237.9C276.7 246.9 272.5 257.3 268.1 271.9C256.4 311.2 280.1 330.3 280.4 330.5C280.64 330.712 280.812 330.99 280.892 331.301C280.972 331.611 280.957 331.938 280.85 332.239C280.742 332.541 280.546 332.803 280.288 332.992C280.029 333.181 279.72 333.289 279.4 333.3V333.3ZM409.8 82C409.694 90.3278 406.284 98.2724 400.32 104.086C394.357 109.9 386.328 113.106 378 113C369.672 112.894 361.728 109.484 355.914 103.52C350.1 97.5567 346.894 89.5278 347 81.2C347.106 72.8722 350.516 64.9276 356.48 59.114C359.433 56.2354 362.924 53.9666 366.753 52.4371C370.583 50.9076 374.676 50.1475 378.8 50.2C382.923 50.2525 386.996 51.1167 390.786 52.7433C394.575 54.3698 398.007 56.7268 400.886 59.6797C403.765 62.6326 406.033 66.1236 407.563 69.9533C409.092 73.783 409.853 77.8765 409.8 82V82Z" fill="#000C3E"/>
<path d="M276.4 322C276.4 322 286.1 340.9 323.8 346.6C361.6 352.4 390.8 338.1 420 348C449.3 357.8 491 343 499 330.7C507 318.3 502 183.3 478.6 161.2C455.2 139.1 334.8 123 309.4 150.2C284.1 177.2 259.6 307.2 276.4 322.1V322Z" fill="#000C3E"/>
<path d="M491 210.4C490.615 237.85 479.342 264.023 459.66 283.161C439.978 302.299 413.5 312.835 386.05 312.45C358.6 312.065 332.427 300.792 313.289 281.11C294.151 261.428 283.615 234.95 284 207.5C284.385 180.05 295.658 153.877 315.34 134.739C325.085 125.263 336.602 117.799 349.232 112.774C361.862 107.748 375.358 105.26 388.95 105.45C402.542 105.64 415.963 108.506 428.447 113.883C440.932 119.261 452.235 127.044 461.711 136.79C471.187 146.535 478.651 158.052 483.676 170.682C488.702 183.312 491.19 196.808 491 210.4Z" fill="#000C3E"/>
<path d="M303 207C303 207 310.2 332.5 395.2 336C480.2 339.3 475.9 162.5 444.8 146.4C413.7 130.3 285.6 136.4 303 207.1V207Z" fill="#FFCEB0"/>
<path d="M390.7 231.9C390.7 231.9 407.9 270.1 403.7 272.9C399.7 275.5 387.4 275.3 384.1 272.5C380.7 269.8 384.1 227.7 390.7 231.9Z" fill="#F5A473"/>
<path d="M365.6 245.4C365.574 246.451 365.341 247.486 364.914 248.446C364.488 249.407 363.877 250.274 363.115 250.998C362.354 251.723 361.457 252.29 360.477 252.668C359.496 253.045 358.451 253.226 357.4 253.2C356.349 253.174 355.314 252.941 354.354 252.515C353.393 252.088 352.526 251.477 351.802 250.715C351.077 249.954 350.51 249.057 350.132 248.077C349.755 247.096 349.574 246.051 349.6 245C349.653 242.878 350.547 240.865 352.085 239.402C353.622 237.939 355.678 237.147 357.8 237.2C359.922 237.253 361.935 238.147 363.398 239.685C364.861 241.222 365.653 243.278 365.6 245.4ZM434 240C433.974 241.051 433.741 242.086 433.315 243.046C432.888 244.007 432.277 244.874 431.515 245.598C430.754 246.323 429.857 246.89 428.877 247.268C427.896 247.645 426.851 247.826 425.8 247.8C424.749 247.774 423.714 247.541 422.754 247.115C421.793 246.688 420.926 246.077 420.202 245.315C419.477 244.554 418.91 243.657 418.532 242.677C418.155 241.696 417.974 240.651 418 239.6C418.053 237.478 418.947 235.465 420.485 234.002C422.022 232.539 424.078 231.747 426.2 231.8C428.322 231.853 430.335 232.747 431.798 234.285C433.261 235.822 434.053 237.878 434 240V240ZM368.2 138.6C368.2 138.6 338.2 154 333 181.8C327.9 209.5 332.5 280.2 300.2 277.8C300.2 277.8 234.5 139.2 368.2 138.6V138.6ZM384.3 138.8C381.5 140.8 415.7 139.9 435.8 163.1C455.8 186.3 461.8 245.3 464.9 246.4C467.9 247.4 478.3 172.7 456.3 150.9C434.4 129.1 399.7 127.2 384.3 138.8V138.8Z" fill="#41294A"/>
<path d="M457.7 251.6C457.7 251.6 465.1 220 479.5 230.8C494 241.7 481.9 274.8 468 278.1C454 281.4 450.4 268 457.7 251.6ZM323.7 249.7C323.7 249.7 317.2 217.9 302.5 228.4C287.8 238.8 298.9 272.3 312.7 276C326.6 279.7 330.7 266.3 323.7 249.7Z" fill="#FFCEB0"/>
<path d="M422.2 212C422.2 212 437.2 204 446.4 215.4C454.6 225.4 436 217.3 429.2 218.6C422.3 219.9 413.3 219.3 422.2 211.9V212ZM362.5 214.8C362.5 214.8 347.1 207.6 338.5 219.5C330.9 229.9 349 220.8 355.9 221.8C362.8 222.8 371.8 221.8 362.5 214.8ZM416.7 296.2C416.7 296.2 406.9 281.4 396.3 282.3C385.7 283.3 377.6 296.9 376.2 297.5C376.2 297.5 392.7 305.2 416.7 296.2Z" fill="#41294A"/>
<path d="M357.2 227.7C352.425 227.746 347.768 229.187 343.801 231.845C339.833 234.502 336.729 238.261 334.87 242.66C333.011 247.058 332.478 251.904 333.336 256.601C334.194 261.299 336.406 265.643 339.7 269.1C341.928 271.384 344.586 273.205 347.521 274.458C350.456 275.711 353.609 276.371 356.8 276.4H357.2C363.671 276.44 369.893 273.907 374.497 269.359C379.101 264.812 381.71 258.621 381.75 252.15C381.79 245.679 379.257 239.457 374.709 234.853C370.162 230.249 363.971 227.64 357.5 227.6H357.2V227.7ZM357.2 279.7H356.8C353.168 279.674 349.577 278.927 346.236 277.501C342.895 276.074 339.871 273.998 337.34 271.393C334.809 268.787 332.821 265.704 331.492 262.324C330.164 258.943 329.52 255.332 329.6 251.7C329.8 236.7 342.2 224.5 357.2 224.5H357.6C364.619 224.971 371.193 228.105 375.979 233.26C380.765 238.416 383.402 245.204 383.351 252.238C383.3 259.273 380.565 266.022 375.704 271.108C370.844 276.193 364.225 279.231 357.2 279.6V279.7ZM426 222.2C422.796 222.18 419.619 222.792 416.651 224C413.683 225.208 410.982 226.989 408.703 229.241C406.423 231.492 404.609 234.171 403.365 237.124C402.12 240.077 401.47 243.246 401.45 246.45C401.43 249.654 402.042 252.831 403.25 255.799C404.458 258.767 406.239 261.468 408.491 263.747C410.742 266.027 413.421 267.841 416.374 269.085C419.327 270.33 422.496 270.98 425.7 271H426C430.795 270.972 435.476 269.538 439.464 266.875C443.451 264.213 446.57 260.438 448.433 256.02C450.296 251.602 450.822 246.734 449.945 242.02C449.068 237.306 446.827 232.953 443.5 229.5C441.272 227.216 438.614 225.395 435.679 224.142C432.744 222.889 429.591 222.229 426.4 222.2H426ZM426 274.2H425.7C418.38 274.16 411.376 271.214 406.228 266.01C401.08 260.806 398.21 253.77 398.25 246.45C398.29 239.13 401.236 232.126 406.44 226.978C411.644 221.83 418.68 218.96 426 219H426.4C430.032 219.026 433.623 219.773 436.964 221.199C440.305 222.626 443.329 224.702 445.86 227.307C448.391 229.913 450.379 232.996 451.708 236.376C453.036 239.757 453.68 243.368 453.6 247C453.418 254.207 450.433 261.059 445.279 266.101C440.126 271.143 433.209 273.976 426 274V274.2Z" fill="#FFFCF6"/>
<path d="M331.9 247.7H331.3L321.1 243.9C320.724 243.738 320.424 243.439 320.262 243.063C320.1 242.687 320.088 242.263 320.229 241.879C320.37 241.495 320.653 241.179 321.02 240.997C321.386 240.815 321.809 240.78 322.2 240.9L332.4 244.6C332.748 244.728 333.04 244.974 333.227 245.294C333.414 245.614 333.484 245.99 333.425 246.356C333.366 246.722 333.182 247.056 332.904 247.301C332.625 247.546 332.271 247.687 331.9 247.7V247.7ZM450.9 240.5C450.2 240.5 449.6 240.1 449.4 239.4C449.1 238.5 449.6 237.6 450.4 237.4L464.4 233C464.609 232.886 464.841 232.821 465.078 232.808C465.316 232.795 465.553 232.836 465.773 232.926C465.993 233.017 466.19 233.156 466.35 233.332C466.51 233.508 466.628 233.718 466.697 233.946C466.765 234.174 466.782 234.414 466.745 234.649C466.709 234.885 466.621 235.109 466.487 235.305C466.353 235.502 466.177 235.667 465.972 235.787C465.767 235.907 465.537 235.98 465.3 236L451.3 240.4L450.9 240.5Z" fill="#FFFCF6"/>
<path d="M383.8 168C383.8 168 383.8 199.7 402.7 205.4C421.6 211.1 470.2 208.6 469.7 200.9C465.3 130.9 432.4 134.4 404.9 125.4C356.7 109.7 317.3 188.4 323.2 207C329.1 225.6 369.7 208.2 378.4 205.6C387.2 203 382.4 181.4 383.8 167.9V168Z" fill="#000C3E"/>
<path opacity="0.2" d="M335 275.1C335 275.1 377.9 250.4 396.7 253.8C415.5 257.3 448.6 257.8 450.1 264.6C451.6 271.3 408.1 268.3 394.8 269.6C381.5 270.9 330.3 286.2 335 275.1V275.1Z" fill="#DB5C5D"/>
<path d="M359 258.6C358.621 258.611 358.25 258.486 357.954 258.249C357.658 258.012 357.456 257.677 357.384 257.305C357.312 256.932 357.375 256.546 357.561 256.216C357.747 255.885 358.044 255.632 358.4 255.5C362.7 253.7 363.5 252.4 363.5 252.3C363.8 251.5 364.7 251.1 365.5 251.4C366.4 251.7 366.8 252.7 366.5 253.5C366.3 254.1 365.2 256.2 359.6 258.5H359V258.6ZM424.5 255.2C423.2 255.2 421.1 254.8 417.7 253.2C417.503 253.108 417.326 252.978 417.179 252.818C417.032 252.658 416.919 252.47 416.844 252.266C416.77 252.061 416.737 251.844 416.746 251.627C416.756 251.41 416.808 251.197 416.9 251C416.992 250.803 417.122 250.626 417.282 250.479C417.442 250.332 417.63 250.219 417.834 250.144C418.039 250.07 418.256 250.037 418.473 250.046C418.69 250.056 418.903 250.108 419.1 250.2C423.3 252.3 424.8 252 424.8 252C425.7 251.6 426.5 252 426.8 252.8C427.2 253.7 426.8 254.6 426 255C425.7 255 425.3 255.2 424.5 255.2V255.2Z" fill="#DB5C5D"/>
<path d="M383.1 252.5C382.752 252.424 382.44 252.234 382.213 251.96C381.985 251.686 381.856 251.345 381.844 250.989C381.833 250.633 381.94 250.284 382.15 249.996C382.359 249.708 382.658 249.499 383 249.4L400 247.6C400.9 247.6 401.7 248.2 401.8 249C401.8 250 401.2 250.7 400.4 250.8L383.3 252.5H383.1V252.5Z" fill="#FFFCF6"/>
<path d="M359.5 112.6C359.3 112.6 359 112.6 358.8 112.4C349.8 108 344.3 101.8 342.6 93.8C338.6 76.1 354.5 56.6 355.1 55.8C355.231 55.6358 355.394 55.4992 355.578 55.3978C355.762 55.2964 355.964 55.2322 356.173 55.209C356.382 55.1858 356.594 55.204 356.796 55.2625C356.997 55.321 357.186 55.4187 357.35 55.55C357.514 55.6813 357.651 55.8437 357.752 56.0278C357.854 56.212 357.918 56.4143 357.941 56.6232C357.964 56.8322 357.946 57.0436 357.888 57.2455C357.829 57.4474 357.731 57.6358 357.6 57.8C357.4 58 342.1 77 345.6 93.1C347.2 100.1 352.1 105.6 360.2 109.5C360.506 109.668 360.748 109.932 360.89 110.25C361.032 110.569 361.066 110.925 360.986 111.265C360.907 111.605 360.719 111.909 360.451 112.132C360.182 112.355 359.849 112.484 359.5 112.5V112.6ZM395.8 117.3C395.48 117.289 395.171 117.181 394.912 116.992C394.654 116.803 394.458 116.541 394.35 116.239C394.243 115.938 394.228 115.611 394.308 115.301C394.388 114.99 394.56 114.712 394.8 114.5C395 114.3 413.2 98.1 412.3 81.6C412 74.5 408.1 68.2 400.7 63C400.355 62.748 400.125 62.3694 400.059 61.9475C399.993 61.5255 400.098 61.0948 400.35 60.75C400.602 60.4052 400.981 60.1746 401.403 60.109C401.824 60.0434 402.255 60.148 402.6 60.4C410.7 66.2 415.1 73.4 415.6 81.4C416.4 99.5 397.6 116.2 396.9 116.9C396.6 117.2 396.2 117.3 395.9 117.3H395.8ZM490.4 326.2C490 326.2 489.5 326 489.2 325.6C488.7 324.9 488.8 323.9 489.4 323.4C489.7 323.2 510.6 305.7 504.5 278.1C501.57 266.303 497.964 254.683 493.7 243.3C486.2 221.7 478.5 199.5 477.8 177.9C477.8 176.9 478.5 176.3 479.4 176.2C480.2 176.2 481 176.9 481 177.8C481.6 198.8 489.3 220.9 496.8 242.2C501.1 254.7 505.2 266.5 507.6 277.4C509.348 286.18 508.773 295.264 505.932 303.753C503.09 312.242 498.081 319.842 491.4 325.8C491.2 326.1 490.8 326.2 490.4 326.2Z" fill="#000C3E"/>
<path d="M496.1 212.6H495.9C495.1 212.5 494.4 211.6 494.5 210.8C497.3 183 491.4 160.4 477.1 143.6C454.1 116.7 416.7 114.2 416.3 114.2C415.4 114.2 414.8 113.4 414.8 112.5C414.8 111.7 415.6 111 416.5 111C416.9 111 455.6 113.6 479.5 141.6C494.5 159 500.5 182.4 497.7 211.1C497.6 211.9 496.9 212.6 496.1 212.6V212.6Z" fill="#000C3E"/>
<path d="M382.2 299.3C382.2 299.3 398 288.2 412.2 297.7C412.2 297.7 395.6 303.9 382.2 299.3ZM392.6 310.7H389C388.1 310.7 387.4 310 387.4 309.1C387.4 308.2 388.1 307.5 389.1 307.5C395.1 307.6 402.2 307.5 403.4 307C404.2 306.7 405.1 307.1 405.4 308C405.7 308.8 405.4 309.7 404.5 310C402.9 310.6 397 310.7 392.7 310.7H392.6ZM315.5 267.2H315.1C314.886 267.154 314.685 267.064 314.507 266.937C314.329 266.809 314.18 266.647 314.067 266.46C313.955 266.272 313.882 266.064 313.853 265.847C313.824 265.63 313.84 265.41 313.9 265.2C315.142 260.642 315.118 255.832 313.832 251.286C312.546 246.741 310.046 242.632 306.6 239.4C306.387 239.29 306.202 239.134 306.057 238.943C305.913 238.752 305.813 238.531 305.766 238.296C305.718 238.061 305.724 237.819 305.783 237.586C305.841 237.354 305.951 237.138 306.105 236.954C306.258 236.77 306.451 236.623 306.669 236.523C306.886 236.424 307.124 236.374 307.363 236.379C307.603 236.383 307.838 236.441 308.052 236.549C308.266 236.656 308.454 236.81 308.6 237C309.2 237.5 321.9 248.5 317 266C316.8 266.7 316.2 267.2 315.5 267.2ZM464 271H463.8C462.9 271 462.3 270.2 462.3 269.3C462.615 258.869 466.26 248.812 472.7 240.6C473.3 239.9 474.3 239.9 475 240.5C475.6 241.1 475.7 242.1 475 242.7C475 242.8 466.6 252.2 465.5 269.5C465.5 270.4 464.7 271 463.9 271H464Z" fill="#DB5C5D"/>
<path d="M432 323C432 323 437 379.5 430.3 388.5C423.6 397.5 381.1 390.7 369.9 388.5C358.7 386.2 358.7 292.6 360.9 299C379.6 351.2 430.7 305 431.9 323H432Z" fill="#FFCEB0"/>
<path d="M365 328.5C365 328.5 395.2 343 429.4 325.5C429.4 325.5 432.1 346.5 429.4 351.5C426.8 356.3 372.4 359.8 361.8 335.8C361.8 335.8 361.9 327.5 365 328.5Z" fill="#F5A473"/>
<path d="M200.2 771.9H590.6C590.6 771.9 610.6 432.5 561.6 395.6C512.8 358.6 297.5 377.1 246.8 408.6C196.1 440.1 200.2 771.9 200.2 771.9V771.9Z" fill="#FB4C47"/>
<path d="M395.2 381.8C395.2 381.8 380.2 512.2 386.7 530.4C393.2 548.6 384.8 629.1 382.2 639.5C379.5 650 298.4 654.5 277.4 646.1C256.5 637.7 282.8 412.1 294.4 370.3C306.2 328.5 393.9 353.1 395.2 381.8Z" fill="#05BA6E"/>
<path d="M157 222C157 222 189.6 284.4 212.5 285C235.3 285.6 312.5 191.7 340.9 190.7C369.3 189.7 393.7 192.5 393.9 185.7C393.9 178.9 354.3 171.5 354.3 171.5C354.3 171.5 411.7 175.2 399.8 168.9C387.9 162.6 359.5 157 359.5 157C359.5 157 400.7 158.7 401 154.3C401.3 149.8 358.1 143.3 358.1 143.3C358.1 143.3 410.7 141.7 401.1 134.4C391.5 127.2 373.4 130.4 324.4 137.8C275.4 145.3 164.6 210.7 157 221.9V222Z" fill="#FFCEB0"/>
<path d="M214.2 219C214.2 219 266.4 250 243.7 285.3C219.5 322.8 220.8 311.6 216.7 326.8C212.5 342 281.4 371.6 284.6 384.6C287.7 397.6 255.2 557.3 224.7 550.8C198.2 545.1 50.9 461.5 29.7 377.9C13.3 313.1 147.1 154.7 214.2 218.9V219Z" fill="#FB4C47"/>
<path d="M350.8 583.4C350.8 583.4 293 710.8 314.3 727.9C335.5 744.9 352.7 733.8 371.5 744.9C390.3 755.9 408.3 750.4 423.5 740.8C438.5 731.1 399.2 604.4 383 592.3C366.7 580.3 353.8 576.8 350.8 583.4Z" fill="white"/>
<path d="M543 386.5C543 386.5 574.1 390.3 598.5 435C616.8 468.5 652.3 664.5 598.5 692.5C544.7 720.4 494.3 705.8 474.7 687C455.2 668.1 490 571.2 513.1 564C536.3 556.7 543 386.5 543 386.5Z" fill="#FB4C47"/>
<path d="M553 383.5C553 383.5 554.5 374.5 509.7 355.1C474 339.6 443.4 365.7 388.9 368.5C334.4 371.3 339.3 349.7 300.7 359.7C241.2 375.2 288.6 414.2 307.7 418.7C327 423 391.3 531 553.2 383.4L553 383.5Z" fill="#05BA6E"/>
<path d="M396.8 274.6C396.8 274.6 396.6 278.3 398.8 278.6C400.8 279 404.8 277.8 403.8 272.8C403.8 272.8 398.4 274.5 396.8 274.6Z" fill="white"/>
<path d="M617.5 580.3H617.1C616.387 580.215 615.723 579.893 615.215 579.385C614.707 578.877 614.385 578.213 614.3 577.5C611.7 574.5 593.9 568 582 563.7C558.5 555.2 548 551 545.7 546.4C543.7 542.6 544.7 536.9 545.7 529.8C547.4 518.6 549.6 504.6 542.5 491.1C530.1 467.8 531.3 433.3 531.4 431.8C531.563 431.063 531.982 430.408 532.581 429.95C533.181 429.492 533.923 429.26 534.676 429.296C535.43 429.332 536.147 429.633 536.7 430.146C537.253 430.659 537.607 431.351 537.7 432.1C537.7 432.4 536.6 466.4 548.1 488.1C556.2 503.5 553.8 519.3 552.1 530.8C551.1 536.3 550.4 541.5 551.4 543.6C553.4 546.6 571.9 553.3 584.2 557.7C611.9 567.7 621.5 571.7 620.7 577.6C620.58 578.359 620.19 579.05 619.603 579.546C619.015 580.042 618.269 580.309 617.5 580.3V580.3ZM534.5 554.2C534.2 554.2 533.9 554.2 533.7 554C523.1 551.2 506.8 548.2 506.7 548.2C506.259 548.166 505.83 548.042 505.44 547.834C505.049 547.626 504.706 547.34 504.432 546.993C504.158 546.646 503.959 546.246 503.847 545.818C503.736 545.391 503.714 544.944 503.783 544.508C503.852 544.071 504.011 543.653 504.25 543.281C504.489 542.909 504.802 542.591 505.17 542.346C505.538 542.101 505.953 541.934 506.388 541.858C506.824 541.781 507.27 541.795 507.7 541.9C508.5 542 524.6 544.9 535.3 547.9C536.056 548.093 536.715 548.556 537.153 549.201C537.591 549.846 537.779 550.629 537.681 551.403C537.583 552.177 537.205 552.888 536.619 553.403C536.034 553.918 535.28 554.202 534.5 554.2V554.2ZM591.7 711.5H591.5C532.6 709 474 683.8 470.8 660C469.8 652.5 469 648.8 468.6 647C467.987 646.721 467.487 646.243 467.178 645.645C466.87 645.046 466.772 644.361 466.9 643.7C467.3 641 469.1 640.1 470.5 640.1C473.7 640.1 474.8 642.1 477.1 659.1C479.5 677.7 533 702.6 591.8 705.3C592.537 705.443 593.201 705.842 593.674 706.426C594.147 707.009 594.4 707.741 594.388 708.492C594.376 709.243 594.101 709.966 593.609 710.535C593.118 711.103 592.442 711.48 591.7 711.6V711.5Z" fill="#B31B1F"/>
<path d="M486 655.2H485.4C483.7 654.8 482.6 653.1 483 651.3C483.1 650.7 497 589.3 510 545.3C510.078 544.857 510.25 544.435 510.502 544.062C510.755 543.689 511.084 543.374 511.467 543.137C511.849 542.9 512.278 542.746 512.724 542.686C513.171 542.626 513.625 542.661 514.057 542.788C514.489 542.916 514.889 543.133 515.231 543.426C515.573 543.719 515.85 544.08 516.043 544.487C516.236 544.894 516.34 545.337 516.35 545.787C516.36 546.238 516.275 546.685 516.1 547.1C503.1 591 489.3 652.1 489.1 652.7C488.946 653.389 488.568 654.008 488.026 654.461C487.483 654.913 486.806 655.173 486.1 655.2H486ZM210 522H209.5C207.8 521.7 206.5 520 206.9 518.3C207.2 516.1 215 464.3 225.9 440C236.3 416.5 241.7 392.6 241.7 392.3C241.747 391.851 241.889 391.416 242.116 391.026C242.344 390.635 242.651 390.297 243.018 390.034C243.385 389.771 243.804 389.588 244.247 389.499C244.69 389.409 245.147 389.414 245.587 389.514C246.028 389.613 246.443 389.805 246.804 390.076C247.165 390.347 247.465 390.692 247.683 391.088C247.902 391.483 248.034 391.92 248.071 392.371C248.109 392.821 248.05 393.274 247.9 393.7C243.94 410.487 238.485 426.886 231.6 442.7C221.2 466.1 213.2 518.7 213.1 519.3C212.983 520.042 212.608 520.72 212.041 521.214C211.474 521.707 210.752 521.986 210 522V522ZM161.5 341C153 341 143.5 340.5 133.1 339.1C132.344 338.907 131.685 338.444 131.247 337.799C130.809 337.154 130.621 336.371 130.719 335.597C130.817 334.823 131.195 334.112 131.781 333.597C132.366 333.082 133.12 332.798 133.9 332.8C165.7 336.8 188.3 333.1 199.9 330.6C194.2 328.7 186 326.9 177.9 327.4C159.7 328.2 132.9 311.9 131.9 311.2C131.476 311.021 131.095 310.753 130.784 310.413C130.473 310.074 130.238 309.671 130.097 309.232C129.956 308.794 129.911 308.33 129.965 307.873C130.02 307.416 130.172 306.976 130.412 306.583C130.653 306.19 130.975 305.853 131.357 305.596C131.739 305.339 132.172 305.167 132.627 305.093C133.081 305.019 133.546 305.044 133.991 305.166C134.435 305.288 134.847 305.504 135.2 305.8C135.4 306 161.4 321.8 177.6 321C193.1 320.2 211.4 327.1 213 330C213.6 331.1 213.6 332.5 212.9 333.5C212.3 334.4 210.9 335 209.9 334.9C209.3 334.9 207.9 335.3 206.4 335.6C191.714 339.249 176.632 341.063 161.5 341V341ZM239.7 272.6C238.5 272.6 237.4 271.9 236.8 270.8C236.8 270.6 228.8 254.5 215.3 248.1C199.9 240.8 182.6 215.5 181.8 214.5C181.323 213.797 181.144 212.933 181.303 212.099C181.463 211.264 181.947 210.527 182.65 210.05C183.353 209.573 184.217 209.394 185.051 209.553C185.886 209.713 186.623 210.197 187.1 210.9C187.3 211.1 204.2 235.9 218.1 242.3C228.665 248.209 237.203 257.165 242.6 268C242.838 268.49 242.948 269.032 242.918 269.575C242.888 270.119 242.72 270.646 242.429 271.107C242.139 271.567 241.736 271.946 241.258 272.207C240.781 272.469 240.244 272.604 239.7 272.6V272.6Z" fill="#B31B1F"/>
<path d="M387.5 457.5H387.1C386.3 457.3 385.7 456.5 385.9 455.5C386 455.2 393.6 422 395.9 405.2C399.3 378.9 387.5 369.8 387.4 369.7C387.055 369.448 386.825 369.069 386.759 368.647C386.693 368.226 386.798 367.795 387.05 367.45C387.302 367.105 387.681 366.875 388.103 366.809C388.524 366.743 388.955 366.848 389.3 367.1C389.8 367.5 402.7 377.3 399 405.6C396.7 422.6 389.1 455.9 389 456.3C388.9 457 388.2 457.5 387.5 457.5ZM293.7 409.7L290.5 409.3L294.3 377.3C295.6 366.6 298.6 359.3 298.7 359C298.872 358.602 299.196 358.289 299.599 358.13C300.002 357.97 300.452 357.978 300.85 358.15C301.248 358.322 301.561 358.646 301.72 359.049C301.88 359.452 301.872 359.902 301.7 360.3C301.7 360.3 298.7 367.5 297.4 377.6L293.7 409.6V409.7Z" fill="#08824F"/>
<path d="M384 762.4C365.9 762.4 355.9 761.8 342 761C324.3 759.9 300 758.4 243.1 757.6C242.68 757.593 242.265 757.504 241.879 757.337C241.493 757.17 241.144 756.929 240.852 756.627C240.559 756.326 240.329 755.969 240.174 755.578C240.02 755.188 239.943 754.77 239.95 754.35C239.957 753.93 240.046 753.515 240.213 753.129C240.38 752.743 240.621 752.394 240.923 752.102C241.224 751.809 241.581 751.579 241.972 751.424C242.362 751.27 242.78 751.193 243.2 751.2C300.2 752.1 324.6 753.5 342.5 754.6C356.2 755.4 366 756 384 756C406.5 756 426.7 753.6 446.2 751.2C463.2 749.1 479.4 747.2 496.8 746.7C533.8 745.9 561.4 746.7 561.6 746.7C563.4 746.7 564.8 748.3 564.7 750C564.7 751.8 563.2 753 561.5 753C561.2 753 533.7 752.3 496.9 753C479.9 753.5 463.9 755.4 446.9 757.5C427.2 759.9 406.9 762.4 384 762.4Z" fill="#B31B1F"/>
<path d="M528.1 720C526.6 720 525 719.2 523.6 717.1C519.3 710.6 518 710.1 509.6 711.4C502.2 712.6 499.2 707.2 497.2 703.7C496.6 702.5 496 701.4 495.4 701C493.9 699.8 490.3 701.2 488.7 702L487.2 699.3C487.9 698.9 493.9 695.7 497.4 698.5C498.4 699.3 499.2 700.6 500 702.2C502 705.6 503.9 709 509.2 708.2C518.7 706.8 521.2 707.8 526.2 715.4C527.6 717.4 528.7 717.1 532.2 715.1C534.9 713.5 539 711.1 542 715.3L539.4 717.2C538.3 715.6 537.2 715.8 533.9 717.8C532.3 718.8 530.2 719.9 528.1 719.9V720Z" fill="white"/>
<path d="M491.1 570C491.1 570 415.1 542.6 382.1 556.7C349.1 570.7 322.1 606.9 327.1 609.3C332.1 611.7 359.1 590.9 359.1 590.9C359.1 590.9 331.5 618.6 336.6 621.4C341.7 624.2 368.2 609.4 368.2 609.4C368.2 609.4 349.7 629.1 357.7 630.6C365.6 632.1 382.7 615.8 400.3 615.2C418.1 614.6 440.5 628.6 462.6 632.6C484.8 636.6 491.1 570.1 491.1 570.1V570Z" fill="#FFCEB0"/>
<path d="M605.8 555.8H605.2C605 555.8 582.6 551.5 555.9 546.1C555.065 545.941 554.327 545.456 553.848 544.753C553.37 544.05 553.191 543.185 553.35 542.35C553.509 541.515 553.994 540.777 554.697 540.298C555.4 539.82 556.265 539.641 557.1 539.8C583.8 545.3 606.1 549.5 606.4 549.5C607.143 549.686 607.795 550.131 608.238 550.757C608.68 551.382 608.883 552.146 608.811 552.908C608.738 553.671 608.394 554.382 607.842 554.913C607.289 555.443 606.565 555.758 605.8 555.8V555.8Z" fill="#B31B1F"/>
<path fill-rule="evenodd" clip-rule="evenodd" d="M393.4 55.8C392.6 55.8 391.7 55.8 390.7 56.1C388.3 56.5 386.7 57.7 385.8 59.7C381.7 68.7 390.4 90 396.7 102.6C400.5 88.6 405.1 65.2 398.6 57.9C397.945 57.184 397.138 56.6238 396.238 56.2604C395.338 55.897 394.369 55.7397 393.4 55.8V55.8ZM396.8 113H397.1C397.734 113.27 398.443 113.305 399.1 113.1C403.4 111.6 440.8 97.5 445.5 81.4C446.061 79.5036 446.145 77.4979 445.743 75.5613C445.342 73.6248 444.468 71.8174 443.2 70.3C438.8 64.6 434 63.9 430.7 64.3C421.5 65.5 412.5 77.4 405.8 88.7C408.2 75.9 409.1 61 402.9 54.1C400.8 51.6 396.7 49 389.6 50.4C387.647 50.719 385.804 51.5159 384.233 52.7197C382.663 53.9236 381.415 55.4971 380.6 57.3C374.3 70.9 388.8 100.2 393.6 109.3C387.6 110.4 381.4 110.7 375.6 110.3C364.896 109.756 354.475 106.671 345.2 101.3L342.8 104.9C352.694 110.717 363.839 114.078 375.3 114.7C382.2 115.1 389.5 114.7 396.8 113V113ZM432.3 70H431.5C421.7 71.3 410 92 403.7 105.1C416.7 99.7 437.2 89.2 440 79.8C440.6 77.6 440.2 75.8 438.7 73.8C436.7 71.2 434.6 70 432.3 70V70Z" fill="#FFD310"/>
<defs>
<linearGradient id="paint0_linear" x1="52.6" y1="572.8" x2="116.9" y2="701.2" gradientUnits="userSpaceOnUse">
<stop stop-color="#FFC8C8"/>
<stop offset="1" stop-color="#FFF2F5"/>
</linearGradient>
<linearGradient id="paint1_linear" x1="684.2" y1="169.5" x2="162.5" y2="-40.8" gradientUnits="userSpaceOnUse">
<stop stop-color="white"/>
<stop offset="1" stop-color="#FFD5D5"/>
</linearGradient>
<linearGradient id="paint2_linear" x1="616.9" y1="74.5" x2="455.9" y2="48" gradientUnits="userSpaceOnUse">
<stop stop-color="#FFD3D3"/>
<stop offset="1" stop-color="#FFF6F6"/>
</linearGradient>
<linearGradient id="paint3_linear" x1="-21.6" y1="349" x2="735.8" y2="349" gradientUnits="userSpaceOnUse">
<stop stop-color="#FFF8F5"/>
<stop offset="1" stop-color="#FFDEDE"/>
</linearGradient>
<linearGradient id="paint4_linear" x1="666" y1="530.5" x2="467.6" y2="548.8" gradientUnits="userSpaceOnUse">
<stop stop-color="#FFC2C2"/>
<stop offset="1" stop-color="white"/>
</linearGradient>
</defs>
</svg>
