<svg width="584" height="231" viewBox="0 0 584 231" fill="none" xmlns="http://www.w3.org/2000/svg">
<path opacity="0.1" d="M0 152.4C-2.39458e-07 143.122 1.82742 133.935 5.37791 125.363C8.92841 116.792 14.1324 109.003 20.6929 102.443C27.2534 95.8825 35.0418 90.6784 43.6134 87.1279C52.1851 83.5774 61.3721 81.75 70.65 81.75C79.9279 81.75 89.1149 83.5774 97.6866 87.1279C106.258 90.6784 114.047 95.8825 120.607 102.443C127.168 109.003 132.372 116.792 135.922 125.363C139.473 133.935 141.3 143.122 141.3 152.4C141.3 171.138 133.857 189.108 120.607 202.357C107.358 215.607 89.3875 223.05 70.65 223.05C51.9125 223.05 33.9424 215.607 20.6929 202.357C7.44346 189.108 4.83608e-07 171.138 0 152.4V152.4Z" fill="#FF383D"/>
<g filter="url(#filter0_d)">
<path d="M20.8 148.9C22.2 148.9 23.4 149.2 24.5 149.8C25.5 150.4 26.5 151.2 27 152.3C27.6 153.4 28 154.6 28 156C28 157.3 27.6 158.6 27 159.6C26.4 160.6 25.6 161.6 24.5 162.1C23.5 162.7 22.2 163 20.8 163H15.6V148.9H20.8ZM20.6 160.6C21.4291 160.635 22.2539 160.463 23 160.1C23.6905 159.705 24.2476 159.113 24.6 158.4C24.9979 157.663 25.2042 156.838 25.2 156C25.2 155 25 154.2 24.6 153.5C24.2168 152.861 23.6627 152.341 23 152C22.3 151.5 21.5 151.3 20.6 151.3H18.2V160.7H20.6V160.6ZM30.9 149L32.6 151.9C33.1968 152.883 33.7637 153.883 34.3 154.9C34.8455 153.888 35.4123 152.888 36 151.9L37.7 149H40.6L35.6 157.5V163.1H33V157.5L28 149H31H30.9ZM48.1 149C49.6 149 50.8 149.4 51.6 150.3C52.5 151.1 52.9 152.3 52.9 153.6C52.9042 154.438 52.6979 155.263 52.3 156C51.9 156.7 51.3 157.3 50.7 157.7C49.9 158.1 49.1 158.3 48.1 158.3H44.9V163.1H42.3V149H48.1V149ZM47.6 156C48.5 156 49.1 155.8 49.6 155.3C50 154.9 50.2 154.3 50.2 153.6C50.2 152.9 50 152.4 49.6 151.9C49.1 151.5 48.5 151.3 47.6 151.3H45V156H47.7H47.6ZM54.6 153C54.6 152.1 54.8 151.4 55.3 150.7C55.7 150.1 56.3 149.6 57 149.2C57.8 148.9 58.7 148.7 59.7 148.7C60.7 148.7 61.5 148.9 62.3 149.2C63.1 149.6 63.7 150.1 64.1 150.7C64.5 151.3 64.7 152.1 64.7 152.9H62.1C62.1 152.3 61.8 151.9 61.4 151.4C60.9 151.1 60.3 150.9 59.5 150.9C58.8 150.9 58.3 151.1 57.9 151.4C57.5 151.7 57.3 152.2 57.3 152.7C57.3 153.2 57.4 153.7 57.8 153.9L59.3 154.5L61.6 155C62.6 155.3 63.5 155.8 64.1 156.4C64.8 157.1 65.1 158 65.1 159C65.1394 159.829 64.92 160.65 64.472 161.349C64.0241 162.048 63.3699 162.59 62.6 162.9C61.8 163.2 60.8 163.4 59.8 163.4C58.2 163.4 56.8 163 55.9 162.2C54.9 161.5 54.4 160.4 54.3 159.1H56.9C56.9 159.8 57.2 160.3 57.8 160.7C58.3 161 59 161.2 59.8 161.2C60.6 161.2 61.2 161 61.8 160.7C62.2 160.3 62.4 159.9 62.4 159.3C62.4 158.8 62.2 158.3 61.9 158.1C61.6 157.8 61.2 157.6 60.6 157.5L58.3 156.9C57.1 156.7 56.3 156.2 55.6 155.5C54.9 154.9 54.6 154 54.6 153ZM78.9 149V163H76.5L70 153.3V163H67.4V148.9H70L76.5 158.6V148.9H79L78.9 149ZM96.2 156C96.2 157.5 95.8 158.7 95.2 159.8C94.5 161 93.7 161.8 92.5 162.5C91.4 163.1 90.1 163.4 88.7 163.4C87.3 163.4 86 163.1 84.9 162.4C83.8 161.9 82.9 161 82.2 159.9C81.6 158.7 81.2 157.5 81.2 156.1C81.2 154.6 81.6 153.4 82.2 152.3C82.9 151.1 83.8 150.3 84.9 149.7C86 149 87.3 148.7 88.7 148.7C90.1 148.7 91.4 149 92.5 149.7C93.7 150.3 94.5 151.1 95.2 152.2C95.8 153.4 96.2 154.6 96.2 156ZM93.4 156C93.4 155 93.2 154.2 92.8 153.5C92.4 152.7 91.8 152.2 91.1 151.7C90.4 151.3 89.6 151.1 88.7 151.1C87.8586 151.066 87.025 151.274 86.2983 151.699C85.5715 152.125 84.9821 152.75 84.6 153.5C84.2 154.2 84 155.1 84 156.1C84 157.1 84.2 157.9 84.6 158.6C85 159.4 85.6 159.9 86.3 160.4C87 160.8 87.8 161 88.7 161C89.7 161 90.4 160.8 91.1 160.4C91.9 159.9 92.4 159.4 92.8 158.6C93.2 157.9 93.4 157 93.4 156V156ZM101.1 151.3V154.9H106.9V157.1H101.1V160.7H107.6V163.1H98.6V149H107.6V151.3H101H101.1ZM114.1 149H116.8L122 163H119.3L118.1 159.8H112.8L111.6 163H108.9L114.2 148.9L114.1 149ZM117.4 157.8L116.4 155.3L115.8 153.2L115.5 152.2C115.215 153.215 114.881 154.216 114.5 155.2L113.5 157.7H117.4V157.8Z" fill="#FF383D"/>
</g>
<path d="M70.3 64.6C93.7319 64.6 116.204 73.9083 132.773 90.4771C149.342 107.046 158.65 129.518 158.65 152.95C158.65 176.382 149.342 198.854 132.773 215.423C116.204 231.992 93.7319 241.3 70.3 241.3V284.9" stroke="#FFD6D7" stroke-width="2.4" stroke-miterlimit="10"/>
<path d="M63 287C63 286.041 63.1888 285.092 63.5557 284.206C63.9225 283.321 64.4603 282.516 65.1381 281.838C65.816 281.16 66.6207 280.623 67.5064 280.256C68.3921 279.889 69.3414 279.7 70.3 279.7C71.2587 279.7 72.2079 279.889 73.0936 280.256C73.9793 280.623 74.784 281.16 75.4619 281.838C76.1397 282.516 76.6775 283.321 77.0443 284.206C77.4112 285.092 77.6 286.041 77.6 287C77.391 288.776 76.5374 290.414 75.201 291.602C73.8645 292.791 72.1384 293.447 70.35 293.447C68.5616 293.447 66.8355 292.791 65.499 291.602C64.1626 290.414 63.309 288.776 63.1 287H63Z" fill="#F2AEB0"/>
<path d="M175.7 164.8H354C358.71 164.803 363.317 163.421 367.246 160.825C371.176 158.229 374.255 154.534 376.1 150.2L432.5 17.2C434.345 12.8664 437.424 9.17135 441.354 6.5752C445.283 3.97906 449.89 2.59656 454.6 2.59998H661.8" stroke="#FFB2B1" stroke-width="5" stroke-linejoin="round"/>
<path d="M191 165.2C191 167.627 190.036 169.954 188.32 171.67C186.604 173.386 184.277 174.35 181.85 174.35C179.423 174.35 177.096 173.386 175.38 171.67C173.664 169.954 172.7 167.627 172.7 165.2C172.7 162.773 173.664 160.446 175.38 158.73C177.096 157.014 179.423 156.05 181.85 156.05C184.277 156.05 186.604 157.014 188.32 158.73C190.036 160.446 191 162.773 191 165.2V165.2Z" fill="#FF383D"/>
<defs>
<filter id="filter0_d" x="11.6" y="144.7" width="114.4" height="22.7" filterUnits="userSpaceOnUse" color-interpolation-filters="sRGB">
<feFlood flood-opacity="0" result="BackgroundImageFix"/>
<feColorMatrix in="SourceAlpha" type="matrix" values="0 0 0 0 0 0 0 0 0 0 0 0 0 0 0 0 0 0 127 0" result="hardAlpha"/>
<feOffset/>
<feGaussianBlur stdDeviation="2"/>
<feColorMatrix type="matrix" values="0 0 0 0 0 0 0 0 0 0 0 0 0 0 0 0 0 0 0.1 0"/>
<feBlend mode="normal" in2="BackgroundImageFix" result="effect1_dropShadow"/>
<feBlend mode="normal" in="SourceGraphic" in2="effect1_dropShadow" result="shape"/>
</filter>
</defs>
</svg>
