<svg width="584" height="231" viewBox="0 0 584 231" fill="none" xmlns="http://www.w3.org/2000/svg">
<path d="M186.3 88.8H299.5C303.092 88.8052 306.637 89.6166 309.873 91.1743C313.11 92.7319 315.955 94.9962 318.2 97.8L351.5 139C353.818 141.898 356.776 144.219 360.142 145.78C363.508 147.342 367.191 148.102 370.9 148L583.9 141.6" stroke="#FFB2B1" stroke-width="5" stroke-linejoin="round"/>
<path d="M198.4 89.3C198.4 91.7267 197.436 94.0541 195.72 95.77C194.004 97.486 191.677 98.45 189.25 98.45C186.823 98.45 184.496 97.486 182.78 95.77C181.064 94.0541 180.1 91.7267 180.1 89.3C180.1 86.8733 181.064 84.5459 182.78 82.83C184.496 81.114 186.823 80.15 189.25 80.15C191.677 80.15 194.004 81.114 195.72 82.83C197.436 84.5459 198.4 86.8733 198.4 89.3V89.3Z" fill="#FF383D"/>
<path opacity="0.1" d="M0 89.4C-2.39458e-07 80.1221 1.82742 70.9351 5.37791 62.3634C8.92841 53.7918 14.1324 46.0034 20.6929 39.4429C27.2534 32.8824 35.0418 27.6784 43.6134 24.1279C52.1851 20.5774 61.3721 18.75 70.65 18.75C79.9279 18.75 89.1149 20.5774 97.6866 24.1279C106.258 27.6784 114.047 32.8824 120.607 39.4429C127.168 46.0034 132.372 53.7918 135.922 62.3634C139.473 70.9351 141.3 80.1221 141.3 89.4C141.3 108.138 133.857 126.108 120.607 139.357C107.358 152.607 89.3875 160.05 70.65 160.05C51.9125 160.05 33.9424 152.607 20.6929 139.357C7.44346 126.108 4.83608e-07 108.138 0 89.4V89.4Z" fill="#FF383D"/>
<path d="M70.3 1.5C81.8957 1.5 93.3779 3.78395 104.091 8.22144C114.804 12.6589 124.538 19.1631 132.738 27.3625C140.937 35.5619 147.441 45.296 151.879 56.009C156.316 66.7221 158.6 78.2043 158.6 89.8C158.6 101.396 156.316 112.878 151.879 123.591C147.441 134.304 140.937 144.038 132.738 152.238C124.538 160.437 114.804 166.941 104.091 171.379C93.3779 175.816 81.8957 178.1 70.3 178.1V221.7" stroke="#FFD6D7" stroke-width="2.4" stroke-miterlimit="10"/>
<path d="M63 224C63 223.041 63.1888 222.092 63.5557 221.206C63.9225 220.321 64.4603 219.516 65.1381 218.838C65.816 218.16 66.6207 217.623 67.5064 217.256C68.3921 216.889 69.3414 216.7 70.3 216.7C71.2587 216.7 72.2079 216.889 73.0936 217.256C73.9793 217.623 74.784 218.16 75.4619 218.838C76.1397 219.516 76.6775 220.321 77.0443 221.206C77.4112 222.092 77.6 223.041 77.6 224C77.391 225.776 76.5374 227.414 75.201 228.602C73.8645 229.791 72.1384 230.447 70.35 230.447C68.5616 230.447 66.8355 229.791 65.499 228.602C64.1626 227.414 63.309 225.776 63.1 224H63Z" fill="#F2AEB0"/>
<path d="M42.2 87.2V91H47.6V93.2H42.2V99H39.6V84.9H48.6V87.2H42.2V87.2ZM53.4 87.2V90.8H59.2V93H53.4V96.6H59.8V99H50.8V84.9H59.8V87.2H53.4ZM64 85L66 90.2C66.7085 92.1187 67.3753 94.0525 68 96C68.6993 94.0781 69.366 92.1444 70 90.2L72.1 85H75L69.5 99H66.8L61.3 84.9H64V85ZM79.2 87.3V90.9H85V93.1H79.2V96.7H85.7V99.1H76.7V85H85.7V87.3H79.2ZM88.4 85H94C95.7 85 97 85.4 98 86.1C98.8 86.9 99.2 88 99.2 89.4C99.2 90.4 99 91.2 98.6 91.9C98.1 92.6 97.5 93.1 96.6 93.4L99.3 99.1H96.5L94.1 93.8H91V99.1H88.4V85ZM94 91.6C94.8 91.6 95.5 91.4 95.9 91C96.3 90.6 96.5 90 96.5 89.4C96.5098 89.122 96.4615 88.845 96.3582 88.5867C96.2549 88.3284 96.0988 88.0945 95.9 87.9C95.5 87.5 94.9 87.3 94 87.3H91V91.6H94V91.6Z" fill="#FF383D"/>
</svg>
