<svg width="584" height="231" viewBox="0 0 584 231" fill="none" xmlns="http://www.w3.org/2000/svg">
<path opacity="0.1" d="M486 88.4C486 69.6624 478.557 51.6923 465.307 38.4429C452.058 25.1935 434.088 17.75 415.35 17.75C396.612 17.75 378.642 25.1935 365.393 38.4429C352.143 51.6923 344.7 69.6624 344.7 88.4C344.7 107.138 352.143 125.108 365.393 138.357C378.642 151.607 396.612 159.05 415.35 159.05C434.088 159.05 452.058 151.607 465.307 138.357C478.557 125.108 486 107.138 486 88.4V88.4Z" fill="#FF383D"/>
<path d="M362.6 84.9H365.2V90.7H371.4V85H374V99H371.4V93H365.2V99H362.6V84.9ZM379.6 87.2V90.8H385.4V93H379.6V96.6H386.1V99H377.1V84.9H386.1V87.2H379.6ZM392.6 84.9H395.3L400.5 99H397.8L396.7 95.8H391.3L390.1 99H387.4L392.7 84.9H392.6ZM395.9 93.7L395 91.2L394.3 89.1L394 88.1C393.718 89.1165 393.385 90.1178 393 91.1L392 93.7H395.9ZM407.6 84.9C408.9 84.9 410.2 85.2 411.2 85.8C412.3 86.4 413.2 87.2 413.8 88.3C414.4 89.4 414.7 90.6 414.7 92C414.7 93.3 414.4 94.6 413.7 95.6C413.2 96.6 412.3 97.6 411.3 98.1C410.2 98.7 409 99 407.6 99H402.3V84.9H407.6V84.9ZM407.3 96.6C408.3 96.6 409.1 96.5 409.8 96.1C410.491 95.705 411.048 95.1132 411.4 94.4C411.798 93.6629 412.004 92.8376 412 92C412 91 411.8 90.2 411.4 89.5C411.048 88.7868 410.491 88.195 409.8 87.8C409.1 87.4 408.3 87.2 407.3 87.2H404.9V96.6H407.3V96.6ZM420.3 84.9H422.9L428.1 99H425.4L424.2 95.8H418.8L417.7 99H415L420.3 84.9V84.9ZM423.5 93.7L422.5 91.2L421.9 89.1L421.6 88.1L421.2 89.4C420.976 90.0038 420.743 90.6039 420.5 91.2L419.5 93.7H423.5V93.7ZM435.7 99.3C434.3 99.3 433.1 99 431.9 98.3C430.9 97.8 430 96.9 429.4 95.8C428.8 94.7 428.4 93.4 428.4 91.9C428.4 90.5 428.8 89.2 429.4 88.1C430 87 430.8 86.1 431.9 85.5C433 84.9 434.3 84.6 435.7 84.6C436.9 84.6 438 84.8 439 85.2C440 85.6 440.7 86.2 441.4 87C442 87.7 442.4 88.6 442.6 89.6H439.7C439.5 88.8 439 88.2 438.3 87.7C437.6 87.2 436.7 87 435.7 87C434.7 87 434 87.2 433.3 87.6C432.594 88.0214 432.036 88.6499 431.7 89.4C431.3 90.1 431.2 91 431.2 92C431.2 93 431.3 93.8 431.7 94.6C432.052 95.3132 432.61 95.905 433.3 96.3C434 96.7 434.8 96.9 435.7 96.9C436.7 96.9 437.5 96.6 438.3 96.2C439 95.7 439.5 95.1 439.7 94.2H442.6C442.4 95.2 442 96.2 441.4 96.9C440.8 97.7 440 98.2 439 98.7C438 99.1 437 99.3 435.7 99.3V99.3ZM444.9 84.9H447.5V90.7H453.8V85H456.3V99H453.8V93H447.5V99H444.9V84.9ZM461.9 87.2V90.8H467.8V93H462V96.6H468.4V99H459.4V84.9H468.4V87.2H462H461.9Z" fill="#FF383D"/>
<path d="M415.9 1.70001C392.481 1.70001 370.022 11.003 353.463 27.5625C336.903 44.1219 327.6 66.5814 327.6 90C327.6 113.419 336.903 135.878 353.463 152.438C370.022 168.997 392.481 178.3 415.9 178.3V221.9" stroke="#FFD6D7" stroke-width="2.4" stroke-miterlimit="10"/>
<path d="M423.1 224C423.22 222.976 423.123 221.939 422.813 220.956C422.504 219.973 421.99 219.066 421.305 218.296C420.62 217.526 419.78 216.91 418.84 216.487C417.9 216.065 416.881 215.847 415.85 215.847C414.819 215.847 413.8 216.065 412.86 216.487C411.92 216.91 411.08 217.526 410.395 218.296C409.71 219.066 409.196 219.973 408.887 220.956C408.577 221.939 408.48 222.976 408.6 224C408.809 225.776 409.663 227.414 410.999 228.602C412.335 229.791 414.062 230.447 415.85 230.447C417.638 230.447 419.364 229.791 420.701 228.602C422.037 227.414 422.891 225.776 423.1 224Z" fill="#F2AEB0"/>
<path d="M301.8 96.9H175.6C169.472 96.8806 163.568 99.2062 159.1 103.4L130.6 130.3C126.132 134.494 120.228 136.819 114.1 136.8H0.0999756" stroke="#FFB2B1" stroke-width="5" stroke-linejoin="round"/>
<path d="M306 96.1C306 98.5267 305.036 100.854 303.32 102.57C301.604 104.286 299.277 105.25 296.85 105.25C294.423 105.25 292.096 104.286 290.38 102.57C288.664 100.854 287.7 98.5267 287.7 96.1C287.7 93.6865 288.659 91.3719 290.365 89.6653C292.072 87.9587 294.387 87 296.8 87C299.213 87 301.528 87.9587 303.235 89.6653C304.941 91.3719 305.9 93.6865 305.9 96.1H306Z" fill="#FF383D"/>
</svg>
