<svg width="584" height="231" viewBox="0 0 584 231" fill="none" xmlns="http://www.w3.org/2000/svg">
<path d="M0.799988 3H169.6C173.926 3.00354 178.171 4.17635 181.885 6.39435C185.599 8.61235 188.645 11.7931 190.7 15.6L221.9 73.4C223.963 77.2219 227.024 80.4124 230.758 82.6313C234.491 84.8503 238.757 86.0145 243.1 86H325.8" stroke="#FFB2B1" stroke-width="5" stroke-linejoin="round"/>
<path d="M330 85.9C330 88.3267 329.036 90.6541 327.32 92.37C325.604 94.086 323.277 95.05 320.85 95.05C318.423 95.05 316.096 94.086 314.38 92.37C312.664 90.6541 311.7 88.3267 311.7 85.9C311.7 83.4865 312.659 81.1719 314.365 79.4653C316.072 77.7588 318.387 76.8 320.8 76.8C323.213 76.8 325.528 77.7588 327.235 79.4653C328.941 81.1719 329.9 83.4865 329.9 85.9H330Z" fill="#FF383D"/>
<path opacity="0.1" d="M355.7 104.4C355.7 85.6624 363.143 67.6923 376.393 54.4429C389.642 41.1935 407.612 33.75 426.35 33.75C445.088 33.75 463.058 41.1935 476.307 54.4429C489.557 67.6923 497 85.6624 497 104.4C497 123.138 489.557 141.108 476.307 154.357C463.058 167.607 445.088 175.05 426.35 175.05C407.612 175.05 389.642 167.607 376.393 154.357C363.143 141.108 355.7 123.138 355.7 104.4V104.4Z" fill="#FF383D"/>
<path d="M392.7 84.9H398.3C400 84.9 401.3 85.3 402.3 86C402.756 86.4131 403.11 86.9257 403.336 87.498C403.561 88.0704 403.652 88.687 403.6 89.3C403.6 90.3 403.3 91.1 402.9 91.8C402.4 92.5 401.8 93 400.9 93.3L403.7 99H400.7L398.4 93.7H395.3V99H392.7V84.9ZM398.3 91.5C399.2 91.5 399.8 91.3 400.3 90.9C400.7 90.5 400.9 89.9 400.9 89.3C400.897 89.0145 400.833 88.7329 400.713 88.4742C400.592 88.2155 400.417 87.9856 400.2 87.8C399.8 87.4 399.2 87.2 398.3 87.2H395.3V91.5H398.3V91.5ZM405.9 84.9H408.5V93.9C408.5 94.9 408.8 95.7 409.5 96.2C410 96.7 410.8 96.9 411.8 96.9C412.8 96.9 413.6 96.7 414.2 96.1C414.8 95.6 415.1 94.8 415.1 93.8V85H417.7V94C417.7 95.2 417.4 96.2 416.9 97C416.4 97.8 415.7 98.4 414.9 98.8C413.9 99.2 412.9 99.4 411.8 99.4C410.6 99.4 409.6 99.2 408.8 98.8C407.8 98.4 407.2 97.8 406.7 97C406.2 96.1 405.9 95.2 405.9 94V85V84.9ZM432.2 84.9V99H429.8L423.3 89.3V99H420.7V84.9H423.1L429.6 94.6V84.9H432.2ZM446.8 84.9V99H444.4L437.9 89.3V99H435.3V84.9H437.8L444.3 94.6V84.9H446.8ZM451.6 84.9L453.3 87.8L454.3 89.8L454.9 90.8L455.5 89.8L456.7 87.8L458.3 84.9H461.2L456.2 93.4V99H453.6V93.4L448.6 84.9H451.6ZM411.8 113.9V128H409.3L402.8 118.3V128H400.3V113.9H402.7L409.2 123.6V113.9H411.7H411.8ZM429 120.9C429 122.4 428.7 123.6 428 124.7C427.4 125.9 426.5 126.7 425.4 127.4C424.2 128 423 128.3 421.5 128.3C420.1 128.3 418.9 128 417.7 127.3C416.7 126.7 415.7 125.9 415.1 124.8C414.5 123.6 414.1 122.4 414.1 121C414.1 119.5 414.5 118.3 415.1 117.2C415.7 116 416.6 115.2 417.7 114.6C418.9 113.9 420.2 113.6 421.6 113.6C423 113.6 424.3 113.9 425.4 114.6C426.5 115.2 427.4 116 428 117.1C428.7 118.3 429 119.5 429 120.9V120.9ZM426.3 120.9C426.3 119.9 426.1 119.1 425.7 118.4C425.3 117.6 424.7 117.1 424 116.6C423.3 116.2 422.5 116 421.6 116C420.6 116 419.8 116.2 419.1 116.6C418.4 117.1 417.8 117.6 417.4 118.4C417 119.1 416.8 120 416.8 121C416.8 122 417 122.8 417.4 123.5C417.799 124.258 418.406 124.887 419.15 125.312C419.894 125.738 420.744 125.941 421.6 125.9C422.5 125.9 423.3 125.7 424 125.3C424.7 124.8 425.3 124.3 425.7 123.5C426.1 122.8 426.3 121.9 426.3 120.9V120.9ZM430.8 117.9C430.787 117.102 431.007 116.317 431.433 115.642C431.859 114.967 432.473 114.431 433.2 114.1C434 113.8 434.9 113.6 435.9 113.6C436.9 113.6 437.7 113.8 438.5 114.1C439.3 114.5 439.9 115 440.3 115.6C440.7 116.2 441 117 441 117.8H438.3C438.3 117.2 438 116.8 437.6 116.3C437.1 116 436.6 115.8 435.8 115.8C435.1 115.8 434.5 116 434.1 116.3C433.7 116.6 433.5 117.1 433.5 117.6C433.5 118.1 433.7 118.6 434 118.8L435.5 119.4L437.8 119.9C438.8 120.2 439.7 120.7 440.3 121.3C441 122 441.3 122.9 441.3 123.9C441.338 124.71 441.128 125.512 440.7 126.2C440.2 126.9 439.6 127.4 438.7 127.8C438 128.1 437.1 128.3 436 128.3C434.4 128.3 433.1 127.9 432.1 127.1C431.1 126.4 430.6 125.3 430.5 124H433.2C433.2 124.7 433.5 125.2 434 125.6C434.5 125.9 435.2 126.1 436 126.1C436.705 126.175 437.413 125.998 438 125.6C438.4 125.2 438.6 124.8 438.6 124.2C438.6 123.7 438.5 123.2 438.1 123C437.8 122.7 437.4 122.5 436.9 122.4L434.5 121.8C433.3 121.6 432.5 121.1 431.8 120.4C431.2 119.8 430.8 118.9 430.8 117.9V117.9ZM446.3 116.2V119.8H452V122H446.2V125.6H452.7V128H443.7V113.9H452.7V116.2H446.2H446.3Z" fill="#FF383D"/>
<path d="M431 16.3C454.419 16.3 476.878 25.603 493.438 42.1625C509.997 58.7219 519.3 81.1814 519.3 104.6C519.3 128.019 509.997 150.478 493.438 167.038C476.878 183.597 454.419 192.9 431 192.9V236.5" stroke="#FFD6D7" stroke-width="2.4" stroke-miterlimit="10"/>
<path d="M423.8 238.7C423.68 237.676 423.777 236.639 424.087 235.656C424.396 234.673 424.91 233.766 425.595 232.996C426.28 232.226 427.12 231.61 428.06 231.187C429 230.765 430.019 230.547 431.05 230.547C432.081 230.547 433.1 230.765 434.04 231.187C434.98 231.61 435.82 232.226 436.505 232.996C437.19 233.766 437.704 234.673 438.013 235.656C438.323 236.639 438.42 237.676 438.3 238.7C438.091 240.476 437.237 242.114 435.901 243.302C434.565 244.491 432.838 245.147 431.05 245.147C429.262 245.147 427.535 244.491 426.199 243.302C424.863 242.114 424.009 240.476 423.8 238.7V238.7Z" fill="#F2AEB0"/>
</svg>
