<svg width="584" height="231" viewBox="0 0 584 231" fill="none" xmlns="http://www.w3.org/2000/svg">
<path opacity="0.1" d="M435 88.4C435 69.6625 427.557 51.6924 414.307 38.4429C401.058 25.1935 383.088 17.75 364.35 17.75C345.612 17.75 327.642 25.1935 314.393 38.4429C301.143 51.6924 293.7 69.6625 293.7 88.4C293.7 107.138 301.143 125.108 314.393 138.357C327.642 151.607 345.612 159.05 364.35 159.05C383.088 159.05 401.058 151.607 414.307 138.357C427.557 125.108 435 107.138 435 88.4V88.4Z" fill="#FF383D"/>
<path d="M320.7 71.9C320.7 71 320.9 70.3 321.3 69.6C321.8 69 322.3 68.5 323.1 68.1C323.9 67.8 324.8 67.6 325.8 67.6C326.8 67.6 327.6 67.8 328.4 68.1C329.1 68.5 329.7 69 330.2 69.6C330.6 70.2 330.8 71 330.8 71.8H328.2C328.2 71.2 327.9 70.8 327.4 70.3C327 70 326.4 69.8 325.6 69.8C324.9 69.8 324.4 70 324 70.3C323.6 70.6 323.4 71.1 323.4 71.6C323.4 72.1 323.5 72.6 323.9 72.8L325.3 73.4L327.7 73.9C328.7 74.2 329.6 74.7 330.2 75.3C330.9 76 331.2 76.9 331.2 77.9C331.208 78.7203 330.964 79.5233 330.5 80.2C330.1 80.9 329.5 81.4 328.7 81.8C327.8 82.1 326.9 82.3 325.8 82.3C324.3 82.3 323 81.9 322 81.1C321 80.4 320.5 79.3 320.4 78H323C323 78.7 323.3 79.2 323.8 79.6C324.4 79.9 325.1 80.1 325.8 80.1C326.7 80.1 327.3 79.9 327.8 79.6C328.3 79.2 328.5 78.8 328.5 78.2C328.5 77.7 328.3 77.2 328 77C327.7 76.7 327.2 76.5 326.7 76.4L324.4 75.8C323.2 75.6 322.4 75.1 321.7 74.4C321 73.8 320.7 72.9 320.7 71.9V71.9ZM333.5 67.9H336.1V73.8H342.4V67.9H344.9V82H342.4V76H336.1V82H333.5V67.9ZM351.9 67.9H354.5L359.7 82H357L355.8 78.8H350.5L349.3 82H346.6L351.9 67.9V67.9ZM355.1 76.7L354.2 74.2L353.5 72.1L353.2 71.1C352.918 72.1165 352.585 73.1178 352.2 74.1L351.2 76.6H355.1V76.7ZM368.2 74L373.1 82H370L366.5 76.1L364.1 79.1V82.1H361.5V67.9H364.1V75.1L369.9 67.9H373.1L368.2 73.9V74ZM375 82V67.9H377.5V82H375V82ZM392 67.9V82H389.6L383.1 72.3V82H380.6V67.9H383L389.5 77.6V67.9H392V67.9ZM408.6 74.3V75.7C408.664 76.8936 408.376 78.0795 407.771 79.1107C407.167 80.1418 406.273 80.9727 405.2 81.5C404.2 82 402.9 82.3 401.5 82.3C400.1 82.3 398.9 82 397.8 81.3C396.8 80.8 395.8 79.9 395.3 78.9C394.666 77.7004 394.356 76.3562 394.4 75C394.412 73.6699 394.756 72.3638 395.4 71.2C395.9 70 396.8 69.2 397.9 68.6C398.9 67.9 400.2 67.6 401.7 67.6C402.8 67.6 403.8 67.8 404.7 68.2C405.7 68.6 406.5 69.2 407.1 69.9C407.7 70.6 408.1 71.5 408.3 72.4H405.6C405.3 71.6 404.8 71.1 404.1 70.6C403.4 70.2 402.6 70 401.6 70C400.2 70 399.1 70.4 398.3 71.4C397.5 72.3 397.1 73.5 397.1 75C397.011 76.3111 397.443 77.6043 398.3 78.6C399.1 79.5 400.3 79.9 401.6 79.9C402.8 79.9 403.7 79.6 404.5 79C405.3 78.4 405.7 77.6 405.9 76.5H401.4V74.3H408.6ZM338 111.3C336.6 111.3 335.3 111 334.2 110.3C333.1 109.8 332.2 108.9 331.6 107.8C331 106.7 330.7 105.4 330.7 103.9C330.7 102.5 331 101.2 331.7 100.1C332.2 99 333.1 98.1 334.2 97.5C335.2 96.9 336.5 96.6 338 96.6C339.1 96.6 340.2 96.8 341.2 97.2C342.2 97.6 343 98.2 343.6 99C344.3 99.7 344.6 100.6 344.8 101.6H342C341.7 100.8 341.3 100.2 340.5 99.7C339.8 99.2 339 99 338 99C337 99 336.2 99.2 335.5 99.6C334.832 100.037 334.309 100.664 334 101.4C333.6 102.1 333.4 103 333.4 104C333.4 105 333.6 105.8 334 106.6C334.352 107.313 334.909 107.905 335.6 108.3C336.3 108.7 337.1 108.9 338 108.9C339 108.9 339.8 108.6 340.5 108.2C341.3 107.7 341.7 107.1 342 106.2H344.8C344.7 107.2 344.3 108.2 343.6 108.9C343 109.7 342.2 110.2 341.2 110.7C340.2 111.1 339.2 111.3 338 111.3V111.3ZM347.2 96.9H349.7V102.8H356V96.9H358.6V111H356V105H349.7V111H347.2V96.9V96.9ZM361.6 111V96.9H364.2V111H361.6V111ZM375.6 108.7V111H367.2V96.9H369.8V108.7H375.7H375.6ZM386.2 108.7V111H377.7V96.9H380.3V108.7H386.2V108.7ZM387.8 100.9C387.8 100 388.1 99.3 388.5 98.6C388.9 98 389.5 97.5 390.3 97.1C391 96.8 391.9 96.6 392.9 96.6C393.9 96.6 394.7 96.8 395.5 97.1C396.3 97.5 396.9 98 397.3 98.6C397.7 99.2 398 100 398 100.8H395.3C395.3 100.2 395 99.8 394.6 99.3C394.1 99 393.6 98.8 392.8 98.8C392.1 98.8 391.5 99 391.1 99.3C390.7 99.6 390.5 100.1 390.5 100.6C390.5 101.1 390.7 101.6 391 101.8L392.5 102.4L394.8 102.9C395.8 103.2 396.7 103.7 397.3 104.3C398 105 398.3 105.9 398.3 106.9C398.338 107.71 398.128 108.512 397.7 109.2C397.2 109.9 396.6 110.4 395.7 110.8C395 111.1 394.1 111.3 393 111.3C391.4 111.3 390.1 110.9 389.1 110.1C388.1 109.4 387.6 108.3 387.5 107H390.2C390.2 107.7 390.5 108.2 391 108.6C391.5 108.9 392.2 109.1 393 109.1C393.705 109.175 394.413 108.998 395 108.6C395.4 108.2 395.6 107.8 395.6 107.2C395.6 106.7 395.5 106.2 395.1 106C394.8 105.7 394.4 105.5 393.9 105.4L391.5 104.8C390.3 104.6 389.5 104.1 388.8 103.4C388.2 102.8 387.8 101.9 387.8 100.9V100.9Z" fill="#FA5652"/>
<path d="M364.9 1.79999C341.481 1.79999 319.022 11.103 302.463 27.6625C285.903 44.2219 276.6 66.6814 276.6 90.1C276.6 113.519 285.903 135.978 302.463 152.538C319.022 169.097 341.481 178.4 364.9 178.4V222" stroke="#FFD6D7" stroke-width="2.4" stroke-miterlimit="10"/>
<path d="M372.1 224.2C372.22 223.176 372.123 222.139 371.813 221.156C371.504 220.173 370.99 219.266 370.305 218.496C369.62 217.726 368.78 217.11 367.84 216.687C366.9 216.265 365.881 216.047 364.85 216.047C363.819 216.047 362.8 216.265 361.86 216.687C360.92 217.11 360.08 217.726 359.395 218.496C358.71 219.266 358.196 220.173 357.887 221.156C357.577 222.139 357.48 223.176 357.6 224.2C357.809 225.976 358.663 227.614 359.999 228.802C361.335 229.991 363.062 230.647 364.85 230.647C366.638 230.647 368.364 229.991 369.701 228.802C371.037 227.614 371.891 225.976 372.1 224.2Z" fill="#F2AEB0"/>
<path d="M0.700012 142.4H91.8C95.4087 142.41 98.9731 141.606 102.228 140.047C105.483 138.489 108.345 136.217 110.6 133.4L136.1 101.6C138.345 98.7961 141.19 96.5319 144.427 94.9742C147.663 93.4166 151.208 92.6052 154.8 92.6H249" stroke="#FFA6A6" stroke-width="5" stroke-linejoin="round"/>
<path d="M255 92C255 94.4267 254.036 96.7541 252.32 98.47C250.604 100.186 248.277 101.15 245.85 101.15C243.423 101.15 241.096 100.186 239.38 98.47C237.664 96.7541 236.7 94.4267 236.7 92C236.7 89.5865 237.659 87.2719 239.365 85.5653C241.072 83.8587 243.387 82.9 245.8 82.9C248.213 82.9 250.528 83.8587 252.235 85.5653C253.941 87.2719 254.9 89.5865 254.9 92H255Z" fill="#FF383D"/>
</svg>
