<svg width="584" height="231" viewBox="0 0 584 231" fill="none" xmlns="http://www.w3.org/2000/svg">
<path opacity="0.1" d="M159.3 90.4C159.3 81.1221 157.473 71.9351 153.922 63.3634C150.372 54.7917 145.168 47.0034 138.607 40.4429C132.047 33.8824 124.258 28.6784 115.687 25.1279C107.115 21.5774 97.9279 19.75 88.65 19.75C79.3721 19.75 70.1851 21.5774 61.6134 25.1279C53.0418 28.6784 45.2534 33.8824 38.6929 40.4429C32.1324 47.0034 26.9284 54.7917 23.3779 63.3634C19.8274 71.9351 18 81.1221 18 90.4C18 109.138 25.4435 127.108 38.6929 140.357C51.9424 153.607 69.9125 161.05 88.65 161.05C107.388 161.05 125.358 153.607 138.607 140.357C151.857 127.108 159.3 109.138 159.3 90.4V90.4Z" fill="#FF383D"/>
<path d="M58.2 76.2H53.9V88H51.4V76.2H47V74H58.1V76.3L58.2 76.2ZM60.2 73.9H62.7V79.8H68.9V73.9H71.5V88H69V82H62.8V88H60V73.9H60.2ZM74.6 73.9H80.2C81.9 73.9 83.2 74.3 84.1 75C84.5558 75.4131 84.9103 75.9257 85.1358 76.498C85.3612 77.0704 85.4517 77.687 85.4 78.3C85.4 79.3 85.2 80.1 84.7 80.8C84.3 81.5 83.7 82 82.8 82.3L85.5 88H82.6L80.3 82.7H77.2V88H74.6V73.9ZM80.2 80.5C81 80.5 81.6 80.3 82.1 79.9C82.5 79.5 82.7 78.9 82.7 78.3C82.7098 78.022 82.6615 77.745 82.5582 77.4867C82.4549 77.2284 82.2988 76.9945 82.1 76.8C81.6 76.4 81 76.2 80.1 76.2H77.1V80.5H80.1H80.2ZM101.9 80.9C101.9 82.4 101.5 83.6 100.9 84.7C100.3 85.9 99.4 86.7 98.2 87.4C97.1 88 95.8 88.3 94.4 88.3C93 88.3 91.7 88 90.6 87.3C89.5 86.7 88.6 85.9 88 84.8C87.3 83.6 87 82.4 87 81C87 79.5 87.3 78.3 88 77.2C88.6 76 89.5 75.2 90.6 74.6C91.7 73.9 93 73.6 94.4 73.6C95.8 73.6 97.1 73.9 98.2 74.6C99.4 75.2 100.2 76 100.9 77.1C101.5 78.3 101.9 79.5 101.9 80.9V80.9ZM99.1 80.9C99.1 79.9 98.9 79.1 98.5 78.4C98.1 77.6 97.5 77.1 96.9 76.6C96.1 76.2 95.3 76 94.4 76C93.5586 75.9657 92.725 76.1737 91.9983 76.5991C91.2715 77.0245 90.6821 77.6495 90.3 78.4C89.9 79.1 89.7 80 89.7 81C89.7 82 89.9 82.8 90.3 83.5C90.7 84.3 91.3 84.8 92 85.3C92.7 85.7 93.5 85.9 94.4 85.9C95.4 85.9 96.1 85.7 96.9 85.3C97.6 84.8 98.1 84.3 98.5 83.5C98.9 82.8 99.1 81.9 99.1 80.9V80.9ZM107.5 73.9H110.1L115.3 88H112.6L111.4 84.8H106L105 88H102.3L107.6 73.9H107.5ZM110.7 82.7L109.7 80.2L109.1 78.1L108.8 77.1C108.512 78.1144 108.178 79.1154 107.8 80.1L106.8 82.6H110.7V82.7ZM125.7 76.2H121.4V88H119V76.2H114.7V74H125.8V76.3L125.7 76.2ZM73.7 102.9C75.2 102.9 76.3 103.3 77.2 104.2C78 105 78.5 106.2 78.5 107.5C78.5042 108.338 78.2979 109.163 77.9 109.9C77.5211 110.628 76.9276 111.221 76.2 111.6C75.5 112 74.6 112.2 73.6 112.2H70.5V117H67.9V102.9H73.7V102.9ZM73.2 109.9C74 109.9 74.7 109.7 75.1 109.2C75.5 108.8 75.8 108.2 75.8 107.5C75.8 106.8 75.5 106.3 75.1 105.8C74.7 105.4 74.1 105.2 73.2 105.2H70.5V109.9H73.2ZM83.4 102.9H86L91.2 117H88.5L87.4 113.8H82L80.8 117H78L83.3 102.9H83.4ZM86.6 111.7L85.7 109.2L85 107.1L84.7 106.1C84.4128 107.115 84.0791 108.116 83.7 109.1L82.7 111.6H86.7L86.6 111.7ZM93 117V102.9H95.6V117H93ZM110.1 102.9V117H107.7L101.2 107.3V117H98.6V102.9H101.1L107.6 112.6V102.9H110.1Z" fill="#FF383D"/>
<path d="M90 2C66.5814 2 44.1219 11.303 27.5625 27.8625C11.003 44.4219 1.70001 66.8814 1.70001 90.3C1.70001 113.719 11.003 136.178 27.5625 152.738C44.1219 169.297 66.5814 178.6 90 178.6V222.3" stroke="#FFD6D7" stroke-width="2.4" stroke-miterlimit="10"/>
<path d="M97.4 224.5C97.5204 223.476 97.4227 222.439 97.1134 221.456C96.804 220.473 96.29 219.566 95.6051 218.796C94.9202 218.026 94.08 217.41 93.1398 216.987C92.1996 216.565 91.1806 216.347 90.15 216.347C89.1194 216.347 88.1004 216.565 87.1602 216.987C86.22 217.41 85.3798 218.026 84.6949 218.796C84.01 219.566 83.496 220.473 83.1866 221.456C82.8773 222.439 82.7796 223.476 82.9 224.5C83.109 226.276 83.9626 227.914 85.299 229.102C86.6355 230.291 88.3616 230.947 90.15 230.947C91.9384 230.947 93.6645 230.291 95.001 229.102C96.3374 227.914 97.1911 226.276 97.4 224.5V224.5Z" fill="#F2AEB0"/>
<path d="M190.5 105H393.8C397.459 105.016 401.073 104.196 404.366 102.601C407.659 101.007 410.544 98.6803 412.8 95.8L455.5 40.6C457.746 37.7013 460.626 35.3559 463.92 33.7437C467.214 32.1316 470.833 31.2956 474.5 31.3H631.7" stroke="#FFB2B1" stroke-width="5" stroke-linejoin="round"/>
<path d="M200.8 105.6C200.8 108.027 199.836 110.354 198.12 112.07C196.404 113.786 194.077 114.75 191.65 114.75C189.223 114.75 186.896 113.786 185.18 112.07C183.464 110.354 182.5 108.027 182.5 105.6C182.5 103.173 183.464 100.846 185.18 99.13C186.896 97.414 189.223 96.45 191.65 96.45C194.077 96.45 196.404 97.414 198.12 99.13C199.836 100.846 200.8 103.173 200.8 105.6V105.6Z" fill="#FF383D"/>
</svg>
